<?xml version="1.0" encoding="UTF-8" standalone="no"?><!DOCTYPE svg PUBLIC "-//W3C//DTD SVG 1.1//EN" "http://www.w3.org/Graphics/SVG/1.1/DTD/svg11.dtd"><svg width="100%" height="100%" viewBox="0 0 5400 3000" version="1.1" xmlns="http://www.w3.org/2000/svg" xmlns:xlink="http://www.w3.org/1999/xlink" xml:space="preserve" xmlns:serif="http://www.serif.com/" style="fill-rule:evenodd;clip-rule:evenodd;stroke-linecap:round;stroke-linejoin:round;stroke-miterlimit:1.5;"><g><path d="M5337.91,1500c-0,-111.734 -90.714,-202.448 -202.448,-202.448l-4870.92,0c-111.734,0 -202.448,90.714 -202.448,202.448c0,111.734 90.714,202.448 202.448,202.448l4870.92,-0c111.734,-0 202.448,-90.714 202.448,-202.448Z" style="stroke:#000;stroke-width:66.67px;"/><g><g><path d="M2143.7,1702.45c2.329,20.416 -3.884,35.416 -18.251,45c-37.667,24.583 -67.567,57.083 -93.196,95.416c-21.357,32.084 -39.996,33.334 -71.449,12.084c-6.99,-5 -14.368,-9.584 -22.134,-12.917c-41.162,-17.5 -70.285,7.083 -64.461,54.167c3.495,29.583 10.485,58.75 12.815,88.333c2.33,26.25 -12.038,37.5 -33.783,29.583c-15.145,-5.416 -17.863,-19.166 -17.475,-33.333c0.777,-16.667 4.272,-32.917 4.66,-49.583c0.388,-16.25 1.942,-34.584 -3.883,-48.75c-4.66,-11.25 -19.027,-23.334 -29.512,-23.75c-8.931,-0.417 -24.852,14.166 -26.405,24.166c-5.048,33.75 -8.543,68.75 -6.213,102.917c3.883,58.75 13.979,117.083 18.639,175.833c2.718,33.334 2.718,68.334 -2.33,101.25c-4.66,31.25 -39.22,39.584 -58.247,16.25c-6.213,-7.5 -11.65,-18.333 -11.65,-27.916c-0.388,-37.917 0.389,-75.834 2.719,-113.75c3.883,-72.084 10.484,-143.75 13.202,-215.834c1.165,-35.416 -10.096,-68.333 -33.395,-95.416c-19.415,-22.084 -35.336,-23.75 -56.694,-5c-11.649,10.416 -23.299,10 -36.113,2.916c-15.921,-8.75 -31.842,-19.166 -48.151,-26.25c-26.794,-12.083 -47.374,-5.833 -60.965,21.667c-9.708,19.167 -16.309,40.833 -20.969,62.083c-9.708,43.334 -26.017,65.834 -54.364,70c-36.113,5.834 -68.732,-13.75 -86.983,-51.666c-8.931,-18.334 -17.085,-37.5 -27.958,-54.584c-14.756,-24.166 -31.065,-27.5 -55.141,-14.583c-5.825,2.917 -11.261,6.667 -17.086,10c-38.054,19.583 -64.46,12.5 -89.7,-24.167c-5.048,-7.083 -9.32,-15 -14.756,-21.666c-12.426,-15 -27.959,-23.75 -46.598,-16.667c-19.027,7.083 -26.405,25 -25.629,44.583c1.165,25.417 5.437,50.834 8.932,76.25c2.718,20.417 6.213,41.25 7.766,61.667c1.165,12.083 -0,25 -1.942,37.083c-2.718,16.667 -12.814,27.084 -29.512,27.084c-16.697,-0 -28.735,-9.584 -28.735,-27.084c-0.776,-32.916 1.942,-66.25 2.718,-99.166c0.777,-27.084 3.884,-54.167 1.942,-80.834c-1.942,-27.5 -17.474,-47.916 -43.103,-55.833c-24.852,-7.917 -45.821,0.833 -63.683,20c-4.272,4.583 -7.767,9.167 -12.038,13.75c-22.522,26.25 -50.093,27.083 -74.168,1.667c-8.155,-8.75 -15.144,-19.167 -24.076,-27.084c-19.415,-17.916 -41.549,-12.916 -53.587,10.834c-11.65,23.333 -10.485,47.5 -4.66,72.916c5.825,25.417 11.65,51.25 13.203,77.5c1.553,26.25 -15.533,38.75 -38.055,32.5c-15.921,-4.583 -21.746,-17.916 -21.746,-32.916c0.389,-21.25 2.719,-42.917 6.213,-63.75c5.437,-35.417 1.942,-67.917 -23.687,-94.167c-29.512,-29.583 -62.518,-21.25 -76.886,18.75c-12.038,33.75 -7.766,68.333 -1.942,102.917c5.437,31.25 10.873,62.916 15.533,94.166c1.942,12.084 1.942,25 1.165,37.5c-1.942,23.75 -12.426,35.417 -29.9,36.667c-18.251,0.833 -34.56,-10.833 -36.502,-32.5c-2.718,-28.75 -1.941,-57.917 0,-87.083c1.942,-29.167 9.32,-57.5 11.261,-86.667c1.554,-19.583 2.33,-40.833 -3.106,-59.583c-13.203,-46.667 -66.402,-56.25 -95.914,-19.167c-5.824,7.5 -11.649,15 -18.639,20.833c-25.24,22.5 -53.976,22.5 -73.78,-5c-28.735,-40.833 -65.625,-50.416 -109.892,-43.75c-16.698,2.5 -33.784,4.167 -50.093,2.084c-26.017,-2.917 -65.337,-20 -60.289,-49.584c651.592,-0.416 1334.35,-0.416 1988.66,-0.416Z" style="fill-rule:nonzero;"/><path d="M1357.47,1297.55l-1170.95,0c-13.724,-34.583 24.704,-74.583 77.405,-76.25c26.35,-0.833 55.994,2.917 79.051,12.084c56.544,22.5 99.363,-3.334 109.245,-43.75c1.097,-4.584 1.097,-9.584 1.646,-14.584c1.098,-13.333 1.098,-32.083 23.057,-31.666c13.175,-0 29.644,13.333 38.428,23.75c10.979,12.5 15.371,28.333 24.154,41.666c22.508,33.75 60.936,39.584 98.265,15.417c51.054,-32.917 82.345,-32.083 130.655,2.917c20.86,15 41.172,34.583 75.757,23.333c35.683,-11.25 49.956,-35 48.858,-62.083c-0.549,-20.417 -9.881,-40.417 -14.273,-60.834c-6.039,-28.333 -13.175,-57.083 -14.822,-85.416c-1.098,-17.917 14.273,-31.25 41.172,-32.5c23.606,-0.834 41.722,10.833 41.722,33.75c0.549,30.833 -6.588,62.083 -8.235,92.916c-1.098,20 -2.196,40.417 2.745,59.584c6.588,24.166 32.938,38.333 63.131,38.75c34.585,0.833 58.74,-12.5 57.642,-38.75c-1.098,-28.75 -9.333,-57.5 -15.371,-86.25c-6.039,-27.5 -15.371,-54.167 -19.763,-81.667c-2.196,-14.583 0.549,-30.417 5.49,-45c6.038,-19.167 25.252,-28.333 51.603,-27.5c24.703,0.833 42.27,11.667 43.368,28.75c2.196,33.75 0.549,67.5 -2.745,101.25c-2.196,21.25 -11.528,42.083 -15.92,63.333c-2.745,12.084 -3.843,25 -2.196,37.084c7.137,46.666 65.876,65.833 115.283,37.916c57.093,-31.666 72.464,-27.5 97.167,22.917c8.784,17.5 24.704,33.333 38.428,50.833Z" style="fill-rule:nonzero;"/><g><path d="M1357.47,1297.55c-1.165,-28.75 8.931,-47.5 29.124,-61.666c12.814,-9.167 25.24,-19.167 35.725,-31.25c24.075,-27.917 51.645,-29.167 76.886,-2.084c6.99,7.5 12.814,15.834 19.804,22.917c21.357,21.25 48.151,17.917 57.859,-11.25c6.989,-21.25 6.989,-45.833 6.989,-68.75c0,-17.083 -6.601,-33.75 -7.766,-51.25c-1.165,-15 -1.941,-32.5 18.251,-34.583c13.591,-1.25 22.134,10.833 21.357,32.916c-0.388,15 -3.883,30 -5.048,45.417c-1.165,13.75 -3.106,27.917 -1.942,41.25c3.107,36.667 28.736,62.083 59.413,61.667c34.948,-0.417 61.742,-24.584 63.683,-62.084c1.165,-21.25 -3.495,-42.5 -4.66,-64.166c-1.553,-22.917 -3.106,-45.834 -2.718,-68.334c0,-13.333 3.495,-27.916 20.192,-27.5c16.31,0.417 19.416,14.584 19.028,28.334c-1.165,27.5 -4.272,55.416 -5.825,82.916c-1.165,20 -3.883,40.417 -1.165,60c3.107,26.25 18.639,44.167 43.103,50.834c24.464,6.666 45.821,0.416 62.519,-21.667c6.213,-7.917 12.814,-15.833 20.58,-22.083c23.688,-19.584 52.034,-19.584 69.12,5.833c32.619,48.333 76.498,51.25 124.649,44.167c11.65,-1.667 23.687,-3.334 34.56,-1.25c10.096,2.083 21.746,7.5 27.959,15.833c5.436,7.5 5.436,20.417 4.66,30.833c-0,2.084 -13.591,4.584 -20.581,4.584c-247.745,0.416 -495.877,-0 -743.622,-0c-7.378,0.416 -13.979,0.416 -22.134,0.416Z" style="fill-rule:nonzero;"/><path d="M1880.14,1114.64c-0.388,-29.584 12.426,-45 29.512,-44.167c17.086,0.833 30.677,17.917 27.182,37.917c-2.718,15.416 -8.543,30.416 -15.921,43.75c-6.601,12.083 -18.251,12.083 -24.852,-0c-7.766,-14.167 -12.814,-30 -15.921,-37.5Z" style="fill-rule:nonzero;"/><path d="M1712,949.636c0,-16.25 12.426,-27.917 29.9,-27.5c18.251,0.416 30.289,11.25 29.9,27.5c0,18.75 -15.532,40.833 -28.735,41.666c-13.979,0.834 -30.677,-21.666 -31.065,-41.666Z" style="fill-rule:nonzero;"/></g></g><g><path d="M5235.72,1703.28c-19.266,41.619 -40.192,69.167 -78.247,59.167c-57.082,-15 -87.371,10.833 -85.041,74.166c1.165,29.584 5.825,59.167 8.155,89.167c1.165,14.583 0.777,29.167 -1.165,43.333c-1.942,15 -9.708,25.417 -25.629,25.834c-16.697,0.416 -26.793,-10 -27.57,-25.834c-1.165,-22.083 -0,-44.166 1.941,-66.25c2.33,-24.166 7.767,-47.916 10.873,-72.083c1.165,-9.583 1.165,-19.583 -0.776,-28.75c-6.213,-31.25 -32.619,-42.083 -55.918,-22.083c-9.319,7.916 -15.92,19.583 -23.687,30c-22.134,29.583 -45.433,35.833 -76.886,19.583c-6.601,-3.333 -12.426,-7.5 -19.027,-10.833c-20.193,-10 -34.949,-6.667 -46.986,13.333c-10.485,17.5 -18.639,36.25 -27.959,54.583c-12.426,25.417 -33.007,38.75 -58.635,42.917c-27.571,4.583 -52.423,-13.333 -61.742,-44.583c-5.825,-19.167 -8.932,-39.167 -15.533,-57.917c-14.756,-41.25 -38.055,-50.833 -74.945,-32.083c-8.154,4.166 -15.921,9.166 -23.687,14.166c-16.309,10.834 -31.065,13.75 -46.986,-3.333c-13.203,-14.167 -27.958,-7.083 -39.996,4.167c-23.687,22.5 -35.337,52.916 -34.949,85c0.777,60.833 5.825,121.666 8.932,182.5c1.941,36.666 4.659,73.333 6.213,110c0.388,7.916 -2.33,16.666 -5.048,24.166c-5.825,15.834 -17.863,23.334 -33.784,22.917c-15.144,-0.833 -24.075,-11.667 -26.405,-26.25c-3.107,-19.167 -5.825,-38.75 -4.272,-57.917c4.272,-53.333 12.427,-106.25 16.31,-159.166c2.718,-35.834 3.883,-72.084 1.941,-107.917c-1.553,-27.917 -15.532,-41.667 -31.065,-40.417c-17.474,1.667 -30.677,22.917 -29.123,49.584c1.164,20.833 4.659,41.25 5.436,62.083c0.777,21.667 -8.155,31.25 -25.24,31.25c-15.921,-0 -22.523,-8.75 -20.581,-32.083c1.941,-22.084 6.601,-43.75 10.096,-65.417c8.543,-50.417 -2.718,-75 -46.209,-97.083c-10.873,-5.834 -22.911,-10.417 -32.619,-17.917c-8.543,-6.667 -17.474,-15.417 -22.522,-25c-17.086,-32.917 -9.708,-45.833 24.075,-45.833l966.515,-0c8.154,0.833 35.144,0.833 41.745,0.833Z" style="fill-rule:nonzero;"/><path d="M5236.07,1297.55l-1027.29,0c-6.998,-21.25 0.824,-37.5 14.408,-52.5c14.819,-16.25 29.226,-33.333 42.399,-50.833c23.875,-32.083 48.573,-38.75 84.386,-22.083c3.705,1.666 7.41,3.75 10.703,5.833c30.461,17.083 46.927,12.917 64.627,-17.5c8.645,-15 13.584,-32.5 24.287,-45.417c12.349,-15 26.757,-30.416 44.046,-37.916c37.047,-16.667 71.625,2.083 83.563,42.083c5.763,19.167 9.056,39.167 16.465,57.917c16.054,40 40.753,48.333 78.624,29.166c9.056,-4.583 18.112,-10 27.168,-15c16.465,-9.583 30.873,-11.666 46.515,3.75c14.819,15 30.873,7.917 44.046,-4.166c27.991,-25.417 38.694,-60 37.459,-95.834c-2.058,-64.166 -9.056,-128.333 -13.172,-192.916c-2.059,-31.667 -4.117,-63.75 -2.882,-95.417c1.235,-26.25 16.054,-39.167 36.636,-39.583c19.347,-0.417 33.755,12.083 33.343,39.166c-0.823,53.334 -6.175,106.25 -10.291,159.167c-3.293,42.917 -8.233,85.417 -9.879,128.333c-0.824,15.417 3.293,32.084 9.467,46.25c10.291,23.75 34.99,25.417 47.751,2.917c6.586,-11.25 8.232,-26.25 8.232,-39.583c0,-20 -4.528,-40 -4.528,-60c-0.411,-19.584 10.703,-29.167 27.58,-28.334c18.936,0.834 21.817,15 20.582,29.584c-2.058,20 -6.586,39.583 -9.467,59.583c-3.294,23.75 -10.291,50 13.995,66.667c23.876,16.25 46.104,2.5 66.686,-10.834c30.05,-19.166 46.104,-18.333 67.098,10.417c25.11,34.583 53.513,64.583 90.149,86.667c14.407,8.75 38.524,22.5 37.289,40.416Z" style="fill-rule:nonzero;"/></g><g><path d="M2140.83,1702.45l1328.81,-0c6.213,35.416 -20.969,71.25 -57.859,72.5c-17.862,0.416 -38.055,-3.334 -53.976,-12.5c-39.996,-22.917 -71.449,5 -76.886,43.75c-1.165,8.333 0,17.083 -2.718,24.583c-3.107,8.333 -8.543,21.25 -13.979,21.667c-7.378,0.833 -17.863,-5.834 -23.688,-12.917c-6.213,-7.5 -8.542,-18.333 -12.426,-27.917c-5.048,-11.25 -8.931,-23.333 -14.756,-33.75c-14.367,-24.166 -39.608,-27.916 -60.188,-10.416c-4.66,3.75 -8.543,8.333 -13.203,12.5c-23.299,20.416 -48.928,20.416 -72.615,-0c-8.543,-7.5 -15.921,-16.25 -24.464,-23.75c-23.687,-21.25 -49.315,-16.667 -64.848,12.083c-15.144,27.917 -12.814,57.083 -4.271,86.667c5.436,19.166 11.261,38.333 14.755,57.916c2.33,13.334 2.33,27.917 0.389,41.25c-3.107,22.5 -14.756,32.917 -31.842,31.667c-19.416,-1.667 -27.182,-15.833 -27.959,-33.75c-0.776,-20 0.777,-40 1.942,-60c1.553,-24.167 6.601,-48.333 6.213,-72.5c-0.388,-31.25 -16.309,-51.667 -39.608,-57.5c-28.347,-7.083 -50.869,9.167 -50.093,40.417c0.777,26.666 6.602,53.333 10.485,80c5.048,34.166 11.261,67.916 15.532,102.5c1.165,10 -1.941,20.833 -4.659,30.416c-5.825,18.334 -18.639,25.417 -36.114,24.584c-16.697,-0.834 -28.735,-10.834 -29.9,-27.084c-1.941,-31.666 -1.941,-63.333 0.389,-95c2.718,-31.666 10.096,-62.916 13.979,-94.583c2.718,-20.417 -4.66,-37.917 -18.639,-52.5c-19.028,-19.583 -37.667,-21.667 -59.024,-5.417c-5.436,4.167 -9.708,9.167 -15.144,12.917c-24.852,19.583 -47.375,16.667 -69.12,-7.083c-8.155,-8.75 -17.086,-19.167 -27.182,-22.5c-11.261,-3.75 -28.347,-5 -35.337,1.666c-8.154,7.5 -10.873,25.417 -10.484,38.334c0.388,13.333 7.766,26.25 11.649,39.583c4.272,15 8.155,32.5 -6.213,41.667c-10.873,7.083 -26.794,10.416 -39.22,8.333c-16.697,-3.333 -24.075,-20.417 -23.687,-38.333c0,-12.084 3.107,-24.584 5.825,-36.667c2.33,-10 6.99,-19.583 8.931,-29.583c3.495,-17.5 0.777,-33.75 -16.309,-42.5c-15.533,-7.917 -37.278,-0 -44.656,17.916c-6.213,15.417 -12.038,33.334 -11.65,49.584c1.165,35.833 6.99,71.666 9.708,107.5c1.942,25.833 4.66,52.5 1.165,77.916c-3.495,25.417 -21.745,36.667 -43.879,33.75c-20.969,-2.5 -33.395,-16.666 -33.395,-43.333c-0,-22.5 4.271,-45.417 6.989,-67.917c3.884,-32.916 10.097,-65.833 12.426,-98.75c0.777,-13.75 -3.494,-29.166 -9.319,-41.666c-3.107,-7.084 -13.591,-14.167 -20.969,-14.584c-5.825,-0.416 -12.814,9.167 -17.474,15.834c-4.66,7.083 -6.602,16.666 -10.873,24.166c-13.591,22.084 -38.055,20.834 -49.704,-2.083c-2.33,-4.167 -3.883,-8.75 -5.825,-13.333c-18.639,-45.417 -33.007,-52.917 -77.275,-41.25c-10.484,2.916 -21.357,5.833 -32.23,7.916c-29.123,7.084 -47.762,-6.666 -55.529,-40.416Z" style="fill-rule:nonzero;"/><path d="M3443.35,1297.55l-745.564,0c1.942,-37.083 24.464,-52.916 55.141,-39.583c10.096,4.583 20.581,8.75 31.065,11.667c19.804,5.416 36.502,0.416 51.258,-15.834c21.357,-23.75 41.549,-25.416 67.566,-8.333c27.182,17.917 39.997,11.25 46.986,-22.917c2.718,-13.333 5.437,-27.5 12.038,-39.166c13.203,-24.167 33.007,-25 50.481,-3.334c3.495,4.167 6.213,8.75 9.708,12.917c18.25,20.833 48.151,27.917 71.061,17.083c20.969,-10 32.619,-34.583 29.124,-64.583c-3.495,-33.75 -8.543,-67.5 -12.038,-101.25c-1.165,-10 -1.942,-22.5 1.942,-30.417c4.271,-8.75 14.756,-19.166 22.91,-19.166c7.766,-0 19.804,10 22.911,18.75c4.271,11.25 2.718,25.833 1.553,38.75c-2.33,27.5 -6.601,55 -8.543,82.5c-1.942,27.083 5.436,52.083 21.357,73.75c23.299,31.666 53.199,40 87.759,24.166c1.942,-0.833 3.495,-1.666 5.437,-2.5c45.044,-21.25 44.268,-20.416 79.992,15.834c10.873,10.833 27.182,16.25 41.938,21.666c10.873,3.75 23.299,1.667 34.172,5.834c8.931,3.333 16.698,12.083 24.852,17.916c-1.165,2.5 -2.33,4.167 -3.106,6.25Z" style="fill-rule:nonzero;"/><g><path d="M2140.83,1297.55c0,-17.916 10.485,-26.666 24.464,-29.583c17.863,-3.75 35.725,-5.417 53.588,-7.5c33.783,-3.75 46.597,-23.75 36.889,-58.75c-3.494,-13.333 -8.931,-26.25 -12.037,-39.583c-5.437,-23.75 3.106,-39.167 23.299,-45c20.192,-5.834 41.549,5 45.044,27.083c2.33,15.833 -0.777,32.5 -3.106,48.75c-1.554,10.833 -6.99,20.833 -8.932,31.667c-3.495,17.916 -0.388,33.75 16.698,41.666c15.144,7.084 36.501,0 43.103,-17.5c8.154,-20.833 14.756,-42.916 18.25,-65.416c8.155,-52.917 8.543,-106.25 -1.941,-159.167c-5.048,-25 -5.436,-50.833 -5.825,-76.667c-0.388,-13.75 1.165,-28.75 6.99,-40.416c5.048,-10 15.921,-20 26.017,-22.5c13.979,-3.75 21.746,10 25.24,23.333c10.873,41.667 3.883,82.917 -5.436,123.333c-12.038,52.084 -14.368,104.167 -5.048,156.667c2.718,16.25 8.154,32.5 15.532,46.667c8.932,17.5 23.688,15.833 32.231,-2.084c4.271,-8.75 6.601,-18.333 11.261,-26.25c13.591,-23.333 38.831,-22.5 50.869,1.667c0.776,1.667 1.553,3.75 2.33,5.833c24.852,56.667 32.618,60.417 90.089,45.417c9.319,-2.5 19.027,-5 28.347,-6.667c26.405,-3.75 45.821,12.084 51.257,44.584c-185.614,0.416 -371.228,0.416 -559.173,0.416Z" style="fill-rule:nonzero;"/><path d="M2274.41,1004.64c20.969,-0.417 36.113,12.916 36.501,30.833c0.388,22.083 -19.027,50.417 -34.948,51.25c-15.921,0.833 -35.725,-26.25 -36.502,-49.583c-0.388,-18.75 13.98,-32.5 34.949,-32.5Z" style="fill-rule:nonzero;"/><path d="M2371.49,807.136c0.388,-28.334 13.203,-43.334 29.512,-42.5c16.309,0.833 30.289,16.666 27.57,35.833c-2.33,15.417 -7.378,30.833 -14.756,44.583c-7.766,14.584 -19.415,14.584 -27.182,0.417c-7.766,-14.167 -12.037,-30.417 -15.144,-38.333Z" style="fill-rule:nonzero;"/></g></g><g><path d="M3451.12,1702.45l742.845,-0c0.388,1.666 0.777,3.75 0.388,4.166c-29.9,22.084 -36.113,55.417 -37.666,91.25c-0.388,8.334 -1.553,16.667 -3.883,24.584c-4.66,17.916 -16.698,25.833 -32.23,21.666c-15.533,-4.583 -19.028,-17.083 -17.474,-32.5c0.776,-6.666 2.718,-13.75 3.106,-20.416c1.553,-23.75 -11.261,-40.834 -33.007,-43.334c-22.134,-2.5 -36.113,7.917 -37.278,34.167c-1.165,27.5 3.107,55 4.66,82.917c2.33,33.75 5.436,67.5 6.601,101.25c0.389,14.583 -5.048,28.333 -22.134,27.916c-16.697,-0.416 -22.522,-14.166 -21.745,-28.75c1.165,-35.833 4.66,-71.666 6.601,-107.916c1.553,-24.167 4.272,-48.75 2.33,-72.5c-2.718,-33.75 -31.842,-45.417 -56.694,-24.584c-20.58,17.5 -24.464,40.417 -19.804,67.5c3.495,20.834 6.99,42.5 5.825,63.334c-0.388,7.916 -12.426,19.583 -20.969,21.666c-16.698,4.584 -27.959,-8.333 -26.017,-28.75c2.718,-26.666 8.543,-53.333 11.261,-80c2.718,-30 -10.873,-47.916 -37.667,-53.333c-22.133,-4.167 -41.161,6.667 -46.209,30c-3.495,15.833 -3.106,32.917 -1.553,49.167c4.66,48.75 11.261,97.5 15.921,146.666c1.165,12.084 -0.389,25.834 -5.437,36.667c-3.883,8.75 -13.979,17.5 -22.134,18.75c-5.048,0.833 -16.697,-12.5 -17.085,-20.417c-2.719,-37.916 -3.495,-75.833 -3.107,-113.75c0.388,-24.166 5.436,-48.333 6.213,-72.5c0.388,-15.416 -1.165,-32.083 -5.825,-46.666c-7.766,-23.334 -29.9,-34.584 -51.645,-30c-22.911,5 -39.22,22.5 -38.832,47.5c0.388,21.25 5.048,42.5 9.32,63.333c4.271,20.833 11.261,41.25 14.756,62.5c4.271,25.417 3.494,51.25 -8.932,75c-7.766,15 -19.415,24.167 -36.113,22.917c-16.309,-1.25 -25.629,-11.667 -31.453,-27.084c-12.426,-33.75 -5.825,-66.666 2.718,-100c5.825,-22.083 11.261,-44.166 14.756,-66.666c1.553,-10.417 1.553,-23.75 -3.107,-32.5c-4.659,-8.75 -15.144,-18.334 -24.075,-19.584c-7.766,-0.833 -18.251,7.5 -24.464,15c-6.213,7.5 -7.766,19.167 -12.814,27.917c-12.038,21.25 -34.172,24.583 -50.481,6.667c-8.155,-8.75 -15.533,-19.167 -19.804,-30.417c-10.096,-26.667 -28.347,-43.75 -50.869,-57.5c-11.65,-7.083 -20.969,-17.5 -31.454,-26.25c1.942,-2.5 3.495,-5 4.66,-7.083Z" style="fill-rule:nonzero;"/><path d="M3446.46,1297.14c11.99,-13.75 18.841,-24.584 28.261,-32.084c16.7,-13.333 26.976,-28.75 31.686,-50c2.141,-9.583 11.562,-23.75 19.697,-25c16.272,-2.916 17.984,13.75 20.982,25.834c2.569,9.166 3.853,19.583 8.564,27.5c3.425,5.416 11.561,10.833 17.984,10.833c5.138,0 14.558,-7.083 14.986,-12.083c1.713,-17.5 1.713,-35.417 0,-52.917c-2.141,-22.083 -7.707,-43.75 -10.276,-65.417c-0.857,-7.083 -0,-16.25 3.854,-22.083c5.994,-8.333 16.699,-20.833 22.694,-19.583c8.992,1.666 21.409,13.333 22.694,22.083c2.997,18.75 0.856,38.75 -0.856,57.917c-1.713,15 -7.28,29.583 -8.992,45c-1.713,14.583 1.284,29.583 19.697,31.25c17.984,1.666 28.26,-10.834 29.545,-26.667c1.284,-12.083 -3.854,-24.167 -4.71,-36.667c-1.285,-18.333 -4.282,-37.083 -0.428,-54.583c1.712,-7.917 16.699,-17.917 26.548,-18.333c8.135,-0.417 23.122,10 24.835,17.5c4.282,21.25 4.282,43.75 4.282,65.416c-0,12.5 -4.71,24.584 -5.139,37.084c0,23.333 12.846,40 29.974,42.5c17.556,2.083 35.54,-10.834 38.966,-34.167c2.997,-23.75 1.712,-48.333 -0.857,-72.083c-6.423,-52.917 -16.271,-105.417 -21.838,-158.334c-2.141,-19.166 4.282,-40 8.992,-59.166c3.854,-15.834 13.703,-27.917 32.543,-27.917c19.697,0 32.115,12.917 32.971,29.583c2.141,37.084 2.997,74.584 -0.428,111.667c-4.282,42.917 -15.843,84.583 -20.125,127.5c-2.569,22.083 0.428,45.833 5.994,67.5c5.567,21.25 23.551,27.917 43.676,22.083c22.266,-6.25 27.405,-16.25 26.12,-40c-0.428,-8.333 3.425,-20.416 9.848,-24.583c6.423,-4.583 20.554,-5 26.977,-0.833c5.994,3.75 6.851,16.25 8.992,25c0.856,3.75 -1.285,8.333 -1.713,12.5c-0.857,15.416 6.423,23.75 22.266,24.166c15.415,0.417 26.976,-12.916 24.407,-27.5c-1.713,-7.916 -8.564,-15.416 -8.136,-23.333c0.428,-12.083 2.998,-25.417 8.564,-35.833c2.141,-3.75 20.553,-4.167 24.407,-0.417c7.279,8.333 10.705,20.833 14.131,31.667c1.284,4.583 -2.57,10.416 -3.854,15.833c-2.569,13.75 3.854,22.917 17.556,26.667c13.274,3.75 26.548,0.416 29.973,-12.917c3.426,-13.333 2.998,-28.333 1.285,-42.5c-2.141,-17.917 -8.992,-35 -11.561,-52.917c-1.713,-11.25 -1.713,-24.166 2.141,-35c2.569,-7.5 12.845,-18.333 18.84,-17.916c8.136,0.416 22.266,10 22.266,16.25c1.285,25 -1.713,50.416 -3.425,75.416c-0.857,14.167 -5.995,28.75 -3.854,42.5c2.569,17.917 16.271,22.917 33.827,17.084c43.248,-14.584 72.365,5.416 73.221,52.916c-247.067,-0.416 -493.707,-0.416 -748.054,-0.416Z" style="fill-rule:nonzero;"/></g></g><g><path d="M919.646,1357.54c8.797,-3.456 17.279,-3.142 25.448,0.942c8.168,4.084 13.823,10.368 16.965,18.85c6.284,17.28 11.153,34.952 14.609,53.017c3.456,18.065 5.891,35.659 7.305,52.781c1.413,17.123 2.042,33.381 1.885,48.776c-0.157,15.394 -0.55,28.904 -1.178,40.528c-0.629,11.625 -1.414,21.05 -2.357,28.276c-0.942,7.226 -1.413,11.31 -1.413,12.253c-0.943,7.226 -3.928,13.352 -8.954,18.379c-5.027,5.027 -11.154,8.168 -18.38,9.425c-7.226,1.257 -13.98,0.236 -20.264,-3.063c-6.283,-3.299 -11.153,-8.09 -14.609,-14.374c-8.168,-15.708 -16.808,-31.81 -25.919,-48.304c-9.111,-16.494 -18.222,-32.438 -27.333,-47.833c-9.111,-15.394 -17.908,-29.925 -26.391,-43.591c-8.483,-13.667 -16.337,-25.684 -23.563,-36.052c-0.628,12.567 -0.785,26.234 -0.471,41c0.314,14.766 0.864,29.375 1.649,43.827c0.786,14.452 1.807,28.197 3.063,41.235c1.257,13.039 2.671,24.113 4.242,33.224c1.571,9.111 -0.314,17.358 -5.655,24.741c-5.341,7.384 -12.567,11.861 -21.678,13.431c-0.943,0 -1.885,0.079 -2.828,0.236c-0.942,0.157 -1.728,0.236 -2.356,0.236c-8.169,-0 -15.316,-2.592 -21.442,-7.776c-6.127,-5.184 -9.818,-11.86 -11.075,-20.029c-0.628,-4.398 -1.571,-11.938 -2.828,-22.62c-1.256,-10.682 -2.435,-23.249 -3.534,-37.701c-1.1,-14.452 -2.042,-30.082 -2.828,-46.89c-0.785,-16.809 -1.021,-33.381 -0.707,-49.718c0.315,-16.337 1.414,-31.81 3.299,-46.42c1.885,-14.609 4.713,-27.097 8.483,-37.465c2.828,-7.854 7.304,-14.138 13.431,-18.85c6.126,-4.713 13.274,-7.383 21.442,-8.012c6.598,-0.314 13.353,1.021 20.264,4.006c6.912,2.985 14.845,9.033 23.799,18.144c8.954,9.111 19.4,22.149 31.339,39.114c11.938,16.966 26.076,39.115 42.413,66.448c0.629,1.571 1.336,2.906 2.121,4.006c0.785,1.099 1.492,2.277 2.121,3.534c-1.257,-14.138 -3.299,-28.511 -6.127,-43.12c-2.827,-14.609 -6.754,-28.669 -11.781,-42.178c-3.142,-8.483 -2.749,-16.887 1.178,-25.212c3.927,-8.326 10.132,-14.06 18.615,-17.201Z" style="fill:#fff;fill-rule:nonzero;"/><path d="M1171.77,1626.16c1.257,-0.628 2.356,-0.471 3.299,0.471c0.942,0.943 0.942,1.414 -0,1.414c-0,0.628 -0.314,0.943 -0.943,0.943l-1.885,-0l0,-0.472c-0.314,0 -0.628,-0.157 -0.942,-0.471l-0,-0.471c-0,-0.629 0.157,-1.1 0.471,-1.414Zm46.655,-184.734c5.969,16.337 8.954,32.91 8.954,49.718c-0,16.808 -2.042,32.831 -6.127,48.068c-4.084,15.238 -9.818,29.061 -17.201,41.471c-7.383,12.41 -15.787,22.542 -25.212,30.397c-4.399,3.456 -8.64,6.283 -12.724,8.482c0.628,0.943 0.628,1.728 -0,2.357l-0,2.356l-0.471,-0c-0.315,0.942 -0.315,1.571 -0,1.885c0.628,1.885 0.471,3.456 -0.472,4.713c-0.314,0.628 -0.628,1.021 -0.942,1.178c-0.314,0.157 -0.629,0.392 -0.943,0.707c-2.513,0.628 -3.77,3.77 -3.77,9.425c0.314,1.257 0.471,3.142 0.471,5.655l0,24.505c0.315,1.257 0.55,2.671 0.707,4.242c0.157,1.571 -0.078,2.984 -0.707,4.241c-1.256,2.514 -3.298,3.77 -6.126,3.77l-3.299,0c-1.571,-0.628 -2.592,-1.649 -3.063,-3.063c-0.471,-1.414 -0.707,-2.906 -0.707,-4.477l0,-3.299c0,-0.314 -0.157,-0.628 -0.471,-0.942c-0.628,-0.314 -0.628,-0.786 -0,-1.414c-0.943,-1.257 -1.414,-3.063 -1.414,-5.42c0,-2.356 0.157,-4.791 0.471,-7.304l0,-16.023c0,-3.142 -0.314,-5.184 -0.942,-6.126c-0.628,0.942 -1.1,1.413 -1.414,1.413l0,2.357c-0.628,0.628 -1.257,0.942 -1.885,0.942l-0.471,-0.471c-0.943,-0.314 -1.414,-1.1 -1.414,-2.356l0.471,-0.472c0,0 0.314,-0.157 0.943,-0.471l-0,-1.885l0.942,-0.942c0,-0.943 -0.314,-1.414 -0.942,-1.414c-7.226,2.513 -14.609,4.398 -22.149,5.655c-7.541,1.257 -15.081,1.885 -22.621,1.885c-15.08,0 -29.061,-2.199 -41.942,-6.598c-20.736,-7.226 -38.251,-18.771 -52.546,-34.637c-14.295,-15.866 -23.798,-34.167 -28.511,-54.902c-6.598,-29.532 -7.854,-57.101 -3.77,-82.706c4.084,-25.605 13.195,-46.419 27.333,-62.442c3.77,-4.085 8.09,-8.09 12.96,-12.017c4.869,-3.928 10.603,-7.619 17.201,-11.075c1.885,-8.169 6.048,-14.923 12.488,-20.264c6.441,-5.341 14.059,-8.012 22.856,-8.012c26.705,0 49.326,3.221 67.862,9.661c18.536,6.441 33.852,14.374 45.948,23.799c12.095,9.425 21.442,19.557 28.04,30.396c6.597,10.839 11.467,20.657 14.609,29.454Zm-111.689,0.471l0,0.471l0,-0.471Zm-29.218,123.47c9.425,3.456 18.929,4.242 28.511,2.357c9.582,-1.885 18.458,-6.127 26.626,-12.724c3.77,-3.142 7.383,-8.012 10.839,-14.609c3.456,-6.598 6.205,-13.981 8.247,-22.15c2.043,-8.168 3.064,-16.886 3.064,-26.155c-0,-9.268 -1.571,-18.143 -4.713,-26.626c-1.885,-5.341 -4.556,-10.289 -8.011,-14.845c-3.456,-4.555 -7.384,-8.561 -11.782,-12.017c-0.628,0.943 -1.414,1.571 -2.356,1.885c-2.199,0.315 -3.299,3.456 -3.299,9.426l-0,17.436c-0,3.142 0.157,6.441 0.471,9.897l0,2.356c0.629,3.77 0.471,6.755 -0.471,8.954c-0.943,2.828 -2.985,4.241 -6.126,4.241c-0.943,0 -1.885,-0.157 -2.828,-0.471c-1.571,-0.628 -2.67,-1.649 -3.299,-3.063c-0.628,-1.414 -0.942,-2.906 -0.942,-4.477l-0,-1.414c-0,-0.314 0.157,-0.628 0.471,-0.942l-0,-0.943l-0.943,-0.942l0,-1.414c-0.628,-1.257 -1.021,-2.985 -1.178,-5.184c-0.157,-2.199 -0.078,-4.556 0.236,-7.069c-0,-0.628 0.078,-1.178 0.235,-1.649c0.158,-0.472 0.236,-0.864 0.236,-1.179l0,-14.137c0,-2.828 -0.314,-4.556 -0.942,-5.184c-0.629,0.628 -1.257,1.099 -1.885,1.414l0.471,-0l-0,0.471c-0,0.628 -0.157,1.099 -0.471,1.414c-0.315,0.314 -0.629,0.471 -0.943,0.471l0,7.069c0,0.628 0.079,1.099 0.236,1.413c0.157,0.315 0.235,0.786 0.235,1.414c0,1.571 0.079,3.142 0.236,4.713c0.157,1.571 -0.079,2.827 -0.707,3.77c-1.571,2.828 -3.613,4.241 -6.126,4.241c-1.257,0 -2.357,-0.157 -3.299,-0.471c-1.571,0 -2.592,-0.864 -3.063,-2.592c-0.472,-1.728 -0.707,-3.377 -0.707,-4.948c-0.629,-0.628 -0.629,-0.943 -0,-0.943l-0,-2.356l-0.472,-0.471c-0.314,-0.314 -0.471,-0.786 -0.471,-1.414c-0.628,-1.257 -0.942,-2.985 -0.942,-5.184c-0,-2.199 0.157,-4.712 0.471,-7.54c-0,-1.257 0.157,-2.042 0.471,-2.356l0,-4.713c-4.712,0.943 -9.111,1.257 -13.195,0.943c-0.943,-0 -1.964,-0.079 -3.063,-0.236c-1.1,-0.157 -1.964,-0.236 -2.592,-0.236c-7.54,0 -12.96,1.1 -16.259,3.299c-3.298,2.199 -5.419,3.927 -6.362,5.184c-6.283,7.226 -10.053,18.222 -11.31,32.988c-1.257,14.766 0,30.946 3.77,48.54c1.885,8.483 5.812,15.944 11.782,22.385c5.969,6.44 13.352,11.232 22.149,14.373Z" style="fill:#fff;fill-rule:nonzero;"/><path d="M1388.08,1362.73c9.112,0 16.887,3.142 23.328,9.426c6.44,6.283 9.661,13.98 9.661,23.091c-0,9.111 -3.142,16.809 -9.426,23.092c-6.283,6.284 -13.98,9.582 -23.091,9.897l-3.77,-0c-12.567,-0 -23.956,-0.472 -34.167,-1.414c-10.21,-0.943 -19.871,-2.042 -28.982,-3.299c-0.629,10.054 -1.257,21.914 -1.885,35.58c-0.629,13.667 -0.864,28.433 -0.707,44.299c0.157,15.865 0.707,32.517 1.649,49.953c0.943,17.437 2.671,35.109 5.184,53.017c1.257,9.111 -0.864,17.201 -6.362,24.27c-5.498,7.069 -12.645,11.232 -21.442,12.488c-0.943,0 -1.807,0.079 -2.592,0.236c-0.786,0.157 -1.493,0.236 -2.121,0.236c-8.168,-0 -15.316,-2.671 -21.442,-8.012c-6.127,-5.341 -9.661,-12.253 -10.604,-20.735c-2.827,-19.793 -4.791,-39.351 -5.89,-58.672c-1.1,-19.322 -1.65,-37.701 -1.65,-55.138c0,-17.436 0.314,-33.459 0.943,-48.068c0.628,-14.609 1.256,-27.255 1.885,-37.937c-15.709,-0.942 -33.774,0.629 -54.195,4.713c-9.111,1.885 -17.358,0.393 -24.741,-4.477c-7.383,-4.87 -12.017,-11.703 -13.902,-20.5c-1.885,-9.111 -0.393,-17.437 4.477,-24.977c4.869,-7.54 11.702,-12.095 20.499,-13.666c13.196,-2.828 25.213,-4.713 36.052,-5.655c10.839,-0.943 21.049,-1.257 30.632,-0.943c9.582,0.314 18.772,1.1 27.568,2.356c8.797,1.257 17.594,2.514 26.391,3.771c11.31,1.885 23.17,3.613 35.58,5.183c12.41,1.571 26.783,2.2 43.12,1.885Z" style="fill:#fff;fill-rule:nonzero;"/><path d="M1725.03,1626.16c1.256,-0.628 2.356,-0.471 3.298,0.471c0.943,0.943 0.943,1.414 0,1.414c0,0.628 -0.314,0.943 -0.942,0.943l-1.885,-0l-0,-0.472c-0.314,0 -0.628,-0.157 -0.943,-0.471l0,-0.471c0,-0.629 0.157,-1.1 0.472,-1.414Zm46.654,-184.734c5.97,16.337 8.954,32.91 8.954,49.718c0,16.808 -2.042,32.831 -6.126,48.068c-4.084,15.238 -9.818,29.061 -17.201,41.471c-7.383,12.41 -15.787,22.542 -25.212,30.397c-4.399,3.456 -8.64,6.283 -12.724,8.482c0.628,0.943 0.628,1.728 -0,2.357l-0,2.356l-0.472,-0c-0.314,0.942 -0.314,1.571 0,1.885c0.629,1.885 0.472,3.456 -0.471,4.713c-0.314,0.628 -0.628,1.021 -0.943,1.178c-0.314,0.157 -0.628,0.392 -0.942,0.707c-2.513,0.628 -3.77,3.77 -3.77,9.425c0.314,1.257 0.471,3.142 0.471,5.655l0,24.505c0.314,1.257 0.55,2.671 0.707,4.242c0.157,1.571 -0.079,2.984 -0.707,4.241c-1.257,2.514 -3.299,3.77 -6.126,3.77l-3.299,0c-1.571,-0.628 -2.592,-1.649 -3.063,-3.063c-0.472,-1.414 -0.707,-2.906 -0.707,-4.477l-0,-3.299c-0,-0.314 -0.157,-0.628 -0.471,-0.942c-0.629,-0.314 -0.629,-0.786 -0,-1.414c-0.943,-1.257 -1.414,-3.063 -1.414,-5.42c-0,-2.356 0.157,-4.791 0.471,-7.304l0,-16.023c0,-3.142 -0.314,-5.184 -0.942,-6.126c-0.629,0.942 -1.1,1.413 -1.414,1.413l-0,2.357c-0.629,0.628 -1.257,0.942 -1.885,0.942l-0.472,-0.471c-0.942,-0.314 -1.413,-1.1 -1.413,-2.356l0.471,-0.472c-0,0 0.314,-0.157 0.942,-0.471l0,-1.885l0.943,-0.942c-0,-0.943 -0.314,-1.414 -0.943,-1.414c-7.226,2.513 -14.609,4.398 -22.149,5.655c-7.54,1.257 -15.08,1.885 -22.62,1.885c-15.081,0 -29.061,-2.199 -41.942,-6.598c-20.736,-7.226 -38.251,-18.771 -52.546,-34.637c-14.295,-15.866 -23.799,-34.167 -28.511,-54.902c-6.598,-29.532 -7.855,-57.101 -3.77,-82.706c4.084,-25.605 13.195,-46.419 27.333,-62.442c3.77,-4.085 8.09,-8.09 12.959,-12.017c4.87,-3.928 10.604,-7.619 17.201,-11.075c1.885,-8.169 6.048,-14.923 12.489,-20.264c6.44,-5.341 14.059,-8.012 22.856,-8.012c26.705,0 49.325,3.221 67.861,9.661c18.537,6.441 33.853,14.374 45.948,23.799c12.096,9.425 21.443,19.557 28.04,30.396c6.598,10.839 11.468,20.657 14.609,29.454Zm-111.688,0.471l-0,0.471l-0,-0.471Zm-29.218,123.47c9.425,3.456 18.929,4.242 28.511,2.357c9.582,-1.885 18.458,-6.127 26.626,-12.724c3.77,-3.142 7.383,-8.012 10.839,-14.609c3.456,-6.598 6.205,-13.981 8.247,-22.15c2.042,-8.168 3.063,-16.886 3.063,-26.155c0,-9.268 -1.571,-18.143 -4.712,-26.626c-1.885,-5.341 -4.556,-10.289 -8.012,-14.845c-3.456,-4.555 -7.383,-8.561 -11.781,-12.017c-0.629,0.943 -1.414,1.571 -2.357,1.885c-2.199,0.315 -3.298,3.456 -3.298,9.426l-0,17.436c-0,3.142 0.157,6.441 0.471,9.897l-0,2.356c0.628,3.77 0.471,6.755 -0.471,8.954c-0.943,2.828 -2.985,4.241 -6.127,4.241c-0.942,0 -1.885,-0.157 -2.827,-0.471c-1.571,-0.628 -2.671,-1.649 -3.299,-3.063c-0.629,-1.414 -0.943,-2.906 -0.943,-4.477l0,-1.414c0,-0.314 0.157,-0.628 0.472,-0.942l-0,-0.943l-0.943,-0.942l0,-1.414c-0.628,-1.257 -1.021,-2.985 -1.178,-5.184c-0.157,-2.199 -0.079,-4.556 0.236,-7.069c-0,-0.628 0.078,-1.178 0.235,-1.649c0.157,-0.472 0.236,-0.864 0.236,-1.179l-0,-14.137c-0,-2.828 -0.314,-4.556 -0.943,-5.184c-0.628,0.628 -1.256,1.099 -1.885,1.414l0.471,-0l0,0.471c0,0.628 -0.157,1.099 -0.471,1.414c-0.314,0.314 -0.628,0.471 -0.942,0.471l-0,7.069c-0,0.628 0.078,1.099 0.235,1.413c0.157,0.315 0.236,0.786 0.236,1.414c-0,1.571 0.079,3.142 0.236,4.713c0.157,1.571 -0.079,2.827 -0.707,3.77c-1.571,2.828 -3.613,4.241 -6.127,4.241c-1.256,0 -2.356,-0.157 -3.299,-0.471c-1.57,0 -2.591,-0.864 -3.063,-2.592c-0.471,-1.728 -0.707,-3.377 -0.707,-4.948c-0.628,-0.628 -0.628,-0.943 0,-0.943l0,-2.356l-0.471,-0.471c-0.314,-0.314 -0.471,-0.786 -0.471,-1.414c-0.628,-1.257 -0.943,-2.985 -0.943,-5.184c0,-2.199 0.157,-4.712 0.472,-7.54c-0,-1.257 0.157,-2.042 0.471,-2.356l-0,-4.713c-4.713,0.943 -9.111,1.257 -13.195,0.943c-0.943,-0 -1.964,-0.079 -3.064,-0.236c-1.099,-0.157 -1.963,-0.236 -2.592,-0.236c-7.54,0 -12.959,1.1 -16.258,3.299c-3.299,2.199 -5.419,3.927 -6.362,5.184c-6.283,7.226 -10.054,18.222 -11.31,32.988c-1.257,14.766 -0,30.946 3.77,48.54c1.885,8.483 5.812,15.944 11.781,22.385c5.97,6.44 13.353,11.232 22.15,14.373Z" style="fill:#fff;fill-rule:nonzero;"/><path d="M1925.79,1480.07c14.452,10.054 29.139,24.035 44.062,41.942c14.924,17.908 29.925,41.314 45.006,70.218c1.885,4.084 2.984,8.404 3.299,12.96c0.314,4.555 -0.236,8.875 -1.65,12.96c-1.414,4.084 -3.534,7.854 -6.362,11.31c-2.827,3.456 -6.283,6.283 -10.368,8.482c-2.513,1.571 -5.105,2.592 -7.775,3.064c-2.671,0.471 -5.263,0.707 -7.776,0.707c-6.284,-0 -12.174,-1.571 -17.672,-4.713c-5.498,-3.142 -9.818,-7.697 -12.96,-13.667c-11.31,-21.992 -22.306,-39.743 -32.988,-53.252c-10.682,-13.509 -20.814,-23.956 -30.397,-31.339c-9.582,-7.383 -18.3,-12.253 -26.155,-14.609c-7.854,-2.356 -14.294,-3.063 -19.321,-2.121c4.712,26.391 13.666,49.012 26.862,67.862c5.341,7.854 7.069,16.337 5.183,25.448c-1.885,9.111 -6.754,16.337 -14.609,21.678c-5.341,4.084 -11.624,6.126 -18.85,6.126c-5.655,0 -10.918,-1.256 -15.787,-3.77c-4.87,-2.513 -9.033,-6.283 -12.489,-11.31c-8.482,-12.567 -15.865,-26.548 -22.149,-41.942c-6.283,-15.395 -11.153,-31.496 -14.609,-48.304c-3.456,-16.809 -5.419,-34.01 -5.891,-51.603c-0.471,-17.594 1.021,-34.874 4.477,-51.839c-6.283,-0.943 -12.017,-3.534 -17.201,-7.776c-5.184,-4.241 -8.875,-9.818 -11.074,-16.73c-2.514,-9.111 -1.571,-17.75 2.827,-25.919c4.399,-8.168 11.153,-13.666 20.264,-16.494c5.97,-1.885 11.939,-3.849 17.908,-5.891c5.97,-2.042 11.389,-4.005 16.259,-5.89c4.869,-1.886 8.797,-3.535 11.781,-4.949c2.985,-1.413 4.477,-2.12 4.477,-2.12c7.226,-2.828 14.531,-3.378 21.914,-1.65c7.383,1.728 13.431,5.577 18.143,11.546c5.027,5.969 7.619,12.803 7.776,20.5c0.157,7.697 -1.963,14.688 -6.362,20.971c-5.341,7.226 -9.661,15.237 -12.959,24.034c-3.299,8.797 -5.734,18.065 -7.305,27.805c4.713,-2.2 10.211,-4.949 16.494,-8.247c6.284,-3.299 12.096,-7.148 17.437,-11.546c5.341,-4.399 9.896,-9.268 13.666,-14.609c3.77,-5.341 5.655,-10.996 5.655,-16.966c0,-9.425 3.378,-17.515 10.133,-24.27c6.754,-6.754 14.844,-10.132 24.269,-10.132c9.111,0 17.044,3.378 23.799,10.132c6.755,6.755 10.132,14.845 10.132,24.27c0,16.966 -3.77,31.967 -11.31,45.006c-7.54,13.038 -16.808,24.584 -27.804,34.637Z" style="fill:#fff;fill-rule:nonzero;"/><path d="M2309.39,1370.27c36.445,23.248 58.908,63.306 67.391,120.171c3.77,25.448 1.413,48.697 -7.069,69.747c-8.483,21.049 -22.778,38.643 -42.885,52.781c-14.138,10.053 -30.082,17.515 -47.833,22.385c-17.751,4.869 -35.737,7.304 -53.959,7.304c-14.138,0 -28.04,-1.492 -41.707,-4.477c-13.666,-2.985 -26.155,-7.619 -37.465,-13.902c-8.168,-4.399 -13.509,-11.075 -16.023,-20.029c-2.513,-8.954 -1.413,-17.515 3.299,-25.683c4.084,-7.855 10.054,-13.117 17.908,-15.788c7.854,-2.67 15.866,-2.277 24.034,1.179c-2.827,-10.682 -5.262,-21.835 -7.304,-33.46c-2.042,-11.624 -3.77,-23.327 -5.184,-35.109c-1.414,-11.781 -2.435,-23.249 -3.063,-34.402c-0.629,-11.153 -0.786,-21.442 -0.472,-30.867c-1.256,-0 -2.356,0.157 -3.298,0.471c-9.111,1.571 -17.594,-0.079 -25.448,-4.948c-7.855,-4.87 -12.724,-11.86 -14.61,-20.971c-1.885,-9.111 -0.235,-17.594 4.949,-25.448c5.184,-7.855 12.331,-12.724 21.442,-14.61c0.628,-0.314 1.807,-0.706 3.535,-1.178c1.727,-0.471 3.534,-0.864 5.419,-1.178c7.54,-2.199 17.358,-4.712 29.454,-7.54c12.095,-2.828 25.291,-4.634 39.586,-5.419c14.295,-0.786 29.139,0.157 44.534,2.827c15.394,2.671 30.317,8.718 44.769,18.144Zm-21.206,187.561c18.536,-12.567 25.919,-31.574 22.149,-57.022c-5.655,-36.759 -18.065,-61.578 -37.23,-74.459c-6.597,-4.399 -13.745,-7.226 -21.442,-8.483c-7.697,-1.257 -15.63,-1.885 -23.799,-1.885c-1.57,9.425 -1.963,21.678 -1.178,36.758c0.786,15.08 2.278,30.475 4.477,46.184c2.199,15.708 4.948,30.396 8.247,44.063c3.299,13.666 6.677,23.641 10.132,29.925c7.226,-1.571 14.138,-3.535 20.736,-5.891c6.598,-2.357 12.567,-5.42 17.908,-9.19Z" style="fill:#fff;fill-rule:nonzero;"/><path d="M2564.82,1626.16c1.256,-0.628 2.356,-0.471 3.298,0.471c0.943,0.943 0.943,1.414 0,1.414c0,0.628 -0.314,0.943 -0.942,0.943l-1.885,-0l-0,-0.472c-0.314,0 -0.628,-0.157 -0.943,-0.471l0,-0.471c0,-0.629 0.157,-1.1 0.472,-1.414Zm46.654,-184.734c5.97,16.337 8.954,32.91 8.954,49.718c0,16.808 -2.042,32.831 -6.126,48.068c-4.084,15.238 -9.818,29.061 -17.201,41.471c-7.383,12.41 -15.787,22.542 -25.212,30.397c-4.399,3.456 -8.64,6.283 -12.725,8.482c0.629,0.943 0.629,1.728 0,2.357l0,2.356l-0.471,-0c-0.314,0.942 -0.314,1.571 0,1.885c0.629,1.885 0.471,3.456 -0.471,4.713c-0.314,0.628 -0.628,1.021 -0.943,1.178c-0.314,0.157 -0.628,0.392 -0.942,0.707c-2.513,0.628 -3.77,3.77 -3.77,9.425c0.314,1.257 0.471,3.142 0.471,5.655l0,24.505c0.314,1.257 0.55,2.671 0.707,4.242c0.157,1.571 -0.079,2.984 -0.707,4.241c-1.257,2.514 -3.299,3.77 -6.126,3.77l-3.299,0c-1.571,-0.628 -2.592,-1.649 -3.063,-3.063c-0.472,-1.414 -0.707,-2.906 -0.707,-4.477l-0,-3.299c-0,-0.314 -0.157,-0.628 -0.471,-0.942c-0.629,-0.314 -0.629,-0.786 -0,-1.414c-0.943,-1.257 -1.414,-3.063 -1.414,-5.42c-0,-2.356 0.157,-4.791 0.471,-7.304l0,-16.023c0,-3.142 -0.314,-5.184 -0.943,-6.126c-0.628,0.942 -1.099,1.413 -1.413,1.413l-0,2.357c-0.629,0.628 -1.257,0.942 -1.885,0.942l-0.472,-0.471c-0.942,-0.314 -1.413,-1.1 -1.413,-2.356l0.471,-0.472c-0,0 0.314,-0.157 0.942,-0.471l0,-1.885l0.943,-0.942c-0,-0.943 -0.314,-1.414 -0.943,-1.414c-7.226,2.513 -14.609,4.398 -22.149,5.655c-7.54,1.257 -15.08,1.885 -22.62,1.885c-15.081,0 -29.061,-2.199 -41.942,-6.598c-20.736,-7.226 -38.251,-18.771 -52.546,-34.637c-14.295,-15.866 -23.799,-34.167 -28.511,-54.902c-6.598,-29.532 -7.855,-57.101 -3.77,-82.706c4.084,-25.605 13.195,-46.419 27.333,-62.442c3.77,-4.085 8.09,-8.09 12.959,-12.017c4.87,-3.928 10.604,-7.619 17.201,-11.075c1.885,-8.169 6.048,-14.923 12.489,-20.264c6.44,-5.341 14.059,-8.012 22.856,-8.012c26.705,0 49.325,3.221 67.861,9.661c18.537,6.441 33.853,14.374 45.948,23.799c12.096,9.425 21.443,19.557 28.04,30.396c6.598,10.839 11.468,20.657 14.609,29.454Zm-111.688,0.471l-0,0.471l-0,-0.471Zm-29.218,123.47c9.425,3.456 18.928,4.242 28.511,2.357c9.582,-1.885 18.457,-6.127 26.626,-12.724c3.77,-3.142 7.383,-8.012 10.839,-14.609c3.456,-6.598 6.205,-13.981 8.247,-22.15c2.042,-8.168 3.063,-16.886 3.063,-26.155c0,-9.268 -1.571,-18.143 -4.712,-26.626c-1.885,-5.341 -4.556,-10.289 -8.012,-14.845c-3.456,-4.555 -7.383,-8.561 -11.781,-12.017c-0.629,0.943 -1.414,1.571 -2.357,1.885c-2.199,0.315 -3.298,3.456 -3.298,9.426l-0,17.436c-0,3.142 0.157,6.441 0.471,9.897l-0,2.356c0.628,3.77 0.471,6.755 -0.471,8.954c-0.943,2.828 -2.985,4.241 -6.127,4.241c-0.942,0 -1.885,-0.157 -2.827,-0.471c-1.571,-0.628 -2.671,-1.649 -3.299,-3.063c-0.629,-1.414 -0.943,-2.906 -0.943,-4.477l0,-1.414c0,-0.314 0.157,-0.628 0.472,-0.942l-0,-0.943l-0.943,-0.942l0,-1.414c-0.628,-1.257 -1.021,-2.985 -1.178,-5.184c-0.157,-2.199 -0.079,-4.556 0.235,-7.069c0,-0.628 0.079,-1.178 0.236,-1.649c0.157,-0.472 0.236,-0.864 0.236,-1.179l-0,-14.137c-0,-2.828 -0.314,-4.556 -0.943,-5.184c-0.628,0.628 -1.256,1.099 -1.885,1.414l0.471,-0l0,0.471c0,0.628 -0.157,1.099 -0.471,1.414c-0.314,0.314 -0.628,0.471 -0.942,0.471l-0,7.069c-0,0.628 0.078,1.099 0.235,1.413c0.157,0.315 0.236,0.786 0.236,1.414c-0,1.571 0.078,3.142 0.236,4.713c0.157,1.571 -0.079,2.827 -0.707,3.77c-1.571,2.828 -3.613,4.241 -6.127,4.241c-1.256,0 -2.356,-0.157 -3.299,-0.471c-1.57,0 -2.591,-0.864 -3.063,-2.592c-0.471,-1.728 -0.707,-3.377 -0.707,-4.948c-0.628,-0.628 -0.628,-0.943 0,-0.943l0,-2.356l-0.471,-0.471c-0.314,-0.314 -0.471,-0.786 -0.471,-1.414c-0.628,-1.257 -0.943,-2.985 -0.943,-5.184c0,-2.199 0.157,-4.712 0.472,-7.54c-0,-1.257 0.157,-2.042 0.471,-2.356l-0,-4.713c-4.713,0.943 -9.111,1.257 -13.195,0.943c-0.943,-0 -1.964,-0.079 -3.064,-0.236c-1.099,-0.157 -1.963,-0.236 -2.592,-0.236c-7.54,0 -12.959,1.1 -16.258,3.299c-3.299,2.199 -5.42,3.927 -6.362,5.184c-6.284,7.226 -10.054,18.222 -11.31,32.988c-1.257,14.766 -0,30.946 3.77,48.54c1.885,8.483 5.812,15.944 11.781,22.385c5.97,6.44 13.353,11.232 22.15,14.373Z" style="fill:#fff;fill-rule:nonzero;"/><path d="M2781.12,1362.73c9.111,0 16.887,3.142 23.327,9.426c6.441,6.283 9.661,13.98 9.661,23.091c0,9.111 -3.141,16.809 -9.425,23.092c-6.283,6.284 -13.981,9.582 -23.092,9.897l-3.77,-0c-12.567,-0 -23.955,-0.472 -34.166,-1.414c-10.211,-0.943 -19.872,-2.042 -28.983,-3.299c-0.628,10.054 -1.256,21.914 -1.885,35.58c-0.628,13.667 -0.864,28.433 -0.707,44.299c0.158,15.865 0.707,32.517 1.65,49.953c0.942,17.437 2.67,35.109 5.184,53.017c1.256,9.111 -0.864,17.201 -6.362,24.27c-5.498,7.069 -12.646,11.232 -21.443,12.488c-0.942,0 -1.806,0.079 -2.592,0.236c-0.785,0.157 -1.492,0.236 -2.12,0.236c-8.169,-0 -15.316,-2.671 -21.443,-8.012c-6.126,-5.341 -9.66,-12.253 -10.603,-20.735c-2.827,-19.793 -4.791,-39.351 -5.891,-58.672c-1.099,-19.322 -1.649,-37.701 -1.649,-55.138c-0,-17.436 0.314,-33.459 0.942,-48.068c0.629,-14.609 1.257,-27.255 1.885,-37.937c-15.708,-0.942 -33.773,0.629 -54.194,4.713c-9.112,1.885 -17.359,0.393 -24.742,-4.477c-7.383,-4.87 -12.017,-11.703 -13.902,-20.5c-1.885,-9.111 -0.393,-17.437 4.477,-24.977c4.87,-7.54 11.703,-12.095 20.5,-13.666c13.195,-2.828 25.212,-4.713 36.051,-5.655c10.839,-0.943 21.05,-1.257 30.632,-0.943c9.583,0.314 18.772,1.1 27.569,2.356c8.797,1.257 17.594,2.514 26.391,3.771c11.31,1.885 23.17,3.613 35.58,5.183c12.41,1.571 26.783,2.2 43.12,1.885Z" style="fill:#fff;fill-rule:nonzero;"/><path d="M3123.26,1506.46c4.713,0.628 8.954,2.199 12.724,4.712c3.77,2.514 6.912,5.656 9.425,9.426c2.514,3.77 4.242,7.697 5.184,11.781c0.943,4.084 1.257,8.012 0.943,11.782c-0.943,8.482 -3.692,18.379 -8.247,29.689c-4.556,11.31 -11.389,22.071 -20.5,32.281c-9.111,10.211 -20.657,18.851 -34.638,25.92c-13.98,7.069 -30.867,10.603 -50.66,10.603l-2.357,0c-22.934,-0.314 -43.434,-7.147 -61.499,-20.5c-18.065,-13.352 -32.438,-31.967 -43.12,-55.844c-6.598,-15.395 -11.154,-31.653 -13.667,-48.776c-2.513,-17.122 -2.985,-33.773 -1.414,-49.953c1.571,-16.18 5.184,-31.496 10.839,-45.948c5.655,-14.452 13.196,-26.862 22.621,-37.23c12.881,-14.766 27.411,-25.291 43.591,-31.574c16.18,-6.284 33.224,-7.854 51.132,-4.713c6.284,0.629 12.331,2.042 18.144,4.242c5.812,2.199 11.703,5.026 17.672,8.482c4.398,-5.969 10.053,-10.053 16.965,-12.252c6.912,-2.2 13.981,-2.043 21.207,0.471c8.797,3.142 15.237,8.875 19.322,17.201c4.084,8.325 4.712,16.887 1.885,25.684c-0.943,1.885 -1.336,4.555 -1.178,8.011c0.157,3.456 0.549,7.069 1.178,10.839c0.628,3.77 1.492,7.54 2.592,11.31c1.099,3.77 2.277,7.069 3.534,9.897c3.456,8.797 3.456,17.436 0,25.919c-3.456,8.483 -9.425,14.609 -17.908,18.379c-4.398,1.885 -8.875,2.749 -13.431,2.592c-4.555,-0.157 -8.797,-1.021 -12.724,-2.592c-3.927,-1.571 -7.461,-3.848 -10.603,-6.833c-3.142,-2.985 -5.655,-6.519 -7.54,-10.603c-2.514,-5.656 -5.655,-10.997 -9.425,-16.023c-3.771,-5.027 -7.855,-9.504 -12.253,-13.431c-4.399,-3.927 -9.033,-7.226 -13.902,-9.897c-4.87,-2.67 -9.661,-4.32 -14.374,-4.948c-4.398,-0.628 -9.347,-0.393 -14.845,0.707c-5.498,1.1 -11.703,5.734 -18.614,13.902c-5.027,5.655 -8.954,12.803 -11.782,21.442c-2.827,8.64 -4.555,17.987 -5.184,28.04c-0.628,10.054 -0.078,20.343 1.65,30.868c1.728,10.525 4.477,20.5 8.247,29.925c1.885,4.084 4.163,8.169 6.833,12.253c2.67,4.084 5.734,7.854 9.19,11.31c3.456,3.456 7.54,6.362 12.252,8.718c4.713,2.357 9.897,3.535 15.552,3.535l1.414,-0c9.425,-0 17.044,-1.571 22.856,-4.713c5.812,-3.141 10.446,-6.912 13.902,-11.31c3.456,-4.398 5.891,-8.797 7.305,-13.195c1.413,-4.399 2.434,-7.855 3.063,-10.368l-0,-0.471c0.628,-3.456 1.649,-6.991 3.063,-10.604c1.414,-3.613 3.534,-6.911 6.362,-9.896c2.828,-2.985 6.598,-5.263 11.31,-6.833c4.713,-1.571 10.682,-2.043 17.908,-1.414Z" style="fill:#fff;fill-rule:nonzero;"/><path d="M3343.34,1626.16c1.256,-0.628 2.356,-0.471 3.299,0.471c0.942,0.943 0.942,1.414 -0,1.414c-0,0.628 -0.315,0.943 -0.943,0.943l-1.885,-0l-0,-0.472c-0.314,0 -0.628,-0.157 -0.943,-0.471l0,-0.471c0,-0.629 0.158,-1.1 0.472,-1.414Zm46.654,-184.734c5.97,16.337 8.954,32.91 8.954,49.718c0,16.808 -2.042,32.831 -6.126,48.068c-4.084,15.238 -9.818,29.061 -17.201,41.471c-7.383,12.41 -15.787,22.542 -25.212,30.397c-4.399,3.456 -8.64,6.283 -12.724,8.482c0.628,0.943 0.628,1.728 -0,2.357l-0,2.356l-0.472,-0c-0.314,0.942 -0.314,1.571 0,1.885c0.629,1.885 0.472,3.456 -0.471,4.713c-0.314,0.628 -0.628,1.021 -0.942,1.178c-0.315,0.157 -0.629,0.392 -0.943,0.707c-2.513,0.628 -3.77,3.77 -3.77,9.425c0.314,1.257 0.471,3.142 0.471,5.655l0,24.505c0.314,1.257 0.55,2.671 0.707,4.242c0.157,1.571 -0.078,2.984 -0.707,4.241c-1.256,2.514 -3.299,3.77 -6.126,3.77l-3.299,0c-1.571,-0.628 -2.592,-1.649 -3.063,-3.063c-0.471,-1.414 -0.707,-2.906 -0.707,-4.477l-0,-3.299c-0,-0.314 -0.157,-0.628 -0.471,-0.942c-0.629,-0.314 -0.629,-0.786 -0,-1.414c-0.943,-1.257 -1.414,-3.063 -1.414,-5.42c-0,-2.356 0.157,-4.791 0.471,-7.304l0,-16.023c0,-3.142 -0.314,-5.184 -0.942,-6.126c-0.629,0.942 -1.1,1.413 -1.414,1.413l-0,2.357c-0.629,0.628 -1.257,0.942 -1.885,0.942l-0.471,-0.471c-0.943,-0.314 -1.414,-1.1 -1.414,-2.356l0.471,-0.472c0,0 0.314,-0.157 0.943,-0.471l-0,-1.885l0.942,-0.942c0,-0.943 -0.314,-1.414 -0.942,-1.414c-7.226,2.513 -14.61,4.398 -22.15,5.655c-7.54,1.257 -15.08,1.885 -22.62,1.885c-15.081,0 -29.061,-2.199 -41.942,-6.598c-20.736,-7.226 -38.251,-18.771 -52.546,-34.637c-14.295,-15.866 -23.799,-34.167 -28.511,-54.902c-6.598,-29.532 -7.854,-57.101 -3.77,-82.706c4.084,-25.605 13.195,-46.419 27.333,-62.442c3.77,-4.085 8.09,-8.09 12.96,-12.017c4.869,-3.928 10.603,-7.619 17.201,-11.075c1.885,-8.169 6.047,-14.923 12.488,-20.264c6.44,-5.341 14.059,-8.012 22.856,-8.012c26.705,0 49.325,3.221 67.862,9.661c18.536,6.441 33.852,14.374 45.947,23.799c12.096,9.425 21.443,19.557 28.04,30.396c6.598,10.839 11.468,20.657 14.609,29.454Zm-111.688,0.471l-0,0.471l-0,-0.471Zm-29.218,123.47c9.425,3.456 18.929,4.242 28.511,2.357c9.582,-1.885 18.458,-6.127 26.626,-12.724c3.77,-3.142 7.383,-8.012 10.839,-14.609c3.456,-6.598 6.205,-13.981 8.247,-22.15c2.042,-8.168 3.063,-16.886 3.063,-26.155c0,-9.268 -1.571,-18.143 -4.712,-26.626c-1.885,-5.341 -4.556,-10.289 -8.012,-14.845c-3.456,-4.555 -7.383,-8.561 -11.781,-12.017c-0.629,0.943 -1.414,1.571 -2.356,1.885c-2.2,0.315 -3.299,3.456 -3.299,9.426l-0,17.436c-0,3.142 0.157,6.441 0.471,9.897l-0,2.356c0.628,3.77 0.471,6.755 -0.471,8.954c-0.943,2.828 -2.985,4.241 -6.127,4.241c-0.942,0 -1.885,-0.157 -2.827,-0.471c-1.571,-0.628 -2.671,-1.649 -3.299,-3.063c-0.628,-1.414 -0.943,-2.906 -0.943,-4.477l0,-1.414c0,-0.314 0.157,-0.628 0.472,-0.942l-0,-0.943l-0.943,-0.942l0,-1.414c-0.628,-1.257 -1.021,-2.985 -1.178,-5.184c-0.157,-2.199 -0.079,-4.556 0.236,-7.069c-0,-0.628 0.078,-1.178 0.235,-1.649c0.157,-0.472 0.236,-0.864 0.236,-1.179l-0,-14.137c-0,-2.828 -0.314,-4.556 -0.943,-5.184c-0.628,0.628 -1.256,1.099 -1.885,1.414l0.472,-0l-0,0.471c-0,0.628 -0.158,1.099 -0.472,1.414c-0.314,0.314 -0.628,0.471 -0.942,0.471l-0,7.069c-0,0.628 0.078,1.099 0.235,1.413c0.158,0.315 0.236,0.786 0.236,1.414c0,1.571 0.079,3.142 0.236,4.713c0.157,1.571 -0.079,2.827 -0.707,3.77c-1.571,2.828 -3.613,4.241 -6.127,4.241c-1.256,0 -2.356,-0.157 -3.298,-0.471c-1.571,0 -2.592,-0.864 -3.064,-2.592c-0.471,-1.728 -0.707,-3.377 -0.707,-4.948c-0.628,-0.628 -0.628,-0.943 0,-0.943l0,-2.356l-0.471,-0.471c-0.314,-0.314 -0.471,-0.786 -0.471,-1.414c-0.628,-1.257 -0.943,-2.985 -0.943,-5.184c0,-2.199 0.158,-4.712 0.472,-7.54c-0,-1.257 0.157,-2.042 0.471,-2.356l-0,-4.713c-4.713,0.943 -9.111,1.257 -13.195,0.943c-0.943,-0 -1.964,-0.079 -3.064,-0.236c-1.099,-0.157 -1.963,-0.236 -2.591,-0.236c-7.541,0 -12.96,1.1 -16.259,3.299c-3.299,2.199 -5.419,3.927 -6.362,5.184c-6.283,7.226 -10.053,18.222 -11.31,32.988c-1.257,14.766 -0,30.946 3.77,48.54c1.885,8.483 5.812,15.944 11.781,22.385c5.97,6.44 13.353,11.232 22.15,14.373Z" style="fill:#fff;fill-rule:nonzero;"/><path d="M3642.12,1374.04c3.142,3.456 6.205,8.011 9.189,13.666c2.985,5.655 5.734,13.667 8.247,24.035c2.514,10.367 4.634,23.641 6.362,39.821c1.728,16.18 2.907,36.68 3.535,61.499c0.314,12.882 0.471,25.134 0.471,36.759c0,11.624 -0.078,22.07 -0.235,31.339c-0.158,9.268 -0.315,16.729 -0.472,22.384c-0.157,5.656 -0.235,8.64 -0.235,8.954c-0.629,9.111 -4.163,16.652 -10.604,22.621c-6.44,5.969 -14.059,8.797 -22.856,8.483c-9.111,-0.629 -16.651,-4.163 -22.62,-10.604c-5.97,-6.44 -8.64,-14.216 -8.012,-23.327c0.629,-14.452 1.021,-29.375 1.178,-44.77c0.157,-15.394 0,-30.396 -0.471,-45.005c-0.471,-14.609 -1.1,-28.354 -1.885,-41.236c-0.785,-12.881 -1.806,-24.191 -3.063,-33.93c-7.226,10.996 -15.002,24.819 -23.328,41.471c-8.325,16.651 -16.101,33.773 -23.327,51.367c-5.655,12.881 -15.394,19.636 -29.218,20.264l-0.471,0c-6.284,0 -12.175,-1.728 -17.673,-5.184c-5.498,-3.456 -9.503,-8.011 -12.017,-13.666c-6.283,-14.138 -13.038,-28.354 -20.264,-42.649c-7.226,-14.295 -14.295,-27.569 -21.207,-39.822c-0.314,11.31 -0.392,23.249 -0.235,35.816c0.157,12.567 0.55,25.291 1.178,38.172c0.628,12.881 1.492,25.841 2.592,38.879c1.099,13.038 2.592,25.37 4.477,36.994c1.571,8.797 -0.236,16.73 -5.42,23.799c-5.184,7.069 -12.331,11.231 -21.442,12.488c-1.885,0.628 -3.456,0.943 -4.713,0.943c-7.854,-0 -14.766,-2.592 -20.735,-7.776c-5.969,-5.184 -9.739,-11.86 -11.31,-20.029c-2.828,-18.222 -5.027,-38.486 -6.598,-60.792c-1.571,-22.307 -2.356,-44.299 -2.356,-65.977c-0,-21.678 0.785,-42.099 2.356,-61.264c1.571,-19.164 4.241,-34.873 8.011,-47.126c2.828,-10.367 7.698,-17.829 14.61,-22.385c6.911,-4.555 13.509,-7.147 19.792,-7.775c6.598,-0.315 12.96,0.864 19.086,3.534c6.127,2.671 12.489,7.383 19.087,14.138c6.597,6.755 13.509,15.866 20.735,27.333c7.226,11.467 15.394,25.684 24.506,42.649c1.256,2.199 2.356,4.32 3.298,6.362c0.943,2.042 2.042,4.006 3.299,5.891c0.629,-0.943 1.178,-1.964 1.65,-3.063c0.471,-1.1 1.021,-2.435 1.649,-4.006c16.023,-29.847 30.789,-51.367 44.298,-64.563c13.51,-13.195 27.491,-19.478 41.943,-18.85c10.996,0.628 20.735,5.341 29.218,14.138Z" style="fill:#fff;fill-rule:nonzero;"/><path d="M3815.07,1366.97c11.939,7.54 21.443,17.044 28.512,28.511c7.068,11.467 11.074,24.427 12.017,38.879c1.256,17.594 -0.786,33.224 -6.127,46.89c-5.341,13.667 -12.645,25.448 -21.913,35.345c-9.268,9.896 -19.793,18.065 -31.575,24.505c-11.781,6.441 -23.327,11.546 -34.637,15.316c4.398,13.196 8.797,22.621 13.195,28.276c3.142,3.77 5.341,7.933 6.598,12.488c1.256,4.556 1.649,9.111 1.178,13.667c-0.472,4.556 -1.885,8.875 -4.242,12.96c-2.356,4.084 -5.419,7.697 -9.189,10.839c-6.912,5.341 -14.295,8.011 -22.149,8.011c-10.682,0 -19.95,-4.398 -27.805,-13.195c-7.54,-9.425 -14.373,-22.228 -20.5,-38.408c-6.126,-16.18 -11.467,-33.617 -16.022,-52.31c-4.556,-18.693 -8.169,-37.544 -10.839,-56.551c-2.671,-19.008 -4.163,-35.894 -4.477,-50.661c-0.943,0.629 -1.885,1.022 -2.828,1.179c-0.942,0.157 -1.885,0.549 -2.828,1.178c-9.111,3.456 -18.222,3.299 -27.333,-0.472c-9.111,-3.77 -15.394,-10.21 -18.85,-19.321c-3.77,-9.111 -3.692,-18.144 0.236,-27.098c3.927,-8.954 10.446,-15.316 19.557,-19.086c10.996,-4.398 24.191,-8.482 39.586,-12.252c15.394,-3.771 31.339,-6.127 47.833,-7.069c16.494,-0.943 32.831,-0.079 49.011,2.592c16.18,2.67 30.71,7.932 43.591,15.787Zm-70.689,120.171c4.713,-1.571 9.583,-3.691 14.609,-6.362c5.027,-2.67 9.504,-5.891 13.431,-9.661c3.927,-3.77 7.069,-8.247 9.425,-13.431c2.357,-5.183 3.378,-11.074 3.064,-17.672c-0.315,-5.969 -2.828,-10.211 -7.54,-12.724c-4.399,-2.827 -9.976,-4.87 -16.73,-6.126c-6.755,-1.257 -14.217,-1.885 -22.385,-1.885c-0.628,8.168 -0.393,18.222 0.707,30.16c1.099,11.939 2.906,24.506 5.419,37.701Z" style="fill:#fff;fill-rule:nonzero;"/><path d="M4012.06,1374.51c8.797,-2.828 17.28,-2.121 25.448,2.121c8.169,4.241 13.51,10.76 16.023,19.557c16.651,51.839 24.506,95.195 23.563,130.068c-0.942,34.873 -10.368,62.52 -28.276,82.942c-3.455,4.084 -7.775,8.168 -12.959,12.252c-5.184,4.085 -11.153,7.698 -17.908,10.839c-6.755,3.142 -14.531,5.734 -23.327,7.776c-8.797,2.042 -18.694,3.063 -29.69,3.063c-5.341,0 -10.917,-0.314 -16.73,-0.942c-5.812,-0.629 -12.017,-1.571 -18.614,-2.828c-26.391,-4.712 -46.812,-17.908 -61.264,-39.586c-12.253,-18.536 -19.165,-40.135 -20.736,-64.798c-1.571,-24.663 -0.471,-50.346 3.299,-77.051c-5.655,0 -10.996,-1.335 -16.023,-4.006c-5.027,-2.67 -9.111,-6.676 -12.252,-12.017c-5.027,-7.854 -6.441,-16.18 -4.242,-24.977c2.199,-8.796 7.069,-15.708 14.609,-20.735c2.514,-1.571 5.498,-3.535 8.954,-5.891c3.456,-2.356 6.912,-5.027 10.368,-8.011c3.456,-2.985 6.833,-6.048 10.132,-9.19c3.299,-3.142 6.048,-6.126 8.247,-8.954c4.713,-6.912 10.996,-11.467 18.85,-13.666c7.855,-2.2 15.395,-1.571 22.621,1.885c1.885,0.942 4.163,2.356 6.833,4.241c2.671,1.885 5.106,4.477 7.305,7.776c2.199,3.299 3.848,7.383 4.948,12.253c1.1,4.869 1.021,10.76 -0.236,17.672c-0.628,1.885 -1.178,4.006 -1.649,6.362c-0.471,2.356 -1.021,5.105 -1.649,8.247c-1.571,7.54 -3.771,18.143 -6.598,31.81c-2.828,13.667 -5.027,28.119 -6.598,43.356c-1.571,15.237 -1.885,30.082 -0.942,44.534c0.942,14.452 4.241,25.919 9.896,34.402c2.514,3.142 5.106,5.577 7.776,7.305c2.67,1.728 6.205,2.906 10.603,3.534c4.713,0.943 9.818,1.649 15.316,2.121c5.498,0.471 10.839,0.471 16.023,-0c5.184,-0.472 10.054,-1.493 14.609,-3.063c4.556,-1.571 8.247,-4.085 11.075,-7.541c2.199,-2.513 4.477,-6.754 6.833,-12.724c2.356,-5.969 3.77,-14.609 4.241,-25.919c0.472,-11.31 -0.628,-25.919 -3.298,-43.827c-2.671,-17.908 -8.09,-40.057 -16.259,-66.448c-2.827,-9.111 -2.12,-17.751 2.121,-25.919c4.241,-8.169 10.76,-13.51 19.557,-16.023Z" style="fill:#fff;fill-rule:nonzero;"/><path d="M4242.03,1362.73c9.111,0 16.887,3.142 23.328,9.426c6.44,6.283 9.66,13.98 9.66,23.091c0,9.111 -3.141,16.809 -9.425,23.092c-6.283,6.284 -13.98,9.582 -23.092,9.897l-3.77,-0c-12.567,-0 -23.955,-0.472 -34.166,-1.414c-10.211,-0.943 -19.871,-2.042 -28.982,-3.299c-0.629,10.054 -1.257,21.914 -1.886,35.58c-0.628,13.667 -0.864,28.433 -0.706,44.299c0.157,15.865 0.706,32.517 1.649,49.953c0.943,17.437 2.67,35.109 5.184,53.017c1.257,9.111 -0.864,17.201 -6.362,24.27c-5.498,7.069 -12.646,11.232 -21.443,12.488c-0.942,0 -1.806,0.079 -2.591,0.236c-0.786,0.157 -1.493,0.236 -2.121,0.236c-8.169,-0 -15.316,-2.671 -21.442,-8.012c-6.127,-5.341 -9.661,-12.253 -10.604,-20.735c-2.827,-19.793 -4.791,-39.351 -5.891,-58.672c-1.099,-19.322 -1.649,-37.701 -1.649,-55.138c0,-17.436 0.314,-33.459 0.943,-48.068c0.628,-14.609 1.256,-27.255 1.885,-37.937c-15.709,-0.942 -33.774,0.629 -54.195,4.713c-9.111,1.885 -17.358,0.393 -24.742,-4.477c-7.383,-4.87 -12.017,-11.703 -13.902,-20.5c-1.885,-9.111 -0.392,-17.437 4.477,-24.977c4.87,-7.54 11.703,-12.095 20.5,-13.666c13.195,-2.828 25.213,-4.713 36.052,-5.655c10.838,-0.943 21.049,-1.257 30.631,-0.943c9.583,0.314 18.772,1.1 27.569,2.356c8.797,1.257 17.594,2.514 26.391,3.771c11.31,1.885 23.17,3.613 35.58,5.183c12.41,1.571 26.783,2.2 43.12,1.885Z" style="fill:#fff;fill-rule:nonzero;"/><path d="M4414.51,1481.01c9.425,0.628 17.279,4.32 23.563,11.074c6.283,6.755 9.111,14.845 8.482,24.27c-1.256,19.793 -5.184,37.151 -11.781,52.075c-6.598,14.923 -14.924,27.882 -24.977,38.879l-0,2.356l-0.943,-0c0,0.942 0.157,1.571 0.472,1.885c0.942,1.571 0.785,2.985 -0.472,4.241c-0.942,0.943 -1.57,1.414 -1.885,1.414c-2.199,0.314 -3.298,3.456 -3.298,9.425l-0,27.333c0.314,1.571 0.549,2.985 0.706,4.242c0.158,1.256 -0.078,2.513 -0.706,3.77c-1.571,2.513 -3.613,3.77 -6.127,3.77l-2.356,-0c-1.571,-0.629 -2.592,-1.65 -3.063,-3.063c-0.472,-1.414 -0.707,-2.749 -0.707,-4.006l-0,-1.414c-0,-0.314 0.157,-0.628 0.471,-0.942l0,-0.943c-0.314,0 -0.628,-0.157 -0.943,-0.471l0,-1.414c-0.628,-1.257 -1.021,-2.906 -1.178,-4.948c-0.157,-2.042 -0.078,-4.32 0.236,-6.833l-0,-2.357c-1.885,0.629 -2.828,3.456 -2.828,8.483l0,27.804c0.315,1.257 0.55,2.671 0.707,4.242c0.157,1.571 -0.078,2.984 -0.707,4.241c-1.57,2.513 -3.613,3.77 -6.126,3.77c-0.942,0 -1.728,-0.157 -2.356,-0.471c-1.571,-0.314 -2.592,-1.178 -3.063,-2.592c-0.472,-1.414 -0.707,-2.906 -0.707,-4.477l-0,-3.299c-0,-0.314 -0.157,-0.628 -0.472,-0.942l0,-0.943c-0.628,-0.942 -1.021,-2.513 -1.178,-4.713c-0.157,-2.199 -0.078,-4.555 0.236,-7.068l-0,-15.552c0.314,-1.885 0.157,-3.456 -0.471,-4.713c-0.943,0.943 -1.571,1.414 -1.885,1.414l0.471,0c-0,0.943 -0.157,1.414 -0.471,1.414c-0.629,0.628 -1.1,0.942 -1.414,0.942c-0.314,0 -0.629,-0.157 -0.943,-0.471c-0.942,-0.942 -1.256,-1.571 -0.942,-1.885l0.471,-0.471c0,-0 0.314,-0.157 0.943,-0.471c-0,-0 -0.158,-0.157 -0.472,-0.472l0.472,-0.942c-0,-0.629 0.314,-0.943 0.942,-0.943c0,-0.942 -0.628,-1.728 -1.885,-2.356l-0.943,-0c-0.628,-0.314 -0.942,-0.55 -0.942,-0.707c-0,-0.157 -0.157,-0.393 -0.471,-0.707l-0,-0.471c-7.226,3.456 -14.609,5.812 -22.15,7.069c-7.54,1.257 -15.237,1.885 -23.091,1.885l-3.77,-0c-15.709,-0.314 -30.082,-3.22 -43.121,-8.718c-13.038,-5.498 -24.27,-12.96 -33.695,-22.385c-9.425,-9.425 -16.808,-20.579 -22.149,-33.46c-5.341,-12.881 -8.011,-26.862 -8.011,-41.942c-0,-10.682 1.727,-20.264 5.183,-28.747c3.456,-8.483 8.169,-15.866 14.138,-22.149c-6.597,-11.624 -9.111,-24.427 -7.54,-38.408c1.571,-13.981 4.398,-27.097 8.483,-39.35c3.141,-10.682 7.069,-19.636 11.781,-26.862c4.713,-7.226 9.661,-13.195 14.845,-17.908c5.184,-4.712 10.525,-8.325 16.023,-10.839c5.498,-2.513 10.603,-4.398 15.316,-5.655c10.996,-2.513 22.149,-2.592 33.459,-0.235c11.31,2.356 21.992,6.204 32.046,11.545c2.827,-6.283 6.99,-11.31 12.488,-15.08c5.498,-3.77 11.703,-5.655 18.615,-5.655c9.425,-0 17.437,3.299 24.034,9.896c6.598,6.598 9.897,14.609 9.897,24.035c-0,4.084 0.314,8.561 0.942,13.431c0.629,4.869 1.414,9.66 2.357,14.373c0.942,4.713 1.806,9.033 2.592,12.96c0.785,3.927 1.335,6.99 1.649,9.189c2.199,7.226 1.807,14.374 -1.178,21.443c-2.985,7.069 -7.933,12.645 -14.845,16.729c-6.912,3.456 -14.059,4.634 -21.442,3.535c-7.383,-1.1 -13.902,-4.477 -19.557,-10.132c-5.656,-5.655 -11.703,-11.075 -18.144,-16.259c-6.441,-5.184 -12.724,-9.661 -18.85,-13.431c-6.127,-3.77 -11.703,-6.597 -16.73,-8.482c-5.027,-1.885 -8.954,-2.514 -11.782,-1.885c-3.141,-0 -6.44,5.183 -9.896,15.551c-1.257,4.399 -2.121,8.169 -2.592,11.31c-0.471,3.142 -1.021,5.813 -1.649,8.012l18.85,-0c3.456,-0.314 6.99,-0.471 10.603,-0.471l11.546,-0c9.111,-0 16.966,3.063 23.563,9.189c6.598,6.127 10.054,13.745 10.368,22.856c-0,9.426 -3.142,17.437 -9.425,24.035c-6.284,6.597 -13.981,10.21 -23.092,10.839c-5.655,0.314 -11.703,1.099 -18.144,2.356c-6.44,1.257 -12.409,2.906 -17.907,4.948c-5.499,2.042 -10.054,4.32 -13.667,6.833c-3.613,2.514 -5.42,5.341 -5.42,8.483c0,7.226 1.257,13.274 3.771,18.144c2.513,4.869 5.812,8.796 9.896,11.781c4.084,2.985 8.64,5.262 13.667,6.833c5.026,1.571 10.053,2.357 15.08,2.357c6.283,0.314 12.802,-0.629 19.557,-2.828c6.755,-2.199 13.038,-5.891 18.851,-11.075c5.812,-5.183 10.682,-12.095 14.609,-20.735c3.927,-8.64 6.362,-19.243 7.304,-31.81c0.629,-9.111 4.32,-16.73 11.075,-22.856c6.755,-6.127 14.687,-8.876 23.799,-8.247Zm-0,130.539c0.628,-0.628 1.727,-0.628 3.298,-0c0.315,0.942 0.315,1.571 0,1.885c-0.628,0.628 -1.256,0.942 -1.885,0.942c-0.314,0 -0.471,-0.157 -0.471,-0.471l-0.471,-0.471c-0.629,-0 -0.943,-0.314 -0.943,-0.943l0,-0.471c0,0 0.157,-0.157 0.472,-0.471Z" style="fill:#fff;fill-rule:nonzero;"/><path d="M4623.75,1448.02c-1.257,17.907 -6.126,33.459 -14.609,46.654c5.027,5.341 10.054,11.625 15.08,18.851c5.027,7.226 9.583,15.551 13.667,24.977c4.084,9.425 7.304,20.107 9.661,32.045c2.356,11.939 3.534,25.134 3.534,39.586c0,9.111 -3.299,16.965 -9.896,23.563c-6.598,6.598 -14.452,9.897 -23.563,9.897c-9.425,-0 -17.437,-3.299 -24.035,-9.897c-6.597,-6.598 -9.896,-14.452 -9.896,-23.563c-0,-10.368 -0.864,-19.479 -2.592,-27.333c-1.728,-7.854 -3.927,-14.766 -6.598,-20.735c-2.67,-5.97 -5.576,-10.839 -8.718,-14.61c-3.142,-3.77 -6.126,-6.911 -8.954,-9.425c-13.509,5.655 -27.333,9.425 -41.471,11.311c1.571,10.053 3.142,18.928 4.713,26.626c1.571,7.697 3.456,13.274 5.655,16.729c4.713,8.169 5.969,16.73 3.77,25.684c-2.199,8.954 -7.383,15.787 -15.552,20.5c-5.34,3.142 -11.153,4.713 -17.436,4.713c-5.655,-0 -11.075,-1.414 -16.259,-4.242c-5.184,-2.827 -9.503,-6.912 -12.959,-12.253c-5.655,-10.053 -10.29,-23.877 -13.903,-41.47c-3.613,-17.594 -6.126,-36.366 -7.54,-56.316c-1.413,-19.95 -1.963,-39.822 -1.649,-59.614c0.314,-19.793 1.414,-36.916 3.299,-51.368c-2.514,0.628 -4.399,1.1 -5.655,1.414c-4.713,0.942 -9.269,1.021 -13.667,0.236c-4.398,-0.786 -8.483,-2.278 -12.253,-4.477c-3.77,-2.2 -6.99,-5.106 -9.661,-8.719c-2.67,-3.613 -4.477,-7.618 -5.419,-12.017c-0.943,-4.712 -1.021,-9.268 -0.236,-13.666c0.786,-4.399 2.278,-8.405 4.477,-12.018c2.2,-3.613 5.106,-6.754 8.719,-9.425c3.613,-2.67 7.618,-4.634 12.017,-5.891c10.996,-2.513 23.955,-4.319 38.879,-5.419c14.923,-1.1 30.239,-0.943 45.948,0.471c15.708,1.414 30.946,4.399 45.712,8.954c14.766,4.556 27.647,11.546 38.643,20.971c10.368,8.797 17.987,19.165 22.856,31.103c4.87,11.939 6.834,24.663 5.891,38.173Zm-107.919,-31.104c-1.885,7.226 -3.141,16.573 -3.77,28.04c-0.628,11.468 -0.785,23.799 -0.471,36.994c4.713,-0.942 9.582,-2.277 14.609,-4.005c5.027,-1.728 9.74,-4.163 14.138,-7.305c4.398,-3.142 8.011,-6.912 10.839,-11.31c2.828,-4.399 4.556,-9.74 5.184,-16.023c0.314,-5.655 -1.414,-10.054 -5.184,-13.195c-3.77,-3.456 -8.718,-6.205 -14.845,-8.247c-6.126,-2.043 -12.959,-3.692 -20.5,-4.949Z" style="fill:#fff;fill-rule:nonzero;"/></g><rect x="0" y="0" width="5400" height="3000" style="fill:none;"/></g></svg>