<?xml version="1.0" encoding="UTF-8" standalone="no"?><!DOCTYPE svg PUBLIC "-//W3C//DTD SVG 1.1//EN" "http://www.w3.org/Graphics/SVG/1.1/DTD/svg11.dtd"><svg width="100%" height="100%" viewBox="0 0 5400 3000" version="1.1" xmlns="http://www.w3.org/2000/svg" xmlns:xlink="http://www.w3.org/1999/xlink" xml:space="preserve" xmlns:serif="http://www.serif.com/" style="fill-rule:evenodd;clip-rule:evenodd;stroke-linejoin:round;stroke-miterlimit:2;"><g><rect x="0" y="0" width="5400" height="3000" style="fill:none;"/><g><path d="M3060.62,708.692c-0,10.417 3.273,15.201 3.273,28.118c11.666,0 18.394,4.799 29.227,4.799c0,285 0.833,570.416 0.833,855c-15.833,-0.417 -31.666,-0.834 -47.916,-0.834l-711.25,0c-8.334,0 -17.709,0.417 -26.042,0.834c-0.417,-7.5 -0.208,-15 -0.208,-22.917l-0,-830.833c11.666,-0.834 21.25,-1.25 33.333,-1.667c0.417,-10.833 0.833,-21.667 1.667,-32.5c133.75,-0.417 611.666,-0.417 717.083,-0Zm-716.667,1022.08l0,-99.583l715,-0l0,99.583l-715,0Z" style="fill:#fff;fill-rule:nonzero;"/><path d="M3093.12,1596.19l0,169.583l-785,0l1.25,-169.166l785,-0l-1.25,-0.417Zm-749.167,134.583l715,0l0,-99.583l-715,-0l0,99.583Z" style="fill-rule:nonzero;"/><path d="M2309.38,1596.61l-35,-0.417l0,-853.333l33.75,-0l0,-34.48l35,0.313l0,34.167l-35,-0l1.25,853.75Z" style="fill-rule:nonzero;"/><path d="M3093.12,741.609l32.5,-0l0,854.583l-32.5,-0l0.417,0.417l-0.417,-855Z" style="fill-rule:nonzero;"/><path d="M2343.96,709.525l0,-36.25l716.25,0l0,35.417l-717.083,-0.417l0.833,1.25Z" style="fill-rule:nonzero;"/><path d="M3060.21,708.692l32.917,-0l-0,32.917l-32.5,-0l-0.417,-32.917Z" style="fill-rule:nonzero;"/><path d="M2993.54,1254.53c-0.834,10.417 -2.084,20.417 -3.334,32.084l-579.583,-0l0,-32.084l-0.417,0.417c67.917,-0.417 135.834,-0.833 203.75,-0.833c126.667,-0 253.75,0.416 380.417,0.833l-0.833,-0.417Z" style="fill-rule:nonzero;"/><path d="M2410.62,809.109l0,-32.084l579.167,0c1.25,10.417 2.5,21.25 3.333,32.084l0.833,-0.417l-584.166,-0l0.833,0.417Z" style="fill-rule:nonzero;"/><path d="M2410.62,1254.53l-32.5,0l0,-443.75c10.833,-0.416 21.667,-1.25 32.5,-1.666l-0.417,-0.417l0,446.667l0.417,-0.834Z" style="fill-rule:nonzero;"/><path d="M2993.12,809.109c10,0.416 20.417,1.25 31.667,1.666l-0,443.75l-31.667,0l0.417,0.417c-0.834,-6.25 -2.5,-12.083 -2.5,-18.333l-0,-410c-0,-6.25 1.666,-12.084 2.5,-18.334l-0.417,0.834Z" style="fill-rule:nonzero;"/><path d="M2991.88,1458.28l-204.167,0l0,-31.666l204.167,-0c0.833,9.166 -0.833,19.166 0,31.666Z" style="fill-rule:nonzero;"/><rect x="2377.71" y="1426.61" width="65.417" height="31.25" style="fill-rule:nonzero;"/><path d="M2785.21,1150.36l-206.25,-1.667l0.417,0.417l0,-30l205.417,-0l-0,31.666l0.416,-0.416Z" style="fill-rule:nonzero;"/><path d="M2858.12,1181.61l-72.5,-0l0,-32.084l-0.417,0.417l72.917,-0l0,31.667Z" style="fill-rule:nonzero;"/><path d="M2720.21,1050.36l0,31.666l-67.5,0l0.417,-32.083l-0.417,0.417l67.5,-0Z" style="fill-rule:nonzero;"/><path d="M2652.71,1049.94l-35.833,-0l0,-33.333l35.417,-0l-0,33.75l0.416,-0.417Z" style="fill-rule:nonzero;"/><rect x="2720.21" y="1016.61" width="30" height="33.75" style="fill-rule:nonzero;"/><path d="M2857.71,1182.03l30.417,0l0,37.084l-30.417,-0l0,-37.084Z" style="fill-rule:nonzero;"/><path d="M2825.21,911.192l-37.916,-0.417l-0,-30.416l37.083,-0l0,31.25l0.833,-0.417Z" style="fill-rule:nonzero;"/><path d="M2824.38,947.442l0,31.667l-37.083,-0l-0,-31.25l37.5,-0l-0.417,-0.417Z" style="fill-rule:nonzero;"/><path d="M2579.38,1148.69l-0,35.833l-30.417,0l0,-35.833l30.417,-0Z" style="fill-rule:nonzero;"/><path d="M2857.48,947.859l30.224,-0l0,31.25l-30.224,-0l0.224,-34.167l-0.224,2.917Z" style="fill-rule:nonzero;"/><path d="M2547.29,913.692c11.25,-0 22.5,-0.417 34.166,-0.417l-0.416,-0.416c-0,11.25 -0.417,22.916 -0.417,34.166l0.417,-0.416c-11.25,-0.417 -22.084,-0.417 -33.334,-0.834l0.417,0.417c0,-11.25 0,-22.083 -0.417,-33.333l-0.416,0.833Z" style="fill-rule:nonzero;"/><path d="M2580.21,947.025l33.75,0l0,32.084l-33.75,-0c-0.416,-11.25 0.834,-21.667 0.417,-32.5l-0.417,0.416Z" style="fill-rule:nonzero;"/><path d="M2547.29,945.775l-0,32.5l-32.5,0l-0,-32.083l33.333,-0c0,0.417 -0.833,-0.417 -0.833,-0.417Z" style="fill-rule:nonzero;"/><path d="M2857.71,910.775l0,37.084l-33.333,-0.417l0,-36.667l33.333,0Z" style="fill-rule:nonzero;"/><path d="M2857.71,910.775l-0.833,-30l30.417,0l-0,29.584l-30.417,-0l0.833,0.416Z" style="fill-rule:nonzero;"/><path d="M2581.04,913.275l-0,-32.916l32.916,-0l0,32.083l-33.75,-0c0.417,0.417 0.834,0.833 0.834,0.833Z" style="fill-rule:nonzero;"/><path d="M2547.71,913.275l-32.5,0l0,-32.916l31.667,-0l0,33.333c0.417,-0 0.833,-0.417 0.833,-0.417Z" style="fill-rule:nonzero;"/></g><g><path d="M581.404,2023.2l-131.932,-0l0,235.939l67.18,0l-0,-202.349l67.585,-0l-0,202.349l67.18,0l-0,-166.736c-0,-8.633 -1.822,-17.132 -5.464,-25.496c-3.642,-8.363 -8.633,-15.783 -14.974,-22.258c-6.34,-6.475 -13.759,-11.669 -22.258,-15.581c-8.499,-3.912 -17.605,-5.868 -27.317,-5.868Z" style="fill-rule:nonzero;"/><path d="M788.205,2259.14l63.942,0c10.252,0 19.628,-1.821 28.127,-5.463c8.498,-3.643 15.783,-8.566 21.853,-14.772c6.071,-6.205 10.792,-13.557 14.165,-22.056c3.372,-8.499 5.058,-17.604 5.058,-27.317l0,-97.128c0,-9.173 -1.686,-17.941 -5.058,-26.305c-3.373,-8.364 -8.094,-15.716 -14.165,-22.056c-6.07,-6.34 -13.355,-11.399 -21.853,-15.176c-8.499,-3.778 -17.875,-5.666 -28.127,-5.666l-63.942,-0c-9.713,-0 -18.751,1.888 -27.115,5.666c-8.364,3.777 -15.649,8.836 -21.854,15.176c-6.205,6.34 -11.062,13.692 -14.569,22.056c-3.507,8.364 -5.261,17.132 -5.261,26.305l-0,97.128c-0,9.713 1.686,18.818 5.059,27.317c3.372,8.499 8.094,15.851 14.164,22.056c6.071,6.206 13.288,11.129 21.651,14.772c8.364,3.642 17.672,5.463 27.925,5.463Zm65.965,-33.995l-67.584,0l-0,-168.354l67.584,-0l0,168.354Z" style="fill-rule:nonzero;"/><path d="M1021.72,1955.62l-0,67.585l-32.376,-0l-0,33.59l32.376,-0l-0,165.117c-0,4.856 1.011,9.51 3.035,13.962c2.023,4.452 4.721,8.431 8.094,11.938c3.372,3.508 7.352,6.273 11.938,8.297c4.587,2.023 9.308,3.035 14.165,3.035l63.538,0l-0,-33.995l-33.59,0l-0,-168.354l33.59,-0l-0,-33.59l-33.59,-0l-0,-67.585l-67.18,0Z" style="fill-rule:nonzero;"/><path d="M1388.78,2259.14l63.942,0c10.253,0 19.628,-1.821 28.127,-5.463c8.499,-3.643 15.783,-8.566 21.854,-14.772c6.07,-6.205 10.792,-13.557 14.164,-22.056c3.373,-8.499 5.059,-17.604 5.059,-27.317l-0,-97.128c-0,-9.173 -1.686,-17.941 -5.059,-26.305c-3.372,-8.364 -8.094,-15.716 -14.164,-22.056c-6.071,-6.34 -13.355,-11.399 -21.854,-15.176c-8.499,-3.778 -17.874,-5.666 -28.127,-5.666l-63.942,-0c-9.713,-0 -18.751,1.888 -27.115,5.666c-8.363,3.777 -15.648,8.836 -21.853,15.176c-6.206,6.34 -11.062,13.692 -14.57,22.056c-3.507,8.364 -5.261,17.132 -5.261,26.305l0,97.128c0,9.713 1.687,18.818 5.059,27.317c3.373,8.499 8.094,15.851 14.165,22.056c6.07,6.206 13.287,11.129 21.651,14.772c8.364,3.642 17.672,5.463 27.924,5.463Zm65.966,-33.995l-67.585,0l0,-168.354l67.585,-0l-0,168.354Z" style="fill-rule:nonzero;"/><path d="M1725.49,2023.2l-68.394,68.799l0,-136.384l-67.18,0l0,303.524l67.18,0l0,-67.585l68.799,69.204l65.561,-0l-117.363,-119.791l117.363,-117.767l-65.966,-0Z" style="fill-rule:nonzero;"/><path d="M2190.89,1955.62l-67.18,0l0,67.585l-65.156,-0c-8.634,-0 -17.132,1.956 -25.496,5.868c-8.364,3.912 -15.783,9.038 -22.258,15.379c-6.476,6.34 -11.737,13.624 -15.784,21.853c-4.047,8.229 -6.07,16.795 -6.07,25.699l-0,98.746c-0,8.634 2.023,17.065 6.07,25.294c4.047,8.229 9.308,15.513 15.784,21.853c6.475,6.341 13.894,11.467 22.258,15.379c8.364,3.912 16.862,5.868 25.496,5.868l132.336,0l0,-303.524Zm-67.18,101.175l0,168.354l-67.584,0l-0,-168.354l67.584,-0Z" style="fill-rule:nonzero;"/><path d="M2327.68,2259.14l63.943,0c10.252,0 19.628,-1.821 28.126,-5.463c8.499,-3.643 15.784,-8.566 21.854,-14.772c6.071,-6.205 10.792,-13.557 14.164,-22.056c3.373,-8.499 5.059,-17.604 5.059,-27.317l0,-97.128c0,-9.173 -1.686,-17.941 -5.059,-26.305c-3.372,-8.364 -8.093,-15.716 -14.164,-22.056c-6.07,-6.34 -13.355,-11.399 -21.854,-15.176c-8.498,-3.778 -17.874,-5.666 -28.126,-5.666l-63.943,-0c-9.712,-0 -18.751,1.888 -27.114,5.666c-8.364,3.777 -15.649,8.836 -21.854,15.176c-6.205,6.34 -11.062,13.692 -14.569,22.056c-3.508,8.364 -5.261,17.132 -5.261,26.305l-0,97.128c-0,9.713 1.686,18.818 5.058,27.317c3.373,8.499 8.094,15.851 14.165,22.056c6.07,6.206 13.287,11.129 21.651,14.772c8.364,3.642 17.672,5.463 27.924,5.463Zm65.966,-33.995l-67.584,0l-0,-168.354l67.584,-0l0,168.354Z" style="fill-rule:nonzero;"/><path d="M2561.19,1955.62l0,67.585l-32.375,-0l-0,33.59l32.375,-0l0,165.117c0,4.856 1.012,9.51 3.036,13.962c2.023,4.452 4.721,8.431 8.094,11.938c3.372,3.508 7.352,6.273 11.938,8.297c4.587,2.023 9.308,3.035 14.165,3.035l63.537,0l0,-33.995l-33.59,0l0,-168.354l33.59,-0l0,-33.59l-33.59,-0l0,-67.585l-67.18,0Z" style="fill-rule:nonzero;"/><path d="M2926.63,2225.14l0,-168.759l32.376,0c5.126,0 9.915,1.147 14.367,3.44c4.451,2.293 8.364,5.261 11.736,8.903c3.373,3.643 6.071,7.69 8.094,12.141c2.024,4.452 3.035,8.971 3.035,13.558l33.59,-0c0,-8.904 -2.023,-17.672 -6.07,-26.306c-4.047,-8.633 -9.376,-16.255 -15.986,-22.865c-6.61,-6.61 -14.097,-11.939 -22.461,-15.986c-8.363,-4.047 -16.862,-6.07 -25.496,-6.07l-31.971,-0c-8.633,-0 -16.997,1.956 -25.091,5.868c-8.094,3.912 -15.379,9.106 -21.854,15.581c-6.475,6.475 -11.669,13.895 -15.581,22.258c-3.912,8.364 -5.868,16.863 -5.868,25.496l0,97.128c0,8.903 1.956,17.537 5.868,25.901c3.912,8.363 9.039,15.783 15.379,22.258c6.34,6.475 13.625,11.669 21.854,15.581c8.228,3.912 16.66,5.868 25.293,5.868l31.971,0c8.634,0 17.133,-2.091 25.496,-6.273c8.364,-4.182 15.851,-9.578 22.461,-16.188c6.61,-6.61 11.939,-14.232 15.986,-22.865c4.047,-8.634 6.07,-17.402 6.07,-26.306l-33.59,0c0,4.857 -0.944,9.511 -2.833,13.963c-1.888,4.451 -4.519,8.431 -7.891,11.938c-3.373,3.508 -7.352,6.34 -11.939,8.499c-4.586,2.158 -9.443,3.237 -14.569,3.237l-32.376,0Z" style="fill-rule:nonzero;"/><path d="M3166.21,2259.14l63.942,0c10.252,0 19.628,-1.821 28.126,-5.463c8.499,-3.643 15.784,-8.566 21.854,-14.772c6.071,-6.205 10.792,-13.557 14.165,-22.056c3.372,-8.499 5.058,-17.604 5.058,-27.317l0,-97.128c0,-9.173 -1.686,-17.941 -5.058,-26.305c-3.373,-8.364 -8.094,-15.716 -14.165,-22.056c-6.07,-6.34 -13.355,-11.399 -21.854,-15.176c-8.498,-3.778 -17.874,-5.666 -28.126,-5.666l-63.942,-0c-9.713,-0 -18.751,1.888 -27.115,5.666c-8.364,3.777 -15.649,8.836 -21.854,15.176c-6.205,6.34 -11.062,13.692 -14.569,22.056c-3.507,8.364 -5.261,17.132 -5.261,26.305l-0,97.128c-0,9.713 1.686,18.818 5.059,27.317c3.372,8.499 8.094,15.851 14.164,22.056c6.071,6.206 13.288,11.129 21.651,14.772c8.364,3.642 17.672,5.463 27.925,5.463Zm65.965,-33.995l-67.584,0l-0,-168.354l67.584,-0l0,168.354Z" style="fill-rule:nonzero;"/><path d="M3502.11,2056.79l0,202.349l67.18,0l0,-202.349l67.585,-0l-0,202.349l67.18,0l-0,-167.14c-0,-8.904 -1.821,-17.47 -5.464,-25.699c-3.642,-8.229 -8.566,-15.513 -14.771,-21.853c-6.205,-6.341 -13.49,-11.467 -21.854,-15.379c-8.364,-3.912 -17.132,-5.868 -26.305,-5.868l-268.315,-0l-0,235.939l67.18,0l-0,-202.349l67.584,-0Z" style="fill-rule:nonzero;"/><path d="M3772.05,2326.72l67.18,-0l0,-67.585l65.561,0c10.522,0 20.033,-2.023 28.531,-6.07c8.499,-4.047 15.784,-9.376 21.854,-15.986c6.071,-6.61 10.725,-14.097 13.962,-22.461c3.238,-8.364 4.857,-16.727 4.857,-25.091l-0,-97.128c-0,-8.903 -1.754,-17.469 -5.261,-25.698c-3.508,-8.229 -8.364,-15.581 -14.57,-22.056c-6.205,-6.475 -13.557,-11.669 -22.056,-15.581c-8.498,-3.912 -17.604,-5.868 -27.317,-5.868l-132.741,-0l0,303.524Zm67.18,-101.58l0,-168.354l67.585,-0l-0,168.354l-67.585,0Z" style="fill-rule:nonzero;"/><path d="M4111.59,2259.14l132.337,0l-0,-235.939l-67.18,-0l-0,202.349l-67.585,0l-0,-202.349l-67.18,-0l0,167.545c0,9.443 1.754,18.346 5.261,26.71c3.507,8.364 8.431,15.648 14.772,21.854c6.34,6.205 13.759,11.062 22.258,14.569c8.499,3.507 17.604,5.261 27.317,5.261Z" style="fill-rule:nonzero;"/><path d="M4344.29,1955.62l-0,67.585l-32.376,-0l-0,33.59l32.376,-0l-0,165.117c-0,4.856 1.011,9.51 3.035,13.962c2.023,4.452 4.721,8.431 8.094,11.938c3.372,3.508 7.352,6.273 11.939,8.297c4.586,2.023 9.308,3.035 14.164,3.035l63.538,0l-0,-33.995l-33.59,0l-0,-168.354l33.59,-0l-0,-33.59l-33.59,-0l-0,-67.585l-67.18,0Z" style="fill-rule:nonzero;"/><path d="M4580.23,2157.97l133.955,0l0,-65.561c0,-8.633 -1.821,-17.132 -5.463,-25.496c-3.643,-8.363 -8.566,-15.783 -14.772,-22.258c-6.205,-6.475 -13.625,-11.669 -22.258,-15.581c-8.634,-3.912 -17.807,-5.868 -27.52,-5.868l-62.728,-0c-9.173,-0 -17.874,1.956 -26.103,5.868c-8.229,3.912 -15.513,9.106 -21.854,15.581c-6.34,6.475 -11.331,13.895 -14.974,22.258c-3.642,8.364 -5.463,16.863 -5.463,25.496l-0,97.128c-0,8.364 1.821,16.727 5.463,25.091c3.643,8.364 8.567,15.851 14.772,22.461c6.205,6.61 13.422,11.939 21.651,15.986c8.229,4.047 17.065,6.07 26.508,6.07l62.728,0c8.634,0 17.133,-1.821 25.496,-5.463c8.364,-3.643 15.851,-8.634 22.461,-14.974c6.61,-6.34 11.939,-13.558 15.986,-21.652c4.047,-8.094 6.07,-16.592 6.07,-25.496l-33.185,0c-0,4.857 -1.079,9.308 -3.238,13.355c-2.158,4.047 -4.991,7.555 -8.498,10.523c-3.508,2.967 -7.555,5.328 -12.141,7.082c-4.587,1.754 -9.308,2.63 -14.165,2.63l-62.728,0l-0,-67.18Zm66.37,-33.59l-66.37,0l-0,-67.989l66.37,0l0,67.989Z" style="fill-rule:nonzero;"/><path d="M4782.17,2259.14l67.18,0l0,-165.522c0,0 2.429,-1.956 7.285,-5.868c4.856,-3.912 11.736,-8.161 20.64,-12.748c8.903,-4.586 19.56,-8.836 31.971,-12.748c12.41,-3.912 26.17,-5.868 41.279,-5.868l-0,-33.185c-16.997,-0 -31.769,1.754 -44.314,5.261c-12.546,3.507 -23.068,7.285 -31.567,11.332c-8.499,4.046 -14.839,7.824 -19.021,11.331c-4.182,3.507 -6.273,5.261 -6.273,5.261l0,-33.185l-67.18,-0l0,235.939Z" style="fill-rule:nonzero;"/></g></g></svg>