<?xml version="1.0" encoding="UTF-8" standalone="no"?><!DOCTYPE svg PUBLIC "-//W3C//DTD SVG 1.1//EN" "http://www.w3.org/Graphics/SVG/1.1/DTD/svg11.dtd"><svg width="100%" height="100%" viewBox="0 0 5400 3000" version="1.1" xmlns="http://www.w3.org/2000/svg" xmlns:xlink="http://www.w3.org/1999/xlink" xml:space="preserve" xmlns:serif="http://www.serif.com/" style="fill-rule:evenodd;clip-rule:evenodd;stroke-linejoin:round;stroke-miterlimit:2;"><g><rect x="0" y="0" width="5400" height="3000" style="fill:none;"/><g id="g11905"><path id="path11907" d="M4318.12,2436.06c71.419,-237.549 12.852,-557.267 -118.554,-647.191c-63.936,-43.753 -83.225,-45.281 -407.646,-32.305c-159.677,6.387 -452.842,18.027 -651.478,25.866c-456.238,18.007 -492.436,28.531 -703.355,204.496c-127.679,106.52 -373.024,143.306 -459.113,68.836c-51.251,-44.332 -139.658,-48.992 -191.739,-10.106c-37.044,27.658 -43.724,25.583 -42.163,-13.1c3.422,-84.834 46.526,-120.461 188.006,-155.389c230.234,-56.84 355.235,-209.886 334.214,-409.199c-7.967,-75.534 -12.867,-81.693 -41.916,-52.682c-52.096,52.026 -160.186,74.138 -190.894,39.049c-47.01,-53.715 -4.19,-134.034 127.571,-239.288c198.585,-158.635 224.746,-320.36 82.652,-510.955c-64.647,-86.714 -85.449,-170.184 -60.039,-240.921c15.847,-44.118 24.451,-53.887 83.47,-94.778c49.58,-34.351 -144.783,-76.825 -258.378,-56.463c-118.486,21.24 -167.861,54.464 -240.805,162.04c-90.565,133.562 -92.189,236.291 -6.039,382.258c95.964,162.598 36.289,312.28 -128.583,322.52c-67.217,4.175 -111.814,-81.123 -97.186,-185.882l5.837,-41.801l-68.516,29.635c-164.187,71.012 -217.348,224.322 -148.856,429.28c58.143,173.991 48.436,218.574 -66.305,304.507c-227.778,170.592 -273.41,436.458 -108.525,632.3c123.099,146.21 350.247,184.531 513.399,86.612l46.65,-27.998l13.21,37.811c31.574,90.378 211.468,108.47 267.007,26.854c15.525,-22.808 48.432,-28.557 172.047,-30.041c147.027,-1.765 173.287,4.932 256.019,65.293c227.091,165.686 267.368,184.643 398.991,187.778c147.568,3.517 1221.5,-28.698 1265.53,-37.962c104.619,-22.012 204.049,-114.514 235.485,-219.074Z" style="fill:#fff;fill-rule:nonzero;"/><path id="path119071" serif:id="path11907" d="M4134.89,2567.03c-57.821,32.87 -77.851,34.582 -608.666,52.033c-626.131,20.584 -743.945,21.064 -813.337,3.314c-70.138,-17.941 -190.443,-96.749 -232.996,-152.628l-29.884,-39.243l91.011,53.054c128.122,74.689 172.424,80.301 599.807,75.988c740.663,-7.475 1000.24,-29.709 1070.02,-91.651c31.666,-28.11 31.665,-28.096 -2.645,24.424c-23.143,35.423 -47.033,59.77 -73.31,74.709Zm79.043,-539.521c-97.21,-65.906 -120.624,-67.209 -764.317,-42.563c-711.934,27.259 -691.474,23.579 -880.542,158.381c-105.294,75.073 -205.427,99.493 -397.244,96.878c-122.044,-1.664 -130.929,-4.909 -145.172,-53.019c-13.92,-47.019 -15.069,-46.509 116.194,-51.515c178.247,-6.798 278.588,-43.444 383.277,-139.979c138.346,-127.57 186.486,-139.991 613.575,-158.315c1015.43,-43.567 1030.73,-42.436 1095.93,81c16.807,31.82 50.824,145.634 45.766,153.121c-0.446,0.66 -30.805,-19.135 -67.465,-43.989l-0,-0Zm-1880.31,366.363c-37.058,-3.897 -117.207,-7.766 -178.11,-8.597c-119.193,-1.628 -137.293,-5.572 -105.484,-22.991c60.855,-33.325 272.31,-26.072 327.328,11.229c39.078,26.493 34.567,28.593 -43.734,20.359Zm-489.593,84.306c-54.378,-5.514 -90.509,-38.018 -99.224,-89.262c-8.931,-52.513 2.244,-81.84 12.283,-32.236c15.97,78.909 46.27,41.841 52.406,-64.11c4.358,-75.237 17.103,-78.476 24.077,-6.12c16.105,167.08 12.119,158.686 82.148,172.975c33.424,6.82 -28.815,23.101 -71.69,18.753Zm103.683,-249.996c-18.382,-92.414 -40.115,-113.064 -104.503,-99.289c-37.971,8.123 -45.951,14.228 -61.263,46.863l-17.604,37.522l1.347,-38.374c2.587,-73.694 12.03,-86.319 74.567,-99.698c105.463,-22.563 128.413,4.32 131.985,154.611c2.081,87.524 -6.914,86.925 -24.529,-1.635Z" style="fill-rule:nonzero;"/><g id="path119072" serif:id="path11907"></g><path id="path119073" serif:id="path11907" d="M2065.05,1775.45c-28.225,16.878 -99.191,43.936 -157.703,60.129c-176.325,48.799 -224.277,111.985 -193.458,254.92c17.73,82.232 13.958,104.583 -14.403,85.355c-47.673,-32.321 -70.885,-122.962 -56.816,-221.862l5.947,-41.803l-29.334,19.4c-16.133,10.67 -42.934,39.085 -59.557,63.145c-29.871,43.234 -30.296,43.418 -36.441,15.723c-10.096,-45.498 12.443,-98.8 62.437,-147.657c173.15,-169.211 196.288,-318.53 63.326,-408.674c-50.856,-34.479 -101.896,-41.695 -79.773,-11.278c61.871,85.068 6.345,234.698 -129.035,347.712c-149.275,124.615 -190.113,248.939 -120.616,367.197c19.934,33.923 -2.41,57.261 -41.849,43.713l-33.091,-11.368l20.114,51.835c47.411,122.184 236.956,167.756 403.752,97.075c39.96,-16.933 38.786,-0.872 -2.601,35.604c-80.553,70.995 -238.765,89.071 -350.36,40.029c-259.638,-114.1 -287.672,-476.678 -50.34,-651.053c90.875,-66.768 112.306,-87.681 129.471,-126.339c20.502,-46.176 12.329,-128.848 -21.718,-219.675c-59.369,-158.378 -44.256,-269.039 47.473,-347.595c55.734,-47.73 61.849,-46.49 75.623,15.333c39.158,175.76 217.373,187.911 331.073,22.573c56.873,-82.701 57.19,-143.599 1.288,-247.759c-90.251,-168.162 -94.991,-233.118 -25.573,-350.425c65.822,-111.229 229.044,-182.723 341.612,-149.63l38.258,11.247l-23.067,34.024c-58.769,86.684 -41.454,210.599 47.645,340.971c114.623,167.718 84.262,298.965 -102.957,445.067c-189.235,147.675 -181.269,356.465 12.331,323.224c34.69,-5.957 70.696,-16.99 80.013,-24.52c22.175,-17.92 27.56,-2.8 19.424,54.54c-14.909,105.064 -62.583,177.895 -151.095,230.822Z" style="fill:#e20021;fill-rule:nonzero;"/></g><g><path d="M2999.01,2017.87l89.524,174.874l-9.462,-163.562l-0.025,-0.925c-0.159,-5.795 7.075,-9.018 21.703,-9.667l2.406,-0.066c10.826,-0.297 16.531,2.878 17.115,9.526c-1.782,73.846 -1.92,143.636 -0.414,209.37c0.16,5.796 -0.33,10.807 -1.467,15.034c-1.138,4.228 -2.828,7.544 -5.069,9.951c-18.549,22.229 -36.427,36.048 -53.633,41.458c-36.228,-37.014 -68.192,-86.732 -95.89,-149.154c-0.647,9.273 -0.663,25.131 -0.046,47.574c0.617,22.443 1.868,51.533 3.753,87.269l0.005,0.185c0.119,4.316 -2.428,6.545 -7.64,6.689l-0.452,0.012c-14.334,0.394 -23.691,-6.074 -28.07,-19.405c0.06,-154.754 2.621,-234.915 7.684,-240.484c26.252,-12.075 46.245,-18.301 59.978,-18.679Z" style="fill:#f00;fill-rule:nonzero;stroke:#000;stroke-width:3.75px;"/><path d="M3203.49,2012.25c28.191,-0.775 48.779,19.914 61.764,62.066c5.362,17.18 8.54,36.672 9.536,58.477l0.172,6.233c0.52,18.93 -0.421,35.185 -2.822,48.766c-9.981,55.144 -32.631,83.201 -67.952,84.172c-2.047,0.056 -4.13,-0.002 -6.249,-0.175c-41.988,-6.007 -64.746,-44.368 -68.276,-115.081c-0.139,-2.653 -0.243,-5.249 -0.313,-7.788c-2.465,-89.687 22.248,-135.243 74.14,-136.67Zm4.361,126.195c0.125,-2.66 0.148,-5.433 0.069,-8.319c-0.169,-6.118 -0.95,-13.518 -2.345,-22.201c-1.395,-8.683 -3.946,-15.572 -7.654,-20.669c-1.648,-2.265 -3.417,-4.122 -5.307,-5.572c-3.107,-2.456 -6.476,-3.634 -10.107,-3.534c-3.961,0.109 -8.244,1.729 -12.849,4.858c-3.373,2.288 -5.786,7.033 -7.24,14.234c-0.929,4.647 -1.5,10.322 -1.712,17.028c-0.031,1.272 -0.028,2.6 0.01,3.985c0.222,8.08 1.813,17.855 4.771,29.325c3.461,12.958 8.162,21.723 14.102,26.296l0.405,0.335c2.83,2.002 5.665,2.963 8.504,2.885c2.641,-0.072 5.291,-1.011 7.95,-2.817c4.347,-2.892 7.482,-9.043 9.403,-18.452c0.989,-4.879 1.656,-10.673 2,-17.382Z" style="fill:#f00;fill-rule:nonzero;stroke:#000;stroke-width:3.75px;"/><path d="M3262.18,2010.64c59.681,7.178 93.423,10.841 101.225,10.989l3.896,-0.107c8.092,-0.223 20.456,-1.408 37.092,-3.557c9.46,-1.347 17.188,-2.103 23.181,-2.268c2.798,-0.077 5.198,-0.022 7.203,0.165c9.257,2.161 14.095,10.847 14.513,26.057c-0.095,11.117 -3.089,16.756 -8.983,16.919c-0.499,0.013 -1,-0.033 -1.503,-0.14l-32.906,-2.358l0.239,8.692c3.58,130.252 -1.118,199.361 -14.095,207.329c-7.174,4.546 -16.105,6.966 -26.794,7.26c-34.964,0.961 -58.222,-10.48 -69.775,-34.324l17.186,-193.098l-49.299,1.355c-5.614,-0.571 -8.536,-5.02 -8.765,-13.35c-0.023,-0.845 0,-1.812 0.07,-2.901c-0.448,-16.297 2.057,-25.184 7.515,-26.663Z" style="fill:#f00;fill-rule:nonzero;stroke:#000;stroke-width:3.75px;"/><path d="M3543.53,2002.91c34.737,-0.955 59.986,20.172 75.746,63.382c6.509,17.61 10.315,37.607 11.419,59.991l0.176,6.4c0.534,19.435 -0.717,36.131 -3.752,50.09c-12.608,56.68 -40.673,85.617 -84.196,86.814c-2.522,0.069 -5.087,0.021 -7.697,-0.144c-51.697,-5.932 -79.52,-45.193 -83.469,-117.783c-0.157,-2.724 -0.271,-5.389 -0.342,-7.996c-2.532,-92.078 28.174,-138.997 92.115,-140.754Zm4.661,129.555c0.169,-2.732 0.213,-5.58 0.131,-8.542c-0.172,-6.281 -1.094,-13.876 -2.763,-22.784c-1.67,-8.908 -4.774,-15.968 -9.314,-21.18c-2.017,-2.316 -4.186,-4.213 -6.506,-5.691c-3.814,-2.504 -7.958,-3.695 -12.433,-3.572c-4.881,0.134 -10.167,1.821 -15.858,5.061c-4.168,2.368 -7.168,7.254 -9,14.657c-1.171,4.776 -1.907,10.607 -2.206,17.494c-0.045,1.306 -0.049,2.67 -0.009,4.092c0.228,8.295 2.132,18.323 5.711,30.084c4.192,13.286 9.934,22.26 17.226,26.922l0.498,0.342c3.476,2.039 6.962,3.011 10.46,2.915c3.254,-0.09 6.525,-1.069 9.811,-2.938c5.372,-2.994 9.269,-9.328 11.69,-19c1.246,-5.016 2.1,-10.969 2.562,-17.86Z" style="fill:#f00;fill-rule:nonzero;stroke:#000;stroke-width:3.75px;"/><path d="M3686.76,1998.83c25.341,-0.697 38.934,7.243 40.779,23.818l1.995,58.368c2.257,-0.062 22.061,-28.393 59.412,-84.995c12.978,7.665 19.647,18.062 20.008,31.19l0.091,3.311l-57.635,69.077l69.929,122.249c0.996,1.484 1.516,3.04 1.561,4.666c0.042,1.51 -0.391,3.15 -1.298,4.919c-11.596,17.294 -21.647,26.057 -30.151,26.291c-21.746,-42.304 -39.686,-88.317 -53.819,-138.039c-4.447,8.842 -6.592,16.109 -6.436,21.802l2.453,89.225c0.259,9.41 -3.62,16.783 -11.637,22.119c-4.777,3.155 -10.801,5.18 -18.071,6.078c-4.327,0.584 -8.355,0.927 -12.087,1.03c-2.69,0.074 -5.254,0.028 -7.69,-0.138c-30.02,-2.081 -45.274,-12.009 -45.762,-29.785c0.138,-130.802 3.674,-204.379 10.607,-220.731c2.694,-6.236 15.278,-9.721 37.751,-10.455Z" style="fill:#f00;fill-rule:nonzero;stroke:#000;stroke-width:3.75px;"/><path d="M2661.78,2304.71c31.096,-0.854 54.942,18.186 71.539,57.123c3.87,10.975 6.026,24.512 6.468,40.611l0.211,7.677c0.865,31.453 -14.002,59.055 -44.6,82.805c-5.954,4.541 -12.029,8.293 -18.224,11.257c-6.195,2.964 -11.588,5.068 -16.179,6.312c-11.286,2.824 -20.759,4.342 -28.417,4.553c-11.13,-51.566 -17.804,-117.688 -20.022,-198.368c-0.117,-4.281 16.291,-8.27 49.224,-11.97Zm-24.563,115.92c1.838,23.603 4.492,45.648 7.963,66.133c33.162,-5.009 49.447,-18.261 48.856,-39.757c-1.44,-13.93 -6.358,-23.387 -14.754,-28.371c-4.97,-2.936 -10.128,-4.331 -15.476,-4.184c-0.462,0.012 -2.277,0.109 -5.443,0.289c-3.166,0.18 -10.215,2.143 -21.146,5.89Z" style="fill:#f00;fill-rule:nonzero;stroke:#000;stroke-width:3.75px;"/><path d="M2821.62,2300.31c28.191,-0.775 48.748,18.797 61.672,58.716c5.337,16.269 8.487,34.733 9.451,55.391l0.163,5.905c0.493,17.935 -0.471,33.338 -2.893,46.209c-10.059,52.261 -32.75,78.877 -68.071,79.848c-2.046,0.057 -4.129,0.004 -6.247,-0.156c-41.978,-5.632 -64.68,-41.944 -68.108,-108.937c-0.135,-2.514 -0.235,-4.973 -0.301,-7.379c-2.336,-84.972 22.442,-128.171 74.334,-129.597Zm4.179,119.559c0.128,-2.521 0.155,-5.148 0.08,-7.882c-0.159,-5.796 -0.93,-12.807 -2.312,-21.031c-1.383,-8.225 -3.924,-14.749 -7.624,-19.572c-1.645,-2.144 -3.411,-3.901 -5.299,-5.272c-3.103,-2.322 -6.47,-3.434 -10.101,-3.334c-3.961,0.109 -8.247,1.649 -12.856,4.622c-3.376,2.172 -5.796,6.671 -7.26,13.496c-0.936,4.404 -1.515,9.782 -1.737,16.136c-0.033,1.205 -0.031,2.463 0.005,3.776c0.21,7.655 1.786,16.914 4.728,27.777c3.442,12.272 8.13,20.57 14.063,24.894l0.405,0.318c2.827,1.892 5.66,2.799 8.499,2.721c2.641,-0.073 5.292,-0.966 7.954,-2.681c4.351,-2.746 7.495,-8.579 9.43,-17.496c0.996,-4.624 1.671,-10.115 2.025,-16.472Z" style="fill:#f00;fill-rule:nonzero;stroke:#000;stroke-width:3.75px;"/><path d="M2879.33,2298.73c52.654,6.825 82.422,10.312 89.304,10.463l3.436,-0.094c7.138,-0.197 18.042,-1.29 32.713,-3.279c8.342,-1.249 15.157,-1.947 20.444,-2.092c2.467,-0.068 4.585,-0.013 6.353,0.165c8.169,2.042 12.449,10.196 12.841,24.463c-0.066,10.426 -2.698,15.711 -7.897,15.854c-0.44,0.012 -0.882,-0.032 -1.326,-0.133l-29.029,-2.262l0.224,8.153c3.359,122.172 -0.68,186.985 -12.114,194.438c-6.32,4.253 -14.194,6.509 -23.622,6.768c-30.84,0.848 -51.373,-9.919 -61.599,-32.301l14.862,-181.086l-43.483,1.196c-4.953,-0.544 -7.537,-4.722 -7.752,-12.535c-0.022,-0.793 -0.003,-1.7 0.057,-2.721c-0.42,-15.286 1.776,-23.618 6.588,-24.997Z" style="fill:#f00;fill-rule:nonzero;stroke:#000;stroke-width:3.75px;"/><path d="M3206.28,2432.72c-0.674,0.019 -5.403,-1.524 -14.184,-4.628c-3.41,-1.175 -8.249,-2.138 -14.517,-2.888c-1.947,-0.177 -3.89,-0.239 -5.831,-0.186c-4.387,0.121 -8.756,0.875 -13.108,2.264c-21.923,7.178 -32.478,25.579 -31.664,55.202c0.134,4.842 0.571,10.021 1.314,15.537c1.87,12.753 10.044,19.854 24.521,21.301c1.016,0.088 2.072,0.116 3.169,0.086c3.037,-0.083 6.628,-0.73 10.774,-1.94c4.146,-1.21 8.055,-2.615 11.726,-4.215c6.845,-2.842 11.786,-4.304 14.823,-4.388c4.322,0.574 6.757,4.717 7.307,12.431l0.262,9.51c0.1,9.802 -8.965,16.338 -27.196,19.608l-11.643,0.32c-40.748,1.12 -69.944,-24.378 -87.587,-76.495c-3.48,-12.94 -5.359,-24.481 -5.638,-34.625c-1.001,-36.425 5.939,-69.607 20.82,-99.547c6.241,-12.514 14.874,-23.278 25.897,-32.29c11.024,-9.012 22.041,-14.42 33.051,-16.222c5.128,-0.833 10.096,-1.316 14.905,-1.448c21.681,-0.596 39.502,5.778 53.462,19.121c3.729,3.589 6.353,8.42 7.87,14.492c0.77,3.439 1.212,7.234 1.327,11.383c0.091,3.343 -0.021,6.922 -0.338,10.738c-1.923,22.201 -5.438,47.906 -10.545,77.116c-2.1,6.518 -4.627,9.817 -7.58,9.898c-0.422,0.012 -0.887,-0.033 -1.397,-0.135Z" style="fill:#f00;fill-rule:nonzero;stroke:#000;stroke-width:3.75px;"/><path d="M3303.6,2287.06c28.191,-0.775 48.779,19.926 61.765,62.103c5.362,17.19 8.541,36.694 9.537,58.511l0.172,6.237c0.52,18.941 -0.42,35.206 -2.821,48.795c-9.98,55.175 -32.63,83.249 -67.951,84.22c-2.047,0.056 -4.13,-0.003 -6.249,-0.175c-41.988,-6.012 -64.747,-44.395 -68.277,-115.15c-0.14,-2.654 -0.244,-5.252 -0.314,-7.793c-2.467,-89.739 22.246,-135.321 74.138,-136.748Zm4.363,126.268c0.125,-2.661 0.148,-5.436 0.069,-8.323c-0.169,-6.121 -0.95,-13.526 -2.345,-22.214c-1.395,-8.688 -3.947,-15.582 -7.655,-20.681c-1.648,-2.266 -3.417,-4.125 -5.307,-5.575c-3.107,-2.458 -6.475,-3.637 -10.107,-3.537c-3.961,0.109 -8.244,1.729 -12.849,4.861c-3.373,2.289 -5.786,7.036 -7.239,14.242c-0.93,4.649 -1.5,10.328 -1.712,17.038c-0.032,1.272 -0.028,2.601 0.01,3.987c0.222,8.085 1.813,17.865 4.771,29.342c3.462,12.966 8.162,21.736 14.102,26.312l0.406,0.335c2.83,2.003 5.665,2.965 8.503,2.887c2.641,-0.072 5.291,-1.012 7.951,-2.819c4.347,-2.893 7.481,-9.047 9.403,-18.462c0.989,-4.882 1.655,-10.679 1.999,-17.393Z" style="fill:#f00;fill-rule:nonzero;stroke:#000;stroke-width:3.75px;"/><path d="M3423.83,2283.76l9.11,-0.25c1.791,2.654 15.535,55.589 41.233,158.804c3.961,-0.109 13,-43.854 27.115,-131.235c0.849,-5.196 1.655,-9.509 2.42,-12.939c0.764,-3.43 1.495,-5.684 2.192,-6.761c1.844,-2.637 3.822,-3.984 5.935,-4.042c0.726,-0.02 2.416,0.168 5.07,0.566c2.653,0.397 4.916,5.801 6.788,16.212c4.683,28.556 11.287,102.965 19.813,223.228c0.294,10.689 -5.006,16.184 -15.899,16.483l-5.447,0.15c-1.717,0.047 -3.588,-3.134 -5.614,-9.544l-0.974,-35.417c-0.587,-21.38 -2.098,-53.49 -4.531,-96.332c-0.422,-5.749 -0.996,-8.613 -1.723,-8.593c-0.528,0.014 -1.173,1.795 -1.934,5.343c-13.764,90.546 -22.792,135.877 -27.083,135.995c-9.177,0.252 -21.571,-34.792 -37.181,-105.133c0.358,13.039 0.703,48.415 1.034,106.127c0.207,7.518 -6.358,11.46 -19.694,11.827c-3.301,0.091 -11.193,-0.398 -23.677,-1.465c-12.483,-1.068 -19.743,-4.983 -21.779,-11.745c4.318,-162.584 9.679,-243.964 16.083,-244.14c13.616,-4.607 23.197,-6.986 28.743,-7.139Z" style="fill:#f00;fill-rule:nonzero;stroke:#000;stroke-width:3.75px;"/><path d="M3620.21,2285.71c30.716,14.198 46.79,47.311 48.22,99.34c1.271,46.248 -12.882,79.382 -42.46,99.403c-12.825,6.948 -26.598,10.624 -41.321,11.029c-3.037,0.083 -6.077,0.051 -9.12,-0.097l2.74,34.811c-1.607,6.408 -3.864,9.652 -6.769,9.732l-3.763,0.103c-10.827,0.298 -16.501,-9.034 -17.023,-27.996c-0.045,-68.96 -0.188,-129.414 -0.426,-181.36c-0.124,-14.113 0.093,-24.851 0.65,-32.213c0.558,-7.363 1.676,-11.762 3.354,-13.196c4.14,-3.238 9.84,-4.957 17.103,-5.157c25.987,0.79 42.259,2.657 48.815,5.601Zm-45.683,108.343c-1.559,0.969 -2.611,5.973 -3.155,15.013c-0.253,5.214 -0.376,11.581 -0.367,19.102c-0.008,4.513 0.037,8.561 0.136,12.145c0.066,2.429 0.16,4.624 0.28,6.588c0.474,10.054 1.554,15.694 3.24,16.92l7.229,-0.199c14.261,-0.392 24.008,-6.329 29.242,-17.813c2.052,-4.684 2.992,-10.148 2.82,-16.392c-0.013,-0.462 -0.104,-2.571 -0.273,-6.327c-0.169,-3.756 -1.41,-8.032 -3.722,-12.828c-5.332,-11.309 -17.142,-16.712 -35.43,-16.209Z" style="fill:#f00;fill-rule:nonzero;stroke:#000;stroke-width:3.75px;"/><path d="M3745.99,2293.47c-7.773,80.158 -12.35,132.402 -13.729,156.731c-0.085,1.713 -0.103,3.481 -0.052,5.305c0.116,4.216 0.708,8.961 1.778,14.235c1.07,5.273 3.287,10.202 6.651,14.785c3.02,4.137 6.379,6.154 10.076,6.053c16.648,-9.695 24.355,-36.993 23.12,-81.892l-0.855,-31.111c-0.291,-10.598 -3.247,-38.799 -8.867,-84.604c4.855,-8.459 10.782,-12.785 17.78,-12.977c5.48,-0.151 9.208,35.129 11.185,105.839c1.977,70.71 -5.846,114.803 -23.469,132.28c-1.874,1.534 -3.619,2.951 -5.235,4.25c-7.703,5.8 -14.559,8.782 -20.566,8.947c-6.008,0.165 -12.289,-1.202 -18.844,-4.101c-15.709,-6.638 -28.156,-21.977 -37.34,-46.016c-5.34,-13.995 -8.792,-29.011 -10.356,-45.048c-1.193,-12.17 -1.912,-22.699 -2.156,-31.588c-0.085,-3.077 -0.13,-5.927 -0.136,-8.549c0.686,-71.183 4.343,-110.001 10.971,-116.456c1.15,-1.4 5.291,-2.198 12.421,-2.394c4.489,-0.123 12.887,0.13 25.194,0.762c12.306,0.631 19.783,5.814 22.429,15.549Z" style="fill:#f00;fill-rule:nonzero;stroke:#000;stroke-width:3.75px;"/><path d="M3801.23,2273.38c39.514,7.331 61.85,11.099 67.009,11.303l2.575,-0.071c5.347,-0.147 13.512,-1.178 24.493,-3.094c6.243,-1.21 11.346,-1.869 15.307,-1.978c1.848,-0.051 3.436,0.021 4.763,0.215c6.137,2.138 9.405,10.466 9.804,24.984c0.028,10.608 -1.906,15.965 -5.801,16.072c-0.331,0.01 -0.662,-0.039 -0.996,-0.145l-21.773,-2.515l0.228,8.296c3.418,124.328 0.869,190.242 -7.646,197.74c-4.705,4.281 -10.59,6.518 -17.654,6.713c-23.108,0.635 -38.576,-10.471 -46.406,-33.318l9.804,-184.135l-32.581,0.895c-3.716,-0.59 -5.683,-4.86 -5.902,-12.81c-0.022,-0.807 -0.014,-1.729 0.023,-2.768c-0.428,-15.556 1.157,-24.017 4.753,-25.384Z" style="fill:#f00;fill-rule:nonzero;stroke:#000;stroke-width:3.75px;"/><path d="M4021.38,2267.33c13.27,-0.365 20.133,7.75 20.589,24.345l0.019,0.682c0.275,10.003 -4.376,16.273 -13.952,18.811c-14.591,2.79 -25.436,4.851 -32.535,6.184l1.809,65.811c1.056,-0.029 4.409,-0.633 10.059,-1.812c2.232,-0.516 4.635,-0.81 7.21,-0.881c2.575,-0.07 4.633,0.271 6.173,1.025c3.684,1.833 5.598,5.363 5.742,10.592l0.328,11.934c0.234,8.525 -8.665,14.059 -26.699,16.602l1.627,59.163c7.291,-1.566 13.209,-2.582 17.755,-3.048l1.386,-0.038c1.519,-0.042 3.569,0.044 6.152,0.257c2.583,0.214 5.21,0.852 7.882,1.917c2.804,1.06 4.525,2.378 5.163,3.953c1.622,3.709 2.518,8.689 2.69,14.941c0.285,10.343 -29.725,19.472 -90.028,27.386l-7.229,0.198c-7.196,0.198 -11.993,-43.293 -14.389,-130.473l-1.097,-93.984c-0.512,-18.641 15.523,-28.978 48.106,-31.011l43.239,-2.554Z" style="fill:#f00;fill-rule:nonzero;stroke:#000;stroke-width:3.75px;"/><path d="M4168.88,2351.25c1.053,38.283 -17.481,65.893 -55.6,82.831c0.131,4.773 9.559,12.459 28.284,23.057c9.525,5.197 14.911,10.07 16.16,14.617c-1.084,11.046 -5.708,18.289 -13.873,21.731c-15.118,0.415 -31.87,-16.525 -50.256,-50.822l-23.47,0.645l3.343,43.424l2.165,13.832c0.079,0.485 0.125,0.971 0.139,1.458c0.118,4.286 -2.86,6.513 -8.934,6.68c-10.828,0.297 -16.441,-6.811 -16.84,-21.325l-5.919,-202.008c-0.16,-5.845 10.199,-11.15 31.078,-15.916c6.502,-1.446 14.63,-2.596 24.385,-3.449c1.317,-0.133 2.603,-0.218 3.858,-0.252c8.252,-0.227 16.022,1.217 23.31,4.331c17.984,7.694 30.559,24.116 37.726,49.265c2.716,12.306 4.198,22.939 4.444,31.901Zm-97.829,6.784c-1.563,0.823 -2.636,5.044 -3.219,12.664c-0.276,4.394 -0.426,9.76 -0.45,16.097c-0.027,3.803 0,7.214 0.083,10.234c0.057,2.045 0.14,3.895 0.252,5.549c0.431,8.47 1.487,13.217 3.166,14.243l7.23,-0.198c14.26,-0.392 24.032,-5.438 29.315,-15.136c2.072,-3.957 3.035,-8.565 2.891,-13.825c-0.011,-0.39 -0.093,-2.167 -0.246,-5.331c-0.153,-3.164 -1.375,-6.761 -3.666,-10.793c-5.283,-9.505 -17.068,-14.007 -35.356,-13.504Z" style="fill:#f00;fill-rule:nonzero;stroke:#000;stroke-width:3.75px;"/></g></g></svg>