<?xml version="1.0" encoding="UTF-8" standalone="no"?><!DOCTYPE svg PUBLIC "-//W3C//DTD SVG 1.1//EN" "http://www.w3.org/Graphics/SVG/1.1/DTD/svg11.dtd"><svg width="100%" height="100%" viewBox="0 0 5400 3000" version="1.1" xmlns="http://www.w3.org/2000/svg" xmlns:xlink="http://www.w3.org/1999/xlink" xml:space="preserve" xmlns:serif="http://www.serif.com/" style="fill-rule:evenodd;clip-rule:evenodd;stroke-linejoin:round;stroke-miterlimit:2;"><g><rect x="0" y="0" width="5400" height="3000" style="fill:none;"/><g><g><path d="M1838.9,1031.66l-73.055,0c-6.169,0 -10.634,-1.38 -13.393,-4.14c-2.76,-2.76 -4.14,-7.224 -4.14,-13.393l-0,-315.599c-0,-6.169 1.38,-10.633 4.14,-13.393c2.759,-2.76 7.224,-4.14 13.393,-4.14l50.652,-0c6.169,-0 11.445,0.974 15.828,2.922c4.384,1.948 8.686,5.357 12.907,10.228l94.485,108.122l-0,-103.739c-0,-6.169 1.38,-10.633 4.139,-13.393c2.76,-2.76 7.225,-4.14 13.394,-4.14l73.055,-0c6.169,-0 10.634,1.38 13.394,4.14c2.759,2.76 4.139,7.224 4.139,13.393l0,315.599c0,6.169 -1.38,10.633 -4.139,13.393c-2.76,2.76 -7.225,4.14 -13.394,4.14l-73.055,0c-6.169,0 -10.634,-1.38 -13.394,-4.14c-2.759,-2.76 -4.139,-7.224 -4.139,-13.393l-0,-59.905l-83.283,-100.817l-0,160.722c-0,6.169 -1.38,10.633 -4.14,13.393c-2.76,2.76 -7.225,4.14 -13.394,4.14Z" style="fill:#f00;fill-rule:nonzero;"/><path d="M2412.14,939.613c-0,14.935 -2.192,28.491 -6.575,40.667c-4.384,12.176 -12.176,22.566 -23.378,31.17c-11.202,8.604 -26.625,15.342 -46.268,20.212c-19.644,4.871 -44.564,7.306 -74.76,7.306c-30.196,-0 -55.198,-2.435 -75.004,-7.306c-19.806,-4.87 -35.31,-11.608 -46.512,-20.212c-11.201,-8.604 -18.994,-18.994 -23.377,-31.17c-4.384,-12.176 -6.575,-25.732 -6.575,-40.667l-0,-166.079c-0,-14.936 2.191,-28.492 6.575,-40.668c4.383,-12.176 12.176,-22.647 23.377,-31.414c11.202,-8.766 26.706,-15.585 46.512,-20.455c19.806,-4.87 44.808,-7.306 75.004,-7.306c30.196,0 55.116,2.436 74.76,7.306c19.643,4.87 35.066,11.689 46.268,20.455c11.202,8.767 18.994,19.238 23.378,31.414c4.383,12.176 6.575,25.732 6.575,40.668l-0,166.079Zm-191.892,-17.534c-0,6.494 2.435,11.933 7.305,16.316c4.871,4.383 16.072,6.575 33.606,6.575c17.533,-0 28.735,-2.192 33.605,-6.575c4.871,-4.383 7.306,-9.822 7.306,-16.316l-0,-131.012c-0,-6.169 -2.435,-11.445 -7.306,-15.829c-4.87,-4.383 -16.072,-6.575 -33.605,-6.575c-17.534,0 -28.735,2.192 -33.606,6.575c-4.87,4.384 -7.305,9.66 -7.305,15.829l-0,131.012Z" style="fill:#f00;fill-rule:nonzero;"/><path d="M2637.15,1031.66l-78.9,0c-6.169,0 -10.633,-1.38 -13.393,-4.14c-2.76,-2.76 -4.14,-7.224 -4.14,-13.393l-0,-239.134l-71.594,-0c-6.169,-0 -10.634,-1.38 -13.394,-4.14c-2.76,-2.76 -4.14,-7.224 -4.14,-13.394l0,-58.931c0,-6.169 1.38,-10.633 4.14,-13.393c2.76,-2.76 7.225,-4.14 13.394,-4.14l257.154,-0c6.169,-0 10.634,1.38 13.394,4.14c2.76,2.76 4.139,7.224 4.139,13.393l0,58.931c0,6.17 -1.379,10.634 -4.139,13.394c-2.76,2.76 -7.225,4.14 -13.394,4.14l-71.594,-0l0,239.134c0,6.169 -1.38,10.633 -4.14,13.393c-2.76,2.76 -7.224,4.14 -13.393,4.14Z" style="fill:#f00;fill-rule:nonzero;"/><path d="M3192.86,939.613c-0,14.935 -2.192,28.491 -6.575,40.667c-4.383,12.176 -12.176,22.566 -23.378,31.17c-11.202,8.604 -26.624,15.342 -46.268,20.212c-19.644,4.871 -44.564,7.306 -74.76,7.306c-30.196,-0 -55.197,-2.435 -75.003,-7.306c-19.807,-4.87 -35.31,-11.608 -46.512,-20.212c-11.202,-8.604 -18.995,-18.994 -23.378,-31.17c-4.383,-12.176 -6.575,-25.732 -6.575,-40.667l0,-166.079c0,-14.936 2.192,-28.492 6.575,-40.668c4.383,-12.176 12.176,-22.647 23.378,-31.414c11.202,-8.766 26.705,-15.585 46.512,-20.455c19.806,-4.87 44.807,-7.306 75.003,-7.306c30.196,0 55.116,2.436 74.76,7.306c19.644,4.87 35.066,11.689 46.268,20.455c11.202,8.767 18.995,19.238 23.378,31.414c4.383,12.176 6.575,25.732 6.575,40.668l-0,166.079Zm-191.892,-17.534c0,6.494 2.435,11.933 7.306,16.316c4.87,4.383 16.072,6.575 33.605,6.575c17.533,-0 28.735,-2.192 33.605,-6.575c4.871,-4.383 7.306,-9.822 7.306,-16.316l-0,-131.012c-0,-6.169 -2.435,-11.445 -7.306,-15.829c-4.87,-4.383 -16.072,-6.575 -33.605,-6.575c-17.533,0 -28.735,2.192 -33.605,6.575c-4.871,4.384 -7.306,9.66 -7.306,15.829l0,131.012Z" style="fill:#f00;fill-rule:nonzero;"/><path d="M3347.73,1031.66l-75.49,0c-6.17,0 -10.634,-1.38 -13.394,-4.14c-2.76,-2.76 -4.14,-7.224 -4.14,-13.393l0,-315.599c0,-6.169 1.38,-10.633 4.14,-13.393c2.76,-2.76 7.224,-4.14 13.394,-4.14l75.49,-0c6.169,-0 10.634,1.38 13.393,4.14c2.76,2.76 4.14,7.224 4.14,13.393l0,112.018l19.482,0l50.164,-113.479c2.273,-5.844 5.358,-9.984 9.254,-12.419c3.896,-2.436 8.929,-3.653 15.098,-3.653l75.003,-0c5.52,-0 9.254,1.38 11.202,4.14c1.948,2.76 1.786,6.737 -0.487,11.932l-49.677,113.479c18.182,0.974 32.712,7.387 43.589,19.238c10.877,11.851 16.316,27.518 16.316,46.999l-0,137.344c-0,6.169 -1.38,10.633 -4.14,13.393c-2.76,2.76 -7.224,4.14 -13.393,4.14l-75.004,0c-6.169,0 -10.633,-1.38 -13.393,-4.14c-2.76,-2.76 -4.14,-7.224 -4.14,-13.393l0,-94.972c0,-5.195 -1.299,-9.254 -3.896,-12.176c-2.598,-2.922 -6.494,-4.383 -11.689,-4.383l-64.289,-0l0,111.531c0,6.169 -1.38,10.633 -4.14,13.393c-2.759,2.76 -7.224,4.14 -13.393,4.14Z" style="fill:#f00;fill-rule:nonzero;"/><path d="M2345.17,1616.1l-164.131,0c-6.169,0 -10.633,-1.38 -13.393,-4.14c-2.76,-2.759 -4.14,-7.224 -4.14,-13.393l0,-315.599c0,-6.169 1.38,-10.633 4.14,-13.393c2.76,-2.76 7.224,-4.14 13.393,-4.14l164.131,-0c40.587,-0 70.702,8.117 90.345,24.352c19.644,16.234 29.466,41.235 29.466,75.003l-0,151.955c-0,33.768 -9.822,58.769 -29.466,75.003c-19.643,16.235 -49.758,24.352 -90.345,24.352Zm-71.107,-257.641l0,165.592l57.957,-0c7.793,-0 13.556,-1.949 17.29,-5.845c3.734,-3.896 5.601,-9.903 5.601,-18.02l-0,-118.35c-0,-8.117 -1.867,-14.042 -5.601,-17.776c-3.734,-3.734 -9.497,-5.601 -17.29,-5.601l-57.957,-0Z" style="fill:#f00;fill-rule:nonzero;"/><path d="M2823.93,1524.06c-0,14.935 -2.192,28.491 -6.575,40.667c-4.384,12.176 -12.176,22.566 -23.378,31.17c-11.202,8.605 -26.624,15.342 -46.268,20.212c-19.644,4.871 -44.564,7.306 -74.76,7.306c-30.196,-0 -55.197,-2.435 -75.004,-7.306c-19.806,-4.87 -35.31,-11.607 -46.511,-20.212c-11.202,-8.604 -18.995,-18.994 -23.378,-31.17c-4.383,-12.176 -6.575,-25.732 -6.575,-40.667l-0,-166.079c-0,-14.936 2.192,-28.492 6.575,-40.668c4.383,-12.176 12.176,-22.647 23.378,-31.414c11.201,-8.766 26.705,-15.585 46.511,-20.455c19.807,-4.87 44.808,-7.306 75.004,-7.306c30.196,0 55.116,2.436 74.76,7.306c19.644,4.87 35.066,11.689 46.268,20.455c11.202,8.767 18.994,19.238 23.378,31.414c4.383,12.176 6.575,25.732 6.575,40.668l-0,166.079Zm-191.892,-17.534c-0,6.494 2.435,11.933 7.305,16.316c4.871,4.383 16.073,6.575 33.606,6.575c17.533,0 28.735,-2.192 33.605,-6.575c4.871,-4.383 7.306,-9.822 7.306,-16.316l-0,-131.012c-0,-6.169 -2.435,-11.445 -7.306,-15.829c-4.87,-4.383 -16.072,-6.575 -33.605,-6.575c-17.533,0 -28.735,2.192 -33.606,6.575c-4.87,4.384 -7.305,9.66 -7.305,15.829l-0,131.012Z" style="fill:#f00;fill-rule:nonzero;"/><path d="M3048.94,1616.1l-78.9,0c-6.169,0 -10.633,-1.38 -13.393,-4.14c-2.76,-2.759 -4.14,-7.224 -4.14,-13.393l0,-239.134l-71.594,-0c-6.169,-0 -10.634,-1.38 -13.394,-4.14c-2.759,-2.76 -4.139,-7.224 -4.139,-13.394l-0,-58.931c-0,-6.169 1.38,-10.633 4.139,-13.393c2.76,-2.76 7.225,-4.14 13.394,-4.14l257.154,-0c6.17,-0 10.634,1.38 13.394,4.14c2.76,2.76 4.14,7.224 4.14,13.393l-0,58.931c-0,6.17 -1.38,10.634 -4.14,13.394c-2.76,2.76 -7.224,4.14 -13.394,4.14l-71.594,-0l0,239.134c0,6.169 -1.38,10.634 -4.14,13.393c-2.759,2.76 -7.224,4.14 -13.393,4.14Z" style="fill:#f00;fill-rule:nonzero;"/><path d="M1530.85,2200.55l-118.837,0c-40.586,0 -70.701,-8.117 -90.345,-24.351c-19.644,-16.235 -29.466,-41.236 -29.466,-75.004l0,-151.468c0,-33.767 9.822,-58.85 29.466,-75.247c19.644,-16.396 49.759,-24.595 90.345,-24.595l118.837,0c6.169,0 10.633,1.38 13.393,4.14c2.76,2.76 4.14,7.224 4.14,13.393l-0,58.932c-0,6.169 -1.38,10.633 -4.14,13.393c-2.76,2.76 -7.224,4.14 -13.393,4.14l-97.894,-0c-10.066,-0 -17.534,2.029 -22.404,6.088c-4.87,4.058 -7.306,10.146 -7.306,18.264l0,115.914c0,8.117 2.436,14.043 7.306,17.777c4.87,3.734 12.338,5.601 22.404,5.601l97.894,-0c6.169,-0 10.633,1.38 13.393,4.139c2.76,2.76 4.14,7.225 4.14,13.394l-0,57.957c-0,6.169 -1.38,10.634 -4.14,13.394c-2.76,2.759 -7.224,4.139 -13.393,4.139Z" style="fill:#f00;fill-rule:nonzero;"/><path d="M1898.07,2108.5c0,14.935 -2.192,28.491 -6.575,40.667c-4.383,12.176 -12.176,22.566 -23.378,31.17c-11.201,8.605 -26.624,15.342 -46.268,20.212c-19.644,4.871 -44.564,7.306 -74.76,7.306c-30.196,-0 -55.197,-2.435 -75.003,-7.306c-19.806,-4.87 -35.31,-11.607 -46.512,-20.212c-11.202,-8.604 -18.994,-18.994 -23.378,-31.17c-4.383,-12.176 -6.575,-25.732 -6.575,-40.667l0,-166.079c0,-14.936 2.192,-28.492 6.575,-40.668c4.384,-12.176 12.176,-22.647 23.378,-31.413c11.202,-8.767 26.706,-15.586 46.512,-20.456c19.806,-4.87 44.807,-7.305 75.003,-7.305c30.196,-0 55.116,2.435 74.76,7.305c19.644,4.87 35.067,11.689 46.268,20.456c11.202,8.766 18.995,19.237 23.378,31.413c4.383,12.176 6.575,25.732 6.575,40.668l0,166.079Zm-191.892,-17.534c0,6.494 2.435,11.933 7.306,16.316c4.87,4.383 16.072,6.575 33.605,6.575c17.533,0 28.735,-2.192 33.606,-6.575c4.87,-4.383 7.305,-9.822 7.305,-16.316l0,-131.012c0,-6.169 -2.435,-11.445 -7.305,-15.829c-4.871,-4.383 -16.073,-6.575 -33.606,-6.575c-17.533,0 -28.735,2.192 -33.605,6.575c-4.871,4.384 -7.306,9.66 -7.306,15.829l0,131.012Z" style="fill:#f00;fill-rule:nonzero;"/><path d="M2050.03,2200.55l-72.568,0c-6.169,0 -10.634,-1.38 -13.394,-4.139c-2.76,-2.76 -4.139,-7.225 -4.139,-13.394l-0,-315.599c-0,-6.169 1.379,-10.633 4.139,-13.393c2.76,-2.76 7.225,-4.14 13.394,-4.14l78.412,0c5.195,0 9.498,1.136 12.907,3.409c3.409,2.273 6.575,6.007 9.497,11.202l43.833,79.387c1.624,2.922 3.004,5.033 4.14,6.331c1.136,1.299 2.679,1.948 4.627,1.948l4.383,0c1.948,0 3.491,-0.649 4.627,-1.948c1.136,-1.298 2.516,-3.409 4.14,-6.331l43.346,-79.387c2.922,-5.195 6.088,-8.929 9.497,-11.202c3.409,-2.273 7.711,-3.409 12.907,-3.409l78.899,0c6.169,0 10.634,1.38 13.394,4.14c2.76,2.76 4.139,7.224 4.139,13.393l0,315.599c0,6.169 -1.379,10.634 -4.139,13.394c-2.76,2.759 -7.225,4.139 -13.394,4.139l-75.003,0c-6.169,0 -10.634,-1.38 -13.394,-4.139c-2.76,-2.76 -4.139,-7.225 -4.139,-13.394l-0,-171.436l-28.736,53.087c-2.922,5.519 -6.412,9.497 -10.471,11.932c-4.058,2.435 -9.172,3.653 -15.341,3.653l-19.482,-0c-6.169,-0 -11.283,-1.218 -15.341,-3.653c-4.059,-2.435 -7.549,-6.413 -10.472,-11.932l-28.735,-53.087l0,171.436c0,6.169 -1.38,10.634 -4.14,13.394c-2.759,2.759 -7.224,4.139 -13.393,4.139Z" style="fill:#f00;fill-rule:nonzero;"/><path d="M2466.44,2200.55l-75.49,0c-6.17,0 -10.634,-1.38 -13.394,-4.139c-2.76,-2.76 -4.14,-7.225 -4.14,-13.394l0,-315.599c0,-6.169 1.38,-10.633 4.14,-13.393c2.76,-2.76 7.224,-4.14 13.394,-4.14l149.032,0c44.158,0 74.354,8.767 90.589,26.3c16.234,17.533 24.352,40.424 24.352,68.672l-0,62.34c-0,28.248 -8.118,51.139 -24.352,68.672c-16.235,17.534 -46.431,26.3 -90.589,26.3l-56.009,0l0,80.848c0,6.169 -1.38,10.634 -4.14,13.394c-2.759,2.759 -7.224,4.139 -13.393,4.139Zm16.559,-259.589l0,73.542l43.833,-0c9.416,-0 15.585,-2.435 18.508,-7.306c2.922,-4.87 4.383,-10.39 4.383,-16.559l0,-25.813c0,-6.169 -1.461,-11.688 -4.383,-16.559c-2.923,-4.87 -9.092,-7.305 -18.508,-7.305l-43.833,-0Z" style="fill:#f00;fill-rule:nonzero;"/><path d="M3004.13,2108.5c-0,14.935 -2.192,28.491 -6.575,40.667c-4.384,12.176 -12.176,22.566 -23.378,31.17c-11.202,8.605 -26.543,15.342 -46.025,20.212c-19.481,4.871 -44.32,7.306 -74.516,7.306c-30.196,-0 -55.035,-2.435 -74.516,-7.306c-19.482,-4.87 -34.823,-11.607 -46.025,-20.212c-11.202,-8.604 -18.995,-18.994 -23.378,-31.17c-4.383,-12.176 -6.575,-25.732 -6.575,-40.667l0,-241.083c0,-6.169 1.38,-10.633 4.14,-13.393c2.76,-2.76 7.224,-4.14 13.393,-4.14l76.465,0c6.169,0 10.633,1.38 13.393,4.14c2.76,2.76 4.14,7.224 4.14,13.393l0,222.088c0,6.494 2.435,11.933 7.306,16.316c4.87,4.383 15.747,6.575 32.631,6.575c17.209,-0 28.248,-2.192 33.118,-6.575c4.871,-4.383 7.306,-9.822 7.306,-16.316l-0,-222.088c-0,-6.169 1.38,-10.633 4.14,-13.393c2.76,-2.76 7.224,-4.14 13.393,-4.14l74.029,0c6.17,0 10.634,1.38 13.394,4.14c2.76,2.76 4.14,7.224 4.14,13.393l-0,241.083Z" style="fill:#f00;fill-rule:nonzero;"/><path d="M3234.5,2200.55l-78.899,0c-6.169,0 -10.634,-1.38 -13.394,-4.139c-2.76,-2.76 -4.14,-7.225 -4.14,-13.394l0,-239.134l-71.594,-0c-6.169,-0 -10.633,-1.38 -13.393,-4.14c-2.76,-2.76 -4.14,-7.224 -4.14,-13.393l-0,-58.932c-0,-6.169 1.38,-10.633 4.14,-13.393c2.76,-2.76 7.224,-4.14 13.393,-4.14l257.155,0c6.169,0 10.633,1.38 13.393,4.14c2.76,2.76 4.14,7.224 4.14,13.393l0,58.932c0,6.169 -1.38,10.633 -4.14,13.393c-2.76,2.76 -7.224,4.14 -13.393,4.14l-71.594,-0l-0,239.134c-0,6.169 -1.38,10.634 -4.14,13.394c-2.76,2.759 -7.225,4.139 -13.394,4.139Z" style="fill:#f00;fill-rule:nonzero;"/><path d="M3631.92,2200.55l-225.984,0c-6.169,0 -10.634,-1.38 -13.394,-4.139c-2.76,-2.76 -4.14,-7.225 -4.14,-13.394l0,-315.599c0,-6.169 1.38,-10.633 4.14,-13.393c2.76,-2.76 7.225,-4.14 13.394,-4.14l225.984,0c6.169,0 10.634,1.38 13.393,4.14c2.76,2.76 4.14,7.224 4.14,13.393l0,56.983c0,6.17 -1.38,10.634 -4.14,13.394c-2.759,2.76 -7.224,4.14 -13.393,4.14l-134.422,-0l0,37.501l94.972,0c6.169,0 10.634,1.38 13.394,4.14c2.759,2.76 4.139,7.225 4.139,13.394l0,52.112c0,6.17 -1.38,10.634 -4.139,13.394c-2.76,2.76 -7.225,4.14 -13.394,4.14l-94.972,-0l0,41.885l134.422,-0c6.169,-0 10.634,1.38 13.393,4.14c2.76,2.759 4.14,7.224 4.14,13.393l0,56.983c0,6.169 -1.38,10.634 -4.14,13.394c-2.759,2.759 -7.224,4.139 -13.393,4.139Z" style="fill:#f00;fill-rule:nonzero;"/><path d="M3816.99,1937.55l0,62.341l36.528,-0c8.442,-0 14.124,-2.192 17.046,-6.575c2.922,-4.383 4.383,-9.822 4.383,-16.316l0,-16.559c0,-6.494 -1.461,-11.932 -4.383,-16.316c-2.922,-4.383 -8.604,-6.575 -17.046,-6.575l-36.528,0Zm-17.533,262.999l-75.003,0c-6.169,0 -10.634,-1.38 -13.394,-4.139c-2.76,-2.76 -4.14,-7.225 -4.14,-13.394l0,-315.599c0,-6.169 1.38,-10.633 4.14,-13.393c2.76,-2.76 7.225,-4.14 13.394,-4.14l162.182,0c36.366,0 61.448,7.549 75.247,22.647c13.8,15.098 20.699,34.661 20.699,58.688l0,22.404c0,13.637 -2.029,25.244 -6.088,34.823c-4.058,9.578 -11.12,16.478 -21.186,20.699c17.534,1.948 31.739,9.091 42.616,21.429c10.877,12.338 16.315,28.735 16.315,49.191l0,103.251c0,6.169 -1.379,10.634 -4.139,13.394c-2.76,2.759 -7.225,4.139 -13.394,4.139l-75.49,0c-6.169,0 -10.634,-1.38 -13.394,-4.139c-2.76,-2.76 -4.139,-7.225 -4.139,-13.394l-0,-74.516c-0,-7.143 -1.38,-12.42 -4.14,-15.829c-2.76,-3.409 -7.549,-5.114 -14.368,-5.114l-68.185,0l0,95.459c0,6.169 -1.38,10.634 -4.14,13.394c-2.759,2.759 -7.224,4.139 -13.393,4.139Z" style="fill:#f00;fill-rule:nonzero;"/></g><g><path d="M1857.61,1055.35l-73.056,-0c-6.169,-0 -10.633,-1.38 -13.393,-4.14c-2.76,-2.76 -4.14,-7.225 -4.14,-13.394l0,-315.598c0,-6.17 1.38,-10.634 4.14,-13.394c2.76,-2.76 7.224,-4.14 13.393,-4.14l50.652,0c6.169,0 11.445,0.974 15.829,2.922c4.383,1.949 8.685,5.358 12.906,10.228l94.485,108.122l-0,-103.738c-0,-6.17 1.38,-10.634 4.14,-13.394c2.759,-2.76 7.224,-4.14 13.393,-4.14l73.055,0c6.169,0 10.634,1.38 13.394,4.14c2.76,2.76 4.14,7.224 4.14,13.394l-0,315.598c-0,6.169 -1.38,10.634 -4.14,13.394c-2.76,2.76 -7.225,4.14 -13.394,4.14l-73.055,-0c-6.169,-0 -10.634,-1.38 -13.393,-4.14c-2.76,-2.76 -4.14,-7.225 -4.14,-13.394l-0,-59.905l-83.283,-100.816l-0,160.721c-0,6.169 -1.38,10.634 -4.14,13.394c-2.76,2.76 -7.224,4.14 -13.393,4.14Z" style="fill:#f70;fill-rule:nonzero;"/><path d="M2430.85,963.304c-0,14.936 -2.192,28.491 -6.575,40.667c-4.383,12.176 -12.176,22.566 -23.378,31.171c-11.202,8.604 -26.624,15.341 -46.268,20.212c-19.644,4.87 -44.564,7.305 -74.76,7.305c-30.196,0 -55.197,-2.435 -75.003,-7.305c-19.807,-4.871 -35.31,-11.608 -46.512,-20.212c-11.202,-8.605 -18.995,-18.995 -23.378,-31.171c-4.383,-12.176 -6.575,-25.731 -6.575,-40.667l0,-166.079c0,-14.936 2.192,-28.492 6.575,-40.668c4.383,-12.175 12.176,-22.647 23.378,-31.413c11.202,-8.767 26.705,-15.585 46.512,-20.456c19.806,-4.87 44.807,-7.305 75.003,-7.305c30.196,-0 55.116,2.435 74.76,7.305c19.644,4.871 35.066,11.689 46.268,20.456c11.202,8.766 18.995,19.238 23.378,31.413c4.383,12.176 6.575,25.732 6.575,40.668l-0,166.079Zm-191.892,-17.533c0,6.493 2.435,11.932 7.306,16.315c4.87,4.384 16.072,6.575 33.605,6.575c17.533,0 28.735,-2.191 33.605,-6.575c4.871,-4.383 7.306,-9.822 7.306,-16.315l-0,-131.013c-0,-6.169 -2.435,-11.445 -7.306,-15.828c-4.87,-4.384 -16.072,-6.575 -33.605,-6.575c-17.533,-0 -28.735,2.191 -33.605,6.575c-4.871,4.383 -7.306,9.659 -7.306,15.828l0,131.013Z" style="fill:#f70;fill-rule:nonzero;"/><path d="M2655.86,1055.35l-78.9,-0c-6.169,-0 -10.633,-1.38 -13.393,-4.14c-2.76,-2.76 -4.14,-7.225 -4.14,-13.394l0,-239.134l-71.594,0c-6.169,0 -10.634,-1.38 -13.394,-4.14c-2.759,-2.76 -4.139,-7.224 -4.139,-13.393l-0,-58.931c-0,-6.17 1.38,-10.634 4.139,-13.394c2.76,-2.76 7.225,-4.14 13.394,-4.14l257.154,0c6.17,0 10.634,1.38 13.394,4.14c2.76,2.76 4.14,7.224 4.14,13.394l-0,58.931c-0,6.169 -1.38,10.633 -4.14,13.393c-2.76,2.76 -7.224,4.14 -13.394,4.14l-71.594,0l0,239.134c0,6.169 -1.38,10.634 -4.14,13.394c-2.759,2.76 -7.224,4.14 -13.393,4.14Z" style="fill:#f70;fill-rule:nonzero;"/><path d="M3211.57,963.304c0,14.936 -2.192,28.491 -6.575,40.667c-4.383,12.176 -12.176,22.566 -23.378,31.171c-11.201,8.604 -26.624,15.341 -46.268,20.212c-19.644,4.87 -44.564,7.305 -74.76,7.305c-30.196,0 -55.197,-2.435 -75.003,-7.305c-19.806,-4.871 -35.31,-11.608 -46.512,-20.212c-11.202,-8.605 -18.994,-18.995 -23.378,-31.171c-4.383,-12.176 -6.575,-25.731 -6.575,-40.667l0,-166.079c0,-14.936 2.192,-28.492 6.575,-40.668c4.384,-12.175 12.176,-22.647 23.378,-31.413c11.202,-8.767 26.706,-15.585 46.512,-20.456c19.806,-4.87 44.807,-7.305 75.003,-7.305c30.196,-0 55.116,2.435 74.76,7.305c19.644,4.871 35.067,11.689 46.268,20.456c11.202,8.766 18.995,19.238 23.378,31.413c4.383,12.176 6.575,25.732 6.575,40.668l0,166.079Zm-191.892,-17.533c0,6.493 2.435,11.932 7.306,16.315c4.87,4.384 16.072,6.575 33.605,6.575c17.533,0 28.735,-2.191 33.606,-6.575c4.87,-4.383 7.305,-9.822 7.305,-16.315l0,-131.013c0,-6.169 -2.435,-11.445 -7.305,-15.828c-4.871,-4.384 -16.073,-6.575 -33.606,-6.575c-17.533,-0 -28.735,2.191 -33.605,6.575c-4.871,4.383 -7.306,9.659 -7.306,15.828l0,131.013Z" style="fill:#f70;fill-rule:nonzero;"/><path d="M3366.45,1055.35l-75.49,-0c-6.169,-0 -10.634,-1.38 -13.394,-4.14c-2.76,-2.76 -4.139,-7.225 -4.139,-13.394l-0,-315.598c-0,-6.17 1.379,-10.634 4.139,-13.394c2.76,-2.76 7.225,-4.14 13.394,-4.14l75.49,0c6.169,0 10.634,1.38 13.394,4.14c2.76,2.76 4.139,7.224 4.139,13.394l0,112.018l19.482,-0l50.164,-113.48c2.273,-5.844 5.358,-9.984 9.254,-12.419c3.896,-2.435 8.929,-3.653 15.098,-3.653l75.004,0c5.519,0 9.253,1.38 11.201,4.14c1.949,2.76 1.786,6.737 -0.487,11.932l-49.677,113.48c18.182,0.974 32.712,7.386 43.589,19.237c10.878,11.852 16.316,27.518 16.316,46.999l0,137.344c0,6.169 -1.38,10.634 -4.14,13.394c-2.76,2.76 -7.224,4.14 -13.393,4.14l-75.004,-0c-6.169,-0 -10.633,-1.38 -13.393,-4.14c-2.76,-2.76 -4.14,-7.225 -4.14,-13.394l0,-94.972c0,-5.195 -1.299,-9.253 -3.896,-12.175c-2.598,-2.923 -6.494,-4.384 -11.689,-4.384l-64.289,0l0,111.531c0,6.169 -1.379,10.634 -4.139,13.394c-2.76,2.76 -7.225,4.14 -13.394,4.14Z" style="fill:#f70;fill-rule:nonzero;"/><path d="M2363.88,1639.8l-164.131,-0c-6.169,-0 -10.634,-1.38 -13.394,-4.14c-2.76,-2.76 -4.14,-7.225 -4.14,-13.394l0,-315.598c0,-6.17 1.38,-10.634 4.14,-13.394c2.76,-2.76 7.225,-4.14 13.394,-4.14l164.131,0c40.586,0 70.701,8.118 90.345,24.352c19.643,16.235 29.465,41.236 29.465,75.003l0,151.955c0,33.768 -9.822,58.769 -29.465,75.004c-19.644,16.234 -49.759,24.352 -90.345,24.352Zm-71.108,-257.642l0,165.592l57.958,-0c7.792,-0 13.555,-1.948 17.289,-5.844c3.734,-3.897 5.601,-9.903 5.601,-18.021l0,-118.349c0,-8.118 -1.867,-14.043 -5.601,-17.777c-3.734,-3.734 -9.497,-5.601 -17.289,-5.601l-57.958,0Z" style="fill:#f70;fill-rule:nonzero;"/><path d="M2842.64,1547.75c-0,14.936 -2.192,28.492 -6.575,40.667c-4.383,12.176 -12.176,22.566 -23.378,31.171c-11.201,8.604 -26.624,15.341 -46.268,20.212c-19.644,4.87 -44.564,7.305 -74.76,7.305c-30.196,0 -55.197,-2.435 -75.003,-7.305c-19.806,-4.871 -35.31,-11.608 -46.512,-20.212c-11.202,-8.605 -18.995,-18.995 -23.378,-31.171c-4.383,-12.175 -6.575,-25.731 -6.575,-40.667l0,-166.079c0,-14.936 2.192,-28.492 6.575,-40.667c4.383,-12.176 12.176,-22.648 23.378,-31.414c11.202,-8.767 26.706,-15.585 46.512,-20.456c19.806,-4.87 44.807,-7.305 75.003,-7.305c30.196,-0 55.116,2.435 74.76,7.305c19.644,4.871 35.067,11.689 46.268,20.456c11.202,8.766 18.995,19.238 23.378,31.414c4.383,12.175 6.575,25.731 6.575,40.667l-0,166.079Zm-191.892,-17.533c0,6.494 2.435,11.932 7.306,16.315c4.87,4.384 16.072,6.575 33.605,6.575c17.533,0 28.735,-2.191 33.606,-6.575c4.87,-4.383 7.305,-9.821 7.305,-16.315l0,-131.013c0,-6.169 -2.435,-11.445 -7.305,-15.828c-4.871,-4.384 -16.073,-6.575 -33.606,-6.575c-17.533,-0 -28.735,2.191 -33.605,6.575c-4.871,4.383 -7.306,9.659 -7.306,15.828l0,131.013Z" style="fill:#f70;fill-rule:nonzero;"/><path d="M3067.65,1639.8l-78.899,-0c-6.17,-0 -10.634,-1.38 -13.394,-4.14c-2.76,-2.76 -4.14,-7.225 -4.14,-13.394l0,-239.134l-71.594,0c-6.169,0 -10.634,-1.38 -13.393,-4.14c-2.76,-2.76 -4.14,-7.224 -4.14,-13.393l-0,-58.931c-0,-6.17 1.38,-10.634 4.14,-13.394c2.759,-2.76 7.224,-4.14 13.393,-4.14l257.155,0c6.169,0 10.633,1.38 13.393,4.14c2.76,2.76 4.14,7.224 4.14,13.394l-0,58.931c-0,6.169 -1.38,10.633 -4.14,13.393c-2.76,2.76 -7.224,4.14 -13.393,4.14l-71.595,0l0,239.134c0,6.169 -1.379,10.634 -4.139,13.394c-2.76,2.76 -7.225,4.14 -13.394,4.14Z" style="fill:#f70;fill-rule:nonzero;"/><path d="M1549.56,2224.24l-118.837,-0c-40.586,-0 -70.701,-8.118 -90.345,-24.352c-19.643,-16.235 -29.465,-41.236 -29.465,-75.003l-0,-151.468c-0,-33.768 9.822,-58.85 29.465,-75.247c19.644,-16.397 49.759,-24.596 90.345,-24.596l118.837,0c6.169,0 10.633,1.38 13.393,4.14c2.76,2.76 4.14,7.225 4.14,13.394l0,58.931c0,6.169 -1.38,10.634 -4.14,13.393c-2.76,2.76 -7.224,4.14 -13.393,4.14l-97.894,0c-10.066,0 -17.533,2.03 -22.404,6.088c-4.87,4.059 -7.305,10.147 -7.305,18.264l-0,115.914c-0,8.118 2.435,14.043 7.305,17.777c4.871,3.734 12.338,5.601 22.404,5.601l97.894,-0c6.169,-0 10.633,1.38 13.393,4.14c2.76,2.76 4.14,7.224 4.14,13.393l0,57.957c0,6.17 -1.38,10.634 -4.14,13.394c-2.76,2.76 -7.224,4.14 -13.393,4.14Z" style="fill:#f70;fill-rule:nonzero;"/><path d="M1916.79,2132.19c0,14.936 -2.191,28.492 -6.575,40.667c-4.383,12.176 -12.176,22.566 -23.377,31.171c-11.202,8.604 -26.625,15.341 -46.269,20.212c-19.643,4.87 -44.563,7.305 -74.76,7.305c-30.196,0 -55.197,-2.435 -75.003,-7.305c-19.806,-4.871 -35.31,-11.608 -46.512,-20.212c-11.202,-8.605 -18.994,-18.995 -23.378,-31.171c-4.383,-12.175 -6.574,-25.731 -6.574,-40.667l-0,-166.079c-0,-14.936 2.191,-28.491 6.574,-40.667c4.384,-12.176 12.176,-22.647 23.378,-31.414c11.202,-8.767 26.706,-15.585 46.512,-20.456c19.806,-4.87 44.807,-7.305 75.003,-7.305c30.197,-0 55.117,2.435 74.76,7.305c19.644,4.871 35.067,11.689 46.269,20.456c11.201,8.767 18.994,19.238 23.377,31.414c4.384,12.176 6.575,25.731 6.575,40.667l0,166.079Zm-191.892,-17.533c0,6.494 2.436,11.932 7.306,16.315c4.87,4.384 16.072,6.575 33.605,6.575c17.534,0 28.735,-2.191 33.606,-6.575c4.87,-4.383 7.305,-9.821 7.305,-16.315l0,-131.013c0,-6.169 -2.435,-11.445 -7.305,-15.828c-4.871,-4.384 -16.072,-6.575 -33.606,-6.575c-17.533,-0 -28.735,2.191 -33.605,6.575c-4.87,4.383 -7.306,9.659 -7.306,15.828l0,131.013Z" style="fill:#f70;fill-rule:nonzero;"/><path d="M2068.74,2224.24l-72.568,-0c-6.169,-0 -10.634,-1.38 -13.393,-4.14c-2.76,-2.76 -4.14,-7.224 -4.14,-13.394l-0,-315.598c-0,-6.169 1.38,-10.634 4.14,-13.394c2.759,-2.76 7.224,-4.14 13.393,-4.14l78.413,0c5.195,0 9.497,1.137 12.906,3.41c3.409,2.273 6.575,6.006 9.497,11.201l43.833,79.387c1.624,2.922 3.004,5.033 4.14,6.332c1.137,1.298 2.679,1.948 4.627,1.948l4.383,-0c1.949,-0 3.491,-0.65 4.627,-1.948c1.137,-1.299 2.517,-3.41 4.14,-6.332l43.346,-79.387c2.922,-5.195 6.088,-8.928 9.497,-11.201c3.41,-2.273 7.712,-3.41 12.907,-3.41l78.899,0c6.17,0 10.634,1.38 13.394,4.14c2.76,2.76 4.14,7.225 4.14,13.394l-0,315.598c-0,6.17 -1.38,10.634 -4.14,13.394c-2.76,2.76 -7.224,4.14 -13.394,4.14l-75.003,-0c-6.169,-0 -10.634,-1.38 -13.393,-4.14c-2.76,-2.76 -4.14,-7.224 -4.14,-13.394l-0,-171.436l-28.735,53.087c-2.923,5.52 -6.413,9.497 -10.472,11.932c-4.058,2.435 -9.172,3.653 -15.341,3.653l-19.482,0c-6.169,0 -11.283,-1.218 -15.341,-3.653c-4.059,-2.435 -7.549,-6.412 -10.471,-11.932l-28.735,-53.087l-0,171.436c-0,6.17 -1.38,10.634 -4.14,13.394c-2.76,2.76 -7.225,4.14 -13.394,4.14Z" style="fill:#f70;fill-rule:nonzero;"/><path d="M2485.16,2224.24l-75.49,-0c-6.169,-0 -10.634,-1.38 -13.394,-4.14c-2.76,-2.76 -4.139,-7.224 -4.139,-13.394l-0,-315.598c-0,-6.169 1.379,-10.634 4.139,-13.394c2.76,-2.76 7.225,-4.14 13.394,-4.14l149.033,0c44.157,0 74.354,8.767 90.588,26.3c16.235,17.534 24.352,40.424 24.352,68.672l-0,62.341c-0,28.248 -8.117,51.138 -24.352,68.672c-16.234,17.533 -46.431,26.3 -90.588,26.3l-56.01,-0l0,80.847c0,6.17 -1.379,10.634 -4.139,13.394c-2.76,2.76 -7.225,4.14 -13.394,4.14Zm16.559,-259.59l0,73.542l43.834,0c9.416,0 15.585,-2.435 18.507,-7.305c2.922,-4.871 4.383,-10.39 4.383,-16.559l0,-25.813c0,-6.169 -1.461,-11.689 -4.383,-16.559c-2.922,-4.871 -9.091,-7.306 -18.507,-7.306l-43.834,-0Z" style="fill:#f70;fill-rule:nonzero;"/><path d="M3022.84,2132.19c-0,14.936 -2.192,28.492 -6.575,40.667c-4.383,12.176 -12.176,22.566 -23.378,31.171c-11.202,8.604 -26.543,15.341 -46.025,20.212c-19.481,4.87 -44.32,7.305 -74.516,7.305c-30.196,0 -55.035,-2.435 -74.516,-7.305c-19.482,-4.871 -34.823,-11.608 -46.025,-20.212c-11.202,-8.605 -18.994,-18.995 -23.378,-31.171c-4.383,-12.175 -6.575,-25.731 -6.575,-40.667l0,-241.082c0,-6.169 1.38,-10.634 4.14,-13.394c2.76,-2.76 7.224,-4.14 13.394,-4.14l76.464,0c6.169,0 10.634,1.38 13.394,4.14c2.759,2.76 4.139,7.225 4.139,13.394l0,222.088c0,6.493 2.435,11.932 7.306,16.315c4.87,4.384 15.747,6.575 32.631,6.575c17.209,0 28.248,-2.191 33.119,-6.575c4.87,-4.383 7.305,-9.822 7.305,-16.315l0,-222.088c0,-6.169 1.38,-10.634 4.14,-13.394c2.76,-2.76 7.224,-4.14 13.393,-4.14l74.03,0c6.169,0 10.633,1.38 13.393,4.14c2.76,2.76 4.14,7.225 4.14,13.394l-0,241.082Z" style="fill:#f70;fill-rule:nonzero;"/><path d="M3253.21,2224.24l-78.9,-0c-6.169,-0 -10.634,-1.38 -13.394,-4.14c-2.759,-2.76 -4.139,-7.224 -4.139,-13.394l-0,-239.134l-71.595,0c-6.169,0 -10.633,-1.38 -13.393,-4.14c-2.76,-2.759 -4.14,-7.224 -4.14,-13.393l0,-58.931c0,-6.169 1.38,-10.634 4.14,-13.394c2.76,-2.76 7.224,-4.14 13.393,-4.14l257.155,0c6.169,0 10.634,1.38 13.393,4.14c2.76,2.76 4.14,7.225 4.14,13.394l0,58.931c0,6.169 -1.38,10.634 -4.14,13.393c-2.759,2.76 -7.224,4.14 -13.393,4.14l-71.594,0l-0,239.134c-0,6.17 -1.38,10.634 -4.14,13.394c-2.76,2.76 -7.224,4.14 -13.393,4.14Z" style="fill:#f70;fill-rule:nonzero;"/><path d="M3650.63,2224.24l-225.984,-0c-6.169,-0 -10.634,-1.38 -13.394,-4.14c-2.759,-2.76 -4.139,-7.224 -4.139,-13.394l-0,-315.598c-0,-6.169 1.38,-10.634 4.139,-13.394c2.76,-2.76 7.225,-4.14 13.394,-4.14l225.984,0c6.169,0 10.634,1.38 13.394,4.14c2.759,2.76 4.139,7.225 4.139,13.394l0,56.983c0,6.169 -1.38,10.633 -4.139,13.393c-2.76,2.76 -7.225,4.14 -13.394,4.14l-134.422,0l0,37.502l94.972,-0c6.169,-0 10.634,1.38 13.394,4.14c2.76,2.759 4.14,7.224 4.14,13.393l-0,52.113c-0,6.169 -1.38,10.633 -4.14,13.393c-2.76,2.76 -7.225,4.14 -13.394,4.14l-94.972,0l0,41.885l134.422,0c6.169,0 10.634,1.38 13.394,4.14c2.759,2.76 4.139,7.224 4.139,13.393l0,56.983c0,6.17 -1.38,10.634 -4.139,13.394c-2.76,2.76 -7.225,4.14 -13.394,4.14Z" style="fill:#f70;fill-rule:nonzero;"/><path d="M3835.7,1961.24l0,62.34l36.528,0c8.442,0 14.124,-2.191 17.046,-6.575c2.923,-4.383 4.384,-9.822 4.384,-16.315l-0,-16.56c-0,-6.493 -1.461,-11.932 -4.384,-16.315c-2.922,-4.384 -8.604,-6.575 -17.046,-6.575l-36.528,-0Zm-17.533,262.999l-75.003,-0c-6.169,-0 -10.634,-1.38 -13.394,-4.14c-2.759,-2.76 -4.139,-7.224 -4.139,-13.394l-0,-315.598c-0,-6.169 1.38,-10.634 4.139,-13.394c2.76,-2.76 7.225,-4.14 13.394,-4.14l162.183,0c36.365,0 61.447,7.549 75.246,22.648c13.8,15.098 20.699,34.66 20.699,58.687l0,22.404c0,13.637 -2.029,25.245 -6.088,34.823c-4.058,9.578 -11.12,16.478 -21.186,20.699c17.534,1.948 31.739,9.091 42.616,21.429c10.877,12.339 16.316,28.736 16.316,49.191l-0,103.251c-0,6.17 -1.38,10.634 -4.14,13.394c-2.76,2.76 -7.224,4.14 -13.394,4.14l-75.49,-0c-6.169,-0 -10.634,-1.38 -13.393,-4.14c-2.76,-2.76 -4.14,-7.224 -4.14,-13.394l-0,-74.516c-0,-7.143 -1.38,-12.419 -4.14,-15.829c-2.76,-3.409 -7.549,-5.113 -14.368,-5.113l-68.185,-0l0,95.458c0,6.17 -1.379,10.634 -4.139,13.394c-2.76,2.76 -7.225,4.14 -13.394,4.14Z" style="fill:#f70;fill-rule:nonzero;"/></g><g><path d="M1876.32,1079.05l-73.056,-0c-6.169,-0 -10.633,-1.38 -13.393,-4.14c-2.76,-2.76 -4.14,-7.224 -4.14,-13.393l0,-315.599c0,-6.169 1.38,-10.634 4.14,-13.394c2.76,-2.759 7.224,-4.139 13.393,-4.139l50.652,-0c6.169,-0 11.445,0.974 15.829,2.922c4.383,1.948 8.685,5.357 12.906,10.228l94.485,108.121l0,-103.738c0,-6.169 1.38,-10.634 4.14,-13.394c2.76,-2.759 7.224,-4.139 13.393,-4.139l73.056,-0c6.169,-0 10.633,1.38 13.393,4.139c2.76,2.76 4.14,7.225 4.14,13.394l-0,315.599c-0,6.169 -1.38,10.633 -4.14,13.393c-2.76,2.76 -7.224,4.14 -13.393,4.14l-73.056,-0c-6.169,-0 -10.633,-1.38 -13.393,-4.14c-2.76,-2.76 -4.14,-7.224 -4.14,-13.393l0,-59.906l-83.283,-100.816l0,160.722c0,6.169 -1.38,10.633 -4.14,13.393c-2.76,2.76 -7.224,4.14 -13.393,4.14Z" style="fill:#ffd800;fill-rule:nonzero;"/><path d="M2449.56,986.995c0,14.936 -2.192,28.492 -6.575,40.668c-4.383,12.176 -12.176,22.566 -23.378,31.17c-11.201,8.604 -26.624,15.342 -46.268,20.212c-19.644,4.87 -44.564,7.305 -74.76,7.305c-30.196,0 -55.197,-2.435 -75.003,-7.305c-19.806,-4.87 -35.31,-11.608 -46.512,-20.212c-11.202,-8.604 -18.994,-18.994 -23.378,-31.17c-4.383,-12.176 -6.575,-25.732 -6.575,-40.668l0,-166.079c0,-14.935 2.192,-28.491 6.575,-40.667c4.384,-12.176 12.176,-22.647 23.378,-31.414c11.202,-8.767 26.706,-15.585 46.512,-20.455c19.806,-4.871 44.807,-7.306 75.003,-7.306c30.196,0 55.116,2.435 74.76,7.306c19.644,4.87 35.067,11.688 46.268,20.455c11.202,8.767 18.995,19.238 23.378,31.414c4.383,12.176 6.575,25.732 6.575,40.667l0,166.079Zm-191.892,-17.533c0,6.494 2.435,11.932 7.306,16.316c4.87,4.383 16.072,6.575 33.605,6.575c17.533,-0 28.735,-2.192 33.606,-6.575c4.87,-4.384 7.305,-9.822 7.305,-16.316l0,-131.012c0,-6.17 -2.435,-11.446 -7.305,-15.829c-4.871,-4.383 -16.073,-6.575 -33.606,-6.575c-17.533,-0 -28.735,2.192 -33.605,6.575c-4.871,4.383 -7.306,9.659 -7.306,15.829l0,131.012Z" style="fill:#ffd800;fill-rule:nonzero;"/><path d="M2674.57,1079.05l-78.899,-0c-6.17,-0 -10.634,-1.38 -13.394,-4.14c-2.76,-2.76 -4.14,-7.224 -4.14,-13.393l0,-239.135l-71.594,0c-6.169,0 -10.633,-1.38 -13.393,-4.139c-2.76,-2.76 -4.14,-7.225 -4.14,-13.394l-0,-58.931c-0,-6.169 1.38,-10.634 4.14,-13.394c2.76,-2.759 7.224,-4.139 13.393,-4.139l257.155,-0c6.169,-0 10.633,1.38 13.393,4.139c2.76,2.76 4.14,7.225 4.14,13.394l-0,58.931c-0,6.169 -1.38,10.634 -4.14,13.394c-2.76,2.759 -7.224,4.139 -13.393,4.139l-71.594,0l-0,239.135c-0,6.169 -1.38,10.633 -4.14,13.393c-2.76,2.76 -7.225,4.14 -13.394,4.14Z" style="fill:#ffd800;fill-rule:nonzero;"/><path d="M3230.28,986.995c0,14.936 -2.191,28.492 -6.575,40.668c-4.383,12.176 -12.176,22.566 -23.377,31.17c-11.202,8.604 -26.625,15.342 -46.269,20.212c-19.643,4.87 -44.563,7.305 -74.76,7.305c-30.196,0 -55.197,-2.435 -75.003,-7.305c-19.806,-4.87 -35.31,-11.608 -46.512,-20.212c-11.202,-8.604 -18.994,-18.994 -23.378,-31.17c-4.383,-12.176 -6.575,-25.732 -6.575,-40.668l0,-166.079c0,-14.935 2.192,-28.491 6.575,-40.667c4.384,-12.176 12.176,-22.647 23.378,-31.414c11.202,-8.767 26.706,-15.585 46.512,-20.455c19.806,-4.871 44.807,-7.306 75.003,-7.306c30.197,0 55.117,2.435 74.76,7.306c19.644,4.87 35.067,11.688 46.269,20.455c11.201,8.767 18.994,19.238 23.377,31.414c4.384,12.176 6.575,25.732 6.575,40.667l0,166.079Zm-191.892,-17.533c0,6.494 2.436,11.932 7.306,16.316c4.87,4.383 16.072,6.575 33.605,6.575c17.534,-0 28.735,-2.192 33.606,-6.575c4.87,-4.384 7.305,-9.822 7.305,-16.316l0,-131.012c0,-6.17 -2.435,-11.446 -7.305,-15.829c-4.871,-4.383 -16.072,-6.575 -33.606,-6.575c-17.533,-0 -28.735,2.192 -33.605,6.575c-4.87,4.383 -7.306,9.659 -7.306,15.829l0,131.012Z" style="fill:#ffd800;fill-rule:nonzero;"/><path d="M3385.16,1079.05l-75.49,-0c-6.169,-0 -10.634,-1.38 -13.393,-4.14c-2.76,-2.76 -4.14,-7.224 -4.14,-13.393l-0,-315.599c-0,-6.169 1.38,-10.634 4.14,-13.394c2.759,-2.759 7.224,-4.139 13.393,-4.139l75.49,-0c6.17,-0 10.634,1.38 13.394,4.139c2.76,2.76 4.14,7.225 4.14,13.394l-0,112.018l19.481,-0l50.165,-113.479c2.273,-5.845 5.357,-9.984 9.253,-12.42c3.897,-2.435 8.929,-3.652 15.098,-3.652l75.004,-0c5.52,-0 9.254,1.38 11.202,4.139c1.948,2.76 1.785,6.738 -0.487,11.933l-49.678,113.479c18.183,0.974 32.713,7.387 43.59,19.238c10.877,11.851 16.315,27.517 16.315,46.999l0,137.344c0,6.169 -1.38,10.633 -4.139,13.393c-2.76,2.76 -7.225,4.14 -13.394,4.14l-75.003,-0c-6.169,-0 -10.634,-1.38 -13.394,-4.14c-2.76,-2.76 -4.14,-7.224 -4.14,-13.393l0,-94.972c0,-5.195 -1.298,-9.254 -3.896,-12.176c-2.597,-2.922 -6.494,-4.383 -11.689,-4.383l-64.288,-0l-0,111.531c-0,6.169 -1.38,10.633 -4.14,13.393c-2.76,2.76 -7.224,4.14 -13.394,4.14Z" style="fill:#ffd800;fill-rule:nonzero;"/><path d="M2382.6,1663.49l-164.131,-0c-6.169,-0 -10.634,-1.38 -13.394,-4.14c-2.759,-2.76 -4.139,-7.224 -4.139,-13.393l-0,-315.599c-0,-6.169 1.38,-10.634 4.139,-13.394c2.76,-2.759 7.225,-4.139 13.394,-4.139l164.131,-0c40.586,-0 70.701,8.117 90.345,24.351c19.643,16.235 29.465,41.236 29.465,75.004l0,151.955c0,33.768 -9.822,58.769 -29.465,75.003c-19.644,16.235 -49.759,24.352 -90.345,24.352Zm-71.107,-257.642l-0,165.592l57.957,0c7.792,0 13.556,-1.948 17.29,-5.844c3.733,-3.896 5.6,-9.903 5.6,-18.02l0,-118.35c0,-8.117 -1.867,-14.043 -5.6,-17.777c-3.734,-3.734 -9.498,-5.601 -17.29,-5.601l-57.957,0Z" style="fill:#ffd800;fill-rule:nonzero;"/><path d="M2861.35,1571.44c0,14.936 -2.191,28.492 -6.575,40.668c-4.383,12.176 -12.176,22.566 -23.377,31.17c-11.202,8.604 -26.625,15.342 -46.269,20.212c-19.644,4.87 -44.564,7.305 -74.76,7.305c-30.196,0 -55.197,-2.435 -75.003,-7.305c-19.806,-4.87 -35.31,-11.608 -46.512,-20.212c-11.202,-8.604 -18.994,-18.994 -23.378,-31.17c-4.383,-12.176 -6.575,-25.732 -6.575,-40.668l0,-166.079c0,-14.935 2.192,-28.491 6.575,-40.667c4.384,-12.176 12.176,-22.647 23.378,-31.414c11.202,-8.766 26.706,-15.585 46.512,-20.455c19.806,-4.871 44.807,-7.306 75.003,-7.306c30.196,0 55.116,2.435 74.76,7.306c19.644,4.87 35.067,11.689 46.269,20.455c11.201,8.767 18.994,19.238 23.377,31.414c4.384,12.176 6.575,25.732 6.575,40.667l0,166.079Zm-191.892,-17.533c0,6.494 2.436,11.932 7.306,16.316c4.87,4.383 16.072,6.575 33.605,6.575c17.534,-0 28.735,-2.192 33.606,-6.575c4.87,-4.384 7.305,-9.822 7.305,-16.316l0,-131.012c0,-6.169 -2.435,-11.446 -7.305,-15.829c-4.871,-4.383 -16.072,-6.575 -33.606,-6.575c-17.533,0 -28.735,2.192 -33.605,6.575c-4.87,4.383 -7.306,9.66 -7.306,15.829l0,131.012Z" style="fill:#ffd800;fill-rule:nonzero;"/><path d="M3086.36,1663.49l-78.899,-0c-6.169,-0 -10.634,-1.38 -13.394,-4.14c-2.76,-2.76 -4.14,-7.224 -4.14,-13.393l0,-239.135l-71.594,0c-6.169,0 -10.633,-1.379 -13.393,-4.139c-2.76,-2.76 -4.14,-7.225 -4.14,-13.394l0,-58.931c0,-6.169 1.38,-10.634 4.14,-13.394c2.76,-2.759 7.224,-4.139 13.393,-4.139l257.155,-0c6.169,-0 10.633,1.38 13.393,4.139c2.76,2.76 4.14,7.225 4.14,13.394l0,58.931c0,6.169 -1.38,10.634 -4.14,13.394c-2.76,2.76 -7.224,4.139 -13.393,4.139l-71.594,0l-0,239.135c-0,6.169 -1.38,10.633 -4.14,13.393c-2.76,2.76 -7.224,4.14 -13.394,4.14Z" style="fill:#ffd800;fill-rule:nonzero;"/><path d="M1568.27,2247.93l-118.836,0c-40.587,0 -70.702,-8.117 -90.346,-24.352c-19.643,-16.234 -29.465,-41.235 -29.465,-75.003l-0,-151.468c-0,-33.768 9.822,-58.85 29.465,-75.247c19.644,-16.397 49.759,-24.595 90.346,-24.595l118.836,-0c6.169,-0 10.634,1.38 13.394,4.14c2.759,2.759 4.139,7.224 4.139,13.393l0,58.931c0,6.169 -1.38,10.634 -4.139,13.394c-2.76,2.76 -7.225,4.14 -13.394,4.14l-97.894,-0c-10.065,-0 -17.533,2.029 -22.404,6.087c-4.87,4.059 -7.305,10.147 -7.305,18.264l-0,115.915c-0,8.117 2.435,14.043 7.305,17.776c4.871,3.734 12.339,5.601 22.404,5.601l97.894,0c6.169,0 10.634,1.38 13.394,4.14c2.759,2.76 4.139,7.224 4.139,13.394l0,57.957c0,6.169 -1.38,10.633 -4.139,13.393c-2.76,2.76 -7.225,4.14 -13.394,4.14Z" style="fill:#ffd800;fill-rule:nonzero;"/><path d="M1935.5,2155.88c-0,14.936 -2.192,28.492 -6.575,40.668c-4.384,12.176 -12.176,22.566 -23.378,31.17c-11.202,8.604 -26.625,15.342 -46.268,20.212c-19.644,4.87 -44.564,7.306 -74.76,7.306c-30.197,-0 -55.198,-2.436 -75.004,-7.306c-19.806,-4.87 -35.31,-11.608 -46.512,-20.212c-11.201,-8.604 -18.994,-18.994 -23.377,-31.17c-4.384,-12.176 -6.575,-25.732 -6.575,-40.668l-0,-166.079c-0,-14.935 2.191,-28.491 6.575,-40.667c4.383,-12.176 12.176,-22.647 23.377,-31.414c11.202,-8.766 26.706,-15.585 46.512,-20.455c19.806,-4.871 44.807,-7.306 75.004,-7.306c30.196,0 55.116,2.435 74.76,7.306c19.643,4.87 35.066,11.689 46.268,20.455c11.202,8.767 18.994,19.238 23.378,31.414c4.383,12.176 6.575,25.732 6.575,40.667l-0,166.079Zm-191.892,-17.533c-0,6.494 2.435,11.933 7.305,16.316c4.871,4.383 16.072,6.575 33.606,6.575c17.533,-0 28.735,-2.192 33.605,-6.575c4.87,-4.383 7.306,-9.822 7.306,-16.316l-0,-131.012c-0,-6.169 -2.436,-11.446 -7.306,-15.829c-4.87,-4.383 -16.072,-6.575 -33.605,-6.575c-17.534,0 -28.735,2.192 -33.606,6.575c-4.87,4.383 -7.305,9.66 -7.305,15.829l-0,131.012Z" style="fill:#ffd800;fill-rule:nonzero;"/><path d="M2087.45,2247.93l-72.568,0c-6.169,0 -10.633,-1.38 -13.393,-4.14c-2.76,-2.76 -4.14,-7.224 -4.14,-13.393l-0,-315.599c-0,-6.169 1.38,-10.634 4.14,-13.393c2.76,-2.76 7.224,-4.14 13.393,-4.14l78.413,-0c5.195,-0 9.497,1.136 12.906,3.409c3.41,2.273 6.575,6.007 9.497,11.202l43.834,79.387c1.623,2.922 3.003,5.032 4.139,6.331c1.137,1.299 2.679,1.948 4.627,1.948l4.384,0c1.948,0 3.49,-0.649 4.626,-1.948c1.137,-1.299 2.517,-3.409 4.14,-6.331l43.346,-79.387c2.923,-5.195 6.088,-8.929 9.498,-11.202c3.409,-2.273 7.711,-3.409 12.906,-3.409l78.9,-0c6.169,-0 10.633,1.38 13.393,4.14c2.76,2.759 4.14,7.224 4.14,13.393l-0,315.599c-0,6.169 -1.38,10.633 -4.14,13.393c-2.76,2.76 -7.224,4.14 -13.393,4.14l-75.004,0c-6.169,0 -10.633,-1.38 -13.393,-4.14c-2.76,-2.76 -4.14,-7.224 -4.14,-13.393l-0,-171.437l-28.735,53.087c-2.922,5.52 -6.413,9.497 -10.471,11.933c-4.059,2.435 -9.173,3.652 -15.342,3.652l-19.481,0c-6.169,0 -11.283,-1.217 -15.342,-3.652c-4.059,-2.436 -7.549,-6.413 -10.471,-11.933l-28.735,-53.087l-0,171.437c-0,6.169 -1.38,10.633 -4.14,13.393c-2.76,2.76 -7.224,4.14 -13.394,4.14Z" style="fill:#ffd800;fill-rule:nonzero;"/><path d="M2503.87,2247.93l-75.49,0c-6.169,0 -10.634,-1.38 -13.393,-4.14c-2.76,-2.76 -4.14,-7.224 -4.14,-13.393l-0,-315.599c-0,-6.169 1.38,-10.634 4.14,-13.393c2.759,-2.76 7.224,-4.14 13.393,-4.14l149.033,-0c44.158,-0 74.354,8.766 90.588,26.3c16.235,17.533 24.352,40.424 24.352,68.672l0,62.34c0,28.248 -8.117,51.139 -24.352,68.672c-16.234,17.533 -46.43,26.3 -90.588,26.3l-56.009,-0l-0,80.848c-0,6.169 -1.38,10.633 -4.14,13.393c-2.76,2.76 -7.224,4.14 -13.394,4.14Zm16.56,-259.59l-0,73.543l43.833,-0c9.416,-0 15.585,-2.436 18.507,-7.306c2.922,-4.87 4.383,-10.39 4.383,-16.559l0,-25.813c0,-6.169 -1.461,-11.689 -4.383,-16.559c-2.922,-4.87 -9.091,-7.306 -18.507,-7.306l-43.833,0Z" style="fill:#ffd800;fill-rule:nonzero;"/><path d="M3041.55,2155.88c0,14.936 -2.191,28.492 -6.575,40.668c-4.383,12.176 -12.176,22.566 -23.377,31.17c-11.202,8.604 -26.544,15.342 -46.025,20.212c-19.482,4.87 -44.32,7.306 -74.517,7.306c-30.196,-0 -55.035,-2.436 -74.516,-7.306c-19.481,-4.87 -34.823,-11.608 -46.025,-20.212c-11.202,-8.604 -18.994,-18.994 -23.378,-31.17c-4.383,-12.176 -6.575,-25.732 -6.575,-40.668l0,-241.082c0,-6.169 1.38,-10.634 4.14,-13.393c2.76,-2.76 7.225,-4.14 13.394,-4.14l76.464,-0c6.169,-0 10.634,1.38 13.394,4.14c2.76,2.759 4.14,7.224 4.14,13.393l-0,222.088c-0,6.494 2.435,11.932 7.305,16.316c4.87,4.383 15.748,6.575 32.631,6.575c17.209,-0 28.248,-2.192 33.119,-6.575c4.87,-4.384 7.305,-9.822 7.305,-16.316l0,-222.088c0,-6.169 1.38,-10.634 4.14,-13.393c2.76,-2.76 7.224,-4.14 13.394,-4.14l74.029,-0c6.169,-0 10.634,1.38 13.393,4.14c2.76,2.759 4.14,7.224 4.14,13.393l0,241.082Z" style="fill:#ffd800;fill-rule:nonzero;"/><path d="M3271.92,2247.93l-78.9,0c-6.169,0 -10.634,-1.38 -13.393,-4.14c-2.76,-2.76 -4.14,-7.224 -4.14,-13.393l-0,-239.134l-71.594,-0c-6.169,-0 -10.634,-1.38 -13.394,-4.14c-2.76,-2.76 -4.14,-7.225 -4.14,-13.394l0,-58.931c0,-6.169 1.38,-10.634 4.14,-13.393c2.76,-2.76 7.225,-4.14 13.394,-4.14l257.154,-0c6.169,-0 10.634,1.38 13.394,4.14c2.76,2.759 4.139,7.224 4.139,13.393l0,58.931c0,6.169 -1.379,10.634 -4.139,13.394c-2.76,2.76 -7.225,4.14 -13.394,4.14l-71.594,-0l0,239.134c0,6.169 -1.38,10.633 -4.14,13.393c-2.76,2.76 -7.224,4.14 -13.393,4.14Z" style="fill:#ffd800;fill-rule:nonzero;"/><path d="M3669.34,2247.93l-225.984,0c-6.169,0 -10.633,-1.38 -13.393,-4.14c-2.76,-2.76 -4.14,-7.224 -4.14,-13.393l-0,-315.599c-0,-6.169 1.38,-10.634 4.14,-13.393c2.76,-2.76 7.224,-4.14 13.393,-4.14l225.984,-0c6.169,-0 10.634,1.38 13.394,4.14c2.76,2.759 4.14,7.224 4.14,13.393l-0,56.983c-0,6.169 -1.38,10.634 -4.14,13.394c-2.76,2.759 -7.225,4.139 -13.394,4.139l-134.421,0l-0,37.502l94.972,0c6.169,0 10.633,1.38 13.393,4.14c2.76,2.76 4.14,7.224 4.14,13.393l-0,52.113c-0,6.169 -1.38,10.634 -4.14,13.394c-2.76,2.759 -7.224,4.139 -13.393,4.139l-94.972,0l-0,41.885l134.421,0c6.169,0 10.634,1.38 13.394,4.14c2.76,2.76 4.14,7.225 4.14,13.394l-0,56.983c-0,6.169 -1.38,10.633 -4.14,13.393c-2.76,2.76 -7.225,4.14 -13.394,4.14Z" style="fill:#ffd800;fill-rule:nonzero;"/><path d="M3854.41,1984.93l-0,62.341l36.527,-0c8.442,-0 14.124,-2.192 17.047,-6.575c2.922,-4.384 4.383,-9.822 4.383,-16.316l-0,-16.559c-0,-6.494 -1.461,-11.933 -4.383,-16.316c-2.923,-4.383 -8.605,-6.575 -17.047,-6.575l-36.527,0Zm-17.534,262.999l-75.003,0c-6.169,0 -10.634,-1.38 -13.393,-4.14c-2.76,-2.76 -4.14,-7.224 -4.14,-13.393l-0,-315.599c-0,-6.169 1.38,-10.634 4.14,-13.393c2.759,-2.76 7.224,-4.14 13.393,-4.14l162.183,-0c36.365,-0 61.447,7.549 75.247,22.647c13.799,15.098 20.699,34.661 20.699,58.688l-0,22.403c-0,13.637 -2.03,25.245 -6.088,34.823c-4.059,9.579 -11.121,16.478 -21.186,20.699c17.533,1.948 31.738,9.092 42.615,21.43c10.877,12.338 16.316,28.735 16.316,49.19l-0,103.252c-0,6.169 -1.38,10.633 -4.14,13.393c-2.76,2.76 -7.224,4.14 -13.393,4.14l-75.491,0c-6.169,0 -10.633,-1.38 -13.393,-4.14c-2.76,-2.76 -4.14,-7.224 -4.14,-13.393l-0,-74.517c-0,-7.143 -1.38,-12.419 -4.14,-15.828c-2.76,-3.409 -7.549,-5.114 -14.367,-5.114l-68.185,-0l-0,95.459c-0,6.169 -1.38,10.633 -4.14,13.393c-2.76,2.76 -7.224,4.14 -13.394,4.14Z" style="fill:#ffd800;fill-rule:nonzero;"/></g><g><path d="M1895.03,1102.74l-73.055,0c-6.169,0 -10.634,-1.38 -13.394,-4.14c-2.76,-2.759 -4.14,-7.224 -4.14,-13.393l0,-315.599c0,-6.169 1.38,-10.633 4.14,-13.393c2.76,-2.76 7.225,-4.14 13.394,-4.14l50.651,-0c6.169,-0 11.446,0.974 15.829,2.922c4.383,1.948 8.685,5.358 12.906,10.228l94.485,108.122l0,-103.739c0,-6.169 1.38,-10.633 4.14,-13.393c2.76,-2.76 7.224,-4.14 13.393,-4.14l73.056,-0c6.169,-0 10.633,1.38 13.393,4.14c2.76,2.76 4.14,7.224 4.14,13.393l0,315.599c0,6.169 -1.38,10.634 -4.14,13.393c-2.76,2.76 -7.224,4.14 -13.393,4.14l-73.056,0c-6.169,0 -10.633,-1.38 -13.393,-4.14c-2.76,-2.759 -4.14,-7.224 -4.14,-13.393l0,-59.905l-83.283,-100.817l0,160.722c0,6.169 -1.38,10.634 -4.14,13.393c-2.759,2.76 -7.224,4.14 -13.393,4.14Z" style="fill:#41b900;fill-rule:nonzero;"/><path d="M2468.27,1010.69c0,14.935 -2.191,28.491 -6.575,40.667c-4.383,12.176 -12.176,22.566 -23.377,31.17c-11.202,8.605 -26.625,15.342 -46.269,20.212c-19.643,4.871 -44.563,7.306 -74.76,7.306c-30.196,-0 -55.197,-2.435 -75.003,-7.306c-19.806,-4.87 -35.31,-11.607 -46.512,-20.212c-11.202,-8.604 -18.994,-18.994 -23.378,-31.17c-4.383,-12.176 -6.575,-25.732 -6.575,-40.667l0,-166.079c0,-14.936 2.192,-28.492 6.575,-40.668c4.384,-12.176 12.176,-22.647 23.378,-31.414c11.202,-8.766 26.706,-15.585 46.512,-20.455c19.806,-4.87 44.807,-7.306 75.003,-7.306c30.197,0 55.117,2.436 74.76,7.306c19.644,4.87 35.067,11.689 46.269,20.455c11.201,8.767 18.994,19.238 23.377,31.414c4.384,12.176 6.575,25.732 6.575,40.668l0,166.079Zm-191.892,-17.534c0,6.494 2.436,11.933 7.306,16.316c4.87,4.383 16.072,6.575 33.605,6.575c17.534,-0 28.735,-2.192 33.606,-6.575c4.87,-4.383 7.305,-9.822 7.305,-16.316l0,-131.012c0,-6.169 -2.435,-11.445 -7.305,-15.829c-4.871,-4.383 -16.072,-6.575 -33.606,-6.575c-17.533,0 -28.735,2.192 -33.605,6.575c-4.87,4.384 -7.306,9.66 -7.306,15.829l0,131.012Z" style="fill:#41b900;fill-rule:nonzero;"/><path d="M2693.28,1102.74l-78.899,0c-6.169,0 -10.634,-1.38 -13.394,-4.14c-2.76,-2.759 -4.139,-7.224 -4.139,-13.393l-0,-239.134l-71.595,-0c-6.169,-0 -10.633,-1.38 -13.393,-4.14c-2.76,-2.76 -4.14,-7.224 -4.14,-13.394l0,-58.931c0,-6.169 1.38,-10.633 4.14,-13.393c2.76,-2.76 7.224,-4.14 13.393,-4.14l257.155,-0c6.169,-0 10.633,1.38 13.393,4.14c2.76,2.76 4.14,7.224 4.14,13.393l0,58.931c0,6.17 -1.38,10.634 -4.14,13.394c-2.76,2.76 -7.224,4.14 -13.393,4.14l-71.594,-0l-0,239.134c-0,6.169 -1.38,10.634 -4.14,13.393c-2.76,2.76 -7.224,4.14 -13.394,4.14Z" style="fill:#41b900;fill-rule:nonzero;"/><path d="M3248.99,1010.69c0,14.935 -2.191,28.491 -6.575,40.667c-4.383,12.176 -12.175,22.566 -23.377,31.17c-11.202,8.605 -26.625,15.342 -46.269,20.212c-19.643,4.871 -44.563,7.306 -74.759,7.306c-30.197,-0 -55.198,-2.435 -75.004,-7.306c-19.806,-4.87 -35.31,-11.607 -46.512,-20.212c-11.201,-8.604 -18.994,-18.994 -23.377,-31.17c-4.384,-12.176 -6.575,-25.732 -6.575,-40.667l-0,-166.079c-0,-14.936 2.191,-28.492 6.575,-40.668c4.383,-12.176 12.176,-22.647 23.377,-31.414c11.202,-8.766 26.706,-15.585 46.512,-20.455c19.806,-4.87 44.807,-7.306 75.004,-7.306c30.196,0 55.116,2.436 74.759,7.306c19.644,4.87 35.067,11.689 46.269,20.455c11.202,8.767 18.994,19.238 23.377,31.414c4.384,12.176 6.575,25.732 6.575,40.668l0,166.079Zm-191.891,-17.534c-0,6.494 2.435,11.933 7.305,16.316c4.871,4.383 16.072,6.575 33.606,6.575c17.533,-0 28.735,-2.192 33.605,-6.575c4.87,-4.383 7.306,-9.822 7.306,-16.316l-0,-131.012c-0,-6.169 -2.436,-11.445 -7.306,-15.829c-4.87,-4.383 -16.072,-6.575 -33.605,-6.575c-17.534,0 -28.735,2.192 -33.606,6.575c-4.87,4.384 -7.305,9.66 -7.305,15.829l-0,131.012Z" style="fill:#41b900;fill-rule:nonzero;"/><path d="M3403.87,1102.74l-75.491,0c-6.169,0 -10.633,-1.38 -13.393,-4.14c-2.76,-2.759 -4.14,-7.224 -4.14,-13.393l-0,-315.599c-0,-6.169 1.38,-10.633 4.14,-13.393c2.76,-2.76 7.224,-4.14 13.393,-4.14l75.491,-0c6.169,-0 10.633,1.38 13.393,4.14c2.76,2.76 4.14,7.224 4.14,13.393l-0,112.018l19.481,0l50.165,-113.479c2.273,-5.844 5.357,-9.984 9.254,-12.419c3.896,-2.435 8.929,-3.653 15.098,-3.653l75.003,-0c5.52,-0 9.254,1.38 11.202,4.14c1.948,2.76 1.786,6.737 -0.487,11.932l-49.678,113.479c18.183,0.974 32.713,7.387 43.59,19.238c10.877,11.851 16.316,27.518 16.316,46.999l-0,137.344c-0,6.169 -1.38,10.634 -4.14,13.393c-2.76,2.76 -7.225,4.14 -13.394,4.14l-75.003,0c-6.169,0 -10.634,-1.38 -13.394,-4.14c-2.759,-2.759 -4.139,-7.224 -4.139,-13.393l-0,-94.972c-0,-5.195 -1.299,-9.254 -3.897,-12.176c-2.597,-2.922 -6.493,-4.383 -11.688,-4.383l-64.289,-0l-0,111.531c-0,6.169 -1.38,10.634 -4.14,13.393c-2.76,2.76 -7.224,4.14 -13.393,4.14Z" style="fill:#41b900;fill-rule:nonzero;"/><path d="M2401.31,1687.18l-164.131,0c-6.169,0 -10.633,-1.38 -13.393,-4.139c-2.76,-2.76 -4.14,-7.225 -4.14,-13.394l-0,-315.599c-0,-6.169 1.38,-10.633 4.14,-13.393c2.76,-2.76 7.224,-4.14 13.393,-4.14l164.131,0c40.586,0 70.701,8.117 90.345,24.352c19.644,16.234 29.466,41.235 29.466,75.003l-0,151.955c-0,33.768 -9.822,58.769 -29.466,75.004c-19.644,16.234 -49.759,24.351 -90.345,24.351Zm-71.107,-257.641l-0,165.592l57.957,-0c7.793,-0 13.556,-1.948 17.29,-5.845c3.734,-3.896 5.601,-9.903 5.601,-18.02l-0,-118.35c-0,-8.117 -1.867,-14.042 -5.601,-17.776c-3.734,-3.734 -9.497,-5.601 -17.29,-5.601l-57.957,-0Z" style="fill:#41b900;fill-rule:nonzero;"/><path d="M2880.06,1595.13c0,14.935 -2.191,28.491 -6.575,40.667c-4.383,12.176 -12.175,22.566 -23.377,31.17c-11.202,8.605 -26.625,15.342 -46.269,20.212c-19.643,4.871 -44.563,7.306 -74.759,7.306c-30.197,-0 -55.198,-2.435 -75.004,-7.306c-19.806,-4.87 -35.31,-11.607 -46.512,-20.212c-11.202,-8.604 -18.994,-18.994 -23.377,-31.17c-4.384,-12.176 -6.575,-25.732 -6.575,-40.667l-0,-166.079c-0,-14.936 2.191,-28.492 6.575,-40.668c4.383,-12.176 12.175,-22.647 23.377,-31.413c11.202,-8.767 26.706,-15.586 46.512,-20.456c19.806,-4.87 44.807,-7.305 75.004,-7.305c30.196,-0 55.116,2.435 74.759,7.305c19.644,4.87 35.067,11.689 46.269,20.456c11.202,8.766 18.994,19.237 23.377,31.413c4.384,12.176 6.575,25.732 6.575,40.668l0,166.079Zm-191.891,-17.534c-0,6.494 2.435,11.933 7.305,16.316c4.87,4.383 16.072,6.575 33.606,6.575c17.533,0 28.735,-2.192 33.605,-6.575c4.87,-4.383 7.305,-9.822 7.305,-16.316l0,-131.012c0,-6.169 -2.435,-11.445 -7.305,-15.829c-4.87,-4.383 -16.072,-6.575 -33.605,-6.575c-17.534,0 -28.736,2.192 -33.606,6.575c-4.87,4.384 -7.305,9.66 -7.305,15.829l-0,131.012Z" style="fill:#41b900;fill-rule:nonzero;"/><path d="M3105.07,1687.18l-78.9,0c-6.169,0 -10.634,-1.38 -13.394,-4.139c-2.759,-2.76 -4.139,-7.225 -4.139,-13.394l-0,-239.134l-71.594,-0c-6.17,-0 -10.634,-1.38 -13.394,-4.14c-2.76,-2.76 -4.14,-7.224 -4.14,-13.393l0,-58.932c0,-6.169 1.38,-10.633 4.14,-13.393c2.76,-2.76 7.224,-4.14 13.394,-4.14l257.154,0c6.169,0 10.634,1.38 13.393,4.14c2.76,2.76 4.14,7.224 4.14,13.393l0,58.932c0,6.169 -1.38,10.633 -4.14,13.393c-2.759,2.76 -7.224,4.14 -13.393,4.14l-71.594,-0l-0,239.134c-0,6.169 -1.38,10.634 -4.14,13.394c-2.76,2.759 -7.224,4.139 -13.393,4.139Z" style="fill:#41b900;fill-rule:nonzero;"/><path d="M1586.98,2271.62l-118.836,0c-40.587,0 -70.702,-8.117 -90.345,-24.351c-19.644,-16.235 -29.466,-41.236 -29.466,-75.004l0,-151.468c0,-33.767 9.822,-58.85 29.466,-75.247c19.643,-16.396 49.758,-24.595 90.345,-24.595l118.836,0c6.169,0 10.634,1.38 13.394,4.14c2.76,2.76 4.14,7.224 4.14,13.393l-0,58.932c-0,6.169 -1.38,10.633 -4.14,13.393c-2.76,2.76 -7.225,4.14 -13.394,4.14l-97.894,-0c-10.065,-0 -17.533,2.029 -22.403,6.088c-4.871,4.058 -7.306,10.146 -7.306,18.264l0,115.914c0,8.117 2.435,14.043 7.306,17.777c4.87,3.734 12.338,5.601 22.403,5.601l97.894,-0c6.169,-0 10.634,1.38 13.394,4.139c2.76,2.76 4.14,7.225 4.14,13.394l-0,57.957c-0,6.169 -1.38,10.634 -4.14,13.394c-2.76,2.759 -7.225,4.139 -13.394,4.139Z" style="fill:#41b900;fill-rule:nonzero;"/><path d="M1954.21,2179.57c-0,14.936 -2.192,28.491 -6.575,40.667c-4.384,12.176 -12.176,22.566 -23.378,31.17c-11.202,8.605 -26.625,15.342 -46.268,20.212c-19.644,4.871 -44.564,7.306 -74.76,7.306c-30.196,-0 -55.197,-2.435 -75.004,-7.306c-19.806,-4.87 -35.31,-11.607 -46.511,-20.212c-11.202,-8.604 -18.995,-18.994 -23.378,-31.17c-4.383,-12.176 -6.575,-25.731 -6.575,-40.667l-0,-166.079c-0,-14.936 2.192,-28.492 6.575,-40.668c4.383,-12.176 12.176,-22.647 23.378,-31.413c11.201,-8.767 26.705,-15.586 46.511,-20.456c19.807,-4.87 44.808,-7.305 75.004,-7.305c30.196,-0 55.116,2.435 74.76,7.305c19.643,4.87 35.066,11.689 46.268,20.456c11.202,8.766 18.994,19.237 23.378,31.413c4.383,12.176 6.575,25.732 6.575,40.668l-0,166.079Zm-191.892,-17.533c-0,6.493 2.435,11.932 7.305,16.315c4.871,4.383 16.073,6.575 33.606,6.575c17.533,0 28.735,-2.192 33.605,-6.575c4.871,-4.383 7.306,-9.822 7.306,-16.315l-0,-131.013c-0,-6.169 -2.435,-11.445 -7.306,-15.829c-4.87,-4.383 -16.072,-6.575 -33.605,-6.575c-17.533,0 -28.735,2.192 -33.606,6.575c-4.87,4.384 -7.305,9.66 -7.305,15.829l-0,131.013Z" style="fill:#41b900;fill-rule:nonzero;"/><path d="M2106.16,2271.62l-72.569,0c-6.169,0 -10.633,-1.38 -13.393,-4.139c-2.76,-2.76 -4.14,-7.225 -4.14,-13.394l0,-315.599c0,-6.169 1.38,-10.633 4.14,-13.393c2.76,-2.76 7.224,-4.14 13.393,-4.14l78.413,0c5.195,0 9.497,1.137 12.907,3.409c3.409,2.273 6.574,6.007 9.497,11.202l43.833,79.387c1.623,2.922 3.003,5.033 4.14,6.331c1.136,1.299 2.678,1.949 4.626,1.949l4.384,-0c1.948,-0 3.49,-0.65 4.627,-1.949c1.136,-1.298 2.516,-3.409 4.139,-6.331l43.347,-79.387c2.922,-5.195 6.087,-8.929 9.497,-11.202c3.409,-2.272 7.711,-3.409 12.906,-3.409l78.9,0c6.169,0 10.633,1.38 13.393,4.14c2.76,2.76 4.14,7.224 4.14,13.393l0,315.599c0,6.169 -1.38,10.634 -4.14,13.394c-2.76,2.759 -7.224,4.139 -13.393,4.139l-75.004,0c-6.169,0 -10.633,-1.38 -13.393,-4.139c-2.76,-2.76 -4.14,-7.225 -4.14,-13.394l0,-171.436l-28.735,53.087c-2.922,5.519 -6.413,9.497 -10.471,11.932c-4.059,2.435 -9.173,3.653 -15.342,3.653l-19.481,-0c-6.169,-0 -11.283,-1.218 -15.342,-3.653c-4.058,-2.435 -7.549,-6.413 -10.471,-11.932l-28.735,-53.087l-0,171.436c-0,6.169 -1.38,10.634 -4.14,13.394c-2.76,2.759 -7.224,4.139 -13.393,4.139Z" style="fill:#41b900;fill-rule:nonzero;"/><path d="M2522.58,2271.62l-75.491,0c-6.169,0 -10.633,-1.38 -13.393,-4.139c-2.76,-2.76 -4.14,-7.225 -4.14,-13.394l-0,-315.599c-0,-6.169 1.38,-10.633 4.14,-13.393c2.76,-2.76 7.224,-4.14 13.393,-4.14l149.033,0c44.158,0 74.354,8.767 90.588,26.3c16.235,17.533 24.352,40.424 24.352,68.672l0,62.34c0,28.249 -8.117,51.139 -24.352,68.672c-16.234,17.534 -46.43,26.3 -90.588,26.3l-56.009,0l-0,80.848c-0,6.169 -1.38,10.634 -4.14,13.394c-2.76,2.759 -7.224,4.139 -13.393,4.139Zm16.559,-259.589l-0,73.542l43.833,-0c9.416,-0 15.585,-2.435 18.507,-7.306c2.923,-4.87 4.384,-10.39 4.384,-16.559l-0,-25.813c-0,-6.169 -1.461,-11.688 -4.384,-16.559c-2.922,-4.87 -9.091,-7.305 -18.507,-7.305l-43.833,-0Z" style="fill:#41b900;fill-rule:nonzero;"/><path d="M3060.26,2179.57c0,14.936 -2.191,28.491 -6.575,40.667c-4.383,12.176 -12.175,22.566 -23.377,31.17c-11.202,8.605 -26.544,15.342 -46.025,20.212c-19.481,4.871 -44.32,7.306 -74.516,7.306c-30.197,-0 -55.035,-2.435 -74.517,-7.306c-19.481,-4.87 -34.823,-11.607 -46.025,-20.212c-11.201,-8.604 -18.994,-18.994 -23.377,-31.17c-4.384,-12.176 -6.575,-25.731 -6.575,-40.667l-0,-241.083c-0,-6.169 1.38,-10.633 4.139,-13.393c2.76,-2.76 7.225,-4.14 13.394,-4.14l76.464,0c6.17,0 10.634,1.38 13.394,4.14c2.76,2.76 4.14,7.224 4.14,13.393l-0,222.088c-0,6.494 2.435,11.933 7.305,16.316c4.871,4.383 15.748,6.575 32.632,6.575c17.208,0 28.248,-2.192 33.118,-6.575c4.87,-4.383 7.306,-9.822 7.306,-16.316l-0,-222.088c-0,-6.169 1.379,-10.633 4.139,-13.393c2.76,-2.76 7.225,-4.14 13.394,-4.14l74.029,0c6.169,0 10.634,1.38 13.394,4.14c2.759,2.76 4.139,7.224 4.139,13.393l0,241.083Z" style="fill:#41b900;fill-rule:nonzero;"/><path d="M3290.63,2271.62l-78.9,0c-6.169,0 -10.633,-1.38 -13.393,-4.139c-2.76,-2.76 -4.14,-7.225 -4.14,-13.394l0,-239.134l-71.594,-0c-6.169,-0 -10.634,-1.38 -13.394,-4.14c-2.759,-2.76 -4.139,-7.224 -4.139,-13.393l-0,-58.932c-0,-6.169 1.38,-10.633 4.139,-13.393c2.76,-2.76 7.225,-4.14 13.394,-4.14l257.154,0c6.169,0 10.634,1.38 13.394,4.14c2.76,2.76 4.14,7.224 4.14,13.393l-0,58.932c-0,6.169 -1.38,10.633 -4.14,13.393c-2.76,2.76 -7.225,4.14 -13.394,4.14l-71.594,-0l0,239.134c0,6.169 -1.38,10.634 -4.14,13.394c-2.759,2.759 -7.224,4.139 -13.393,4.139Z" style="fill:#41b900;fill-rule:nonzero;"/><path d="M3688.05,2271.62l-225.985,0c-6.169,0 -10.633,-1.38 -13.393,-4.139c-2.76,-2.76 -4.14,-7.225 -4.14,-13.394l0,-315.599c0,-6.169 1.38,-10.633 4.14,-13.393c2.76,-2.76 7.224,-4.14 13.393,-4.14l225.985,0c6.169,0 10.633,1.38 13.393,4.14c2.76,2.76 4.14,7.224 4.14,13.393l-0,56.984c-0,6.169 -1.38,10.633 -4.14,13.393c-2.76,2.76 -7.224,4.14 -13.393,4.14l-134.422,-0l-0,37.501l94.972,0c6.169,0 10.633,1.38 13.393,4.14c2.76,2.76 4.14,7.225 4.14,13.394l0,52.112c0,6.17 -1.38,10.634 -4.14,13.394c-2.76,2.76 -7.224,4.14 -13.393,4.14l-94.972,-0l-0,41.885l134.422,-0c6.169,-0 10.633,1.38 13.393,4.14c2.76,2.759 4.14,7.224 4.14,13.393l-0,56.983c-0,6.169 -1.38,10.634 -4.14,13.394c-2.76,2.759 -7.224,4.139 -13.393,4.139Z" style="fill:#41b900;fill-rule:nonzero;"/><path d="M3873.13,2008.62l-0,62.341l36.528,-0c8.441,-0 14.124,-2.192 17.046,-6.575c2.922,-4.383 4.383,-9.822 4.383,-16.316l0,-16.559c0,-6.494 -1.461,-11.932 -4.383,-16.316c-2.922,-4.383 -8.605,-6.575 -17.046,-6.575l-36.528,0Zm-17.533,262.999l-75.004,0c-6.169,0 -10.633,-1.38 -13.393,-4.139c-2.76,-2.76 -4.14,-7.225 -4.14,-13.394l-0,-315.599c-0,-6.169 1.38,-10.633 4.14,-13.393c2.76,-2.76 7.224,-4.14 13.393,-4.14l162.183,0c36.365,0 61.448,7.549 75.247,22.647c13.799,15.098 20.699,34.661 20.699,58.688l-0,22.404c-0,13.637 -2.029,25.244 -6.088,34.823c-4.059,9.578 -11.121,16.478 -21.186,20.699c17.533,1.948 31.738,9.091 42.615,21.429c10.878,12.338 16.316,28.735 16.316,49.191l0,103.251c0,6.169 -1.38,10.634 -4.14,13.394c-2.76,2.759 -7.224,4.139 -13.393,4.139l-75.491,0c-6.169,0 -10.633,-1.38 -13.393,-4.139c-2.76,-2.76 -4.14,-7.225 -4.14,-13.394l0,-74.516c0,-7.143 -1.38,-12.42 -4.14,-15.829c-2.76,-3.409 -7.549,-5.114 -14.367,-5.114l-68.185,0l-0,95.459c-0,6.169 -1.38,10.634 -4.14,13.394c-2.76,2.759 -7.224,4.139 -13.393,4.139Z" style="fill:#41b900;fill-rule:nonzero;"/></g><g><path d="M1913.74,1126.43l-73.055,-0c-6.169,-0 -10.634,-1.38 -13.394,-4.14c-2.759,-2.76 -4.139,-7.225 -4.139,-13.394l-0,-315.598c-0,-6.17 1.38,-10.634 4.139,-13.394c2.76,-2.76 7.225,-4.14 13.394,-4.14l50.652,0c6.169,0 11.445,0.974 15.828,2.923c4.384,1.948 8.686,5.357 12.907,10.227l94.484,108.122l0,-103.738c0,-6.17 1.38,-10.634 4.14,-13.394c2.76,-2.76 7.225,-4.14 13.394,-4.14l73.055,0c6.169,0 10.634,1.38 13.393,4.14c2.76,2.76 4.14,7.224 4.14,13.394l0,315.598c0,6.169 -1.38,10.634 -4.14,13.394c-2.759,2.76 -7.224,4.14 -13.393,4.14l-73.055,-0c-6.169,-0 -10.634,-1.38 -13.394,-4.14c-2.76,-2.76 -4.14,-7.225 -4.14,-13.394l0,-59.905l-83.283,-100.816l0,160.721c0,6.169 -1.38,10.634 -4.139,13.394c-2.76,2.76 -7.225,4.14 -13.394,4.14Z" style="fill:#005eff;fill-rule:nonzero;"/><path d="M2486.98,1034.38c0,14.936 -2.191,28.491 -6.575,40.667c-4.383,12.176 -12.175,22.566 -23.377,31.171c-11.202,8.604 -26.625,15.341 -46.269,20.212c-19.643,4.87 -44.563,7.305 -74.759,7.305c-30.197,0 -55.198,-2.435 -75.004,-7.305c-19.806,-4.871 -35.31,-11.608 -46.512,-20.212c-11.201,-8.605 -18.994,-18.995 -23.377,-31.171c-4.384,-12.176 -6.575,-25.731 -6.575,-40.667l-0,-166.079c-0,-14.936 2.191,-28.492 6.575,-40.667c4.383,-12.176 12.176,-22.648 23.377,-31.414c11.202,-8.767 26.706,-15.585 46.512,-20.456c19.806,-4.87 44.807,-7.305 75.004,-7.305c30.196,-0 55.116,2.435 74.759,7.305c19.644,4.871 35.067,11.689 46.269,20.456c11.202,8.766 18.994,19.238 23.377,31.414c4.384,12.175 6.575,25.731 6.575,40.667l0,166.079Zm-191.891,-17.533c-0,6.493 2.435,11.932 7.305,16.315c4.871,4.384 16.072,6.575 33.606,6.575c17.533,0 28.735,-2.191 33.605,-6.575c4.87,-4.383 7.306,-9.822 7.306,-16.315l-0,-131.013c-0,-6.169 -2.436,-11.445 -7.306,-15.828c-4.87,-4.384 -16.072,-6.575 -33.605,-6.575c-17.534,-0 -28.735,2.191 -33.606,6.575c-4.87,4.383 -7.305,9.659 -7.305,15.828l-0,131.013Z" style="fill:#005eff;fill-rule:nonzero;"/><path d="M2711.99,1126.43l-78.9,-0c-6.169,-0 -10.634,-1.38 -13.393,-4.14c-2.76,-2.76 -4.14,-7.225 -4.14,-13.394l-0,-239.134l-71.594,0c-6.17,0 -10.634,-1.38 -13.394,-4.14c-2.76,-2.76 -4.14,-7.224 -4.14,-13.393l0,-58.931c0,-6.17 1.38,-10.634 4.14,-13.394c2.76,-2.76 7.224,-4.14 13.394,-4.14l257.154,0c6.169,0 10.634,1.38 13.394,4.14c2.759,2.76 4.139,7.224 4.139,13.394l0,58.931c0,6.169 -1.38,10.633 -4.139,13.393c-2.76,2.76 -7.225,4.14 -13.394,4.14l-71.594,0l-0,239.134c-0,6.169 -1.38,10.634 -4.14,13.394c-2.76,2.76 -7.224,4.14 -13.393,4.14Z" style="fill:#005eff;fill-rule:nonzero;"/><path d="M3267.7,1034.38c-0,14.936 -2.192,28.491 -6.575,40.667c-4.384,12.176 -12.176,22.566 -23.378,31.171c-11.202,8.604 -26.625,15.341 -46.268,20.212c-19.644,4.87 -44.564,7.305 -74.76,7.305c-30.196,0 -55.198,-2.435 -75.004,-7.305c-19.806,-4.871 -35.31,-11.608 -46.511,-20.212c-11.202,-8.605 -18.995,-18.995 -23.378,-31.171c-4.383,-12.176 -6.575,-25.731 -6.575,-40.667l-0,-166.079c-0,-14.936 2.192,-28.492 6.575,-40.667c4.383,-12.176 12.176,-22.648 23.378,-31.414c11.201,-8.767 26.705,-15.585 46.511,-20.456c19.806,-4.87 44.808,-7.305 75.004,-7.305c30.196,-0 55.116,2.435 74.76,7.305c19.643,4.871 35.066,11.689 46.268,20.456c11.202,8.766 18.994,19.238 23.378,31.414c4.383,12.175 6.575,25.731 6.575,40.667l-0,166.079Zm-191.892,-17.533c-0,6.493 2.435,11.932 7.305,16.315c4.871,4.384 16.073,6.575 33.606,6.575c17.533,0 28.735,-2.191 33.605,-6.575c4.871,-4.383 7.306,-9.822 7.306,-16.315l-0,-131.013c-0,-6.169 -2.435,-11.445 -7.306,-15.828c-4.87,-4.384 -16.072,-6.575 -33.605,-6.575c-17.533,-0 -28.735,2.191 -33.606,6.575c-4.87,4.383 -7.305,9.659 -7.305,15.828l-0,131.013Z" style="fill:#005eff;fill-rule:nonzero;"/><path d="M3422.58,1126.43l-75.491,-0c-6.169,-0 -10.633,-1.38 -13.393,-4.14c-2.76,-2.76 -4.14,-7.225 -4.14,-13.394l0,-315.598c0,-6.17 1.38,-10.634 4.14,-13.394c2.76,-2.76 7.224,-4.14 13.393,-4.14l75.491,0c6.169,0 10.633,1.38 13.393,4.14c2.76,2.76 4.14,7.224 4.14,13.394l0,112.018l19.481,-0l50.165,-113.48c2.273,-5.844 5.357,-9.984 9.254,-12.419c3.896,-2.435 8.929,-3.653 15.098,-3.653l75.003,0c5.52,0 9.254,1.38 11.202,4.14c1.948,2.76 1.786,6.737 -0.487,11.932l-49.678,113.48c18.183,0.974 32.713,7.386 43.59,19.238c10.877,11.851 16.316,27.517 16.316,46.998l-0,137.344c-0,6.169 -1.38,10.634 -4.14,13.394c-2.76,2.76 -7.224,4.14 -13.393,4.14l-75.004,-0c-6.169,-0 -10.633,-1.38 -13.393,-4.14c-2.76,-2.76 -4.14,-7.225 -4.14,-13.394l-0,-94.972c-0,-5.195 -1.299,-9.253 -3.896,-12.175c-2.598,-2.923 -6.494,-4.384 -11.689,-4.384l-64.289,0l0,111.531c0,6.169 -1.38,10.634 -4.14,13.394c-2.76,2.76 -7.224,4.14 -13.393,4.14Z" style="fill:#005eff;fill-rule:nonzero;"/><path d="M2420.02,1710.87l-164.131,-0c-6.169,-0 -10.633,-1.38 -13.393,-4.14c-2.76,-2.76 -4.14,-7.224 -4.14,-13.394l0,-315.598c0,-6.169 1.38,-10.634 4.14,-13.394c2.76,-2.76 7.224,-4.14 13.393,-4.14l164.131,0c40.586,0 70.701,8.118 90.345,24.352c19.644,16.235 29.466,41.236 29.466,75.004l-0,151.955c-0,33.767 -9.822,58.768 -29.466,75.003c-19.644,16.234 -49.759,24.352 -90.345,24.352Zm-71.107,-257.642l0,165.592l57.957,0c7.793,0 13.556,-1.948 17.29,-5.844c3.734,-3.897 5.601,-9.903 5.601,-18.021l-0,-118.349c-0,-8.117 -1.867,-14.043 -5.601,-17.777c-3.734,-3.734 -9.497,-5.601 -17.29,-5.601l-57.957,0Z" style="fill:#005eff;fill-rule:nonzero;"/><path d="M2898.77,1618.82c-0,14.936 -2.192,28.492 -6.575,40.667c-4.384,12.176 -12.176,22.566 -23.378,31.171c-11.202,8.604 -26.625,15.341 -46.268,20.212c-19.644,4.87 -44.564,7.305 -74.76,7.305c-30.196,0 -55.198,-2.435 -75.004,-7.305c-19.806,-4.871 -35.31,-11.608 -46.512,-20.212c-11.201,-8.605 -18.994,-18.995 -23.377,-31.171c-4.384,-12.175 -6.575,-25.731 -6.575,-40.667l-0,-166.079c-0,-14.936 2.191,-28.491 6.575,-40.667c4.383,-12.176 12.176,-22.647 23.377,-31.414c11.202,-8.767 26.706,-15.585 46.512,-20.456c19.806,-4.87 44.808,-7.305 75.004,-7.305c30.196,-0 55.116,2.435 74.76,7.305c19.643,4.871 35.066,11.689 46.268,20.456c11.202,8.767 18.994,19.238 23.378,31.414c4.383,12.176 6.575,25.731 6.575,40.667l-0,166.079Zm-191.892,-17.533c-0,6.494 2.435,11.932 7.305,16.315c4.871,4.384 16.072,6.575 33.606,6.575c17.533,0 28.735,-2.191 33.605,-6.575c4.871,-4.383 7.306,-9.821 7.306,-16.315l-0,-131.013c-0,-6.169 -2.435,-11.445 -7.306,-15.828c-4.87,-4.384 -16.072,-6.575 -33.605,-6.575c-17.534,-0 -28.735,2.191 -33.606,6.575c-4.87,4.383 -7.305,9.659 -7.305,15.828l-0,131.013Z" style="fill:#005eff;fill-rule:nonzero;"/><path d="M3123.78,1710.87l-78.9,-0c-6.169,-0 -10.633,-1.38 -13.393,-4.14c-2.76,-2.76 -4.14,-7.224 -4.14,-13.394l-0,-239.134l-71.594,0c-6.169,0 -10.634,-1.38 -13.394,-4.14c-2.76,-2.759 -4.14,-7.224 -4.14,-13.393l0,-58.931c0,-6.169 1.38,-10.634 4.14,-13.394c2.76,-2.76 7.225,-4.14 13.394,-4.14l257.154,0c6.169,0 10.634,1.38 13.394,4.14c2.76,2.76 4.139,7.225 4.139,13.394l0,58.931c0,6.169 -1.379,10.634 -4.139,13.393c-2.76,2.76 -7.225,4.14 -13.394,4.14l-71.594,0l0,239.134c0,6.17 -1.38,10.634 -4.14,13.394c-2.76,2.76 -7.224,4.14 -13.393,4.14Z" style="fill:#005eff;fill-rule:nonzero;"/><path d="M1605.69,2295.31l-118.836,-0c-40.586,-0 -70.701,-8.118 -90.345,-24.352c-19.644,-16.235 -29.466,-41.236 -29.466,-75.003l0,-151.468c0,-33.768 9.822,-58.85 29.466,-75.247c19.644,-16.397 49.759,-24.596 90.345,-24.596l118.836,0c6.17,0 10.634,1.38 13.394,4.14c2.76,2.76 4.14,7.225 4.14,13.394l-0,58.931c-0,6.169 -1.38,10.634 -4.14,13.393c-2.76,2.76 -7.224,4.14 -13.394,4.14l-97.894,0c-10.065,0 -17.533,2.03 -22.403,6.088c-4.871,4.059 -7.306,10.147 -7.306,18.264l0,115.914c0,8.118 2.435,14.043 7.306,17.777c4.87,3.734 12.338,5.601 22.403,5.601l97.894,0c6.17,0 10.634,1.38 13.394,4.14c2.76,2.76 4.14,7.224 4.14,13.393l-0,57.957c-0,6.17 -1.38,10.634 -4.14,13.394c-2.76,2.76 -7.224,4.14 -13.394,4.14Z" style="fill:#005eff;fill-rule:nonzero;"/><path d="M1972.92,2203.26c-0,14.936 -2.192,28.492 -6.575,40.668c-4.383,12.175 -12.176,22.566 -23.378,31.17c-11.202,8.604 -26.624,15.341 -46.268,20.212c-19.644,4.87 -44.564,7.305 -74.76,7.305c-30.196,0 -55.197,-2.435 -75.003,-7.305c-19.806,-4.871 -35.31,-11.608 -46.512,-20.212c-11.202,-8.604 -18.995,-18.995 -23.378,-31.17c-4.383,-12.176 -6.575,-25.732 -6.575,-40.668l0,-166.079c0,-14.936 2.192,-28.491 6.575,-40.667c4.383,-12.176 12.176,-22.647 23.378,-31.414c11.202,-8.767 26.706,-15.585 46.512,-20.456c19.806,-4.87 44.807,-7.305 75.003,-7.305c30.196,-0 55.116,2.435 74.76,7.305c19.644,4.871 35.066,11.689 46.268,20.456c11.202,8.767 18.995,19.238 23.378,31.414c4.383,12.176 6.575,25.731 6.575,40.667l-0,166.079Zm-191.892,-17.533c0,6.494 2.435,11.932 7.306,16.316c4.87,4.383 16.072,6.575 33.605,6.575c17.533,-0 28.735,-2.192 33.605,-6.575c4.871,-4.384 7.306,-9.822 7.306,-16.316l0,-131.013c0,-6.169 -2.435,-11.445 -7.306,-15.828c-4.87,-4.384 -16.072,-6.575 -33.605,-6.575c-17.533,-0 -28.735,2.191 -33.605,6.575c-4.871,4.383 -7.306,9.659 -7.306,15.828l0,131.013Z" style="fill:#005eff;fill-rule:nonzero;"/><path d="M2124.87,2295.31l-72.568,-0c-6.169,-0 -10.634,-1.38 -13.394,-4.14c-2.76,-2.76 -4.14,-7.224 -4.14,-13.394l0,-315.598c0,-6.169 1.38,-10.634 4.14,-13.394c2.76,-2.76 7.225,-4.14 13.394,-4.14l78.412,0c5.195,0 9.497,1.137 12.907,3.41c3.409,2.273 6.575,6.007 9.497,11.202l43.833,79.386c1.624,2.922 3.003,5.033 4.14,6.332c1.136,1.298 2.679,1.948 4.627,1.948l4.383,-0c1.948,-0 3.49,-0.65 4.627,-1.948c1.136,-1.299 2.516,-3.41 4.14,-6.332l43.346,-79.386c2.922,-5.195 6.088,-8.929 9.497,-11.202c3.409,-2.273 7.711,-3.41 12.906,-3.41l78.9,0c6.169,0 10.634,1.38 13.394,4.14c2.759,2.76 4.139,7.225 4.139,13.394l0,315.598c0,6.17 -1.38,10.634 -4.139,13.394c-2.76,2.76 -7.225,4.14 -13.394,4.14l-75.003,-0c-6.169,-0 -10.634,-1.38 -13.394,-4.14c-2.76,-2.76 -4.14,-7.224 -4.14,-13.394l0,-171.436l-28.735,53.087c-2.922,5.52 -6.412,9.497 -10.471,11.932c-4.059,2.435 -9.172,3.653 -15.342,3.653l-19.481,0c-6.169,0 -11.283,-1.218 -15.342,-3.653c-4.058,-2.435 -7.549,-6.412 -10.471,-11.932l-28.735,-53.087l0,171.436c0,6.17 -1.38,10.634 -4.14,13.394c-2.76,2.76 -7.224,4.14 -13.393,4.14Z" style="fill:#005eff;fill-rule:nonzero;"/><path d="M2541.29,2295.31l-75.491,-0c-6.169,-0 -10.633,-1.38 -13.393,-4.14c-2.76,-2.76 -4.14,-7.224 -4.14,-13.394l0,-315.598c0,-6.169 1.38,-10.634 4.14,-13.394c2.76,-2.76 7.224,-4.14 13.393,-4.14l149.033,0c44.158,0 74.354,8.767 90.589,26.3c16.234,17.534 24.351,40.424 24.351,68.672l0,62.341c0,28.248 -8.117,51.139 -24.351,68.672c-16.235,17.533 -46.431,26.3 -90.589,26.3l-56.009,-0l0,80.847c0,6.17 -1.38,10.634 -4.14,13.394c-2.76,2.76 -7.224,4.14 -13.393,4.14Zm16.559,-259.59l0,73.542l43.833,0c9.416,0 15.585,-2.435 18.508,-7.305c2.922,-4.871 4.383,-10.39 4.383,-16.559l-0,-25.813c-0,-6.169 -1.461,-11.689 -4.383,-16.559c-2.923,-4.871 -9.092,-7.306 -18.508,-7.306l-43.833,0Z" style="fill:#005eff;fill-rule:nonzero;"/><path d="M3078.98,2203.26c-0,14.936 -2.192,28.492 -6.575,40.668c-4.384,12.175 -12.176,22.566 -23.378,31.17c-11.202,8.604 -26.543,15.341 -46.025,20.212c-19.481,4.87 -44.32,7.305 -74.516,7.305c-30.196,0 -55.035,-2.435 -74.517,-7.305c-19.481,-4.871 -34.823,-11.608 -46.024,-20.212c-11.202,-8.604 -18.995,-18.995 -23.378,-31.17c-4.383,-12.176 -6.575,-25.732 -6.575,-40.668l-0,-241.082c-0,-6.169 1.38,-10.634 4.14,-13.394c2.76,-2.76 7.224,-4.14 13.393,-4.14l76.465,0c6.169,0 10.633,1.38 13.393,4.14c2.76,2.76 4.14,7.225 4.14,13.394l-0,222.088c-0,6.494 2.435,11.932 7.305,16.315c4.871,4.384 15.748,6.575 32.632,6.575c17.208,0 28.248,-2.191 33.118,-6.575c4.871,-4.383 7.306,-9.821 7.306,-16.315l-0,-222.088c-0,-6.169 1.38,-10.634 4.14,-13.394c2.759,-2.76 7.224,-4.14 13.393,-4.14l74.029,0c6.169,0 10.634,1.38 13.394,4.14c2.76,2.76 4.14,7.225 4.14,13.394l-0,241.082Z" style="fill:#005eff;fill-rule:nonzero;"/><path d="M3309.34,2295.31l-78.9,-0c-6.169,-0 -10.633,-1.38 -13.393,-4.14c-2.76,-2.76 -4.14,-7.224 -4.14,-13.394l0,-239.134l-71.594,0c-6.169,0 -10.634,-1.38 -13.393,-4.14c-2.76,-2.759 -4.14,-7.224 -4.14,-13.393l-0,-58.931c-0,-6.169 1.38,-10.634 4.14,-13.394c2.759,-2.76 7.224,-4.14 13.393,-4.14l257.155,0c6.169,0 10.633,1.38 13.393,4.14c2.76,2.76 4.14,7.225 4.14,13.394l-0,58.931c-0,6.169 -1.38,10.634 -4.14,13.393c-2.76,2.76 -7.224,4.14 -13.393,4.14l-71.595,0l0,239.134c0,6.17 -1.379,10.634 -4.139,13.394c-2.76,2.76 -7.225,4.14 -13.394,4.14Z" style="fill:#005eff;fill-rule:nonzero;"/><path d="M3706.76,2295.31l-225.984,-0c-6.17,-0 -10.634,-1.38 -13.394,-4.14c-2.76,-2.76 -4.14,-7.224 -4.14,-13.394l0,-315.598c0,-6.169 1.38,-10.634 4.14,-13.394c2.76,-2.76 7.224,-4.14 13.394,-4.14l225.984,0c6.169,0 10.633,1.38 13.393,4.14c2.76,2.76 4.14,7.225 4.14,13.394l0,56.983c0,6.169 -1.38,10.633 -4.14,13.393c-2.76,2.76 -7.224,4.14 -13.393,4.14l-134.422,0l0,37.502l94.972,-0c6.169,-0 10.634,1.38 13.393,4.14c2.76,2.759 4.14,7.224 4.14,13.393l0,52.113c0,6.169 -1.38,10.633 -4.14,13.393c-2.759,2.76 -7.224,4.14 -13.393,4.14l-94.972,0l0,41.885l134.422,0c6.169,0 10.633,1.38 13.393,4.14c2.76,2.76 4.14,7.224 4.14,13.393l0,56.983c0,6.17 -1.38,10.634 -4.14,13.394c-2.76,2.76 -7.224,4.14 -13.393,4.14Z" style="fill:#005eff;fill-rule:nonzero;"/><path d="M3891.84,2032.31l0,62.34l36.528,0c8.442,0 14.124,-2.191 17.046,-6.575c2.922,-4.383 4.383,-9.822 4.383,-16.315l0,-16.56c0,-6.493 -1.461,-11.932 -4.383,-16.315c-2.922,-4.384 -8.604,-6.575 -17.046,-6.575l-36.528,-0Zm-17.533,262.999l-75.004,-0c-6.169,-0 -10.633,-1.38 -13.393,-4.14c-2.76,-2.76 -4.14,-7.224 -4.14,-13.394l0,-315.598c0,-6.169 1.38,-10.634 4.14,-13.394c2.76,-2.76 7.224,-4.14 13.393,-4.14l162.183,0c36.365,0 61.448,7.55 75.247,22.648c13.799,15.098 20.699,34.66 20.699,58.687l0,22.404c0,13.637 -2.029,25.245 -6.088,34.823c-4.059,9.578 -11.121,16.478 -21.186,20.699c17.533,1.948 31.739,9.091 42.616,21.43c10.877,12.338 16.315,28.735 16.315,49.19l0,103.251c0,6.17 -1.38,10.634 -4.139,13.394c-2.76,2.76 -7.225,4.14 -13.394,4.14l-75.49,-0c-6.169,-0 -10.634,-1.38 -13.394,-4.14c-2.76,-2.76 -4.14,-7.224 -4.14,-13.394l0,-74.516c0,-7.143 -1.38,-12.419 -4.139,-15.829c-2.76,-3.409 -7.549,-5.113 -14.368,-5.113l-68.185,-0l0,95.458c0,6.17 -1.38,10.634 -4.14,13.394c-2.76,2.76 -7.224,4.14 -13.393,4.14Z" style="fill:#005eff;fill-rule:nonzero;"/></g><g><path d="M1932.45,1150.12l-73.055,-0c-6.169,-0 -10.633,-1.38 -13.393,-4.14c-2.76,-2.76 -4.14,-7.224 -4.14,-13.393l-0,-315.599c-0,-6.169 1.38,-10.634 4.14,-13.394c2.76,-2.759 7.224,-4.139 13.393,-4.139l50.652,-0c6.169,-0 11.445,0.974 15.828,2.922c4.384,1.948 8.686,5.357 12.907,10.228l94.485,108.121l-0,-103.738c-0,-6.169 1.38,-10.634 4.139,-13.394c2.76,-2.759 7.225,-4.139 13.394,-4.139l73.055,-0c6.169,-0 10.634,1.38 13.394,4.139c2.759,2.76 4.139,7.225 4.139,13.394l0,315.599c0,6.169 -1.38,10.633 -4.139,13.393c-2.76,2.76 -7.225,4.14 -13.394,4.14l-73.055,-0c-6.169,-0 -10.634,-1.38 -13.394,-4.14c-2.759,-2.76 -4.139,-7.224 -4.139,-13.393l-0,-59.906l-83.283,-100.816l-0,160.722c-0,6.169 -1.38,10.633 -4.14,13.393c-2.76,2.76 -7.225,4.14 -13.394,4.14Z" style="fill:#a100ff;fill-rule:nonzero;"/><path d="M2505.7,1058.07c-0,14.936 -2.192,28.492 -6.575,40.668c-4.384,12.176 -12.176,22.566 -23.378,31.17c-11.202,8.604 -26.625,15.342 -46.268,20.212c-19.644,4.87 -44.564,7.305 -74.76,7.305c-30.196,0 -55.198,-2.435 -75.004,-7.305c-19.806,-4.87 -35.31,-11.608 -46.511,-20.212c-11.202,-8.604 -18.995,-18.994 -23.378,-31.17c-4.383,-12.176 -6.575,-25.732 -6.575,-40.668l-0,-166.079c-0,-14.935 2.192,-28.491 6.575,-40.667c4.383,-12.176 12.176,-22.647 23.378,-31.414c11.201,-8.766 26.705,-15.585 46.511,-20.455c19.806,-4.871 44.808,-7.306 75.004,-7.306c30.196,0 55.116,2.435 74.76,7.306c19.643,4.87 35.066,11.689 46.268,20.455c11.202,8.767 18.994,19.238 23.378,31.414c4.383,12.176 6.575,25.732 6.575,40.667l-0,166.079Zm-191.892,-17.533c-0,6.494 2.435,11.932 7.305,16.316c4.871,4.383 16.073,6.575 33.606,6.575c17.533,-0 28.735,-2.192 33.605,-6.575c4.871,-4.384 7.306,-9.822 7.306,-16.316l-0,-131.012c-0,-6.17 -2.435,-11.446 -7.306,-15.829c-4.87,-4.383 -16.072,-6.575 -33.605,-6.575c-17.533,-0 -28.735,2.192 -33.606,6.575c-4.87,4.383 -7.305,9.659 -7.305,15.829l-0,131.012Z" style="fill:#a100ff;fill-rule:nonzero;"/><path d="M2730.71,1150.12l-78.9,-0c-6.169,-0 -10.633,-1.38 -13.393,-4.14c-2.76,-2.76 -4.14,-7.224 -4.14,-13.393l-0,-239.135l-71.594,0c-6.169,0 -10.634,-1.379 -13.394,-4.139c-2.76,-2.76 -4.139,-7.225 -4.139,-13.394l-0,-58.931c-0,-6.169 1.379,-10.634 4.139,-13.394c2.76,-2.759 7.225,-4.139 13.394,-4.139l257.154,-0c6.169,-0 10.634,1.38 13.394,4.139c2.76,2.76 4.14,7.225 4.14,13.394l-0,58.931c-0,6.169 -1.38,10.634 -4.14,13.394c-2.76,2.76 -7.225,4.139 -13.394,4.139l-71.594,0l0,239.135c0,6.169 -1.38,10.633 -4.14,13.393c-2.76,2.76 -7.224,4.14 -13.393,4.14Z" style="fill:#a100ff;fill-rule:nonzero;"/><path d="M3286.41,1058.07c-0,14.936 -2.192,28.492 -6.575,40.668c-4.383,12.176 -12.176,22.566 -23.378,31.17c-11.202,8.604 -26.624,15.342 -46.268,20.212c-19.644,4.87 -44.564,7.305 -74.76,7.305c-30.196,0 -55.197,-2.435 -75.003,-7.305c-19.806,-4.87 -35.31,-11.608 -46.512,-20.212c-11.202,-8.604 -18.995,-18.994 -23.378,-31.17c-4.383,-12.176 -6.575,-25.732 -6.575,-40.668l0,-166.079c0,-14.935 2.192,-28.491 6.575,-40.667c4.383,-12.176 12.176,-22.647 23.378,-31.414c11.202,-8.766 26.706,-15.585 46.512,-20.455c19.806,-4.871 44.807,-7.306 75.003,-7.306c30.196,0 55.116,2.435 74.76,7.306c19.644,4.87 35.066,11.689 46.268,20.455c11.202,8.767 18.995,19.238 23.378,31.414c4.383,12.176 6.575,25.732 6.575,40.667l-0,166.079Zm-191.892,-17.533c0,6.494 2.435,11.932 7.306,16.316c4.87,4.383 16.072,6.575 33.605,6.575c17.533,-0 28.735,-2.192 33.605,-6.575c4.871,-4.384 7.306,-9.822 7.306,-16.316l-0,-131.012c-0,-6.17 -2.435,-11.446 -7.306,-15.829c-4.87,-4.383 -16.072,-6.575 -33.605,-6.575c-17.533,-0 -28.735,2.192 -33.605,6.575c-4.871,4.383 -7.306,9.659 -7.306,15.829l0,131.012Z" style="fill:#a100ff;fill-rule:nonzero;"/><path d="M3441.29,1150.12l-75.49,-0c-6.17,-0 -10.634,-1.38 -13.394,-4.14c-2.76,-2.76 -4.14,-7.224 -4.14,-13.393l0,-315.599c0,-6.169 1.38,-10.634 4.14,-13.394c2.76,-2.759 7.224,-4.139 13.394,-4.139l75.49,-0c6.169,-0 10.634,1.38 13.394,4.139c2.759,2.76 4.139,7.225 4.139,13.394l0,112.018l19.482,-0l50.164,-113.479c2.273,-5.845 5.358,-9.984 9.254,-12.42c3.896,-2.435 8.929,-3.652 15.098,-3.652l75.003,-0c5.52,-0 9.254,1.38 11.202,4.139c1.948,2.76 1.786,6.738 -0.487,11.933l-49.677,113.479c18.182,0.974 32.712,7.387 43.589,19.238c10.877,11.851 16.316,27.517 16.316,46.999l-0,137.344c-0,6.169 -1.38,10.633 -4.14,13.393c-2.76,2.76 -7.224,4.14 -13.393,4.14l-75.004,-0c-6.169,-0 -10.633,-1.38 -13.393,-4.14c-2.76,-2.76 -4.14,-7.224 -4.14,-13.393l0,-94.972c0,-5.195 -1.299,-9.254 -3.896,-12.176c-2.598,-2.922 -6.494,-4.383 -11.689,-4.383l-64.289,-0l0,111.531c0,6.169 -1.38,10.633 -4.139,13.393c-2.76,2.76 -7.225,4.14 -13.394,4.14Z" style="fill:#a100ff;fill-rule:nonzero;"/><path d="M2438.73,1734.56l-164.13,0c-6.17,0 -10.634,-1.38 -13.394,-4.14c-2.76,-2.76 -4.14,-7.224 -4.14,-13.393l0,-315.599c0,-6.169 1.38,-10.634 4.14,-13.393c2.76,-2.76 7.224,-4.14 13.394,-4.14l164.13,-0c40.587,-0 70.702,8.117 90.345,24.352c19.644,16.234 29.466,41.235 29.466,75.003l-0,151.955c-0,33.768 -9.822,58.769 -29.466,75.003c-19.643,16.235 -49.758,24.352 -90.345,24.352Zm-71.107,-257.642l0,165.592l57.957,0c7.793,0 13.556,-1.948 17.29,-5.844c3.734,-3.896 5.601,-9.903 5.601,-18.02l0,-118.35c0,-8.117 -1.867,-14.043 -5.601,-17.777c-3.734,-3.734 -9.497,-5.601 -17.29,-5.601l-57.957,0Z" style="fill:#a100ff;fill-rule:nonzero;"/><path d="M2917.48,1642.51c-0,14.936 -2.192,28.492 -6.575,40.668c-4.383,12.176 -12.176,22.566 -23.378,31.17c-11.202,8.604 -26.624,15.342 -46.268,20.212c-19.644,4.87 -44.564,7.306 -74.76,7.306c-30.196,-0 -55.197,-2.436 -75.003,-7.306c-19.807,-4.87 -35.31,-11.608 -46.512,-20.212c-11.202,-8.604 -18.995,-18.994 -23.378,-31.17c-4.383,-12.176 -6.575,-25.732 -6.575,-40.668l0,-166.079c0,-14.935 2.192,-28.491 6.575,-40.667c4.383,-12.176 12.176,-22.647 23.378,-31.414c11.202,-8.766 26.705,-15.585 46.512,-20.455c19.806,-4.871 44.807,-7.306 75.003,-7.306c30.196,0 55.116,2.435 74.76,7.306c19.644,4.87 35.066,11.689 46.268,20.455c11.202,8.767 18.995,19.238 23.378,31.414c4.383,12.176 6.575,25.732 6.575,40.667l-0,166.079Zm-191.892,-17.533c-0,6.494 2.435,11.932 7.306,16.316c4.87,4.383 16.072,6.575 33.605,6.575c17.533,-0 28.735,-2.192 33.605,-6.575c4.871,-4.384 7.306,-9.822 7.306,-16.316l-0,-131.012c-0,-6.169 -2.435,-11.446 -7.306,-15.829c-4.87,-4.383 -16.072,-6.575 -33.605,-6.575c-17.533,0 -28.735,2.192 -33.605,6.575c-4.871,4.383 -7.306,9.66 -7.306,15.829l-0,131.012Z" style="fill:#a100ff;fill-rule:nonzero;"/><path d="M3142.49,1734.56l-78.9,0c-6.169,0 -10.633,-1.38 -13.393,-4.14c-2.76,-2.76 -4.14,-7.224 -4.14,-13.393l0,-239.134l-71.594,-0c-6.169,-0 -10.634,-1.38 -13.394,-4.14c-2.759,-2.76 -4.139,-7.225 -4.139,-13.394l-0,-58.931c-0,-6.169 1.38,-10.634 4.139,-13.393c2.76,-2.76 7.225,-4.14 13.394,-4.14l257.154,-0c6.17,-0 10.634,1.38 13.394,4.14c2.76,2.759 4.14,7.224 4.14,13.393l-0,58.931c-0,6.169 -1.38,10.634 -4.14,13.394c-2.76,2.76 -7.224,4.14 -13.394,4.14l-71.594,-0l0,239.134c0,6.169 -1.38,10.633 -4.14,13.393c-2.759,2.76 -7.224,4.14 -13.393,4.14Z" style="fill:#a100ff;fill-rule:nonzero;"/><path d="M1624.41,2319l-118.837,0c-40.586,0 -70.701,-8.117 -90.345,-24.352c-19.644,-16.234 -29.465,-41.235 -29.465,-75.003l-0,-151.468c-0,-33.768 9.821,-58.85 29.465,-75.247c19.644,-16.397 49.759,-24.595 90.345,-24.595l118.837,-0c6.169,-0 10.633,1.38 13.393,4.14c2.76,2.76 4.14,7.224 4.14,13.393l-0,58.931c-0,6.169 -1.38,10.634 -4.14,13.394c-2.76,2.76 -7.224,4.14 -13.393,4.14l-97.894,-0c-10.066,-0 -17.534,2.029 -22.404,6.088c-4.87,4.058 -7.305,10.146 -7.305,18.263l-0,115.915c-0,8.117 2.435,14.043 7.305,17.776c4.87,3.734 12.338,5.601 22.404,5.601l97.894,0c6.169,0 10.633,1.38 13.393,4.14c2.76,2.76 4.14,7.225 4.14,13.394l-0,57.957c-0,6.169 -1.38,10.633 -4.14,13.393c-2.76,2.76 -7.224,4.14 -13.393,4.14Z" style="fill:#a100ff;fill-rule:nonzero;"/><path d="M1991.63,2226.95c0,14.936 -2.192,28.492 -6.575,40.668c-4.383,12.176 -12.176,22.566 -23.378,31.17c-11.201,8.604 -26.624,15.342 -46.268,20.212c-19.644,4.87 -44.564,7.306 -74.76,7.306c-30.196,-0 -55.197,-2.436 -75.003,-7.306c-19.806,-4.87 -35.31,-11.608 -46.512,-20.212c-11.202,-8.604 -18.994,-18.994 -23.378,-31.17c-4.383,-12.176 -6.575,-25.732 -6.575,-40.668l0,-166.078c0,-14.936 2.192,-28.492 6.575,-40.668c4.384,-12.176 12.176,-22.647 23.378,-31.414c11.202,-8.766 26.706,-15.585 46.512,-20.455c19.806,-4.871 44.807,-7.306 75.003,-7.306c30.196,0 55.116,2.435 74.76,7.306c19.644,4.87 35.067,11.689 46.268,20.455c11.202,8.767 18.995,19.238 23.378,31.414c4.383,12.176 6.575,25.732 6.575,40.668l0,166.078Zm-191.892,-17.533c0,6.494 2.435,11.933 7.306,16.316c4.87,4.383 16.072,6.575 33.605,6.575c17.534,-0 28.735,-2.192 33.606,-6.575c4.87,-4.383 7.305,-9.822 7.305,-16.316l0,-131.012c0,-6.169 -2.435,-11.446 -7.305,-15.829c-4.871,-4.383 -16.072,-6.575 -33.606,-6.575c-17.533,0 -28.735,2.192 -33.605,6.575c-4.871,4.383 -7.306,9.66 -7.306,15.829l0,131.012Z" style="fill:#a100ff;fill-rule:nonzero;"/><path d="M2143.59,2319l-72.568,0c-6.169,0 -10.634,-1.38 -13.394,-4.14c-2.759,-2.76 -4.139,-7.224 -4.139,-13.393l-0,-315.599c-0,-6.169 1.38,-10.633 4.139,-13.393c2.76,-2.76 7.225,-4.14 13.394,-4.14l78.413,-0c5.195,-0 9.497,1.136 12.906,3.409c3.409,2.273 6.575,6.007 9.497,11.202l43.833,79.387c1.624,2.922 3.004,5.032 4.14,6.331c1.136,1.299 2.679,1.948 4.627,1.948l4.383,0c1.948,0 3.491,-0.649 4.627,-1.948c1.136,-1.299 2.516,-3.409 4.14,-6.331l43.346,-79.387c2.922,-5.195 6.088,-8.929 9.497,-11.202c3.409,-2.273 7.712,-3.409 12.907,-3.409l78.899,-0c6.169,-0 10.634,1.38 13.394,4.14c2.76,2.76 4.14,7.224 4.14,13.393l-0,315.599c-0,6.169 -1.38,10.633 -4.14,13.393c-2.76,2.76 -7.225,4.14 -13.394,4.14l-75.003,0c-6.169,0 -10.634,-1.38 -13.394,-4.14c-2.759,-2.76 -4.139,-7.224 -4.139,-13.393l-0,-171.437l-28.735,53.087c-2.923,5.52 -6.413,9.497 -10.472,11.933c-4.058,2.435 -9.172,3.652 -15.341,3.652l-19.482,0c-6.169,0 -11.283,-1.217 -15.341,-3.652c-4.059,-2.436 -7.549,-6.413 -10.472,-11.933l-28.735,-53.087l0,171.437c0,6.169 -1.38,10.633 -4.139,13.393c-2.76,2.76 -7.225,4.14 -13.394,4.14Z" style="fill:#a100ff;fill-rule:nonzero;"/><path d="M2560,2319l-75.49,0c-6.169,0 -10.634,-1.38 -13.394,-4.14c-2.76,-2.76 -4.14,-7.224 -4.14,-13.393l0,-315.599c0,-6.169 1.38,-10.633 4.14,-13.393c2.76,-2.76 7.225,-4.14 13.394,-4.14l149.032,-0c44.158,-0 74.354,8.766 90.589,26.3c16.234,17.533 24.352,40.424 24.352,68.672l-0,62.34c-0,28.248 -8.118,51.139 -24.352,68.672c-16.235,17.533 -46.431,26.3 -90.589,26.3l-56.009,0l0,80.848c0,6.169 -1.38,10.633 -4.139,13.393c-2.76,2.76 -7.225,4.14 -13.394,4.14Zm16.559,-259.59l0,73.543l43.833,-0c9.416,-0 15.586,-2.435 18.508,-7.306c2.922,-4.87 4.383,-10.39 4.383,-16.559l0,-25.813c0,-6.169 -1.461,-11.689 -4.383,-16.559c-2.922,-4.87 -9.092,-7.306 -18.508,-7.306l-43.833,0Z" style="fill:#a100ff;fill-rule:nonzero;"/><path d="M3097.69,2226.95c-0,14.936 -2.192,28.492 -6.575,40.668c-4.383,12.176 -12.176,22.566 -23.378,31.17c-11.202,8.604 -26.543,15.342 -46.025,20.212c-19.481,4.87 -44.32,7.306 -74.516,7.306c-30.196,-0 -55.035,-2.436 -74.516,-7.306c-19.482,-4.87 -34.823,-11.608 -46.025,-20.212c-11.202,-8.604 -18.995,-18.994 -23.378,-31.17c-4.383,-12.176 -6.575,-25.732 -6.575,-40.668l0,-241.082c0,-6.169 1.38,-10.633 4.14,-13.393c2.76,-2.76 7.224,-4.14 13.393,-4.14l76.465,-0c6.169,-0 10.633,1.38 13.393,4.14c2.76,2.76 4.14,7.224 4.14,13.393l0,222.088c0,6.494 2.435,11.932 7.306,16.316c4.87,4.383 15.747,6.575 32.631,6.575c17.209,-0 28.248,-2.192 33.118,-6.575c4.871,-4.384 7.306,-9.822 7.306,-16.316l-0,-222.088c-0,-6.169 1.38,-10.633 4.14,-13.393c2.76,-2.76 7.224,-4.14 13.393,-4.14l74.03,-0c6.169,-0 10.633,1.38 13.393,4.14c2.76,2.76 4.14,7.224 4.14,13.393l-0,241.082Z" style="fill:#a100ff;fill-rule:nonzero;"/><path d="M3328.05,2319l-78.899,0c-6.169,0 -10.634,-1.38 -13.394,-4.14c-2.76,-2.76 -4.14,-7.224 -4.14,-13.393l0,-239.134l-71.594,-0c-6.169,-0 -10.633,-1.38 -13.393,-4.14c-2.76,-2.76 -4.14,-7.225 -4.14,-13.394l0,-58.931c0,-6.169 1.38,-10.633 4.14,-13.393c2.76,-2.76 7.224,-4.14 13.393,-4.14l257.155,-0c6.169,-0 10.633,1.38 13.393,4.14c2.76,2.76 4.14,7.224 4.14,13.393l0,58.931c0,6.169 -1.38,10.634 -4.14,13.394c-2.76,2.76 -7.224,4.14 -13.393,4.14l-71.594,-0l-0,239.134c-0,6.169 -1.38,10.633 -4.14,13.393c-2.76,2.76 -7.225,4.14 -13.394,4.14Z" style="fill:#a100ff;fill-rule:nonzero;"/><path d="M3725.47,2319l-225.984,0c-6.169,0 -10.634,-1.38 -13.394,-4.14c-2.76,-2.76 -4.14,-7.224 -4.14,-13.393l0,-315.599c0,-6.169 1.38,-10.633 4.14,-13.393c2.76,-2.76 7.225,-4.14 13.394,-4.14l225.984,-0c6.169,-0 10.634,1.38 13.393,4.14c2.76,2.76 4.14,7.224 4.14,13.393l0,56.983c0,6.169 -1.38,10.634 -4.14,13.394c-2.759,2.76 -7.224,4.139 -13.393,4.139l-134.422,0l0,37.502l94.972,0c6.169,0 10.634,1.38 13.394,4.14c2.759,2.76 4.139,7.224 4.139,13.393l0,52.113c0,6.169 -1.38,10.634 -4.139,13.394c-2.76,2.76 -7.225,4.139 -13.394,4.139l-94.972,0l0,41.885l134.422,0c6.169,0 10.634,1.38 13.393,4.14c2.76,2.76 4.14,7.225 4.14,13.394l0,56.983c0,6.169 -1.38,10.633 -4.14,13.393c-2.759,2.76 -7.224,4.14 -13.393,4.14Z" style="fill:#a100ff;fill-rule:nonzero;"/><path d="M3910.55,2056l0,62.341l36.528,-0c8.442,-0 14.124,-2.192 17.046,-6.575c2.922,-4.384 4.384,-9.822 4.384,-16.316l-0,-16.559c-0,-6.494 -1.462,-11.933 -4.384,-16.316c-2.922,-4.383 -8.604,-6.575 -17.046,-6.575l-36.528,0Zm-17.533,262.999l-75.003,0c-6.169,0 -10.634,-1.38 -13.394,-4.14c-2.76,-2.76 -4.14,-7.224 -4.14,-13.393l0,-315.599c0,-6.169 1.38,-10.633 4.14,-13.393c2.76,-2.76 7.225,-4.14 13.394,-4.14l162.182,-0c36.366,-0 61.448,7.549 75.247,22.647c13.8,15.098 20.699,34.661 20.699,58.688l0,22.403c0,13.637 -2.029,25.245 -6.088,34.823c-4.058,9.579 -11.12,16.478 -21.186,20.699c17.534,1.948 31.739,9.092 42.616,21.43c10.877,12.338 16.316,28.735 16.316,49.19l-0,103.252c-0,6.169 -1.38,10.633 -4.14,13.393c-2.76,2.76 -7.225,4.14 -13.394,4.14l-75.49,0c-6.169,0 -10.634,-1.38 -13.394,-4.14c-2.759,-2.76 -4.139,-7.224 -4.139,-13.393l-0,-74.517c-0,-7.143 -1.38,-12.419 -4.14,-15.828c-2.76,-3.409 -7.549,-5.114 -14.368,-5.114l-68.185,-0l0,95.459c0,6.169 -1.38,10.633 -4.139,13.393c-2.76,2.76 -7.225,4.14 -13.394,4.14Z" style="fill:#a100ff;fill-rule:nonzero;"/></g></g></g></svg>