<?xml version="1.0" encoding="UTF-8" standalone="no"?><!DOCTYPE svg PUBLIC "-//W3C//DTD SVG 1.1//EN"
        "http://www.w3.org/Graphics/SVG/1.1/DTD/svg11.dtd">
<svg width="100%" height="100%" viewBox="0 0 5400 3000" version="1.1" xmlns="http://www.w3.org/2000/svg"
     xmlns:xlink="http://www.w3.org/1999/xlink" xml:space="preserve" xmlns:serif="http://www.serif.com/"
     style="fill-rule:evenodd;clip-rule:evenodd;stroke-linecap:round;stroke-linejoin:round;stroke-miterlimit:1.5;"><rect x="0" y="0" width="5400" height="3000" style="fill:none;"/>
    <circle cx="2700" cy="1500" r="1165.95" style="fill:none;stroke:#000;stroke-width:416.67px;"/>
    <g><path d="M2296.28,518.365l35.514,-11.784l-34.844,-105.014c-4.098,-12.348 -3.876,-22.86 0.666,-31.535c4.39,-8.75 11.683,-14.817 21.878,-18.2c10.196,-3.383 19.612,-2.861 28.25,1.567c8.713,4.277 15.118,12.59 19.215,24.938l34.845,105.014l35.515,-11.784l-38.905,-117.249c-7.257,-19.977 -18.619,-33.184 -34.085,-39.622c-15.542,-6.286 -30.62,-7.005 -45.234,-2.156c-18.918,6.277 -31.9,18.319 -38.945,36.124l-0.679,0.226l-6.203,-18.692l-35.514,11.784l58.526,176.383Z" style="fill:#fff;fill-rule:nonzero;"/>
        <path d="M2444.09,374.257c3.044,19.336 6.956,33.824 11.735,43.463c4.898,9.62 11.35,17.606 19.358,23.957c5.98,4.98 13.871,9.054 23.673,12.223c9.759,3.66 21.672,4.503 35.74,2.53c14.466,-2.518 25.78,-7.018 33.942,-13.498c4.501,-2.884 8.051,-6.04 10.653,-9.471c3.011,-3.132 5.482,-6.239 7.413,-9.322c6.141,-8.579 9.946,-18.18 11.416,-28.802c1.351,-10.604 0.505,-25.574 -2.539,-44.911c-3.043,-19.337 -6.856,-33.961 -11.437,-43.872c-4.661,-9.658 -11.195,-17.389 -19.6,-23.195c-5.799,-5.37 -13.501,-9.776 -23.105,-13.218c-9.684,-3.188 -21.796,-3.759 -36.336,-1.712c-13.994,2.445 -25.109,6.671 -33.346,12.68c-8.318,6.263 -14.529,12.86 -18.634,19.789c-5.744,8.033 -9.468,17.379 -11.173,28.039c-1.55,10.876 -0.804,25.983 2.24,45.32Zm114.484,-17.659c1.967,12.498 2.825,21.788 2.574,27.869c-0.233,6.198 -1.815,11.885 -4.746,17.058c-2.155,3.964 -5.672,7.72 -10.551,11.267c-4.661,3.392 -10.352,5.617 -17.073,6.675c-6.249,0.983 -12.231,0.596 -17.945,-1.163c-5.497,-1.914 -10.115,-4.389 -13.855,-7.425c-3.908,-4.097 -7.042,-9.041 -9.403,-14.831c-2.343,-5.673 -4.517,-14.876 -6.521,-27.61c-2.023,-12.852 -2.801,-22.395 -2.332,-28.631c0.505,-6 2.006,-11.432 4.503,-16.296c2.534,-4.628 6.15,-8.52 10.849,-11.676c4.916,-3.311 10.498,-5.459 16.747,-6.442c6.721,-1.058 12.811,-0.748 18.271,0.93c5.677,1.523 10.196,4.134 13.558,7.834c4.341,3.787 7.556,8.477 9.645,14.068c2.126,5.828 4.218,15.286 6.279,28.373Z"
              style="fill:#fff;fill-rule:nonzero;"/>
        <path d="M2631.97,257.181l-18.607,0.664l1.015,28.448l18.608,-0.664l3.977,111.469c0.524,14.672 5.218,25.731 14.083,33.178c8.639,7.813 19.519,11.486 32.64,11.017l19.503,-0.696l-1.258,-35.247l-13.956,0.498c-9.057,0.562 -13.634,-3.873 -13.732,-13.305l-3.863,-108.248l27.197,-0.97l-1.015,-28.449l-27.197,0.97l-2.017,-56.539l-37.395,1.334l2.017,56.54Z"
              style="fill:#fff;fill-rule:nonzero;"/>
        <path d="M2811.28,351.052c-3.158,19.318 -3.974,34.302 -2.45,44.953c1.643,10.669 5.273,20.273 10.892,28.81c4.122,6.6 10.342,12.939 18.662,19.015c8.124,6.529 19.176,11.056 33.155,13.583c14.527,2.133 26.681,1.399 36.461,-2.203c5.176,-1.331 9.536,-3.219 13.08,-5.663c3.84,-2.033 7.159,-4.212 9.958,-6.536c8.516,-6.227 15.134,-14.155 19.852,-23.785c4.601,-9.649 8.48,-24.133 11.638,-43.451c3.158,-19.318 4.111,-34.401 2.861,-45.248c-1.407,-10.631 -5.194,-20.018 -11.361,-28.162c-3.828,-6.915 -9.765,-13.509 -17.81,-19.783c-8.201,-6.057 -19.527,-10.388 -33.977,-12.992c-14.057,-2.055 -25.936,-1.518 -35.64,1.613c-9.859,3.347 -17.822,7.669 -23.889,12.966c-7.968,5.833 -14.429,13.545 -19.383,23.136c-4.875,9.846 -8.891,24.429 -12.049,43.747Zm114.262,19.04c-2.041,12.486 -4.132,21.578 -6.273,27.275c-2.16,5.815 -5.441,10.721 -9.844,14.718c-3.287,3.091 -7.802,5.558 -13.545,7.401c-5.489,1.763 -11.591,2.096 -18.305,0.999c-6.243,-1.021 -11.803,-3.26 -16.68,-6.718c-4.623,-3.537 -8.235,-7.333 -10.838,-11.386c-2.429,-5.114 -3.86,-10.79 -4.291,-17.029c-0.451,-6.121 0.363,-15.542 2.443,-28.264c2.098,-12.839 4.346,-22.147 6.741,-27.924c2.357,-5.541 5.482,-10.23 9.375,-14.069c3.854,-3.603 8.507,-6.168 13.957,-7.696c5.705,-1.607 11.679,-1.901 17.922,-0.88c6.714,1.097 12.402,3.297 17.063,6.599c4.915,3.222 8.391,7.116 10.426,11.682c2.939,4.955 4.526,10.415 4.761,16.379c0.196,6.2 -0.775,15.838 -2.912,28.913Z"
              style="fill:#fff;fill-rule:nonzero;"/>
        <path d="M2968.41,472.489l35.366,12.223l17.486,-50.596l38.628,-21.884l18.341,98.211l44.335,15.321l-31.853,-130.915l84.263,-47.597l-42.304,-14.62l-95.997,59.075l-0.676,-0.234l53.041,-153.479l-35.367,-12.222l-85.263,246.717Z"
              style="fill:#fff;fill-rule:nonzero;"/>
        <path d="M1848.81,2396.79l-13.85,13.747l26.36,26.558l185.265,-183.892l-26.36,-26.557l-67.346,66.847c-0.218,-9.538 -1.493,-18.447 -3.825,-26.727c-2.922,-8.535 -7.747,-16.191 -14.474,-22.968c-16.399,-15.675 -33.847,-21.732 -52.344,-18.172c-7.766,0.477 -15.627,3.486 -23.581,9.027c-8.121,5.203 -20.103,15.666 -35.944,31.389c-15.587,15.472 -26.054,27.291 -31.402,35.458c-5.939,8.249 -9.176,16.255 -9.711,24.017c-1.131,9.027 -0.278,18.019 2.558,26.976c2.5,8.786 7.616,17.245 15.351,25.376c14.297,13.726 30.731,20.033 49.303,18.921Zm67.285,-118.5c6.222,6.269 9.913,12.444 11.072,18.525c1.159,6.081 0.42,11.775 -2.216,17.083c-2.3,5.646 -5.485,11.078 -9.555,16.295c-4.491,4.794 -9.278,9.714 -14.361,14.759c-4.659,4.624 -9.487,9.248 -14.484,13.872c-5.502,4.284 -11.084,7.554 -16.747,9.812c-5.327,2.597 -11.027,3.293 -17.099,2.089c-6.157,-1.12 -12.347,-4.815 -18.569,-11.083c-6.222,-6.269 -9.787,-12.233 -10.694,-17.891c-1.159,-6.081 -0.673,-11.86 1.457,-17.338c2.384,-5.562 5.823,-11.077 10.316,-16.546c4.24,-5.217 8.858,-10.306 13.856,-15.267c5.252,-5.213 10.63,-10.046 16.132,-14.499c5.164,-4.116 10.535,-7.346 16.114,-9.688c5.664,-2.258 11.446,-2.701 17.349,-1.328c5.397,1.201 11.207,4.937 17.429,11.205Z"
              style="fill:#fff;fill-rule:nonzero;"/>
        <path d="M1951.95,2392.9c-11.572,15.788 -19.093,28.774 -22.562,38.958c-3.373,10.255 -4.49,20.461 -3.353,30.618c0.682,7.751 3.354,16.221 8.014,25.408c4.282,9.503 12.08,18.549 23.395,27.138c11.982,8.487 23.148,13.342 33.498,14.565c5.217,1.16 9.959,1.454 14.226,0.882c4.344,-0.071 8.291,-0.508 11.839,-1.311c10.414,-1.69 19.906,-5.757 28.478,-12.201c8.475,-6.515 18.499,-17.666 30.071,-33.454c11.572,-15.788 19.26,-28.799 23.062,-39.035c3.566,-10.113 4.446,-20.197 2.641,-30.252c-0.278,-7.899 -2.58,-16.468 -6.907,-25.707c-4.564,-9.117 -12.696,-18.111 -24.396,-26.983c-11.597,-8.205 -22.429,-13.111 -32.497,-14.719c-10.306,-1.487 -19.363,-1.244 -27.172,0.727c-9.746,1.587 -19.002,5.533 -27.765,11.836c-8.809,6.566 -19,17.743 -30.572,33.53Zm93.215,68.77c-7.48,10.205 -13.465,17.36 -17.956,21.468c-4.561,4.204 -9.71,7.09 -15.446,8.656c-4.331,1.265 -9.474,1.417 -15.429,0.456c-5.692,-0.916 -11.281,-3.385 -16.769,-7.407c-5.102,-3.74 -9.043,-8.257 -11.822,-13.55c-2.517,-5.248 -4.016,-10.269 -4.498,-15.062c0.152,-5.66 1.45,-11.368 3.894,-17.124c2.373,-5.66 7.37,-13.688 14.991,-24.085c7.691,-10.493 13.913,-17.771 18.667,-21.834c4.613,-3.87 9.525,-6.634 14.735,-8.29c5.068,-1.464 10.378,-1.642 15.929,-0.533c5.814,1.154 11.272,3.6 16.374,7.34c5.487,4.022 9.559,8.561 12.217,13.617c2.921,5.101 4.253,10.147 3.998,15.139c0.373,5.75 -0.688,11.336 -3.183,16.758c-2.636,5.615 -7.87,13.766 -15.702,24.451Z"
              style="fill:#fff;fill-rule:nonzero;"/>
        <path d="M2156.86,2421.94l-16.23,-9.126l-13.952,24.813l16.23,9.126l-54.669,97.224c-7.195,12.797 -8.949,24.683 -5.26,35.657c3.304,11.17 10.679,19.972 22.123,26.407l17.01,9.565l17.287,-30.744l-12.173,-6.844c-8.023,-4.238 -9.621,-10.408 -4.791,-18.51l53.089,-94.415l23.72,13.338l13.953,-24.813l-23.721,-13.338l27.729,-49.314l-32.616,-18.34l-27.729,49.314Z"
              style="fill:#fff;fill-rule:nonzero;"/>
        <path d="M2371.04,2656.33c-12.906,9.078 -26.881,11.273 -41.924,6.585c-30.351,-9.339 -39.683,-32.567 -27.997,-69.684c12.668,-37.046 34.01,-50.39 64.025,-40.031c14.82,5.369 24.754,15.478 29.803,30.327l33.848,-14.702c-4.658,-11.831 -11.291,-22.237 -19.899,-31.22c-8.645,-8.869 -19.792,-15.67 -33.438,-20.403c-20.792,-7.078 -41.396,-6.118 -61.813,2.881c-21.059,9.039 -37.085,29.531 -48.077,61.474c-9.973,31.901 -9.122,57.62 2.553,77.157c11.108,19.351 27.094,32.453 47.96,39.305c13.796,4.279 26.86,5.24 39.192,2.882c12.257,-2.131 23.694,-6.352 34.31,-12.665l-18.543,-31.906Z"
              style="fill:#fff;fill-rule:nonzero;"/>
        <path d="M2425.08,2632.38c-3.34,19.288 -4.298,34.264 -2.874,44.928c1.542,10.684 5.081,20.322 10.62,28.912c4.059,6.639 10.219,13.035 18.481,19.19c8.062,6.605 19.071,11.237 33.025,13.895c14.507,2.27 26.667,1.65 36.481,-1.859c5.188,-1.282 9.566,-3.129 13.133,-5.539c3.859,-1.997 7.198,-4.144 10.019,-6.442c8.574,-6.147 15.266,-14.012 20.076,-23.597c4.691,-9.605 8.707,-24.051 12.047,-43.339c3.34,-19.288 4.435,-34.361 3.287,-45.219c-1.306,-10.644 -5.004,-20.067 -11.094,-28.268c-3.763,-6.951 -9.638,-13.601 -17.623,-19.95c-8.144,-6.134 -19.429,-10.572 -33.854,-13.312c-14.036,-2.188 -25.92,-1.763 -35.652,1.276c-9.891,3.254 -17.894,7.501 -24.011,12.741c-8.022,5.758 -14.556,13.408 -19.6,22.952c-4.968,9.8 -9.121,24.344 -12.461,43.631Zm114.077,20.117c-2.159,12.467 -4.336,21.538 -6.53,27.215c-2.215,5.794 -5.542,10.669 -9.982,14.625c-3.316,3.059 -7.854,5.484 -13.615,7.272c-5.505,1.712 -11.61,1.987 -18.313,0.826c-6.233,-1.079 -11.772,-3.371 -16.616,-6.874c-4.589,-3.581 -8.166,-7.41 -10.73,-11.488c-2.381,-5.137 -3.758,-10.826 -4.131,-17.069c-0.393,-6.125 0.51,-15.538 2.71,-28.239c2.219,-12.82 4.554,-22.106 7.004,-27.86c2.409,-5.518 5.578,-10.178 9.507,-13.98c3.888,-3.566 8.565,-6.087 14.029,-7.564c5.72,-1.553 11.697,-1.79 17.93,-0.711c6.704,1.161 12.37,3.414 17,6.76c4.885,3.268 8.323,7.195 10.315,11.779c2.893,4.983 4.428,10.458 4.606,16.424c0.138,6.202 -0.924,15.83 -3.184,28.884Z"
              style="fill:#fff;fill-rule:nonzero;"/>
        <path d="M2620.76,2759.77l37.389,-1.483l-4.384,-110.557c-0.515,-13 2.67,-23.041 9.557,-30.123c6.523,-7.186 15.152,-10.993 25.886,-11.418c10.734,-0.426 19.696,2.683 26.888,9.326c7.067,6.528 10.859,16.293 11.374,29.292l4.384,110.558l37.389,-1.482l-4.383,-110.558c-0.516,-13 2.61,-23.038 9.377,-30.115c6.643,-7.192 15.331,-11 26.065,-11.426c10.734,-0.426 19.637,2.685 26.709,9.333c7.068,6.529 10.859,16.293 11.375,29.293l4.383,110.557l37.39,-1.482l-4.895,-123.438c-1.318,-21.21 -8.516,-37.051 -21.593,-47.522c-13.192,-10.347 -27.48,-15.216 -42.865,-14.606c-24.459,0.731 -43.637,9.614 -57.535,26.65c-6.723,-6.901 -14.054,-12.523 -21.99,-16.867c-8.037,-3.862 -18.501,-5.657 -31.391,-5.385c-20.036,0.795 -35.905,8.77 -47.608,23.927l-0.716,0.028l-0.78,-19.679l-37.389,1.483l7.363,185.694Z"
              style="fill:#fff;fill-rule:nonzero;"/>
        <path d="M2968.5,2805.78l36.177,-9.558l-24.284,-91.915c8.285,4.725 16.839,7.897 25.662,9.516c8.337,2.118 17.121,1.958 26.353,-0.481c11.133,-3.188 20.116,-7.969 26.951,-14.343c6.98,-6.288 12.037,-13.55 15.169,-21.785c3.408,-7.196 4.815,-15.654 4.222,-25.374c-0.708,-9.689 -3.867,-25.15 -9.477,-46.383c-5.762,-21.81 -10.713,-37.045 -14.852,-45.704c-4.286,-8.744 -9.657,-15.288 -16.113,-19.632c-14.149,-12.434 -32.32,-16.028 -54.513,-10.781c-18.773,5.577 -32.392,16.644 -40.857,33.201l-4.939,-18.695l-36.177,9.558l66.678,252.376Zm43.445,-125.734c-8.078,2.134 -14.94,2.095 -20.586,-0.117c-5.846,-2.036 -10.64,-5.46 -14.38,-10.274c-3.626,-4.845 -6.669,-10.522 -9.13,-17.032c-2.369,-6.164 -4.392,-12.419 -6.069,-18.766c-1.799,-6.809 -3.236,-13.651 -4.312,-20.527c-0.985,-6.53 -1.097,-12.796 -0.337,-18.799c0.875,-6.034 3.351,-11.379 7.429,-16.037c3.847,-4.596 9.81,-7.962 17.888,-10.096c8.539,-2.256 15.671,-2.597 21.395,-1.023c5.786,1.804 10.433,5.144 13.943,10.019c3.68,4.583 6.824,10.172 9.43,16.768c2.03,6.747 3.99,13.698 5.88,20.853c1.799,6.808 3.437,13.474 4.913,19.997c0.93,6.792 0.958,13.204 0.083,19.237c-0.706,5.742 -3.097,10.942 -7.175,15.599c-4.108,4.542 -10.432,7.941 -18.972,10.198Z"
              style="fill:#fff;fill-rule:nonzero;"/>
        <path d="M3121.11,2619.25c8.84,19.057 21.614,30.716 38.322,34.976c15.827,4.918 30.809,4.326 44.947,-1.777c18.068,-8.132 29.694,-21.415 34.878,-39.849l0.653,-0.294l8.157,18.122l34.121,-15.359l-76.28,-169.463l-34.121,15.359l45.415,100.894c5.145,11.428 6.006,21.774 2.583,31.037c-3.313,9.214 -9.867,16.026 -19.663,20.435c-9.796,4.409 -19.295,4.824 -28.498,1.244c-9.312,-3.531 -16.54,-11.011 -21.684,-22.439l-45.416,-100.894l-34.121,15.359l50.707,112.649Z"
              style="fill:#fff;fill-rule:nonzero;"/>
        <path d="M3238.27,2424.8l-15.874,9.732l14.878,24.269l15.874,-9.732l58.297,95.093c7.673,12.516 17.2,19.835 28.582,21.958c11.365,2.553 22.644,0.398 33.837,-6.464l16.638,-10.2l-18.434,-30.069l-11.906,7.299c-7.609,4.944 -13.776,3.335 -18.5,-4.829l-56.613,-92.345l23.201,-14.223l-14.879,-24.269l-23.2,14.223l-29.57,-48.233l-31.901,19.557l29.57,48.233Z"
              style="fill:#fff;fill-rule:nonzero;"/>
        <path d="M3492.88,2372.71l-19.201,-24.075c-15.444,-18.98 -33.351,-29.277 -53.723,-30.892c-20.036,-1.577 -38.434,4.165 -55.192,17.226c-6.905,5.507 -12.899,12.349 -17.981,20.524c-5.176,8.251 -8.387,17.529 -9.632,27.835c-1.227,10.139 0.21,21.512 4.311,34.119c3.952,12.42 11.659,25.816 23.12,40.186c11.908,14.93 23.683,25.386 35.324,31.368c11.566,6.653 22.587,10.23 33.062,10.73c5.256,0.083 10.411,-0.441 15.465,-1.571c5.089,-0.7 9.938,-1.896 14.545,-3.585c9.064,-3.566 17.422,-8.4 25.074,-14.502c20.211,-15.815 31.409,-37.571 33.594,-65.267l-35.537,-1.199c-1.814,16.867 -8.647,30.026 -20.498,39.478c-10.171,8.112 -20.838,11.582 -32.002,10.41c-11.556,-0.707 -21.986,-6.892 -31.289,-18.556l90.56,-72.229Zm-109.761,48.154c-8.446,-11.738 -12.223,-22.695 -11.332,-32.871c1.208,-9.971 6.198,-18.454 14.969,-25.45c8.772,-6.996 18.152,-9.974 28.142,-8.934c10.306,1.246 20.149,7.365 29.527,18.358l-61.306,48.897Z"
              style="fill:#fff;fill-rule:nonzero;"/>
        <path d="M3580.35,2397.17l25.374,-27.501l-82.24,-75.88c-9.838,-9.402 -14.404,-18.974 -13.698,-28.716c0.052,-9.209 3.315,-17.323 9.79,-24.341c5.747,-6.228 13.572,-10.132 23.476,-11.713l-5.363,-41.976c-14.37,1.845 -26.701,8.169 -36.994,18.973c-13.516,14.649 -19.048,31.47 -16.595,50.461l-0.485,0.526l-14.475,-13.355l-25.374,27.501l136.584,126.021Z"
              style="fill:#fff;fill-rule:nonzero;"/></g>
    <g><g><path d="M2613.65,1795.8l0,-88.002l-34.039,-36.016l-0,-770.731l25.653,-0l0,-33.755l652.727,-0l0,33.755l27.57,-0l-0,770.731l-34.412,36.016l0,88.002l-637.499,-0Z" style="fill:#fff;"/><path
            d="M3285.74,1830.84l-0,-158.076l-707.126,0l0,158.076l707.126,-0Zm-35.037,-123.039l-0,88.001c-0,0.001 -532.931,0.001 -637.052,0.001c0,-0.001 0,-88.002 0,-88.002c0,0 637.052,0 637.052,0l-0,0Zm7.801,-841.589l-0,-34.838l-654.136,0l-0,34.8l-25.898,-0l-0,35.037l26.066,-0l0,-34.8l653.737,0l-0,34.838l27.093,0l-0,771.249l35.037,0l-0,-771.26l-34.822,-0l-0,-35.026l-27.077,0Zm-679.653,806.286l-0,-771.26l-35.037,-0l-0,771.26l35.037,0Zm118.393,-125.3l-56.843,0l0,35.037l56.843,0l0,-35.037Zm499.773,-30.146l-184.841,-0l0,35.037l184.841,-0l-0,-35.037Zm-2.868,-555.037l-0,-34.732l-525.884,0l0,35.037l524.891,0l-0,401.892l-523.868,-0l0,35.037l525.229,-0l0,-34.98l33.676,-0l-0,-402.254l-34.044,-0Zm-560.069,0.895l-0,401.754l35.037,0l-0,-401.754l-35.037,0Zm345.761,307.22l-126.223,-0l0,35.037l126.762,-0l-0,-34.593l29.067,-0l0,-35.037l-29.606,-0l-0,34.593Zm-155.365,-0.204l28.249,0l-0,-35.037l-28.249,0l0,35.037Zm90.063,-213.19l-0,116.677c-0,-0 -27.144,-0 -27.144,-0l0,35.037l62.181,-0l-0,-151.714l-35.037,-0Zm93.122,-0l0,58.517l35.037,-0l0,-58.517l-35.037,-0Zm-217.465,-0l-0,58.517l35.037,-0l-0,-58.517l-35.037,-0Z"
            style="fill:#f00;"/></g>
        <g><path d="M2149.43,2133.59l-0,-88.001l-34.04,-36.016l0,-770.732l25.654,-0l-0,-33.755l652.727,0l-0,33.755l27.569,-0l0,770.732l-34.411,36.016l-0,88.001l-637.499,-0Z" style="fill:#fff;"/>
            <path d="M2821.52,2168.63l0,-158.075l-707.125,-0l-0,158.075l707.125,-0Zm-35.037,-123.038l0,88.001c0,-0 -532.931,-0 -637.051,-0c-0,-0 -0,-88.001 -0,-88.001c-0,-0 637.051,-0 637.051,-0l0,-0Zm7.801,-841.589l0,-34.839l-654.136,0l0,34.8l-25.898,-0l0,35.037l26.067,-0l-0,-34.8l653.736,0l0,34.839l27.093,-0l0,771.249l35.037,-0l0,-771.261l-34.822,0l0,-35.025l-27.077,-0Zm-679.653,806.286l0,-771.261l-35.037,0l0,771.261l35.037,-0Zm118.394,-125.3l-56.843,-0l-0,35.037l56.843,-0l-0,-35.037Zm499.772,-30.147l-184.84,-0l-0,35.037l184.84,-0l0,-35.037Zm-2.868,-555.037l0,-34.732l-525.883,0l-0,35.037l524.89,0l-0,401.892l-523.868,0l0,35.037l525.23,0l-0,-34.98l33.675,0l0,-402.254l-34.044,-0Zm-560.069,0.895l0,401.755l35.037,-0l0,-401.755l-35.037,0Zm345.761,307.22l-126.222,-0l-0,35.037l126.761,-0l0,-34.593l29.068,0l-0,-35.037l-29.607,0l0,34.593Zm-155.364,-0.203l28.248,-0l0,-35.038l-28.248,0l-0,35.038Zm90.062,-213.191l0,116.677c0,0 -27.143,0 -27.143,0l-0,35.037l62.18,0l0,-151.714l-35.037,-0Zm93.122,-0l0,58.517l35.038,0l-0,-58.517l-35.038,-0Zm-217.465,-0l0,58.517l35.037,0l0,-58.517l-35.037,-0Z"/></g></g></svg>