<?xml version="1.0" encoding="UTF-8" standalone="no"?><!DOCTYPE svg PUBLIC "-//W3C//DTD SVG 1.1//EN" "http://www.w3.org/Graphics/SVG/1.1/DTD/svg11.dtd"><svg width="100%" height="100%" viewBox="0 0 5400 3000" version="1.1" xmlns="http://www.w3.org/2000/svg" xmlns:xlink="http://www.w3.org/1999/xlink" xml:space="preserve" xmlns:serif="http://www.serif.com/" style="fill-rule:evenodd;clip-rule:evenodd;stroke-linejoin:round;stroke-miterlimit:2;"><g><rect x="0" y="0" width="5400" height="3000" style="fill:none;"/><path id="path1345" d="M1461.8,2096.26c-0.675,-1.801 -4.85,-4.774 -9.278,-6.607c-11.224,-4.646 -33.266,-30.21 -30.221,-35.051c1.338,-2.128 0.921,-3.833 -0.928,-3.788c-1.849,0.044 -5.905,-8.17 -9.013,-18.255c-3.108,-10.084 -9.735,-30.413 -14.726,-45.174c-4.991,-14.761 -11.25,-33.535 -13.91,-41.718c-2.659,-8.184 -7.527,-22.529 -10.818,-31.88c-25.524,-72.526 -35.022,-103.301 -32.664,-105.838c1.595,-1.717 1.221,-2.384 -0.892,-1.592c-4.679,1.754 -17.039,-34.447 -13.179,-38.601c1.695,-1.824 1.403,-2.537 -0.715,-1.744c-4.579,1.716 -15.102,-27.986 -11.347,-32.028c1.853,-1.994 1.285,-2.448 -1.675,-1.339c-3.245,1.216 -3.681,0.411 -1.584,-2.923c1.591,-2.53 1.599,-4.521 0.016,-4.423c-2.437,0.149 -21.16,-51.4 -42.731,-117.654c-8.802,-27.03 -30.507,-89.131 -48.305,-138.205l-16.325,-45.01l5.745,-21.67c6.969,-26.289 19.411,-43.621 40.656,-56.636c17.679,-10.831 25.913,-13.261 117.924,-34.805c38.653,-9.051 79.147,-18.555 89.985,-21.12c60.884,-14.409 115.3,-25.27 120.146,-23.979c3.048,0.811 4.861,0.46 4.03,-0.78c-2.243,-3.348 28.478,-11.261 31.786,-8.188c1.56,1.449 2.314,1.241 1.676,-0.461c-0.638,-1.703 10.818,-5.524 25.457,-8.492c14.639,-2.968 30.075,-6.654 34.302,-8.19c4.226,-1.536 9.025,-1.548 10.663,-0.026c1.705,1.585 2.414,1.261 1.658,-0.757c-0.775,-2.07 5.609,-4.369 15.46,-5.567c9.229,-1.123 23.503,-4.382 31.719,-7.242c8.217,-2.861 13.763,-3.936 12.326,-2.389c-1.437,1.547 2.368,1.528 8.455,-0.041c6.087,-1.57 10.631,-4.091 10.098,-5.603c-0.532,-1.512 0.791,-2.024 2.942,-1.139c5.068,2.088 28.038,-1.67 28.633,-4.685c0.252,-1.272 2.543,-1.001 5.091,0.602c2.687,1.69 4.116,1.531 3.4,-0.38c-1.698,-4.532 49.687,-17.757 53.875,-13.866c2.289,2.127 2.79,1.694 1.628,-1.407c-1.229,-3.279 -0.398,-3.673 3.1,-1.473c2.629,1.653 4.301,1.729 3.716,0.169c-2.075,-5.538 187.185,-49.841 192.364,-45.03c1.662,1.545 2.402,1.248 1.682,-0.674c-1.695,-4.523 23.262,-10.252 27.501,-6.314c2.267,2.106 2.764,1.664 1.606,-1.428c-1.229,-3.278 -0.398,-3.673 3.101,-1.472c2.628,1.653 4.312,1.763 3.743,0.244c-0.569,-1.519 5.149,-4.092 12.708,-5.719c7.558,-1.626 38.413,-9.118 68.567,-16.65c30.154,-7.532 78.983,-19.361 108.509,-26.288c29.525,-6.926 65.258,-15.4 79.407,-18.831c14.148,-3.432 26.169,-6.151 26.712,-6.044c0.543,0.107 13.35,-2.842 28.46,-6.555c15.11,-3.712 67.351,-16.059 116.091,-27.438c48.74,-11.379 96.75,-22.63 106.689,-25.002c13.908,-3.319 116.683,-27.39 205.165,-48.053c24.675,-5.762 53.774,-10.711 52.046,-8.851c-1.138,1.224 2.989,1.039 9.169,-0.411c6.18,-1.45 10.697,-4.076 10.038,-5.836c-0.659,-1.759 0.557,-2.177 2.702,-0.928c2.146,1.249 9.122,0.697 15.503,-1.227c6.381,-1.924 13.163,-3.189 15.069,-2.813c6.261,1.237 20.774,-4.282 19.004,-7.227c-0.952,-1.585 0.473,-1.561 3.168,0.053c2.694,1.614 5.158,1.62 5.475,0.016c0.317,-1.605 2.103,-2.617 3.967,-2.249c1.865,0.368 18.415,-3.181 36.779,-7.888c18.364,-4.706 50.064,-12.784 70.444,-17.95c44.033,-11.162 50.966,-16.835 45.666,-12.887c-3.709,2.762 0.551,3.294 3.866,3.949c3.314,0.655 6.263,-0.007 6.552,-1.471c0.448,-2.27 4.944,-3.272 15.632,-3.487c1.257,-0.025 4.989,-1.669 8.294,-3.652c3.304,-1.983 9.386,-3.146 13.516,-2.585c4.129,0.561 7.186,0.162 6.794,-0.886c-1.217,-3.255 48.059,-12.555 51.175,-9.659c1.678,1.559 2.372,1.21 1.615,-0.811c-0.751,-2.003 3.968,-4.545 10.846,-5.843c10.213,-1.929 86.686,-19.828 154.348,-36.128c9.541,-2.299 17.854,-4.079 18.472,-3.957c0.619,0.122 14.014,-2.95 29.767,-6.826c52.579,-12.939 65.256,-15.311 69.059,-12.919c2.076,1.306 3.291,1.083 2.7,-0.495c-1.549,-4.132 23.794,-9.393 27.711,-5.753c1.909,1.772 2.764,1.662 2.042,-0.264c-1.104,-2.948 73.437,-21.94 100.608,-25.632c5.802,-0.789 14.304,-2.924 18.893,-4.746c4.588,-1.822 8.683,-2.864 9.1,-2.316c0.416,0.547 5.427,-0.359 11.136,-2.014c43.382,-12.578 84.43,-10.075 107.891,6.579c6.76,4.799 23.6,22.793 37.422,39.988c13.822,17.195 29.44,36.126 34.706,42.069c5.266,5.943 8.421,12.047 7.011,13.565c-1.41,1.517 -1.056,2.195 0.785,1.504c2.879,-1.079 12.496,10.181 44.033,51.559c3.419,4.485 10.534,12.97 15.812,18.854c5.278,5.884 8.442,11.94 7.032,13.458c-1.439,1.549 -0.943,2.152 1.132,1.375c2.033,-0.762 4.619,1.292 5.748,4.565c1.129,3.273 2.307,4.878 2.618,3.567c0.307,-1.311 8.723,8.032 18.692,20.761c9.969,12.728 17.573,24.158 16.897,25.4c-0.676,1.241 0.533,2.253 2.687,2.248c2.153,-0.006 3.188,1.712 2.299,3.817c-0.89,2.105 -0.218,3.303 1.492,2.662c4.101,-1.536 70.79,81.088 68.654,85.058c-0.907,1.687 -0.439,2.256 1.04,1.265c3.231,-2.165 23.144,19.615 40.158,43.922c2.448,3.497 5.886,6.642 7.641,6.989c1.755,0.347 2.085,1.821 0.734,3.275c-1.352,1.455 -0.457,3.041 1.989,3.524c2.445,0.483 4.687,2.034 4.982,3.446c0.295,1.412 4.346,6.546 9.002,11.41c4.655,4.863 7.272,10.126 5.815,11.694c-1.537,1.654 -1.073,2.261 1.105,1.445c3.95,-1.48 5.773,0.529 36.964,40.747c23.47,30.262 28.504,46.364 22.429,71.736c-3.301,13.789 -5.841,18.203 -13.346,23.194c-5.098,3.39 -49.852,19.044 -99.453,34.786c-49.602,15.743 -108.263,34.553 -130.358,41.801c-22.095,7.248 -75.465,24.234 -118.599,37.746c-43.135,13.512 -84.435,26.456 -91.779,28.764c-7.343,2.309 -29.875,9.391 -50.07,15.739c-53.704,16.88 -120.852,36.91 -219.57,65.498c-31.049,8.991 -65.449,19.097 -76.444,22.457c-10.995,3.361 -57.31,16.728 -102.922,29.705c-45.612,12.977 -97.894,28.027 -116.184,33.445c-18.289,5.418 -63.121,18.407 -99.626,28.867c-36.504,10.459 -84.314,24.263 -106.244,30.675c-21.93,6.413 -81.663,23.517 -132.739,38.009c-51.077,14.493 -94.414,27.047 -96.304,27.899c-1.89,0.852 -55.655,16.271 -119.476,34.263c-63.822,17.993 -123.553,35.087 -132.735,37.988c-9.183,2.9 -61.466,17.952 -116.185,33.448c-54.719,15.497 -119.663,34.019 -144.319,41.159c-161.932,46.898 -477.693,132.933 -666.737,181.665c-60.903,15.7 -63.375,16.05 -87.383,12.372c-13.898,-2.13 -25.244,-5.219 -25.934,-7.061l-0,0.001Zm-0.903,-21.423c0.511,-2.584 2.119,-3.592 3.574,-2.24c3.642,3.384 5.458,-7.721 3.076,-18.812c-2.7,-12.573 -9.233,-21.539 -16.779,-23.03c-4.189,-0.827 -5.359,-2.382 -3.46,-4.597c2.244,-2.615 1.811,-2.691 -1.983,-0.344c-2.74,1.693 -6.048,9.047 -7.597,16.887c-2.326,11.773 -1.6,15.247 4.772,22.817c4.134,4.911 9.413,8.614 11.731,8.229c2.318,-0.386 3.121,0.477 1.785,1.914c-1.336,1.438 -0.993,2.899 0.762,3.245c1.755,0.347 3.608,-1.483 4.119,-4.067l0,-0.002Zm85.623,-84.762c31.948,-9.186 67.42,-19.362 78.826,-22.613c11.405,-3.25 21.893,-8.014 23.305,-10.585c3.235,-5.887 -31.559,-99.12 -38.437,-102.997c-7.387,-4.164 -5.314,-6.958 7.612,-10.257c15.017,-3.833 14.907,-3.893 10.885,5.825c-3.544,8.56 -3.284,9.458 22.506,77.678c5.785,15.302 11.934,26.583 14.766,27.089c9.324,1.667 157.347,-42.215 159.337,-47.236c2.397,-6.047 -34.618,-98.931 -41.058,-103.029c-3.729,-2.373 -2.426,-3.47 6.281,-5.286c14.067,-2.934 13.968,-2.978 10.414,4.64c-4.252,9.113 33.026,99.664 41.739,101.386c8.524,1.684 150.154,-38.752 153.311,-43.77c1.435,-2.281 1.748,-6.968 0.695,-10.414c-4.554,-14.918 -37.281,-85.958 -41.738,-90.604c-4.597,-4.791 -4.187,-5.287 6.67,-8.058c14.912,-3.807 15.158,-3.69 9.345,4.407c-6.102,8.502 -6.009,8.844 16.528,60.651c12.557,28.864 19.932,42.067 23.941,42.859c3.186,0.63 20.993,-3.421 39.57,-9.001c18.578,-5.581 60.663,-17.873 93.523,-27.317c32.86,-9.443 82.159,-23.651 109.553,-31.572c81.238,-23.491 279.611,-79.573 414.495,-117.182c78.025,-21.756 126.637,-36.883 127.831,-39.779c1.704,-4.133 -35.4,-76.38 -45.775,-89.132c-5.442,-6.688 -4.459,-8.878 4.992,-11.115c7.68,-1.818 7.938,-1.506 4.922,5.948c-2.721,6.724 0.21,13.89 20.149,49.264c12.832,22.768 25.362,41.797 27.844,42.288c8.389,1.657 129.907,-33.616 134.307,-38.986c3.74,-4.565 0.991,-11.076 -20.112,-47.621c-13.444,-23.284 -25.749,-43.547 -27.345,-45.029c-1.595,-1.482 -3.336,-5.409 -3.869,-8.725c-0.533,-3.317 -11.88,-24.529 -25.216,-47.139c-13.336,-22.609 -23.717,-41.306 -23.067,-41.549c0.649,-0.243 4.139,-1.912 7.756,-3.71c6.038,-3.002 6.312,-2.787 3.341,2.619c-3.801,6.92 -1.026,13.161 25.413,57.146c12.8,21.293 20.794,31.502 25.378,32.408c5.497,1.086 6.175,2.605 3.794,8.499c-2.311,5.72 0.361,12.751 13.16,34.627c29.257,50.006 32.087,54.225 36.936,55.061c8.613,1.487 130.812,-34.917 132.629,-39.511c0.965,-2.441 -0.129,-7.598 -2.432,-11.461c-2.303,-3.862 -14.187,-23.449 -26.41,-43.526c-12.223,-20.077 -21.607,-36.76 -20.852,-37.073c0.753,-0.313 4.371,-2.043 8.039,-3.844c6.211,-3.051 6.442,-2.803 3.363,3.612c-2.235,4.657 -1.819,9.808 1.272,15.905c7.475,14.725 47.18,75.359 49.607,75.757c1.231,0.208 30.632,-7.852 65.333,-17.899c40.091,-11.607 63.837,-20.09 65.134,-23.268c1.312,-3.217 -7.488,-19.428 -24.675,-45.457c-14.693,-22.251 -26.538,-41.354 -26.321,-42.451c0.217,-1.098 3.301,-2.883 6.853,-3.967c5.598,-1.71 6.194,-1.032 4.475,5.084c-1.497,5.323 4.354,16.843 23.819,46.893c23.1,35.662 26.597,39.703 33.367,38.553c24.604,-4.18 120.832,-33.173 123.341,-37.163c2.256,-3.586 -6.771,-19.642 -36.253,-64.485c-21.591,-32.84 -51.584,-79.052 -66.651,-102.691c-15.067,-23.64 -62.692,-96.136 -105.833,-161.103c-72.82,-109.659 -79.082,-118.13 -87.408,-118.238c-7.56,-0.098 -8.265,-0.688 -4.488,-3.761c2.644,-2.151 3.803,-5.603 2.828,-8.421c-3.777,-10.92 -36.027,-59.349 -40.051,-60.145c-2.4,-0.474 -18.392,2.602 -35.536,6.835c-28.894,7.135 -39.418,12.683 -53.005,27.941c-2.917,3.275 22.441,51.425 29.382,55.791c2.051,1.29 18.275,-1.394 36.054,-5.964c42.727,-10.983 53.655,-13.274 53.238,-11.162c-0.366,1.852 -81.185,22.832 -129.208,33.541c-26.097,5.819 -29.214,7.369 -39.358,19.573c-12.848,15.457 -12.853,15.421 7.988,50.046c14.788,24.569 19.217,33.1 16.952,32.652c-0.913,-0.18 -12.622,-18.343 -26.021,-40.362c-13.4,-22.019 -26.688,-40.946 -29.529,-42.061c-4.44,-1.742 -38.408,4.971 -63.914,12.632c-7.375,2.215 -26.615,21.696 -27.913,28.262c-0.321,1.627 7.991,17.397 18.471,35.045c10.481,17.649 18.323,32.579 17.427,33.179c-0.896,0.601 -9.466,-12.077 -19.046,-28.171c-9.58,-16.095 -21.302,-35.637 -26.049,-43.426l-8.631,-14.163l-32.489,8.364c-17.868,4.601 -33.825,8.001 -35.459,7.556c-1.634,-0.445 10.742,-4.257 27.502,-8.471c23.595,-5.932 30.744,-9.033 31.674,-13.736c0.695,-3.522 -7.111,-18.936 -18.581,-36.687l-19.78,-30.614l-34.882,7.934c-30.839,7.015 -36.328,9.346 -47.351,20.108c-7.783,7.599 -11.876,13.848 -10.893,16.632c4.736,13.411 27.701,48.755 32.264,49.657c2.931,0.579 11.727,-0.418 19.547,-2.215c7.82,-1.797 14.541,-2.784 14.937,-2.193c0.396,0.59 -3.863,6.358 -9.463,12.816c-5.6,6.458 -10.519,13.361 -10.93,15.338c-0.414,1.978 7.483,18.33 17.543,36.339c10.06,18.009 17.645,33.186 16.855,33.726c-0.79,0.541 -5.879,-6.805 -11.31,-16.323c-16.556,-29.016 -38.309,-62.504 -43.217,-66.53c-3.465,-2.843 -13.726,-1.298 -40.412,6.081c-34.518,9.546 -36.117,10.383 -45.805,23.966l-10.038,14.075l18.739,33.807c10.306,18.594 17.884,34.381 16.839,35.081c-1.044,0.7 -2.167,0.633 -2.494,-0.15c-2.474,-5.916 -29.898,-53.929 -38.635,-67.639c-11.933,-18.728 -17.253,-21.213 -32.943,-15.386c-5.794,2.152 -20.476,5.767 -32.627,8.034c-20.031,3.736 -23.05,5.345 -32.367,17.249c-5.652,7.221 -10.536,14.448 -10.855,16.061c-0.318,1.613 7.093,17.565 16.47,35.448c9.377,17.884 16.826,33.659 16.554,35.057c-0.273,1.397 -8.223,-12.148 -17.67,-30.103c-16.312,-31.003 -32.912,-55.954 -37.957,-57.052c-1.272,-0.275 -15.126,2.722 -30.787,6.665c-15.661,3.943 -31.828,7.739 -35.927,8.435c-4.248,0.722 -12.127,7.239 -18.324,15.157c-10.528,13.451 -10.757,14.178 -7.235,22.955c4.596,11.454 28.139,57.082 31.102,60.277c1.222,1.318 0.818,2.922 -0.897,3.565c-1.716,0.643 -10.505,-13.613 -19.531,-31.68c-17.541,-35.108 -30.602,-54.366 -37.843,-55.796c-2.462,-0.487 -17.29,2.341 -32.951,6.284c-15.661,3.943 -31.817,7.737 -35.903,8.431c-7.113,1.208 -24.115,20.951 -25.923,30.101c-0.847,4.289 17.134,44.069 27.728,61.345c3.173,5.173 4.495,9.883 2.939,10.466c-1.556,0.583 -8.804,-11.449 -16.107,-26.737c-17.061,-35.716 -32.54,-58.945 -40.302,-60.478c-3.374,-0.667 -16.756,1.419 -29.736,4.636c-12.98,3.216 -28.819,6.647 -35.197,7.624c-8.661,1.326 -13.875,4.789 -20.597,13.68c-4.949,6.547 -9.511,14.494 -10.136,17.659c-0.625,3.165 6.462,20.772 15.75,39.128c9.288,18.356 16.761,34.011 16.608,34.788c-1.131,5.723 -7.526,-4.063 -20.631,-31.567c-15.186,-31.874 -25.656,-49.148 -33.87,-55.878c-3.01,-2.466 -16.314,-0.867 -43.584,5.24c-36.942,8.273 -39.803,9.488 -48.606,20.642c-5.144,6.519 -9.782,13.949 -10.306,16.512c-0.525,2.563 6.479,20.5 15.562,39.861c9.084,19.36 14.838,34.801 12.788,34.311c-2.05,-0.487 -11.345,-17.602 -20.657,-38.029c-19.134,-41.975 -29.558,-53.831 -44.708,-50.853c-35.859,7.048 -65.51,14.631 -70.344,17.99c-3.142,2.184 -9.236,9.112 -13.542,15.397l-7.829,11.426l16.526,38.036c9.09,20.92 15.211,37.776 13.602,37.458c-1.609,-0.318 -10.641,-17.536 -20.07,-38.262c-11.39,-25.035 -20.528,-40.577 -27.225,-46.303l-10.08,-8.619l-35.904,8.785c-19.748,4.831 -37.355,8.498 -39.129,8.147c-3.068,-0.606 -23.89,24.655 -25.014,30.349c-0.294,1.488 6.152,18.775 14.325,38.415c8.173,19.64 14.741,36.315 14.594,37.055c-0.146,0.74 -1.657,1.071 -3.358,0.735c-1.702,-0.336 -9.629,-17.126 -17.617,-37.31c-10.591,-26.76 -17.26,-39.024 -24.626,-45.285l-10.102,-8.586l-40.787,8.364c-40.287,8.262 -40.927,8.533 -52.28,22.181c-13.211,15.881 -13.446,12.805 4.38,57.333c12.52,31.274 14.298,37.748 10.146,36.928c-1.533,-0.303 -10.124,-17.984 -19.09,-39.291c-12.867,-30.574 -18.749,-40.729 -27.907,-48.177l-11.604,-9.437l-23.09,6.3c-12.701,3.465 -31.442,7.921 -41.649,9.901c-17.17,3.331 -19.28,4.703 -28.239,18.359c-5.325,8.117 -9.346,16.702 -8.935,19.078c0.411,2.375 7.016,20.054 14.678,39.286c12.606,31.645 14.838,41.459 7.979,35.087c-1.33,-1.236 -7.812,-16.394 -14.404,-33.685c-14.807,-38.837 -18.131,-44.531 -31.604,-54.123c-10.607,-7.551 -10.923,-7.585 -28.185,-3.051c-9.602,2.522 -28.773,7.239 -42.604,10.484c-23.132,5.426 -25.876,6.939 -34.257,18.892c-5.011,7.146 -9.386,14.384 -9.722,16.086c-1.318,6.674 30.975,87.57 35.912,89.96c3.65,1.767 4.407,4.398 2.497,8.681c-3.929,8.811 27.096,93.08 35.366,96.058c4.836,1.741 5.442,3.757 3.005,9.986c-2.358,6.025 0.584,17.8 12.906,51.657c8.778,24.119 18.61,45.763 21.849,48.098c3.441,2.48 4.924,6.026 3.569,8.531c-2.001,3.7 24.733,86.715 32.122,99.748c1.448,2.555 4.834,4.264 7.524,3.799c3.868,-0.669 4.161,0.699 1.402,6.545c-2.814,5.961 -0.257,16.231 13.217,53.089c16.222,44.375 21.203,55.338 25.474,56.066c1.131,0.188 28.195,-7.166 60.143,-16.352l-0,0Zm-53.18,-70.117c-6.144,-11.13 -6.438,-15.61 -1.536,-23.404c4.021,-6.393 21.234,-10.727 27.951,-7.037c7.52,4.132 3.665,10.291 -4.61,7.366c-7.261,-2.565 -16.18,1.119 -17.377,7.179c-0.433,2.191 1.624,8.241 4.571,13.444c4.049,7.149 7.074,9.268 12.376,8.67c4.032,-0.454 7.506,-3.267 8.167,-6.614c0.754,-3.814 3.229,-5.412 7.177,-4.633c3.348,0.662 5.629,3.2 5.133,5.711c-1.59,8.049 -14.758,14.303 -25.605,12.16c-7.778,-1.537 -11.73,-4.66 -16.247,-12.842Zm49.368,-4.517c-2.572,-5.045 -4.445,-10.346 -4.161,-11.78c0.283,-1.434 -1.333,-2.972 -3.591,-3.418c-2.628,-0.519 -3.242,-3.556 -1.708,-8.441c3.02,-9.613 6.138,-11.834 7.287,-5.191c0.516,2.981 2.963,4.763 5.855,4.262c3.831,-0.663 4.227,0.49 1.727,5.039c-4.025,7.326 0.267,19.507 7.367,20.91c6.597,1.303 6.011,6.122 -0.889,7.316c-7.083,1.226 -6.677,1.523 -11.887,-8.697l0,-0Zm19.545,-11.839c-3.202,-8.281 -5.265,-15.234 -4.584,-15.451c0.682,-0.217 4.606,-1.49 8.722,-2.83c11.325,-3.685 15.459,-1.739 8.041,3.786c-6.214,4.628 -6.303,5.313 -2.131,16.448c3.357,8.959 3.372,11.789 0.065,12.361c-2.561,0.443 -6.636,-5.325 -10.113,-14.314l0,-0Zm23.715,-12.343c-8.146,-21.779 -8.423,-23.99 -3.083,-24.67c5.006,-0.638 18.89,40.546 14.631,43.4c-2.437,1.633 -6.237,-4.531 -11.548,-18.73Zm117.697,-23.963c-0.815,-7.225 5.468,-11.466 12.798,-8.639c7.287,2.811 4.821,11.303 -3.882,13.364c-7.122,1.686 -8.261,1.082 -8.916,-4.725Zm22.978,-3.202c-1.044,-6.036 -1.447,-5.623 8.248,-8.456c9.57,-2.797 9.9,-2.644 10.352,4.793c0.629,10.358 -16.846,13.799 -18.6,3.663Zm-252.139,-53.124c-8.374,-4.031 -2.219,-9.29 7.418,-6.338c5.342,1.638 10.752,1.157 13.665,-1.213c5.544,-4.511 4.884,-4.917 -14.87,-9.141c-19.068,-4.078 -23.879,-12.976 -10.607,-19.615c9.062,-4.533 28.735,-2.825 27.702,2.404c-0.327,1.657 -4.328,2.297 -8.89,1.422c-10.018,-1.92 -18.113,0.767 -16.364,5.433c0.854,2.28 5.547,3.176 14.205,2.712c11.255,-0.603 13.542,0.223 17.665,6.375c6.06,9.045 2.153,15.242 -11.844,18.787c-6.025,1.525 -11.396,2.523 -11.936,2.216c-0.541,-0.306 -3.305,-1.675 -6.144,-3.042l0,0Zm225.142,37.907c2.159,-10.925 16.9,-14.584 18.624,-4.623c0.501,2.896 -1.878,6.355 -5.628,8.18c-8.958,4.361 -14.273,2.906 -12.996,-3.557l0,-0Zm23.881,-2.406c-0.412,-3.655 -0.239,-6.79 0.383,-6.968c0.623,-0.178 4.475,-1.41 8.561,-2.737c6.396,-2.079 7.701,-1.521 9.392,4.018c1.581,5.178 0.475,7.09 -5.672,9.806c-10,4.417 -11.766,3.843 -12.664,-4.119l0,0Zm-210.032,-49.628c-7.851,-17.678 -10.593,-30.79 -6.74,-32.233c1.976,-0.741 4.905,1.466 6.507,4.903c2.461,5.276 3.787,5.776 8.509,3.21c3.143,-1.707 8.534,-1.652 12.301,0.126c5.727,2.702 7.917,6.934 12.43,24.012c1.863,7.052 -7.786,-0.547 -13.265,-10.447c-5.112,-9.237 -7.211,-10.845 -10.966,-8.397c-3.788,2.469 -3.971,4.934 -0.994,13.391c4.981,14.149 -1.806,18.89 -7.782,5.435Zm35.268,-14.929c-4.97,-11.696 -4.538,-17.593 1.204,-16.458c3.548,0.701 13.718,26.729 11.123,28.468c-4.383,2.937 -7.101,0.29 -12.327,-12.01Zm16.369,-5.373c-10.387,-17.641 -6.998,-31.184 7.144,-28.545c3.404,0.637 3.415,1.462 0.048,3.719c-6.004,4.022 -6.394,8.537 -0.652,7.543c2.617,-0.453 5.255,0.502 5.862,2.122c0.607,1.619 -0.639,3.166 -2.767,3.437c-2.648,0.337 -2.359,3.845 0.917,11.107c5.502,12.198 5.556,14.502 0.315,13.443c-2.07,-0.419 -6.96,-6.19 -10.867,-12.826l-0,-0Zm297.733,45.255c0.399,-8.1 0.195,-17.977 -0.453,-21.948c-0.885,-5.419 0.239,-7.607 4.508,-8.774c4.218,-1.152 10.315,3.252 23.607,17.051c13.588,14.106 16.619,18.829 12.537,19.536c-2.961,0.512 -6.943,-0.985 -8.848,-3.327c-5.395,-6.63 -20.265,-2.001 -22.014,6.854c-0.815,4.123 -3.192,6.693 -5.728,6.192c-2.868,-0.566 -4.09,-5.841 -3.609,-15.584Zm17.39,-6.947c1.441,-1.552 0.476,-5.15 -2.145,-7.995c-5.833,-6.333 -7.468,-5.544 -6.49,3.13c0.816,7.237 4.501,9.314 8.635,4.865Zm-290.955,-45.268c-5.281,-8.958 -6.947,-25.903 -2.459,-25.017c5.06,1 14.485,11.779 11.87,13.576c-4.152,2.852 4.216,18.966 8.931,17.199c1.912,-0.716 3.058,0.812 2.548,3.396c-1.578,7.987 -13.991,2.547 -20.89,-9.154Zm-49.973,-12.489c0.328,-1.657 2.63,-2.611 5.115,-2.12c2.486,0.491 4.252,2.249 3.925,3.906c-0.328,1.658 -2.629,2.612 -5.115,2.121c-2.486,-0.492 -4.252,-2.249 -3.925,-3.907Zm192.138,1.175c-7.702,-20.033 -16.489,-40.513 -19.525,-45.512c-7.064,-11.631 -6.785,-12.409 5.038,-14.08c8.784,-1.241 9.548,-0.848 7.079,3.646c-1.817,3.305 2.985,19.534 13.972,47.219c9.207,23.201 16.534,43.223 16.283,44.495c-0.251,1.271 -2.343,1.938 -4.649,1.482c-2.306,-0.455 -10.495,-17.218 -18.198,-37.25Zm175.342,49.397c-9.766,-21.41 -10.992,-27.114 -5.589,-25.997c6.06,1.256 21.554,38.483 17.222,41.386c-2.306,1.545 -6.347,-3.8 -11.633,-15.389Zm-470.959,-97.792c-2.475,-6.606 -3.554,-12.646 -2.398,-13.421c1.157,-0.775 3.665,3.392 5.572,9.259c2.991,9.198 4.759,10.692 12.828,10.84c8.805,0.163 8.96,0.369 2.626,3.484c-10.12,4.978 -13.683,3.034 -18.628,-10.162Zm490.643,94.901c-8.436,-14.288 -9.215,-17.186 -6.841,-25.466c0.91,-3.176 2.428,-2.505 6.402,2.83c2.864,3.847 5.811,6.76 6.547,6.475c0.737,-0.285 2.352,-0.296 3.59,-0.025c1.238,0.268 0.298,1.251 -2.089,2.177c-6.024,2.34 3.1,20.304 9.729,19.157c6.877,-1.19 4.588,5.296 -2.648,7.505c-4.996,1.526 -7.684,-0.79 -14.69,-12.653l0,-0Zm-465.164,-95.773c-4.53,-8.338 1.274,-14.61 10.722,-11.588c6.444,2.061 7.808,4.147 6.627,10.129c-1.773,8.97 -12.766,9.895 -17.349,1.459Zm13.462,1.258c2.597,-2.796 -4.487,-12.356 -7.608,-10.266c-3.006,2.015 -1.073,11.327 2.499,12.033c1.611,0.318 3.91,-0.477 5.109,-1.767Zm14.425,-6.444c-4.887,-8.144 -0.405,-16.187 8.086,-14.509c6.164,1.218 6.156,1.299 -0.422,4.402c-5.247,2.475 -6.07,4.118 -3.792,7.571c2.295,3.479 4.051,3.789 8.319,1.471c6.343,-3.446 6.326,1.273 -0.019,5.521c-5.822,3.902 -7.532,3.276 -12.172,-4.456l-0,-0Zm19.193,-10.131c-2.65,-7.072 -3.699,-13.607 -2.331,-14.523c1.367,-0.917 3.375,1.062 4.462,4.395c1.907,5.848 2.161,5.898 7.216,1.402c4.973,-4.425 5.191,-4.388 4.275,0.724c-0.53,2.963 0.915,6.569 3.213,8.014c6.166,3.878 3.954,8.921 -2.386,5.438c-3.811,-2.094 -6.043,-1.437 -7.525,2.216c-1.612,3.973 -3.237,2.174 -6.924,-7.664l0,-0.002Zm-87.645,-21.308c-1.419,-5.994 -0.791,-9.755 2.15,-12.881c4.722,-5.02 17.807,-5.456 16.84,-0.561c-0.35,1.772 -3.268,2.703 -6.485,2.067c-9.073,-1.792 -11.796,3.879 -5.973,12.442c5.192,7.634 5.384,7.684 10.748,2.819c3.005,-2.725 6.173,-3.894 7.041,-2.598c2.783,4.153 -7.613,10.083 -15.088,8.606c-4.844,-0.957 -7.889,-4.22 -9.233,-9.894l0,-0Zm33.084,1.946c-0.727,-1.941 0.741,-5.207 3.261,-7.258c6.34,-5.159 2.959,-8.886 -4.581,-5.052c-5.615,2.855 -5.706,2.735 -0.998,-1.317c6.938,-5.971 12.447,-4.444 16.422,4.553c2.969,6.721 2.714,7.714 -2.648,10.335c-7.292,3.564 -9.749,3.294 -11.455,-1.261l-0.001,0Zm11.793,-3.794c0.327,-1.658 -0.681,-3.266 -2.24,-3.574c-1.56,-0.308 -3.942,0.63 -5.293,2.085c-1.352,1.455 -0.344,3.063 2.24,3.574c2.583,0.51 4.965,-0.428 5.293,-2.085Zm10.554,-4.285l-4.342,-13.234l8.313,-1.968c6.432,-1.523 9.184,-0.897 12.166,2.768c4.968,6.107 3.566,12.986 -2.874,14.1c-2.776,0.481 -4.71,2.827 -4.297,5.214c1.797,10.384 -5.019,5.155 -8.966,-6.879l-0,-0.001Zm13.181,-4.93c0.472,-2.388 -0.092,-5.224 -1.252,-6.302c-3.384,-3.144 -11.243,1.046 -9.698,5.17c2.034,5.428 9.94,6.246 10.95,1.132Zm296.468,75.359c-0.752,-2.007 1.344,-12.361 4.658,-23.009c5.425,-17.429 5.48,-19.266 0.554,-18.413c-12.145,2.101 -20.665,1.563 -20.105,-1.271c0.89,-4.506 34.846,-12.41 37.476,-8.724c1.371,1.922 -0.553,10.929 -4.909,22.973c-3.94,10.896 -6.881,20.318 -6.536,20.937c0.345,0.618 6.682,-0.595 14.083,-2.697c15.794,-4.484 16.958,-4.432 15.941,0.714c-0.423,2.14 -8.982,6.085 -19.02,8.765c-20.907,5.582 -20.33,5.563 -22.142,0.725l-0,0Zm82.221,-18.239c-9.207,-22.577 -18.982,-43.387 -21.723,-46.243c-4.744,-4.944 -4.472,-5.342 5.635,-8.272c10.444,-3.029 10.563,-2.98 7.287,2.984c-2.559,4.658 0.632,15.702 13.777,47.682c9.409,22.891 16.917,42.585 16.684,43.764c-1.323,6.698 -6.669,-3.153 -21.66,-39.915Zm-252.268,-54.514c-8.891,-23.234 -18.01,-43.814 -20.264,-45.733c-3.304,-2.813 -2.091,-4.071 6.27,-6.495c13.281,-3.85 13.367,-3.812 10.031,4.446c-2.04,5.05 1.232,17.375 11.917,44.882c8.101,20.857 14.499,39.083 14.219,40.503c-1.914,9.685 -8.077,-0.769 -22.173,-37.603Zm-112.525,-1.602c-0.699,-1.865 0.843,-2.973 3.427,-2.462c2.583,0.51 4.928,-0.24 5.21,-1.667c0.282,-1.428 -3.005,-2.617 -7.305,-2.644c-9.755,-0.06 -9.221,-8.575 0.729,-11.613c3.941,-1.203 6.432,-0.862 6.097,0.833c-0.311,1.578 -2.396,3.217 -4.633,3.644c-2.237,0.427 -0.359,1.619 4.172,2.651c5.131,1.167 7.911,3.54 7.368,6.288c-1.121,5.673 -13.297,9.689 -15.065,4.969l-0,0.001Zm418.25,27.079c1.82,-13.832 1.363,-14.875 -10.368,-23.661c-8.909,-6.67 -10.866,-9.459 -7.14,-10.172c2.823,-0.541 8.566,1.162 12.762,3.783c10.137,6.333 10.039,6.349 11.665,-1.88c0.778,-3.94 3.783,-8.45 6.676,-10.022c4.55,-2.472 4.882,-0.94 2.458,11.329c-2.799,14.168 -2.783,14.201 11.005,23.529c21.582,14.601 14.475,18.097 -9.848,4.844c-5.789,-3.153 -6.675,-2.681 -7.105,3.783c-0.527,7.907 -4.979,14.326 -9.34,13.464c-1.468,-0.29 -1.813,-7.039 -0.765,-14.997Zm-523.069,-106.868c-5.569,-14.951 -7.502,-17.275 -14.093,-16.939c-13.489,0.686 -7.015,-4.636 10.341,-8.503c16.965,-3.78 24.785,-1.876 13.64,3.321c-7.77,3.622 -7.811,4.203 -1.464,20.664c3.62,9.385 4.167,14.672 1.691,16.331c-2.476,1.659 -5.751,-3.156 -10.115,-14.874l-0,-0Zm271.808,60.154c-0.001,-4.637 0.227,-14.022 0.507,-20.854c0.279,-6.832 0.339,-14.808 0.132,-17.723c-0.237,-3.343 2.043,-5.573 6.175,-6.039c4.627,-0.522 12.365,4.705 26.356,17.802c10.893,10.197 19.588,19.642 19.321,20.99c-0.829,4.198 -8.25,3.762 -14.782,-0.868c-8.956,-6.348 -28.782,-1.19 -28.263,7.353c0.222,3.645 -1.592,6.412 -4.537,6.921c-3.441,0.595 -4.908,-1.67 -4.909,-7.582Zm19.731,-25.277c-8.497,-8.332 -9.733,-7.969 -9.19,2.706c0.369,7.249 1.23,7.885 8.376,6.193l7.965,-1.885l-7.151,-7.014Zm62.906,11.2c-9.82,-23.432 -19.019,-42.835 -20.441,-43.116c-5.332,-1.053 -1.287,-5.64 6.625,-7.513c7.551,-1.788 8.093,-1.347 6.741,5.496c-0.832,4.209 5.409,24.244 14.367,46.126c8.711,21.278 15.663,39.57 15.45,40.651c-1.279,6.473 -6.859,-3.744 -22.742,-41.644Zm246.686,50.61c-9.75,-22.452 -19.83,-42.156 -22.398,-43.786c-3.979,-2.525 -3.433,-3.365 3.691,-5.671c11.536,-3.735 13.847,-2.889 10.208,3.733c-2.317,4.219 1.396,15.742 14.425,44.766c9.651,21.498 17.383,39.915 17.183,40.928c-1.312,6.639 -7.565,-4.177 -23.109,-39.97Zm-576.178,-92.789c-2.25,-3.356 -0.717,-5.85 6.862,-11.167c7.508,-5.267 8.626,-7.069 4.852,-7.815c-2.698,-0.533 -6.012,0.222 -7.363,1.676c-1.352,1.455 -4.713,2.2 -7.469,1.656c-4.346,-0.859 -4.072,-1.593 2.059,-5.528c13.811,-8.862 19.983,-7.038 26.03,7.692l5.54,13.494l-10.354,2.839c-12.434,3.411 -16.334,2.86 -20.158,-2.846l0.001,-0.001Zm17.035,-2.277c4.298,-4.626 0.348,-10.033 -5.148,-7.047c-2.721,1.479 -5.183,3.879 -5.471,5.333c-0.717,3.632 7.591,4.974 10.619,1.714Zm101.34,-15.088c-7.058,-18.983 -15.42,-38.075 -18.582,-42.427c-5.184,-7.135 -5.197,-7.96 -0.127,-8.391c3.092,-0.262 8.082,-0.967 11.088,-1.565c4.248,-0.846 4.87,0.142 2.791,4.436c-2.545,5.257 5.544,31.268 20.647,66.396c6.997,16.276 7.129,18.064 1.243,16.901c-2.325,-0.459 -10.002,-16.367 -17.06,-35.35Zm-86.409,-3.368c-6.529,-16.563 -7.308,-23.868 -2.446,-22.907c1.454,0.287 3.967,2.956 5.583,5.931c2.039,3.753 4.091,4.638 6.7,2.89c6.382,-4.277 20.246,0.191 22.391,7.216c3.783,12.391 0.099,19.068 -11.864,21.502c-6.222,1.266 -11.892,2.187 -12.601,2.047c-0.71,-0.141 -4.203,-7.646 -7.763,-16.679Zm24.748,7.576c3.506,-3.774 -0.942,-15.904 -6.213,-16.946c-2.479,-0.49 -5.701,1.005 -7.158,3.322c-5.044,8.02 7.09,20.384 13.371,13.624Zm652.075,74.612c-9.573,-21.065 -19.317,-40.737 -21.652,-43.715c-3.995,-5.094 -3.898,-5.585 1.638,-8.292c8.436,-4.125 10.62,-3.075 9.144,4.394c-1.202,6.084 12.18,40.972 27.279,71.119c3.517,7.024 5.181,13.226 3.697,13.782c-1.485,0.557 -10.532,-16.223 -20.106,-37.288Zm-244.492,-51.477c-9.681,-21.565 -19.4,-41.419 -21.598,-44.121c-3.585,-4.405 -3.198,-5.169 3.752,-7.407c10.591,-3.41 12.176,-2.814 9.147,3.443c-1.691,3.494 3.136,19.226 13.813,45.018c9.027,21.805 15.529,40.238 14.45,40.961c-1.079,0.723 -9.883,-16.329 -19.564,-37.894Zm159.396,53.127c-8.989,-13.414 -8.819,-25.088 0.455,-31.302c7.3,-4.891 18.961,-5.443 26.579,-1.258c4.827,2.652 5.136,4.001 1.579,6.895c-2.754,2.241 -5.489,2.328 -7.254,0.229c-4.198,-4.992 -17.233,-1.787 -18.484,4.544c-1.366,6.914 4.064,19.36 10.885,24.949c6.865,5.625 18.155,2.374 19.748,-5.687c0.643,-3.256 3.203,-5.518 5.689,-5.027c7.078,1.399 2.732,15.122 -6.013,18.985c-12.631,5.579 -24.021,1.348 -33.184,-12.328Zm-239.594,-44.214c-3.246,-5.974 3.282,-8.002 9.737,-3.024c5.776,4.455 18.458,1.656 19.641,-4.334c0.841,-4.255 -1.335,-5.217 -14.013,-6.197c-15.817,-1.223 -26.893,-8.602 -25.267,-16.833c2.15,-10.883 33.728,-16.398 37.423,-6.536c2.04,5.443 -1.66,6.612 -14.213,4.488c-8.579,-1.451 -11.921,-0.585 -13.589,3.523c-1.98,4.876 -0.945,5.435 9.859,5.328c23.066,-0.228 34.352,5.959 32.057,17.574c-2.625,13.287 -35.132,17.98 -41.635,6.011Zm-456.441,-103.599c-5.981,-2.894 -5.694,-8.359 0.376,-7.16c6.534,1.291 13.145,6.072 12.551,9.077c-0.551,2.792 -4.364,2.227 -12.927,-1.917l0,0Zm327.985,32.366c-17.567,-40.787 -18.512,-44.24 -12.373,-45.208c2.222,-0.35 3.741,0.874 3.376,2.721c-0.365,1.847 5.815,19.035 13.733,38.195c18.446,44.634 18.019,43.38 14.525,42.69c-1.636,-0.324 -10.304,-17.603 -19.261,-38.398Zm-91.806,2.679c-10.094,-15.065 -8.787,-25.677 3.962,-32.176c13.525,-6.896 31.168,-2.589 38.567,9.415c3.197,5.188 5.183,12.624 4.412,16.525c-1.023,5.179 0.293,7.428 4.876,8.333c7.778,1.537 4.675,8.351 -3.685,8.095c-3.281,-0.101 -10.622,0.914 -16.313,2.255c-15.783,3.721 -22.834,0.963 -31.819,-12.447Zm24.644,1.425c-0.583,-3.374 1.102,-4.479 5.508,-3.608c8.437,1.667 9.282,-4.762 2.147,-16.338c-6.7,-10.869 -10.804,-12.334 -21.424,-7.643c-9.478,4.187 -10.476,8.713 -4.505,20.426c5.138,10.078 19.771,15.814 18.274,7.163Zm-281.743,-75.474c-1.751,-4.674 14.557,-11.46 18.573,-7.729c1.657,1.54 7.649,0.607 13.316,-2.071c12.007,-5.676 16.142,-2.924 6.452,4.293c-4.441,3.308 -10.479,4.21 -18.1,2.705c-7.433,-1.469 -12.736,-0.732 -15.151,2.104c-2.423,2.846 -4.194,3.089 -5.09,0.698Zm686.792,97.442c-9.964,-22.555 -19.304,-41.244 -20.754,-41.531c-5.391,-1.065 -1.366,-5.645 6.623,-7.536c7.645,-1.81 8.039,-1.478 5.276,4.453c-2.254,4.841 1.312,15.817 14.572,44.849c9.656,21.142 17.401,39.226 17.211,40.187c-1.177,5.957 -6.889,-4.113 -22.928,-40.422Zm244.989,57.392c-7.787,-17.237 -17.113,-36.124 -20.726,-41.971c-6.165,-9.977 -6.192,-10.814 -0.439,-13.622c8.904,-4.346 11.189,-3.128 7.886,4.201c-2.214,4.911 1.382,15.23 14.939,42.869c9.819,20.02 17.658,37.418 17.419,38.662c-1.203,6.269 -6.191,-1.61 -19.079,-30.139Zm-328.947,-58.315c-5.09,-11.279 -9.04,-21.59 -8.779,-22.914c0.262,-1.324 7.613,-3.488 16.337,-4.807c14.618,-2.212 16.511,-1.882 24.161,4.208c9.721,7.738 15.443,24.384 11.099,32.291c-2.95,5.369 -14.109,9.943 -27.187,11.144c-5.079,0.466 -8.261,-3.589 -15.631,-19.922l-0,0Zm29.019,8.765l7.478,-5.011l-5.463,-11.027c-5.563,-11.229 -15.75,-16.934 -24.185,-13.544c-3.759,1.51 -3.338,4.986 2.138,17.67c3.75,8.684 8.108,16.044 9.686,16.356c1.578,0.312 6.234,-1.688 10.346,-4.444Zm216.108,38.927c-12.378,-13.795 -16.178,-19.848 -12.448,-19.83c2.952,0.014 11.161,6.211 18.243,13.77c7.081,7.559 13.477,13.863 14.212,14.009c0.736,0.145 0.257,-7.613 -1.063,-17.24c-2.057,-14.991 -1.69,-17.891 2.556,-20.198c3.845,-2.089 5.068,-1.714 5.452,1.67c3.155,27.865 4.222,46.228 2.781,47.864c-4.079,4.631 -12.972,-1.365 -29.733,-20.045l-0,0Zm-459.16,-106.141c-8.308,-11.954 -14.998,-22.283 -14.866,-22.952c0.891,-4.507 10.027,2.465 17.14,13.08c4.654,6.946 9.215,12.778 10.136,12.96c0.921,0.182 0.806,-5.653 -0.256,-12.967c-2.405,-16.573 -2.01,-18.555 3.903,-19.578c2.713,-0.47 9.669,5.141 16.202,13.068c6.297,7.641 11.592,13.163 11.768,12.272c0.176,-0.89 -1.128,-8.417 -2.897,-16.724c-2.81,-13.187 -2.591,-15.213 1.722,-15.96c6.128,-1.06 5.472,-2.75 9.715,24.99c3.518,23 3.485,23.275 -2.936,23.998c-4.81,0.543 -8.941,-2.826 -15.923,-12.982c-10.09,-14.678 -14.125,-15.792 -12.136,-3.35c5.032,31.486 -1.675,32.775 -21.572,4.145l-0,0Zm-228.811,-41.464c-4.481,-11.619 -6.291,-13.548 -10.548,-11.235c-2.826,1.535 -5.661,2.012 -6.3,1.059c-1.474,-2.201 11.418,-19.054 14.147,-18.493c2.617,0.54 16.221,35.078 15.337,38.939c-1.691,7.389 -7.715,2.493 -12.636,-10.27Zm320.789,39.922c-9.439,-21.666 -18.186,-39.596 -19.438,-39.843c-5.172,-1.022 -0.683,-5.649 7.317,-7.543c8.153,-1.931 8.425,-1.679 5.315,4.91c-2.605,5.52 -0.089,13.862 12.275,40.696c16.271,35.31 18.771,42.573 14.356,41.701c-1.465,-0.289 -10.386,-18.254 -19.825,-39.921Zm346.661,54.54c-3.043,-7.413 -12.27,-26.288 -20.504,-41.944c-8.233,-15.657 -14.475,-28.736 -13.871,-29.066c0.604,-0.331 4.242,-1.518 8.085,-2.639c6.234,-1.818 6.7,-1.327 4.322,4.558c-1.941,4.806 1.767,15.915 13.657,40.914c19.41,40.81 20.241,42.919 16.634,42.206c-1.535,-0.303 -5.28,-6.616 -8.323,-14.029Zm142.881,21.047l-10.291,-21.601l12.393,-3.019c15.584,-3.797 26.711,-0.601 28.677,8.236c0.832,3.736 4.924,9.762 9.095,13.391c11.651,10.138 7.807,16.779 -13.776,23.802c-12.425,4.044 -15.38,1.688 -26.098,-20.809Zm27.16,12.3c7.273,-2.221 9.883,-9.251 4.579,-12.334c-4.208,-2.447 -21.032,-0.506 -21.625,2.495c-0.588,2.974 4.862,10.672 7.993,11.291c1.435,0.283 5.509,-0.37 9.053,-1.452Zm-10.686,-19.556c5.603,-0.969 8.148,-7.595 4.292,-11.177c-4.523,-4.203 -19.098,0.237 -18.181,5.537c0.91,5.257 5.45,7.101 13.889,5.64Zm74.158,20.526c-7.237,-14.796 -17.264,-33.687 -22.281,-41.98c-8.159,-13.485 -8.487,-15.174 -3.105,-15.978c3.31,-0.495 7.307,-1.309 8.881,-1.809c1.575,-0.499 1.373,1.803 -0.448,5.117c-2.589,4.713 0.235,13.033 12.955,38.172c8.945,17.681 17.264,34.139 18.485,36.575c1.222,2.435 1.423,4.962 0.447,5.616c-0.976,0.655 -7.696,-10.917 -14.934,-25.713l0,0Zm-325.024,-62.031c-4.579,-9.571 -8.643,-19.233 -9.03,-21.471c-0.775,-4.48 28.99,-13.715 31.487,-9.768c0.825,1.305 -1.293,3.416 -4.708,4.692c-16.34,6.105 -17.762,7.282 -14.594,12.079c2.415,3.658 5.171,4.258 13.31,2.895c5.645,-0.945 10.878,-0.802 11.628,0.318c1.376,2.053 -8.69,7.736 -15.163,8.56c-2.229,0.284 -2.175,3.692 0.148,9.424c4.352,10.741 4.221,12.446 -0.876,11.439c-2.132,-0.421 -7.623,-8.597 -12.202,-18.168l0,0Zm-444.326,-80.637c-0.517,-1.394 2.219,-8.033 6.081,-14.754c3.861,-6.72 6.667,-14.267 6.234,-16.77c-1.176,-6.794 -10.179,-7.314 -13.347,-0.77c-3.161,6.529 -11.544,6.299 -10.244,-0.281c1.124,-5.691 14.357,-11.43 22.6,-9.801c10.753,2.124 13.262,10.406 6.799,22.441c-3.059,5.697 -5.205,10.892 -4.767,11.544c0.437,0.652 4.589,0.543 9.228,-0.246c14.588,-2.478 11.122,3.703 -4.36,7.775c-16.597,4.365 -16.917,4.38 -18.224,0.862Zm-102.575,-28.521c-1.63,-3.001 -1.446,-5.516 0.457,-6.229c1.755,-0.658 3.604,1.193 4.109,4.112c1.24,7.164 -1.207,8.299 -4.566,2.117Zm335.967,50.203l-9.742,-22.11l16.587,-4.661c9.123,-2.564 17.913,-3.43 19.534,-1.925c1.724,1.603 -2.872,4.389 -11.089,6.723c-12.517,3.554 -13.591,4.53 -9.933,9.025c3.464,4.258 5.817,4.603 15.146,2.221c10.383,-2.65 14.549,-1.477 13.506,3.802c-0.247,1.253 -5.505,2.906 -11.683,3.675c-12.362,1.537 -14.121,3.84 -8.35,10.933c3.128,3.844 6.254,4.152 16.921,1.671c7.196,-1.674 13.817,-1.951 14.712,-0.615c2.433,3.631 -3.367,6.495 -20.48,10.115l-15.388,3.255l-9.741,-22.109Zm85.752,1.12c-10.298,-21.653 -19.788,-39.579 -21.089,-39.836c-5.098,-1.007 -0.989,-5.084 7.118,-7.064c7.785,-1.901 8.302,-1.586 5.818,3.544c-2.745,5.671 8.333,35.537 24.563,66.222c4.233,8.002 6.485,14.988 5.005,15.526c-1.48,0.538 -11.117,-16.738 -21.415,-38.392Zm332.228,32.308c-9.909,-19.808 -19.811,-38.218 -22.002,-40.912c-5.413,-6.653 -4.485,-8.898 4.566,-11.041c7.037,-1.666 7.458,-1.231 4.911,5.075c-2.123,5.255 1.135,14.589 13.683,39.2c21.737,42.631 20.984,40.93 18.782,42.405c-1.057,0.708 -10.03,-14.919 -19.94,-34.727Zm154.489,42.554c-7.24,-13.889 -10.178,-22.625 -7.75,-23.043c2.151,-0.37 11.171,4.802 20.045,11.491c8.873,6.69 16.884,11.661 17.801,11.046c0.918,-0.615 -1.647,-6.836 -5.699,-13.824c-4.052,-6.988 -6.125,-14.043 -4.607,-15.677c2.691,-2.897 13.183,12.732 23.011,34.28c6.258,13.721 -1.462,13.822 -19.511,0.256c-7.938,-5.966 -15.126,-10.382 -15.975,-9.813c-0.849,0.568 1.07,6.354 4.264,12.857c3.194,6.503 5.631,12.713 5.417,13.799c-1.101,5.57 -6.475,-1.185 -16.996,-21.372Zm83.411,6.022c-8.729,-16.792 -18.744,-34.798 -22.255,-40.014l-6.383,-9.485l9.017,-3.653c8.987,-3.642 9.006,-3.63 5.671,3.436c-2.738,5.801 -0.551,12.341 12.03,35.981c22.083,41.49 23.922,45.476 20.692,44.837c-1.595,-0.315 -10.043,-14.311 -18.772,-31.102Zm-866.81,-155.467c-0.787,-4.617 -0.372,-4.895 2.02,-1.353c1.655,2.45 2.101,5.065 0.99,5.809c-1.111,0.745 -2.466,-1.261 -3.01,-4.456Zm547.182,104.299c-6.852,-10.227 -7.34,-21.263 -1.223,-27.681c4.619,-4.845 21.295,-6.713 28.707,-3.215c8.075,3.811 4.202,9.324 -4.78,6.802c-11.053,-3.103 -13.727,-2.715 -18.099,2.621c-3.394,4.141 -3.048,7.381 1.705,15.99c6.774,12.27 16.586,15.696 25.64,8.952c7.43,-5.534 5.486,-9.356 -4.5,-8.848c-10.293,0.524 -8.375,-4.297 3.352,-8.426c9.512,-3.348 9.8,-3.24 13.113,4.937c4.558,11.249 3.774,13.38 -6.931,18.837c-13.563,6.914 -28.34,2.931 -36.984,-9.969Zm-539.945,-108.926c-0.769,-4.449 -0.292,-4.548 2.916,-0.606c4.371,5.373 4.571,7.224 0.696,6.459c-1.48,-0.292 -3.105,-2.926 -3.612,-5.853Zm329.942,48.582c-4.744,-11.174 -8.387,-21.527 -8.095,-23.006c0.293,-1.479 8.63,-3.769 18.527,-5.089l17.996,-2.4l4.427,8.388c3.064,5.807 3.272,9.162 0.674,10.903c-6.124,4.103 -5.096,6.042 6.752,12.729c6.197,3.498 11.042,7.498 10.767,8.89c-0.784,3.97 -10.84,0.95 -22.193,-6.665c-13.003,-8.722 -19.311,-5.976 -14.357,6.25c3.178,7.842 1.888,11.85 -3.474,10.791c-1.319,-0.261 -6.28,-9.617 -11.024,-20.791Zm17.586,-9.33c8.895,-2.716 9.795,-10.489 1.4,-12.089c-9.697,-1.844 -15.646,1.218 -14.559,7.501c1.084,6.263 4.16,7.335 13.159,4.588Zm72.911,16.863c-8.211,-17.55 -17.579,-36.292 -20.817,-41.649c-6.406,-10.598 -6.202,-11.214 4.072,-12.274c5.761,-0.594 6.467,0.234 4.195,4.926c-1.901,3.927 2.083,15.78 13.112,39.015c15.108,31.829 19.263,42.858 15.894,42.193c-0.839,-0.166 -8.244,-14.661 -16.456,-32.211Zm-323.647,-41.699c-1.001,-2.671 0.925,-2.912 6.211,-0.776c8.107,3.275 16.779,-0.954 14.489,-7.066c-0.728,-1.941 -4.799,-4.216 -9.047,-5.055c-6.69,-1.322 -7.071,-2.057 -2.844,-5.497c4.042,-3.289 4.235,-4.57 1.123,-7.461c-2.542,-2.361 -6.373,-1.853 -11.85,1.574c-6.788,4.248 -7.935,4.268 -7.117,0.125c2.409,-12.195 27.093,-9.845 27.531,2.62c0.14,4.004 1.288,7.401 2.55,7.549c6.455,0.755 7.751,1.759 8.599,6.663c2.051,11.851 -25.406,18.635 -29.645,7.324l0,0Zm658.108,82.809c-5.632,-10.195 -15.141,-28.31 -21.131,-40.255c-5.99,-11.946 -12.377,-22.057 -14.193,-22.471c-3.514,-0.801 8.643,-7.585 12.298,-6.863c1.185,0.234 1.027,2.755 -0.351,5.602c-1.672,3.454 4.041,17.677 17.177,42.763c19.986,38.165 24.952,55.166 6.2,21.224l0,-0Zm142.654,25.538c-6.385,-11.714 -10.58,-22.405 -9.324,-23.757c4.185,-4.505 11.506,-0.736 21.621,11.131c5.508,6.462 10.865,11.179 11.904,10.483c1.039,-0.697 0.096,-7.584 -2.097,-15.305c-4.011,-14.125 -1.662,-18.801 8.506,-16.935c4.072,0.745 25.101,37.301 24.17,42.013c-1.299,6.577 -6.561,1.815 -14.983,-13.558c-4.735,-8.641 -9.219,-15.303 -9.965,-14.803c-0.746,0.5 0.79,8.547 3.413,17.882c4.073,14.494 4.042,17.099 -0.217,17.836c-2.996,0.518 -9.433,-4.53 -16.117,-12.642c-14.652,-17.779 -17.396,-17.774 -6.743,0.012c7.136,11.913 8.298,20.297 2.659,19.183c-0.67,-0.133 -6.443,-9.825 -12.827,-21.54Zm-233.105,-47.686c-5.718,-10.758 -10.153,-20.791 -9.856,-22.297c1.033,-5.228 7.232,-1.371 11.615,7.228c4.272,8.379 4.691,8.539 13.515,5.183c5.009,-1.906 9.743,-3.757 10.52,-4.114c0.778,-0.357 -0.533,-3.893 -2.913,-7.858c-3.256,-5.425 -3.301,-7.897 -0.185,-9.985c4.305,-2.884 6.357,0.117 20.748,30.338c5.908,12.409 5.914,13.109 0.095,11.96c-3.4,-0.672 -7.097,-4.22 -8.216,-7.885c-2.382,-7.803 -10.013,-10.038 -19.371,-5.675c-6.327,2.95 -6.45,3.429 -2.557,9.916c4.453,7.421 4.376,14.206 -0.152,13.312c-1.566,-0.309 -7.526,-9.365 -13.244,-20.123l0.001,0Zm322.599,61.846c-6.26,-11.892 -16.571,-30.174 -22.912,-40.627c-6.341,-10.453 -10.954,-19.195 -10.25,-19.427c17.406,-5.735 16.715,-5.832 13.096,1.837c-2.861,6.06 -0.653,12.108 13.659,37.427c20.131,35.613 23.955,43.657 20.414,42.942c-1.444,-0.291 -7.747,-10.26 -14.007,-22.152l-0,0Zm-863.329,-154.302c-0.09,-0.879 -0.054,-5.098 0.08,-9.376c0.21,-6.68 0.545,-6.929 2.368,-1.763c1.168,3.309 1.132,7.529 -0.08,9.377c-1.212,1.848 -2.278,2.641 -2.368,1.762Zm7.993,-7.212c-1.288,-4.22 -1.484,-9.182 -0.435,-11.027c1.08,-1.902 2.921,-0.032 4.249,4.317c1.288,4.22 1.484,9.182 0.436,11.027c-1.081,1.902 -2.922,0.033 -4.25,-4.317Zm1037.49,186.495c-1.93,-10.667 -2.006,-19.434 -0.179,-20.659c3.315,-2.22 38.856,26.786 38.018,31.028c-0.607,3.071 -2.809,2.558 -8.428,-1.962c-6.617,-5.322 -18.895,-2.36 -20.33,4.905c-2.14,10.83 -5.641,5.699 -9.081,-13.312l-0,-0Zm17.985,-0.063c0.552,-2.797 -10.338,-12.594 -12.437,-11.187c-3.756,2.516 2.593,14.789 7.235,13.986c2.647,-0.458 4.988,-1.718 5.202,-2.799Zm-642.831,-139.107c-9.066,-18.549 -18.548,-36.838 -21.072,-40.643c-4.451,-6.709 -4.397,-7.006 1.768,-9.881c9.103,-4.245 10.786,-3.133 7.514,4.965c-2.24,5.546 0.707,14.143 13.264,38.692c14.928,29.182 19.896,41.559 16.406,40.869c-0.768,-0.152 -8.814,-15.452 -17.88,-34.002l0,0Zm-316.951,-54.25c6.153,-20.555 10.72,-22.731 16.323,-7.777c2.49,6.644 6.281,12.427 8.424,12.851c2.149,0.424 3.23,4.15 2.41,8.303c-1.611,8.152 -4.048,8.98 -8.198,2.786c-1.911,-2.851 -4.525,-3.368 -9.444,-1.866c-12.75,3.893 -14.275,1.603 -9.515,-14.297Zm12.827,3.624c-0.448,-2.59 -0.703,-5.276 -0.566,-5.969c0.137,-0.693 -1.107,-1.528 -2.764,-1.856c-1.658,-0.327 -3.675,2.752 -4.483,6.843c-1.086,5.496 -0.151,7.211 3.579,6.565c2.777,-0.481 4.682,-2.993 4.234,-5.583Zm233.17,41.994c-7.069,-14.776 -9.442,-17.27 -16.107,-16.931c-4.3,0.219 -7.564,-0.762 -7.255,-2.179c0.792,-3.621 36.262,-10.94 38.297,-7.902c1.556,2.322 -4.228,5.762 -11.412,6.787c-1.711,0.244 0.571,8.303 5.072,17.909c8.942,19.085 9.375,21.557 3.573,20.411c-2.132,-0.421 -7.608,-8.564 -12.168,-18.095l0,0Zm731.49,138.114c-5.412,-9.779 -8.709,-18.531 -7.327,-19.45c2.579,-1.713 23.604,31.381 22.734,35.785c-1.126,5.698 -6.176,0.343 -15.407,-16.335Zm17.979,-0.642c-8.769,-11.489 -11.069,-22.857 -4.356,-21.531c1.657,0.328 2.716,2.097 2.354,3.931c-0.362,1.835 1.692,2.929 4.564,2.432c3.612,-0.625 4.464,0.303 2.763,3.008c-2.684,4.268 6.255,18.824 12.293,20.017c2.063,0.407 2.645,1.931 1.293,3.386c-4.161,4.479 -9.197,1.484 -18.911,-11.243Zm-111.005,-38.699c-5.822,-11.045 -16.987,-30.591 -24.811,-43.436c-13.237,-21.73 -13.779,-23.524 -7.786,-25.801c8.693,-3.304 9.094,-3.009 6.137,4.536c-1.93,4.927 2.603,15.662 18.391,43.551c18.031,31.851 22.848,42.125 19.406,41.391c-0.414,-0.088 -5.515,-9.197 -11.337,-20.241Zm-242.101,-58.781c-8.383,-15.86 -18.552,-34.223 -22.597,-40.805c-6.92,-11.26 -6.988,-12.147 -1.144,-14.998c8.828,-4.306 11.671,-3.129 6.799,2.816c-3.506,4.28 -1.048,10.923 15.236,41.177c16.64,30.918 21.234,41.508 17.7,40.799c-0.414,-0.083 -7.612,-13.128 -15.994,-28.989Zm-70.546,-5.609c-2.682,-4.936 -1.894,-5.231 6.856,-2.558c5.438,1.66 10.664,1.692 11.615,0.072c0.95,-1.621 -1.94,-9.461 -6.423,-17.421c-12.681,-22.517 -6.956,-30.238 6.157,-8.303c11.666,19.515 12.629,25.702 4.896,31.462c-8.013,5.968 -18.926,4.432 -23.101,-3.252Zm266.904,50.08c1.592,-2.53 0.386,-4.785 -3.275,-6.126c-3.186,-1.168 -5.543,-3.482 -5.237,-5.143c0.868,-4.754 10.918,-3.619 12.884,1.454c2.527,6.519 0.382,15.255 -3.554,14.477c-1.835,-0.362 -2.203,-2.46 -0.818,-4.662l0,-0Zm-711.248,-141.231c-5.955,-3.887 0.658,-7.307 7.701,-3.983c8.583,4.051 13.65,-1.298 8.505,-8.976c-3.251,-4.851 -5.136,-5.448 -10.621,-3.363c-3.668,1.394 -7.826,2.306 -9.24,2.026c-2.461,-0.486 -7.709,-17.323 -5.675,-18.204c0.541,-0.234 5.785,-1.319 11.652,-2.411c12.846,-2.391 17.187,1.465 4.919,4.369c-12.154,2.878 -11.694,7.357 0.768,7.477c19.708,0.189 25.12,21.819 6.131,24.502c-5.578,0.788 -10.258,1.299 -10.399,1.135c-0.141,-0.164 -1.824,-1.321 -3.741,-2.572Zm307.936,26.921c-18.796,-36.237 -20.202,-40.292 -14.568,-42.013c8.697,-2.655 9.16,-2.262 6.143,5.207c-1.984,4.911 1.73,15.064 14.503,39.651c14.888,28.656 18.789,38.066 15.513,37.419c-0.433,-0.086 -10.149,-18.205 -21.591,-40.264Zm-61.843,6.398c-3.138,-5.014 -11.28,-13.176 -18.095,-18.139c-8.308,-6.049 -10.639,-9.097 -7.076,-9.251c2.922,-0.127 8.974,2.684 13.449,6.246l8.135,6.476l3.117,-10.866c4.942,-17.225 11.712,-14.752 8.205,2.998c-2.178,11.023 -1.658,16.562 2.015,21.494c2.722,3.654 4.723,7.79 4.446,9.191c-1.01,5.113 -8.637,0.736 -14.196,-8.149Zm426.061,74.619c7.444,-6.013 14.055,-10.155 14.693,-9.203c0.638,0.952 -2.403,4.281 -6.757,7.399c-11.48,8.223 -10.534,10.042 5.851,11.261c9.597,0.714 12.396,1.586 8.109,2.53c-3.6,0.792 -13.044,0.878 -20.987,0.192l-14.442,-1.247l13.533,-10.932Zm308.397,57.748c-2.38,-4.38 -2.02,-5.718 1.949,-7.254c6.538,-2.529 8.233,-2.026 11.127,3.301c1.822,3.355 0.825,5.15 -3.849,6.927c-5.013,1.905 -6.909,1.294 -9.227,-2.973l-0,-0.001Zm19.593,-1.859c-2.129,-3.919 -1.246,-5.382 4.262,-7.064c7.041,-2.15 12.574,0.439 11.589,5.421c-0.296,1.502 -3.38,3.597 -6.853,4.658c-4.642,1.417 -7.024,0.619 -8.998,-3.015Zm-448.422,-112.182c-6.673,-12.596 -9.473,-21.058 -7.245,-21.893c1.998,-0.748 6.12,3.036 9.159,8.409l5.527,9.77l3.723,-8.436c7.061,-15.996 8.396,-17.897 13.142,-18.718c3.879,-0.672 3.986,1.278 0.579,10.51l-4.184,11.334l15.899,8.695c10.855,5.936 14.726,9.48 12.202,11.172c-2.525,1.691 -7.834,-0.058 -16.733,-5.515c-10.33,-6.333 -13.696,-7.298 -16.217,-4.648c-4.489,4.717 -4.53,6.481 -0.27,11.716c3.536,4.346 1.816,9.991 -2.656,8.719c-1.127,-0.318 -6.943,-9.822 -12.926,-21.115l0,0Zm74.058,-1.089c-15.895,-28.528 -19.992,-38.313 -16.312,-38.949c6.934,-1.2 7.521,-0.844 5.114,3.102c-1.172,1.921 3.679,13.798 10.781,26.393c19.8,35.12 26.8,49.153 24.103,48.316c-1.353,-0.42 -12.012,-17.907 -23.686,-38.862Zm347.857,98.537c-1.211,-7.002 10.745,-10.068 14.232,-3.65c2.124,3.91 1.294,5.367 -3.975,6.976c-8.608,2.628 -9.263,2.415 -10.257,-3.326Zm-956.915,-195.508c1.39,-2.21 3.594,-3.029 4.896,-1.819c3.28,3.047 2.718,4.083 -2.727,5.025c-3.133,0.542 -3.856,-0.525 -2.169,-3.206Zm977.266,193.22c-2.341,-4.309 -1.973,-5.086 2.03,-4.295c2.689,0.531 5.157,-0.39 5.484,-2.047c0.954,-4.828 6.725,-2.28 7.709,3.404c0.494,2.854 -1.235,6.013 -3.834,7.021c-6.533,2.53 -8.102,1.968 -11.389,-4.083Zm-563.136,-145.552c-10.3,-20.195 -19.841,-36.938 -21.203,-37.207c-4.83,-0.954 -1.224,-6.335 5.652,-8.434c6.131,-1.872 6.614,-1.468 3.978,3.331c-2.214,4.029 1.842,14.786 15.471,41.024c10.16,19.559 17.652,36.111 16.651,36.783c-1.002,0.671 -10.249,-15.303 -20.549,-35.497Zm398.243,108.613c0.603,-3.055 10.602,-5.402 12.289,-2.885c0.608,0.907 -0.075,2.918 -1.516,4.47c-3.173,3.415 -11.519,2.187 -10.774,-1.585l0.001,-0Zm-705.12,-143.027c-2.567,-2.262 -6.027,-8.806 -7.691,-14.543c-2.906,-10.023 -2.719,-10.59 4.788,-14.552c8.696,-4.589 15.178,-4.27 17.094,0.842c0.719,1.918 -2.071,2.722 -6.444,1.858c-5.702,-1.127 -8.02,0.046 -8.901,4.503c-1.385,7.009 -0.385,7.508 8.377,4.178c8.431,-3.204 21.055,5.314 19.505,13.16c-2.24,11.336 -16.314,13.734 -26.728,4.554Zm19.902,-1.695c0.957,-4.844 -6.899,-11.866 -12.24,-10.942c-4.269,0.739 -4.73,1.902 -2.433,6.131c3.056,5.626 13.815,9.153 14.673,4.811Zm643.681,123.919l10.155,-7.124l-6.877,-2.54c-5.214,-1.924 -4.108,-2.37 4.572,-1.842c9.929,0.604 10.866,1.222 7.054,4.66c-10.218,9.217 -19.157,15.136 -22.007,14.573c-1.679,-0.332 1.518,-3.809 7.103,-7.727l0,0Zm-436.292,-94.727c-5.25,-9.028 -9.316,-17.58 -9.034,-19.004c1.166,-5.902 6.636,-0.541 14.566,14.276c5.751,10.746 10.741,16.211 15.696,17.19c11.628,2.297 13.094,-5.442 4.184,-22.09c-9.081,-16.966 -9.531,-19.666 -3.067,-18.389c4.911,0.97 20.649,30.904 19.447,36.987c-1.138,5.764 -14.81,10.89 -24.133,9.048c-5.875,-1.161 -10.746,-6.131 -17.659,-18.018Zm420.843,83.075c2.237,-0.427 5.627,0.243 7.533,1.488c1.906,1.245 0.077,1.594 -4.067,0.776c-4.143,-0.819 -5.702,-1.838 -3.466,-2.264Zm337.96,39.766c-5.57,-8.484 -9.936,-16.391 -9.703,-17.571c0.868,-4.392 6.668,-0.714 7.445,4.72c0.443,3.101 4.073,10.862 8.066,17.247c10.72,17.143 5.976,13.551 -5.808,-4.396Zm-366.339,-96.968c-17.127,-30.456 -20.793,-39.23 -17.006,-40.696c7.269,-2.812 9.065,-1.721 6.361,3.865c-1.614,3.334 3.831,16.009 16.067,37.397c20.186,35.285 22.423,39.912 18.815,38.921c-1.321,-0.368 -12.228,-18.132 -24.237,-39.487Zm246.137,68.642c-5.424,-9.251 -16.435,-27.028 -24.468,-39.504c-11.572,-17.973 -13.592,-23.077 -9.727,-24.572c7.376,-2.853 9.531,-1.666 8.299,4.573c-0.615,3.113 5.979,17.447 14.654,31.855c8.675,14.407 18.42,30.592 21.657,35.967c3.236,5.375 4.435,9.486 2.665,9.136c-1.769,-0.35 -7.656,-8.204 -13.08,-17.455Zm-847.363,-162.717c0.735,-4.59 2.344,-8.097 3.575,-7.792c3.646,0.901 15.88,12.191 12.578,11.607c-1.664,-0.293 -4.803,-2.231 -6.976,-4.304c-2.992,-2.854 -4.749,-2.238 -7.233,2.532c-2.982,5.727 -3.159,5.541 -1.944,-2.043Zm537.057,101.41c-2.942,-5.317 -7.433,-13.144 -9.979,-17.394c-2.547,-4.25 -3.361,-9.093 -1.81,-10.763c1.799,-1.936 6.853,3.762 13.951,15.728l11.129,18.765l8.921,-3.615c9.607,-3.893 15.451,-3.864 14.673,0.073c-0.564,2.857 -21.959,8.764 -27.662,7.638c-2.131,-0.421 -6.281,-5.116 -9.223,-10.432Zm478.622,92.326c-5.263,-9.691 -5.477,-11.787 -1.279,-12.513c2.858,-0.495 4.004,0.245 2.646,1.708c-1.319,1.419 -0.206,6.115 2.471,10.435c2.679,4.32 4.653,8.954 4.387,10.299c-0.704,3.564 -1.266,2.886 -8.225,-9.929Zm-902.333,-177.26c-1.349,-2.608 -3.099,-10.249 -3.888,-16.98c-1.102,-9.401 -2.679,-12.002 -6.801,-11.218c-2.952,0.561 -7.199,1.378 -9.438,1.816c-8.695,1.699 -2.221,-5.884 7.405,-8.675c13.637,-3.953 16.337,-1.757 14.869,12.097c-0.681,6.428 -0.068,13.842 1.364,16.476c1.431,2.634 1.778,6.238 0.773,8.008c-1.272,2.238 -2.577,1.774 -4.284,-1.523l0,-0.001Zm685.297,138.703c0.114,-0.695 -0.466,-8.089 -1.299,-16.432c-0.834,-8.344 -0.401,-14.951 0.962,-14.682c3.221,0.637 5.437,28.815 2.424,30.833c-1.266,0.848 -2.205,0.975 -2.087,0.281l0,-0Zm-390.334,-108.948c-9.751,-17.854 -19.279,-34.332 -21.173,-36.618c-4.682,-5.65 -3.918,-7.435 4.254,-9.93c6.128,-1.872 6.614,-1.467 3.986,3.316c-3.252,5.92 -1.114,11.104 20.414,49.487c12.604,22.471 14.607,27.069 11.532,26.461c-0.707,-0.139 -9.262,-14.861 -19.013,-32.716Zm-63.528,-10.41c-6.751,-12.015 -9.722,-20.468 -7.676,-21.84c3.273,-2.192 25.638,34.12 24.516,39.803c-1.21,6.121 -6.444,0.538 -16.84,-17.963Zm425.752,92.932c3.175,-7.954 2.866,-9.608 -1.971,-10.564c-3.155,-0.623 -8.172,0.499 -11.149,2.494c-8.094,5.424 -10.82,3.529 -3.146,-2.187c4.201,-3.129 10.471,-4.193 17.05,-2.893c9.839,1.944 10.205,2.484 6.722,9.937c-5.606,11.997 -12.126,14.788 -7.506,3.213Zm221.462,38.537c0.936,-3.403 2.518,-5.634 3.516,-4.96c0.998,0.675 3.706,2.417 6.019,3.872c2.314,1.456 3.952,3.937 3.64,5.515c-0.312,1.577 -1.757,1.762 -3.212,0.411c-1.455,-1.351 -2.884,-1.248 -3.177,0.232c-0.292,1.479 -2.321,2.335 -4.51,1.902c-2.189,-0.432 -3.213,-3.569 -2.276,-6.972l-0,-0Zm-273.649,-103.351c-17.685,-29.988 -22.004,-39.606 -18.411,-40.998c7.153,-2.77 8.914,-1.638 6.194,3.982c-2.282,4.713 2.322,13.74 32.766,64.24c3.228,5.355 5.124,10.236 4.213,10.846c-0.911,0.611 -12.054,-16.521 -24.762,-38.07Zm-600.97,-89.153c0.342,-1.73 3.362,-4.538 6.712,-6.24c5.633,-2.861 5.669,-2.707 0.479,2.06c-3.086,2.834 -6.107,5.642 -6.712,6.239c-0.605,0.598 -0.821,-0.329 -0.479,-2.059Zm541.763,104.671c-0.479,-2.767 -2.503,-4.989 -4.498,-4.937c-1.996,0.052 -3.915,-1.722 -4.265,-3.944c-1.082,-6.858 8.563,-2.619 10.814,4.753c1.167,3.821 1.379,7.446 0.471,8.055c-0.908,0.608 -2.043,-1.159 -2.522,-3.927Zm-528.943,-106.174c0.327,-1.657 2.031,-2.729 3.786,-2.383c1.755,0.347 2.085,1.821 0.734,3.276c-1.352,1.455 -3.056,2.527 -3.787,2.383c-0.73,-0.145 -1.06,-1.619 -0.733,-3.276Zm967.067,184.477c-10.391,-13.521 -10.363,-15.666 0.255,-19.968c5.899,-2.391 9.776,-2.11 14.662,1.06c6.346,4.118 6.211,4.234 -3.01,2.602c-13.979,-2.474 -16.623,2.78 -7.489,14.882c9.253,12.26 16.298,14.568 20.154,6.603c3.069,-6.341 8.531,-6.898 7.316,-0.746c-1.187,6.008 -8.685,9.868 -16.26,8.371c-3.754,-0.741 -10.787,-6.503 -15.628,-12.804Zm-874.165,-176.141c-1.596,-2.381 -2.448,-6.626 -1.894,-9.431c0.554,-2.806 -0.872,-6.284 -3.169,-7.729c-6.274,-3.946 -3.3,-11.885 4.97,-13.27c8.267,-1.385 17.142,4.352 15.963,10.319c-0.427,2.161 2.308,6.144 6.078,8.85c11.614,8.337 3.901,20.125 -11.213,17.139c-4.309,-0.851 -9.14,-3.496 -10.735,-5.878Zm18.065,-2.714c2.194,-5.386 -6.292,-11.449 -11.314,-8.084c-2.359,1.581 -2.553,4.272 -0.571,7.921c3.508,6.458 9.29,6.537 11.885,0.163l0,-0Zm-10.29,-20.796c-2.256,-3.367 -3.897,-3.663 -7.382,-1.328c-3.568,2.391 -3.681,3.745 -0.556,6.647c5.304,4.929 11.861,0.535 7.938,-5.319l0,0Zm296.906,64.021c-7.812,-14.436 -15.473,-28.32 -17.023,-30.854c-11.178,-18.27 -11.225,-18.531 -3.808,-21.35c6.286,-2.389 6.628,-2.083 3.681,3.281c-2.576,4.688 0.911,13.204 16.826,41.091c11.042,19.347 18.828,34.93 17.302,34.628c-1.525,-0.301 -9.165,-12.359 -16.978,-26.796Zm361.13,88.344c0.347,-1.755 1.889,-2.022 3.426,-0.594c5.124,4.761 18.104,2.275 17.142,-3.283c-0.671,-3.879 -3.439,-5.13 -11.52,-5.208c-19.385,-0.186 -28.96,-11.865 -13.579,-16.562c8.392,-2.562 19.068,-0.394 18.257,3.714c-0.35,1.769 -2.863,2.009 -5.585,0.533c-5.745,-3.114 -15.779,-0.166 -13.09,3.847c1.002,1.495 7.711,3.511 14.909,4.478c15.387,2.069 22.35,10.05 14.407,16.514c-5.262,4.281 -25.333,1.452 -24.368,-3.434l0.001,-0.005Zm245.67,41.579c-11.902,-13.558 -12.698,-20.287 -1.882,-15.918c3.968,1.603 6.276,3.925 5.128,5.161c-2.773,2.984 5.926,15.709 12.648,18.5c4.738,1.967 4.732,2.32 -0.053,3.193c-3.422,0.625 -9.184,-3.353 -15.841,-10.936Zm-688.42,-139.513c-9.958,-14.862 -9.343,-19.974 3.171,-26.353c7.174,-3.658 12.053,-3.959 19.471,-1.201c20.703,7.697 27.259,32.497 10.543,39.881c-12.631,5.58 -24.021,1.349 -33.185,-12.327Zm31.984,6.022c9.977,-8.118 -9.423,-33.689 -21.918,-28.887c-8.851,3.402 -10.063,10.739 -3.414,20.663c6.827,10.188 18.328,13.922 25.332,8.224l-0,0Zm161.831,36.654c0.328,-1.658 2.549,-2.628 4.937,-2.156c2.388,0.472 4.912,2.38 5.609,4.239c0.697,1.86 -1.524,2.83 -4.937,2.156c-3.412,-0.675 -5.936,-2.582 -5.609,-4.239Zm512.755,91.793c-6.811,-10.375 -6.825,-10.832 -0.437,-13.81c3.634,-1.695 7.64,-2.121 8.903,-0.949c1.262,1.173 0.271,2.892 -2.203,3.819c-3.539,1.326 -3.37,3.49 0.792,10.142c10.16,16.236 3.57,16.982 -7.055,0.798Zm-236.602,-52.237c-9.3,-14.243 -11.556,-23.776 -2.865,-12.108c3.838,5.154 5.998,6.059 9.252,3.879c6.967,-4.669 13.557,-1.561 20.839,9.826c8.49,13.277 4.101,13.327 -5.206,0.06c-5.717,-8.148 -7.615,-9.177 -12.268,-6.649c-4.94,2.684 -4.966,3.85 -0.251,11.385c8.826,14.105 0.01,8.173 -9.501,-6.393l0,-0Zm-238.392,-47.422c-1.424,-3.8 8.2,-5.676 11.827,-2.306c1.687,1.567 0.975,3.162 -1.911,4.28c-5.924,2.296 -8.509,1.782 -9.917,-1.971l0.001,-0.003Zm491.911,87.078c-5.821,-8.166 -9.717,-15.428 -8.658,-16.138c2.131,-1.427 19.877,20.38 22.423,27.555c3.045,8.58 -3.204,3.397 -13.765,-11.417Zm-220.12,-43.43c-7.616,-14.851 -3.716,-14.868 5.896,-0.025c4.837,7.467 6.36,12.097 3.779,11.484c-2.379,-0.565 -6.732,-5.722 -9.675,-11.459Zm12.251,-5.443c-9.093,-12.815 -9.7,-18.692 -2.029,-19.669c2.347,-0.299 2.748,1.211 1.043,3.923c-1.822,2.896 -1.112,4.739 2.068,5.367c2.663,0.526 4.524,2.564 4.136,4.529c-0.388,1.964 1.623,7.292 4.468,11.84c8.257,13.196 0.544,8.426 -9.686,-5.99Zm-292.403,-52.374c0.66,-3.342 10.676,-5.291 12.581,-2.449c0.769,1.147 -0.846,2.953 -3.589,4.013c-6.338,2.45 -9.671,1.87 -8.992,-1.564l-0,-0Zm162.282,0.489c-21.239,-35.541 -22.248,-38.093 -15.995,-40.469c5.978,-2.272 6.337,-1.922 3.441,3.348c-2.541,4.626 -0.01,11.03 11.83,29.929c21.381,34.13 26.56,43.353 24.872,44.296c-0.814,0.456 -11.681,-16.241 -24.148,-37.104Zm-590.031,-93.533c1.433,-7.253 4.276,-6.106 7.003,2.825c1.342,4.394 0.564,5.527 -3.274,4.769c-3.17,-0.626 -4.551,-3.437 -3.729,-7.594Zm528.436,106.34c-3.502,-4.059 -4.878,-7.117 -3.056,-6.795c1.822,0.324 5.231,3.781 7.576,7.688c5.371,8.949 3.686,8.617 -4.52,-0.893Zm213.073,36.013c-4.308,-5.818 -6.881,-11.216 -5.718,-11.995c1.163,-0.78 0.451,-1.746 -1.579,-2.147c-2.031,-0.401 -2.609,-1.896 -1.285,-3.321c2.65,-2.853 13.076,5.321 12.233,9.591c-0.84,4.252 6.152,12.762 11.326,13.784c2.702,0.534 3.807,2.161 2.455,3.616c-4.082,4.394 -9.192,1.601 -17.432,-9.528Zm-637.73,-129.514c-0.743,-1.984 0.43,-2.994 2.607,-2.244c7.972,2.744 11.653,2.033 12.532,-2.419c0.707,-3.579 -1.606,-4.647 -10.798,-4.982c-9.386,-0.343 -12.571,-1.882 -16.114,-7.784c-3.619,-6.031 -3.567,-8.047 0.288,-11.183c7.026,-5.718 17.611,-2.278 26.296,8.546c8.129,10.129 8.598,17.997 1.362,22.845c-5.367,3.596 -14.363,2.051 -16.173,-2.779l0,0Zm7.266,-16.34c0.985,-1.734 -0.726,-5.214 -3.802,-7.735c-4.52,-3.704 -6.145,-3.705 -8.472,-0.004c-1.624,2.581 -1.274,6.101 0.8,8.069c4.379,4.154 9.001,4.021 11.474,-0.33Zm286.646,50.355c-10.128,-17.068 -20.147,-33.15 -22.264,-35.737c-3.435,-4.198 -3.188,-5.149 2.301,-8.826c5.795,-3.883 6.073,-3.731 4.814,2.641c-0.841,4.257 6.124,19.222 18.798,40.388c11.073,18.495 18.926,33.388 17.45,33.096c-1.476,-0.292 -10.971,-14.495 -21.099,-31.562l-0,-0Zm300.513,84.627c2.347,-0.44 4.925,0.18 5.728,1.379c0.804,1.199 -1.117,1.56 -4.267,0.801c-3.482,-0.838 -4.054,-1.693 -1.461,-2.18l0,0Zm-373.761,-94.376l-11.079,-18.598l14.196,-3.117c12.572,-2.761 14.971,-2.457 20.961,2.656c9.778,8.346 8.495,15.686 -3.513,20.087l-10.227,3.748l5.281,7.881c4.332,6.466 4.399,7.707 0.371,6.911c-2.701,-0.533 -9.896,-9.339 -15.989,-19.568l-0.001,0Zm21.927,-7.554c0.921,-4.659 -6.487,-10.201 -13.097,-9.799c-7.594,0.461 -9.925,5.24 -5.66,11.605c2.813,4.198 17.858,2.749 18.757,-1.806Zm164.23,48.219c-2.359,-3.931 -3.477,-7.691 -2.485,-8.356c0.993,-0.665 3.735,2.008 6.094,5.939c2.359,3.931 3.477,7.691 2.485,8.356c-0.993,0.665 -3.735,-2.008 -6.094,-5.939Zm10.23,-4.24c-2.344,-3.907 -2.907,-6.836 -1.25,-6.508c1.657,0.327 4.932,3.792 7.277,7.699c2.344,3.907 2.907,6.836 1.249,6.508c-1.657,-0.327 -4.931,-3.792 -7.276,-7.699Zm197.183,16.269c-4.934,-8.298 -14.4,-23.947 -21.035,-34.775c-6.636,-10.828 -1.791,-4.579 10.766,13.886c12.556,18.464 22.023,34.113 21.035,34.775c-0.987,0.661 -5.831,-5.587 -10.766,-13.886Zm-592.489,-114.614c-1.537,-2.829 -2.075,-6.326 -1.196,-7.773c0.879,-1.447 3.39,1.114 5.579,5.693c4.245,8.876 0.321,10.739 -4.383,2.08Zm512.175,93.126c-7.323,-6.512 -11.613,-11.515 -9.534,-11.118c2.078,0.398 9.418,6.035 16.309,12.529c16.174,15.244 10.664,14.096 -6.775,-1.409l0,-0.002Zm-203.248,-55.746c-6.659,-11.609 -11.543,-20.996 -10.853,-20.86c3.118,0.616 27.678,40.201 25.459,41.033c-1.374,0.514 -7.946,-8.563 -14.606,-20.173Zm81.603,12.335c-8.24,-14.119 -17.608,-30.207 -20.817,-35.753c-6.276,-10.845 -6.623,-16.277 -1.083,-16.983c1.911,-0.243 2.849,2.144 2.082,5.305c-0.79,3.261 7.158,19.835 18.37,38.308c10.869,17.908 19.013,33.063 18.096,33.677c-0.916,0.614 -8.408,-10.435 -16.648,-24.554Zm-301.219,-49.085c-7.683,-12.014 -5.538,-21.29 4.795,-20.736c14.2,0.763 27.888,22.985 18.832,30.574c-6.385,5.349 -16.649,1.076 -23.627,-9.838l-0,0Zm18.82,6.24c1.092,-5.524 -8.081,-23.212 -12.489,-24.083c-7.898,-1.56 -8.515,3.995 -1.669,15.006c6.987,11.235 12.973,15.074 14.158,9.077Zm432.886,67.04c-6.464,-9.807 -10.941,-18.375 -9.949,-19.04c0.993,-0.665 7.094,6.815 13.558,16.623c6.464,9.807 10.941,18.375 9.949,19.04c-0.993,0.665 -7.093,-6.815 -13.558,-16.623Zm-186.951,-37.718c-4.363,-7.846 -4.358,-7.861 0.661,-1.843c2.784,3.339 6.948,7.22 9.253,8.625c3.558,2.169 3.458,2.448 -0.661,1.844c-2.669,-0.392 -6.833,-4.273 -9.253,-8.626Zm-233.63,-64.159c-2.183,-3.875 -2.674,-6.79 -1.091,-6.478c1.582,0.313 3.793,3.568 4.912,7.232c1.119,3.665 1.61,6.58 1.092,6.478c-0.519,-0.103 -2.73,-3.357 -4.913,-7.232Zm219.751,43.108c-1.856,-4.202 -2.367,-8.726 -1.135,-10.052c1.233,-1.326 3.426,1.66 4.876,6.635c3.302,11.332 0.775,13.64 -3.741,3.417Zm92.914,12.004c0.402,-2.723 -0.969,-7.041 -3.048,-9.595c-2.078,-2.554 -3.337,-6.85 -2.798,-9.546c0.568,-2.843 2.73,-0.146 5.145,6.422c2.291,6.228 3.221,12.752 2.067,14.497c-1.154,1.745 -1.768,0.945 -1.366,-1.778Zm61.845,-16.398c-16.693,-26.805 -21.742,-37.371 -18.964,-39.694c5.681,-4.752 8.861,-2.96 5.836,3.289c-1.967,4.064 2.861,14.115 18.297,38.091c11.533,17.914 20.207,33.082 19.275,33.706c-0.932,0.624 -11.932,-15.302 -24.444,-35.392Zm-278.871,-27.311c0.129,-0.651 2.498,-1.576 5.265,-2.055c2.885,-0.499 3.995,0.245 2.602,1.745c-2.336,2.513 -8.349,2.751 -7.867,0.31Zm246.032,16.388c-6.362,-10.335 -13.125,-18.208 -15.029,-17.494c-1.988,0.744 -2.255,-0.003 -0.626,-1.756c1.56,-1.68 4.008,-2.823 5.439,-2.54c2.938,0.58 25.207,39.105 23.125,40.003c-0.739,0.318 -6.548,-7.877 -12.909,-18.213l-0,0Zm-44.615,-3.644c-3.268,-4.033 -4.646,-7.076 -3.062,-6.763c1.584,0.313 4.798,3.766 7.143,7.673c5.386,8.975 3.611,8.579 -4.08,-0.913l-0.001,0.003Zm-223.044,-54.748c3.726,-1.942 8.097,-3.269 9.714,-2.95c3.828,0.757 1.844,1.811 -8.247,4.381c-7.771,1.98 -7.855,1.898 -1.467,-1.431l-0,0Zm136.973,12.801c2.804,-1.116 6.453,-1.76 8.11,-1.433c1.658,0.327 0.72,1.508 -2.083,2.623c-2.804,1.116 -6.453,1.76 -8.11,1.433c-1.657,-0.328 -0.72,-1.508 2.083,-2.623Zm-7.976,-5.848c0.81,-0.468 5.182,-1.795 9.714,-2.95c7.772,-1.979 7.855,-1.897 1.467,1.432c-5.559,2.897 -16.03,4.319 -11.181,1.518l0,-0Zm203.796,32.906c-5.614,-9.831 -1.752,-17.004 8,-14.856c3.331,0.73 2.224,1.937 -3.479,3.783c-7.383,2.39 -7.788,3.071 -3.458,5.817c2.697,1.712 7.252,1.837 10.12,0.278c3.027,-1.645 4.963,-1.55 4.612,0.226c-0.332,1.682 -3.036,3.48 -6.009,3.994c-4.046,0.701 -4.711,1.97 -2.648,5.05c2.064,3.079 5.039,3.628 11.833,2.184c8.402,-1.787 8.574,-1.677 2.324,1.484c-9.475,4.789 -15.248,2.632 -21.295,-7.96l-0,-0Zm30.119,-3.886c-3.472,-5.786 -3.322,-6.94 1.223,-9.41c4.166,-2.263 6.454,-1.438 11.673,4.206c3.57,3.861 6.286,8.282 6.036,9.824c-0.246,1.543 -3.212,-1.044 -6.581,-5.748c-6.881,-9.607 -12.63,-8.607 -8.779,1.527c3.172,8.345 1.567,8.166 -3.573,-0.399l0.001,-0Zm-241.748,-52.542c-2.008,-3.696 -1.623,-5.026 1.615,-5.586c2.58,-0.446 3.809,1.498 3.127,4.948c-1.342,6.794 -1.391,6.802 -4.742,0.638Zm264.73,45.702c-4.114,-4.98 -6.583,-9.656 -5.485,-10.391c1.098,-0.736 5.46,3.585 9.692,9.603c9.187,13.06 6.369,13.587 -4.207,0.788Zm-425.676,-93.828c-2.232,-4.81 -3.087,-9.395 -1.9,-10.191c1.188,-0.796 1.847,0.135 1.465,2.069c-0.382,1.933 1.565,3.961 4.327,4.507c2.762,0.546 3.953,1.709 2.647,2.583c-1.305,0.875 -1.223,3.709 0.183,6.298c1.407,2.589 1.383,4.43 -0.053,4.092c-1.434,-0.342 -4.436,-4.549 -6.669,-9.358Zm438.812,92.748c-5.533,-8.258 5.424,-17.761 12.693,-11.008c2.957,2.747 2.652,4.051 -1.809,7.723c-4.87,4.007 -4.707,4.379 1.761,4.009c3.921,-0.224 6.126,0.672 4.901,1.991c-2.582,2.779 -15.17,0.831 -17.546,-2.715l-0,-0Zm8.809,-6.426c0.34,-3.676 -3.931,-3.795 -5.993,-0.166c-1.056,1.857 -0.185,3.157 1.934,2.886c2.12,-0.269 3.946,-1.494 4.059,-2.72l0,0Zm-419.574,-84.107c2.237,-0.427 4.341,-2.164 4.676,-3.86c0.335,-1.697 -1.561,-2.709 -4.214,-2.25c-2.653,0.459 -4.209,-0.578 -3.458,-2.305c0.751,-1.727 -0.409,-4.211 -2.577,-5.52c-2.886,-1.743 -3.662,-0.747 -2.9,3.732c0.795,4.662 0.369,5.116 -1.797,1.91c-3.24,-4.795 0.601,-10.328 6.379,-9.187c5.541,1.095 12.625,13.996 9.52,17.337c-1.437,1.547 -4.206,2.386 -6.154,1.865c-2.554,-0.683 -2.407,-1.163 0.525,-1.722l0,-0Zm436.024,80.792c-4.904,-7.838 -4.87,-8.55 0.447,-9.47c3.163,-0.547 4.576,-0.208 3.141,0.753c-1.435,0.962 -1.168,5.315 0.604,9.677c4.113,10.15 2.534,9.788 -4.192,-0.961l0,0.001Zm-179.697,-58.423c14.399,-12.762 15.954,-13.504 19.412,-9.253c2.565,3.152 7.485,3.3 20.06,0.604c9.164,-1.965 17.206,-2.761 17.871,-1.768c0.665,0.993 -6.29,3.412 -15.455,5.377c-16.764,3.594 -20.547,6.435 -14.142,10.618c1.906,1.245 -0.646,1.679 -5.67,0.964c-5.024,-0.716 -13.221,-1.439 -18.215,-1.608c-8.34,-0.283 -8.654,-0.685 -3.861,-4.934Zm34.457,-103.749c-2.352,-3.919 -3.204,-7.844 -1.893,-8.722c1.311,-0.878 2.071,-0.016 1.689,1.918c-0.382,1.933 1.114,3.872 3.323,4.309c2.21,0.437 3.616,2.828 3.125,5.314c-1.128,5.71 -1.126,5.712 -6.244,-2.819Zm24.121,-3.007c-1.561,-2.873 -4.187,-4.717 -5.835,-4.099c-1.649,0.618 -2.715,-0.313 -2.368,-2.068c0.986,-4.991 5.319,-2.857 9.986,4.919c2.345,3.907 3.541,6.961 2.658,6.787c-0.882,-0.175 -2.881,-2.667 -4.441,-5.539Zm15.882,-4.559c0.248,-5.025 1.426,-8.231 2.618,-7.124c1.191,1.107 1.63,4.724 0.976,8.039c-0.749,3.788 0.259,5.483 2.712,4.563c2.419,-0.906 2.824,-0.301 1.067,1.592c-4.886,5.258 -7.842,2.424 -7.373,-7.07Zm-1722.62,725.383c-0.476,-2.751 -1.64,-4.483 -2.586,-3.849c-0.946,0.634 -1.111,2.775 -0.368,4.758c2.021,5.394 3.942,4.803 2.954,-0.909l-0,0Zm1031.02,118.402c-2.031,-1.154 -5.408,-0.949 -7.505,0.456c-2.677,1.794 -1.578,2.419 3.692,2.098c4.285,-0.261 5.921,-1.356 3.813,-2.554Zm14.345,-5.657c-0.463,-2.675 0.514,-4.595 2.171,-4.268c1.658,0.328 4.374,-1.568 6.038,-4.212c2.197,-3.494 0.529,-3.247 -6.106,0.905c-10.308,6.45 -12.19,10.278 -5.687,11.563c2.696,0.532 4.096,-1.027 3.584,-3.988Zm31.261,-15.875c-0.476,-2.751 -1.64,-4.483 -2.586,-3.849c-0.945,0.633 -1.111,2.775 -0.368,4.758c2.021,5.394 3.942,4.804 2.954,-0.909Zm39.593,0.131c0.746,-3.775 -2.451,-4.407 -9.039,-1.786c-4.121,1.64 -3.801,2.293 1.674,3.414c3.724,0.759 7.038,0.029 7.365,-1.628Zm19.085,-10.766c4.194,-6.667 2.145,-7.647 -3.469,-1.66c-2.663,2.839 -3.619,5.404 -2.125,5.699c1.494,0.295 4.011,-1.522 5.594,-4.039l0,0Zm11.024,-12.187c-1.795,-2.678 -2.419,-1.578 -2.099,3.692c0.261,4.285 1.357,5.92 2.555,3.812c1.154,-2.03 0.949,-5.407 -0.456,-7.504Zm32.273,-0.793c3.671,-1.785 5.995,-4.259 5.165,-5.498c-0.83,-1.239 -5.72,-0.107 -10.866,2.517c-10.374,5.288 -4.914,8.143 5.701,2.981Zm24.14,-5.637c1.016,-1.788 -0.029,-3.621 -2.321,-4.073c-4.496,-0.889 -12.542,3.528 -13.286,7.292c-0.683,3.46 13.47,0.541 15.607,-3.219Zm32.011,-10.653c-0.689,-1.838 -2.503,-1.791 -4.27,0.11c-1.69,1.819 -5.679,2.045 -8.866,0.503c-4.388,-2.124 -5.581,-1.577 -4.918,2.254c0.645,3.726 -0.352,4.286 -3.785,2.126c-4.603,-2.895 -7.088,-0.295 -4.05,4.239c2.304,3.437 27.297,-5.475 25.889,-9.232l0,0Zm28,-4.4c0.314,-1.59 -1.378,-1.585 -3.759,0.01c-2.382,1.596 -8.493,2.219 -13.58,1.386c-8.879,-1.455 -8.965,-1.369 -2.145,2.143c7.241,3.728 18.45,1.692 19.484,-3.54l-0,0.001Zm-1241.58,-320.232c64.702,-14.297 78.058,-18.22 79.045,-23.215c1.045,-5.286 -15.63,-54.893 -20.3,-60.392c-1.683,-1.982 -7.479,-6.194 -12.88,-9.36c-9.228,-5.41 -12.046,-5.235 -46.726,2.893c-20.298,4.758 -38.263,8.383 -39.923,8.055c-4.447,-0.879 -25.897,19.93 -27.166,26.354c-1.87,9.463 19.213,62.866 25.293,64.067c1.345,0.266 20.541,-3.515 42.657,-8.402Zm-29.215,-51.774c-4.198,-11.925 -4.166,-11.972 8.3,-12.156c9.106,-0.134 9.162,-0.049 1.73,2.598c-9.019,3.213 -7.402,8.414 1.748,5.62c4.215,-1.287 6.026,-0.894 5.609,1.215c-0.338,1.716 -2.57,2.733 -4.958,2.261c-2.388,-0.472 -5.62,0.519 -7.183,2.201c-2.042,2.198 0.151,3.087 7.8,3.161c9.89,0.097 10.166,0.338 3.91,3.415c-9.754,4.798 -12.877,3.266 -16.955,-8.318l-0.001,0.003Zm29.391,3.866c3.05,-0.185 5.769,-1.466 6.042,-2.847c0.272,-1.38 -2.196,-2.346 -5.485,-2.146c-6.573,0.4 -10.61,-5.752 -5.123,-7.808c1.89,-0.708 3.19,-0.039 2.888,1.486c-0.301,1.525 2.97,2.795 7.27,2.821c5.546,0.034 7.556,1.37 6.919,4.597c-0.905,4.579 -8.204,7.217 -14.605,5.278c-1.898,-0.575 -0.956,-1.196 2.094,-1.381l0,-0Zm16.581,-8.655c-3.733,-6.872 3.677,-13.447 12.803,-11.36c6.256,1.431 6.239,1.483 -0.945,2.843c-7.366,1.395 -9.722,4.551 -6.731,9.015c0.889,1.327 4.544,0.657 8.121,-1.489c7.11,-4.268 8.053,0.052 1.037,4.753c-5.831,3.907 -10.834,2.589 -14.285,-3.762l0,0Zm256.306,-5.779c53.738,-11.804 67.22,-15.729 70.18,-20.435c1.335,-2.123 -2.852,-16.623 -9.306,-32.222c-9.18,-22.191 -14.132,-30.013 -22.755,-35.95l-11.021,-7.587l-30.591,7.565c-16.825,4.161 -34.563,8.32 -39.418,9.243c-9.115,1.733 -28.198,19.337 -29.811,27.499c-0.966,4.893 11.388,38.117 19.167,51.545c2.534,4.375 6.3,8.289 8.369,8.698c2.068,0.408 22.402,-3.352 45.186,-8.356Zm-17.615,-52.428c-3.615,-10.269 -3.531,-10.713 2.556,-13.551c3.462,-1.614 6.838,-2.123 7.503,-1.131c0.665,0.993 -1.794,3.265 -5.465,5.05c-6.332,3.079 -6.212,3.347 2.328,5.219c7.76,1.701 8.165,2.262 2.937,4.063c-4.791,1.651 -5.497,3.136 -3.361,7.068c1.487,2.738 1.475,4.735 -0.028,4.438c-1.503,-0.297 -4.415,-5.317 -6.47,-11.156l-0,-0Zm27.14,-3.428c-1.328,-4.349 -3.878,-6.23 -7.611,-5.614c-4.911,0.81 -4.971,0.392 -0.474,-3.341c6.586,-5.467 6.201,-5.679 11.655,6.413c2.558,5.671 3.25,10.034 1.539,9.696c-1.712,-0.338 -4.011,-3.558 -5.109,-7.154Zm112.731,27.193c70.848,-16.428 76.378,-18.065 77.334,-22.902c1.718,-8.698 -22.022,-56.992 -32.016,-65.127l-9.488,-7.723l-39.981,8.907c-34.098,7.597 -41.356,10.354 -49.326,18.74c-5.14,5.407 -9.807,12.167 -10.371,15.023c-1.701,8.608 20.363,58.237 26.423,59.435c2.978,0.588 19.819,-2.271 37.425,-6.353Zm-11.942,-50.928c-4.317,-12.263 -4.202,-12.714 3.891,-15.185c4.517,-1.379 6.465,-1.03 6.046,1.088c-0.339,1.716 -2.65,2.718 -5.136,2.227c-2.486,-0.492 -4.787,0.463 -5.115,2.12c-0.327,1.657 2.452,3.636 6.175,4.398c4.651,0.955 5.408,1.915 2.417,3.076c-2.4,0.932 -3.933,4.12 -3.416,7.104c1.463,8.455 -1.073,5.939 -4.863,-4.824l0.001,-0.004Zm27.563,-4.592c3.425,-9.659 0.151,-15.337 -5.637,-9.779c-3.063,2.942 -3.347,2.817 -1.6,-0.697c1.17,-2.352 4.726,-3.762 7.902,-3.135c4.335,0.857 5.332,3.222 3.997,9.484c-1.197,5.616 -0.409,8.106 2.409,7.618c2.302,-0.398 3.958,0.431 3.679,1.843c-0.279,1.412 -3.507,2.75 -7.174,2.972c-5.867,0.357 -6.296,-0.638 -3.577,-8.306l0.001,-0Zm130.736,21.867c28.686,-6.895 53.776,-14.438 55.754,-16.762c4.975,-5.843 -18.846,-55.693 -31.629,-66.189l-9.509,-7.809l-29.204,6.708c-16.062,3.69 -33.183,7.501 -38.046,8.469c-9.284,1.849 -28.23,19.497 -29.876,27.83c-1.29,6.526 22.224,58.969 26.77,59.708c1.971,0.318 27.054,-5.059 55.74,-11.955Zm-33.139,-49.045c-3.422,-9.722 -3.339,-9.967 4.025,-11.9c6.912,-1.815 7.009,-1.706 1.197,1.345c-7.176,3.767 -4.237,8.42 4.697,7.437c5.632,-0.621 5.622,-0.544 -0.239,1.76c-4.837,1.901 -5.558,3.459 -3.424,7.387c1.487,2.738 1.474,4.735 -0.028,4.438c-1.503,-0.297 -4.305,-5.007 -6.228,-10.467l0,0Zm29.251,3.466c3.05,-0.186 5.812,-1.69 6.139,-3.344c1.125,-5.693 -6.249,-13.305 -11.935,-12.321c-3.837,0.664 -4.718,-0.013 -2.76,-2.12c4.429,-4.767 9.999,-2.401 15.666,6.655c3.994,6.383 4.186,8.892 0.852,11.126c-2.368,1.586 -6.376,2.312 -8.906,1.612c-3.534,-0.977 -3.315,-1.351 0.944,-1.608l-0,-0Zm129.391,16.366c38.664,-9.483 54.205,-14.672 54.93,-18.339c1.496,-7.572 -21.976,-54.572 -31.701,-63.477l-8.41,-7.702l-38.997,8.724c-35.21,7.877 -39.953,9.803 -48.838,19.829c-5.413,6.108 -10.157,12.701 -10.542,14.653c-1.238,6.266 23.738,58.111 28.557,59.276c0.596,0.141 25.346,-5.69 55.001,-12.964Zm-32.974,-48.219l-4.57,-10.133l6.767,-2.066c4.554,-1.391 6.566,-1.046 6.151,1.053c-0.339,1.715 -1.972,2.851 -3.629,2.523c-1.657,-0.327 -3.299,0.852 -3.649,2.621c-0.387,1.961 2.167,2.901 6.545,2.407c6.308,-0.712 6.578,-0.321 2.224,3.222c-2.725,2.217 -4.36,5.62 -3.632,7.561c2.973,7.935 -1.965,2.215 -6.207,-7.189l0,0.001Zm23.456,-8.383c2.074,-10.495 3.91,-10.518 9.593,-0.121c5.644,10.325 5.337,11.145 -3.699,9.895c-6.471,-0.895 -7.358,-2.366 -5.894,-9.774Zm157.44,21.851c40.233,-8.499 86.483,-21.499 88.629,-24.911c2.898,-4.607 -21.069,-51.928 -32.347,-63.866l-8.16,-8.638l-37.714,9.248c-30.827,7.56 -39.486,11.043 -47.427,19.075c-5.343,5.404 -10.142,11.992 -10.665,14.639c-0.972,4.917 16.61,43.78 23.634,52.243c5.052,6.087 5.501,6.128 24.05,2.21Zm1.95,-57.653c-2.233,-4.809 -2.966,-9.477 -1.63,-10.372c1.336,-0.896 3.264,0.932 4.285,4.061c1.105,3.391 4.085,5.431 7.377,5.05c4.299,-0.498 4.473,-0.166 0.785,1.5c-2.606,1.177 -4.104,3.832 -3.329,5.899c2.84,7.579 -3.554,2.338 -7.488,-6.138l-0,0Zm25.392,3.764c0.328,-1.657 1.546,-2.473 2.707,-1.813c1.161,0.66 2.7,-0.093 3.42,-1.672c0.721,-1.58 -1.704,-3.495 -5.389,-4.256c-3.929,-0.812 -6.688,-3.622 -6.673,-6.798c0.017,-3.546 1.918,-5.022 5.511,-4.281c4.642,0.952 4.701,1.443 0.388,3.159c-3.999,1.591 -3.384,2.377 2.858,3.648c8.784,1.783 11.763,9.038 5.452,13.266c-5.019,3.364 -9.065,2.751 -8.273,-1.253l-0.001,0Zm1294.08,255.98c26.041,-7.804 44.08,-14.945 45.32,-17.941c1.132,-2.737 -1.532,-10.645 -5.92,-17.573c-4.954,-7.819 -5.928,-10.963 -2.569,-8.291c2.976,2.368 8.004,8.469 11.173,13.558c3.169,5.089 8.584,9.769 12.033,10.4c9.671,1.769 92.494,-24.032 94.772,-29.522c1.094,-2.636 0.678,-7.449 -0.923,-10.696c-1.601,-3.247 0.029,-2.026 3.622,2.714c3.593,4.741 8.442,8.505 10.776,8.365c8.26,-0.493 91.64,-25.045 94.12,-27.714c1.386,-1.491 1.701,-5.215 0.703,-8.277c-3.57,-10.951 -54.509,-84.128 -60.576,-87.022c-4.032,-1.923 -17.322,0.078 -38.131,5.741c-28.902,7.866 -33.133,10.015 -44.471,22.579c-9.786,10.846 -13.442,13.101 -16.696,10.301c-2.292,-1.972 -18.802,-24.861 -36.689,-50.866c-17.887,-26.004 -34.415,-47.654 -36.73,-48.111c-2.314,-0.458 -18.768,3.199 -36.565,8.125c-30.03,8.313 -33.207,9.98 -44.187,23.189l-11.83,14.233l27.396,39.252c24.371,34.918 28.333,39.219 35.882,38.946c6.707,-0.242 7.589,0.337 4.209,2.765c-2.351,1.69 -3.93,5.434 -3.509,8.321c0.484,3.309 -1.88,1.641 -6.397,-4.514c-3.94,-5.369 -9.123,-10.54 -11.518,-11.491c-2.395,-0.951 -19.331,2.492 -37.635,7.651c-30.781,8.676 -34.154,10.432 -44.921,23.385l-11.641,14.005l26.227,39.273c19.594,29.341 28.147,39.641 33.82,40.726c4.176,0.802 27.061,-4.381 50.855,-11.511l-0,-0Zm-57.392,-66.054c0.124,-0.626 3.366,-5.82 7.204,-11.543c6.286,-9.371 7.349,-9.852 10.705,-4.844c3.356,5.008 4.86,5.162 15.147,1.546c11.217,-3.942 20.335,-1.858 19.105,4.367c-0.343,1.736 -5.783,4.474 -12.089,6.083c-8.918,2.277 -10.904,3.96 -8.94,7.576c2.046,3.766 -0.687,4.014 -14.416,1.301c-9.317,-1.841 -16.84,-3.859 -16.716,-4.486Zm132.023,-25.631c-9.159,-5.409 -12.401,-8.743 -9.545,-9.813c3.25,-1.218 2.767,-4.062 -1.941,-11.425c-5.174,-8.091 -5.43,-10.258 -1.467,-12.412c3.753,-2.038 6.321,-0.234 11.749,8.254c4.956,7.751 8.903,10.763 13.78,10.514c6.023,-0.306 6.689,1.109 5.605,11.91c-0.676,6.742 -1.922,12.012 -2.769,11.711c-0.847,-0.301 -7.782,-4.233 -15.412,-8.739l0,-0Zm84.15,-35.553c-2.619,-4.49 -1.325,-5.617 8.821,-7.681c9.832,-2 11.411,-3.301 9.124,-7.512c-2.363,-4.349 -0.294,-4.604 14.174,-1.745c18.333,3.622 19.202,5.262 9.35,17.638c-5.337,6.706 -7.089,7.265 -11.066,3.535c-3.631,-3.405 -7.141,-3.732 -15.149,-1.41c-12.356,3.583 -11.412,3.757 -15.254,-2.825Zm-146.249,-54.061c-4.271,-5.323 -9.76,-9.333 -12.197,-8.912c-3.07,0.532 -4.313,-2.691 -4.046,-10.492c0.212,-6.193 0.832,-11.559 1.379,-11.926c0.944,-0.632 18.821,7.509 27.675,12.602c3.611,2.078 3.512,2.615 -0.776,4.224c-4.054,1.519 -3.744,3.678 1.766,12.294c5.719,8.943 5.914,10.585 1.355,11.374c-7.2,1.246 -6.421,1.717 -15.152,-9.163l-0.004,-0.001Zm-1178.54,-57.386c18.981,-4.563 38.741,-10.102 43.911,-12.308c8.168,-3.486 9.12,-4.962 7.266,-11.266c-3.753,-12.76 -25.364,-50.07 -33.106,-57.153c-7.4,-6.771 -7.888,-6.747 -44.576,2.25c-33.272,8.16 -38.204,10.317 -47.875,20.941c-10.427,11.456 -10.663,12.139 -7.209,20.813c5.105,12.819 18.875,39.499 23.117,44.787c4.076,5.083 3.385,5.178 58.472,-8.064Zm-34.02,-48.477c-4.027,-8.928 -3.943,-10.047 0.817,-10.87c2.918,-0.505 5.876,-0.068 6.572,0.97c0.696,1.04 -0.316,1.577 -2.25,1.195c-1.933,-0.382 -3.812,0.806 -4.174,2.641c-0.362,1.835 1.368,2.985 3.846,2.556c3.143,-0.545 3.941,1.405 2.64,6.446c-1.026,3.974 -2.112,7.178 -2.414,7.119c-0.301,-0.058 -2.568,-4.584 -5.037,-10.058l0,0.001Zm20.693,-2.384c-4.423,-7.371 -1.432,-16.086 5.054,-14.724c2.975,0.623 2.809,1.213 -0.727,2.583c-3.726,1.445 -3.792,3.172 -0.354,9.275c5.12,9.089 9.019,10.444 7.909,2.749c-0.636,-4.411 -0.137,-4.713 2.291,-1.386c3.495,4.79 -0.22,10.404 -6.114,9.24c-2.131,-0.421 -5.758,-3.903 -8.059,-7.737l0,-0Zm110.618,27.634c16.08,-3.911 38.48,-9.331 49.778,-12.044c13.852,-3.327 20.884,-6.662 21.59,-10.241c1.354,-6.851 -29.371,-61.842 -36.847,-65.949c-3.697,-2.031 -15.283,-0.711 -32.969,3.758c-14.998,3.79 -30.282,7.218 -33.965,7.619c-9.788,1.065 -31.196,22.055 -29.992,29.406c1.631,9.963 24.966,52.943 29.198,53.779c2.183,0.431 17.126,-2.416 33.207,-6.328Zm-12.746,-53.206c-3.994,-6.383 -4.187,-8.892 -0.852,-11.126c2.367,-1.586 5.724,-2.582 7.459,-2.213c1.736,0.366 1.052,1.485 -1.517,2.481c-6.263,2.425 -3.408,9.199 3.538,8.396c4.291,-0.497 4.46,-0.165 0.767,1.503c-2.605,1.177 -4.103,3.832 -3.328,5.899c2.321,6.196 -0.574,3.838 -6.067,-4.94l-0,-0Zm26.377,0.954c-0.887,-1.322 -1.103,-4.982 -0.481,-8.132c0.883,-4.469 -0.364,-5.559 -5.673,-4.96c-4.58,0.516 -5.916,-0.19 -4.085,-2.161c5.389,-5.801 13.717,-1.022 13.67,7.844c-0.049,9.303 -0.913,11.168 -3.431,7.409Zm113.469,21.806c47.069,-11.472 58.518,-15.492 59.591,-20.922c1.366,-6.914 -37.501,-66.539 -43.012,-65.985c-2.806,0.282 -19.614,3.981 -37.351,8.219c-27.993,6.69 -33.717,9.25 -43.368,19.4c-12.816,13.478 -12.773,14.033 3.441,43.733c10.517,19.266 14.168,24.577 17.398,25.305c0.941,0.21 20.426,-4.175 43.301,-9.75Zm-25.007,-50.368c-4.393,-7.02 -4.467,-8.619 -0.43,-9.317c3.435,-0.595 4.064,0.442 2.133,3.513c-2.189,3.48 -1.203,4.231 4.9,3.734c5.304,-0.432 6.197,0.006 2.921,1.432c-2.596,1.129 -4.087,3.744 -3.312,5.812c2.343,6.252 -0.593,3.808 -6.212,-5.173l-0,-0.001Zm19.855,-4.609c-1.484,-3.905 -1.774,-7.719 -0.644,-8.476c1.13,-0.756 1.742,0.206 1.36,2.139c-0.382,1.934 0.806,3.812 2.641,4.174c1.916,0.379 2.925,-1.712 2.371,-4.915c-0.531,-3.065 -0.091,-4.27 0.977,-2.678c2.196,3.277 0.24,17.695 -2.332,17.187c-0.921,-0.182 -2.889,-3.526 -4.373,-7.431Zm11.216,3.902c0.51,-2.584 2.138,-3.574 3.616,-2.2c1.479,1.373 1.659,3.605 0.401,4.96c-3.409,3.669 -5.063,2.532 -4.017,-2.76Zm1323.59,233.377c47.52,-13.922 90.296,-25.994 95.058,-26.827c11.431,-1.999 14.941,-8.275 10.692,-19.117l-3.469,-8.854l5.963,7.756c3.279,4.266 7.491,9.072 9.358,10.68c3.343,2.878 83.101,-18.647 92.859,-25.061c3.713,-2.441 4.353,-4.808 2.733,-10.112c-2.063,-6.76 -1.935,-6.77 5.348,-0.432c7.325,6.373 8.287,6.258 52.156,-6.251c24.582,-7.01 45.492,-14.761 46.467,-17.225c2.577,-6.514 -11.686,-32.664 -29.584,-54.237c-8.543,-10.297 -34.358,-41.813 -57.368,-70.036c-23.009,-28.222 -44.161,-51.772 -47.004,-52.334c-2.842,-0.562 -7.307,-5.763 -9.921,-11.559c-5.492,-12.177 -106.811,-138.647 -117.999,-147.29c-11.732,-9.065 -14.134,-15.295 -7.949,-20.619c4.505,-3.877 4.501,-4.118 -0.033,-1.853c-4.25,2.123 -9.329,-2.487 -27.556,-25.011c-12.291,-15.188 -24.541,-28.061 -27.222,-28.606c-2.681,-0.545 -17.691,2.392 -33.355,6.529c-23.686,6.255 -30.232,9.446 -38.889,18.957c-11.259,12.369 -14.303,13.2 -18.703,5.1c-4.072,-7.494 -7.739,-7.557 -34.758,-0.605c-13.249,3.409 -25.706,5.879 -27.683,5.488c-1.976,-0.39 -9.345,5.55 -16.376,13.201c-16.197,17.626 -15.162,17.059 -18.415,10.082c-4.101,-8.794 -12.164,-9.632 -35.956,-3.734c-11.769,2.918 -24.572,5.631 -28.452,6.031c-3.992,0.411 -12.607,7.125 -19.845,15.464l-12.789,14.739l-5.403,-7.544c-2.972,-4.149 -6.813,-7.822 -8.536,-8.162c-1.722,-0.341 -17.111,2.833 -34.197,7.052c-29.176,7.205 -31.784,8.537 -42.895,21.903l-11.83,14.232l25.581,35.686c14.07,19.628 27.951,36.172 30.847,36.766c2.973,0.611 4.835,3.38 4.277,6.364c-0.539,2.907 10.677,21.394 24.935,41.084c19.858,27.424 27.374,35.637 32.124,35.101c4.734,-0.533 5.547,0.341 3.437,3.696c-3.538,5.625 -1.493,9.214 27.686,48.563c19.152,25.828 25.577,32.483 30.794,31.894c5.503,-0.62 6.079,0.192 3.488,4.908c-4.524,8.235 48.863,80.331 59.534,80.397c6.156,0.037 6.793,0.991 4.253,6.372c-2.243,4.752 -0.906,8.904 5.366,16.679c4.594,5.693 17.063,22.455 27.71,37.248c10.646,14.792 21.554,27.326 24.239,27.853c2.685,0.527 43.762,-10.433 91.282,-24.356l-0,0Zm-75.739,-52.859c-12.718,-12.645 -15.189,-23.701 -5.664,-25.349c10.605,-1.836 30.854,21.504 25.728,29.655c-3.506,5.574 -11.948,3.763 -20.063,-4.306l-0.001,0Zm15.47,1.369c1.31,-6.63 -9.568,-20.095 -17.419,-21.561c-7.698,-1.438 -7.684,-1.324 1.411,11.237c9.491,13.107 14.784,16.52 16.008,10.324Zm-73.979,-92.662c-7.32,-9.525 -9.88,-11.2 -12.616,-8.255c-1.888,2.033 -3.993,2.86 -4.677,1.838c-1.83,-2.731 4.611,-14.929 7.064,-13.376c4.348,2.752 22.828,29.455 21.158,30.573c-0.96,0.644 -5.878,-4.207 -10.929,-10.78Zm189.313,25.864c-0.557,-1.488 1.934,-3.825 5.537,-5.194c7.104,-2.7 7.474,-2.193 3.273,4.486c-2.983,4.743 -7.172,5.079 -8.81,0.708Zm75.171,-1.101c-0.624,-1.665 0.678,-3.313 2.887,-3.665c5.665,-0.898 11.512,3.023 8.823,5.918c-2.88,3.1 -10.235,1.685 -11.71,-2.255l-0,0.002Zm-244.577,-54.575c0.293,-1.48 2.646,-3.057 5.229,-3.504c3.14,-0.543 3.856,0.525 2.159,3.222c-2.77,4.405 -8.243,4.613 -7.388,0.282Zm79.425,8.312c2.509,-16.852 2.2,-19.086 -2.934,-21.181c-2.996,-1.223 -6.907,-0.653 -8.69,1.267c-1.783,1.92 -4.045,2.292 -5.026,0.828c-3.174,-4.736 5.641,-7.87 14.335,-5.096c7.301,2.33 8.36,4.272 7.748,14.214c-0.575,9.321 0.26,11.136 4.38,9.523c2.799,-1.096 7.126,-1.603 9.615,-1.127c2.488,0.48 -0.075,2.757 -5.698,5.068c-13.063,5.368 -14.978,4.88 -13.73,-3.495l-0,-0.001Zm-176.779,-61.497c-0.441,-2.543 0.005,-8.701 0.99,-13.685l1.79,-9.06l7.729,9.632c4.251,5.298 9.885,10.058 12.52,10.579c2.635,0.52 3.723,1.662 2.417,2.537c-1.306,0.876 -1.439,3.314 -0.295,5.421c1.445,2.661 -1.95,3.123 -11.136,1.515c-8.86,-1.552 -13.479,-3.838 -14.015,-6.939l-0,0Zm14.231,-1.477c0.293,-1.48 -0.035,-2.803 -0.728,-2.939c-0.694,-0.138 -3.151,-1.438 -5.462,-2.892c-3.123,-1.965 -4.102,-1.008 -3.814,3.726c0.374,6.152 8.852,7.936 10.004,2.105Zm431.708,80.931c-1.647,-3.032 -1.562,-5.005 0.202,-4.656c1.682,0.332 3.438,2.792 3.901,5.467c0.463,2.674 0.372,4.769 -0.202,4.656c-0.574,-0.113 -2.329,-2.573 -3.901,-5.467Zm-243.929,-55.64c-0.635,-1.696 1.026,-3.459 3.689,-3.921c2.664,-0.46 4.6,0.396 4.302,1.902c-0.807,4.085 -6.662,5.563 -7.991,2.018l0,0.001Zm74.84,8.243c0.318,-1.605 2.397,-1.774 4.621,-0.375c2.224,1.399 5.712,1.918 7.751,1.154c5.848,-2.191 -0.876,-11.838 -7.952,-11.408c-4.328,0.263 -5.297,-0.779 -3.451,-3.713c3.362,-5.346 -5.239,-10.724 -9.616,-6.013c-1.847,1.988 -4.071,2.552 -4.941,1.253c-2.865,-4.276 3.521,-8.031 11.109,-6.532c4.097,0.809 7.828,3.66 8.291,6.334c0.463,2.674 2.634,5.216 4.824,5.649c2.19,0.433 5.729,3.395 7.865,6.582c2.998,4.474 2.899,6.595 -0.433,9.306c-4.882,3.972 -18.95,2.23 -18.067,-2.237l-0.001,0Zm152.915,28.648c-0.453,-2.617 1.002,-5.373 3.223,-6.126c2.226,-0.753 2.823,-0.458 1.327,0.656c-1.497,1.113 -1.57,4.142 -0.165,6.731c1.608,2.959 1.421,4.482 -0.503,4.102c-1.682,-0.333 -3.43,-2.746 -3.883,-5.363l0.001,0Zm-394.018,-91.849c0.308,-1.559 2.081,-3.405 3.941,-4.102c1.859,-0.697 2.963,0.847 2.453,3.43c-0.511,2.584 -2.284,4.43 -3.942,4.103c-1.657,-0.328 -2.761,-1.872 -2.452,-3.431Zm379.309,69.992c-2.717,-3.047 -4.1,-6.102 -3.075,-6.789c1.025,-0.686 3.788,1.958 6.14,5.877c5.008,8.345 3.864,8.686 -3.065,0.912Zm-297.684,-59.25c3.885,-0.056 7.429,-1.95 7.875,-4.209c1.079,-5.458 -9.997,-11.333 -15.02,-7.968c-5.787,3.878 -8.309,2.624 -10.74,-5.339c-2.33,-7.629 2.387,-11.606 11.522,-9.705c3.532,0.733 3.234,1.379 -1.368,2.968c-9.843,3.397 -7.914,8.021 3.391,8.129c7.626,0.074 11.567,1.76 14.563,6.23c5.597,8.353 2.305,12.773 -8.386,11.257c-6.21,-0.88 -6.766,-1.289 -1.837,-1.362l-0,-0.001Zm276.51,37.642c-2.716,-7.247 5.764,-8.944 12.034,-2.408c3.294,3.433 4.412,5.93 2.483,5.549c-1.928,-0.381 -4.075,-2.214 -4.772,-4.074c-2.005,-5.35 -7.673,-5.154 -6.741,0.234c0.975,5.634 -0.984,6.089 -3.004,0.699Zm-446.732,-102.859c-1.596,-6.773 -3.077,-12.815 -3.29,-13.427c-0.213,-0.612 -3.643,-0.118 -7.622,1.096c-3.978,1.215 -7.786,1.385 -8.46,0.379c-1.063,-1.586 16.767,-8.13 20.266,-7.439c0.704,0.139 1.29,4.742 1.303,10.227c0.013,5.486 1.765,12.876 3.893,16.423c2.385,3.974 2.516,6.182 0.341,5.752c-1.94,-0.383 -4.835,-6.238 -6.431,-13.011Zm429.572,82.801c-3.852,-4.909 -5.565,-9.464 -3.807,-10.123c1.759,-0.659 3.591,1.074 4.072,3.851c0.48,2.777 2.443,4.461 4.362,3.742c1.919,-0.719 2.762,0.415 1.872,2.52c-0.893,2.116 0.763,4.105 3.706,4.449c2.927,0.343 4.341,1.679 3.142,2.969c-3.348,3.604 -5.749,2.272 -13.347,-7.408Zm-237.01,-54.715c-0.648,-1.731 0.368,-3.727 2.257,-4.435c1.89,-0.708 3.019,0.826 2.508,3.41c-1.045,5.292 -3.007,5.714 -4.765,1.025Zm69.359,3.187c-11.481,-11.542 -10.184,-21.257 2.593,-19.427c6.135,0.878 6.814,1.34 2.069,1.41c-12.887,0.185 -9.918,8.172 3.805,10.233c9.094,1.366 13.146,3.521 14.873,7.913c1.86,4.733 1.274,6.467 -2.716,8.026c-7.579,2.961 -10.857,1.665 -20.624,-8.154l0,-0.001Zm18.009,-1.523c-1.694,-4.52 -12.859,-7.077 -13.64,-3.124c-0.856,4.333 8.369,11.185 11.911,8.849c1.708,-1.128 2.486,-3.704 1.728,-5.725l0.001,-0Zm-251.891,-55.972c-0.623,-1.665 0.972,-3.391 3.545,-3.837c3.121,-0.54 3.833,0.534 2.14,3.226c-2.942,4.678 -4.114,4.803 -5.685,0.611Zm65.74,-1.278c-4.935,-6.919 -7.813,-13.827 -6.397,-15.352c3.668,-3.948 16.68,-0.771 18.607,4.545c0.891,2.458 3.85,5.828 6.574,7.489c6.694,4.081 7.894,13.112 2.043,15.378c-7.949,3.077 -11.493,1.025 -20.827,-12.059l0,-0.001Zm19.546,6.763c0.322,-1.615 -1.623,-4.781 -4.323,-7.037c-2.701,-2.255 -5.66,-6.01 -6.576,-8.343c-2.051,-5.225 -10.165,-7.187 -11.057,-2.675c-0.358,1.813 1.921,4.541 5.064,6.062c3.143,1.522 5.367,4.529 4.941,6.684c-0.782,3.96 3.983,8.491 8.764,8.332c1.43,-0.048 2.864,-1.408 3.187,-3.023l-0,0Zm-189.147,-59.206c-5.219,-8.34 -3.54,-11.313 2.759,-4.886c2.591,2.644 5.709,14.386 3.716,13.992c-0.487,-0.096 -3.402,-4.194 -6.475,-9.106Zm12.902,4.849c-1.538,-1.569 -3.26,-5.729 -3.827,-9.244c-0.905,-5.613 -0.267,-5.326 5.241,2.364c3.449,4.815 6.183,9.197 6.077,9.736c-0.34,1.72 -4.598,0.095 -7.491,-2.856Zm8.131,-9.303l-6.915,-11.541l8.044,10.784c4.424,5.932 7.96,11.209 7.858,11.728c-0.46,2.327 -2.541,-0.214 -8.987,-10.971Zm258.681,39.72c-0.618,-1.649 1.052,-2.376 3.711,-1.614c2.659,0.76 5.843,-0.327 7.076,-2.417c1.713,-2.905 -0.026,-3.753 -7.378,-3.597c-16.018,0.338 -28.42,-16.262 -14.012,-18.755c12.528,-2.168 32.223,20.741 23.754,27.632c-4.679,3.807 -11.499,3.16 -13.151,-1.249Zm1.507,-11.508c3.252,-2.179 -1.78,-10.814 -6.891,-11.824c-5.182,-1.024 -7.068,6.913 -2.37,9.981c5.062,3.307 6.616,3.616 9.262,1.842l-0.001,0.001Zm-163.732,-52.203c-3.065,-16.913 0.852,-16.111 4.343,0.89c1.471,7.161 1.625,12.812 0.342,12.558c-1.283,-0.253 -3.391,-6.305 -4.685,-13.448l-0,-0Zm287.196,62.788c0.632,-3.201 2.928,-3.933 7.08,-2.255c3.379,1.365 5.795,4.243 5.37,6.396c-0.425,2.153 -3.611,3.168 -7.08,2.256c-3.584,-0.943 -5.902,-3.705 -5.37,-6.397Zm-191.114,-89.143c0.033,-5.484 1.147,-6.486 5.089,-4.578c7.159,3.466 7.609,10.823 0.688,11.244c-4.149,0.252 -5.808,-1.663 -5.777,-6.666Zm99.763,-25.744c2.804,-1.115 6.453,-1.76 8.11,-1.432c1.658,0.327 0.72,1.507 -2.083,2.623c-2.804,1.115 -6.453,1.76 -8.11,1.432c-1.657,-0.327 -0.72,-1.508 2.083,-2.623Zm-545.486,318.047c49.064,-13.225 52.735,-15.687 44.829,-30.068c-3.992,-7.26 -3.98,-7.258 2.246,0.515c3.443,4.299 7.693,9.042 9.444,10.542c4.188,3.587 92.321,-19.532 95.85,-25.143c1.501,-2.386 1.552,-7.553 0.104,-11.486c-2.509,-6.834 -2.359,-6.786 3.407,1.088c3.316,4.529 7.593,8.544 9.505,8.922c1.911,0.377 23.604,-4.702 48.207,-11.289c34.487,-9.232 44.996,-13.312 45.885,-17.813c1.069,-5.411 -50.169,-84.32 -55.426,-85.358c-1.22,-0.241 -14.404,-19.048 -29.298,-41.792c-14.895,-22.745 -29.377,-41.808 -32.183,-42.362c-2.806,-0.555 -19.018,2.51 -36.025,6.81c-28.391,7.179 -31.775,8.882 -41.315,20.797c-5.715,7.139 -10.848,13.481 -11.406,14.095c-0.559,0.614 -3.567,-2.446 -6.685,-6.8c-3.119,-4.353 -7.636,-8.2 -10.04,-8.547c-2.403,-0.347 -18.503,3.163 -35.778,7.802c-28.299,7.6 -32.421,9.684 -41.637,21.058c-10.175,12.556 -10.205,12.666 -5.759,20.777c2.458,4.485 -0.506,1.184 -6.588,-7.336c-6.082,-8.52 -12.58,-15.791 -14.442,-16.159c-1.861,-0.368 -17.705,3.069 -35.209,7.637c-27.049,7.059 -33.306,9.975 -41.688,19.433c-5.423,6.12 -10.235,13.018 -10.691,15.328c-1.218,6.167 45.257,74.469 51.513,75.704c3.134,0.62 4.885,3.3 4.252,6.507c-0.905,4.578 46.269,78.613 50.641,79.477c0.797,0.157 22.526,-5.395 48.287,-12.339Zm-51.346,-67.519c-5.338,-8.531 -6.063,-12.736 -2.059,-11.945c1.264,0.25 3.036,3.761 3.937,7.804c1.919,8.605 11.347,13.673 12.7,6.825c0.499,-2.525 -1.193,-6.441 -3.759,-8.703c-2.567,-2.263 -3.13,-3.853 -1.251,-3.534c5.305,0.9 9.379,10.541 6.433,15.224c-3.812,6.061 -10.042,3.853 -16.001,-5.671Zm22.463,-5.535c0.491,-2.486 1.426,-4.414 2.077,-4.286c0.652,0.129 1.563,2.422 2.026,5.097c0.463,2.674 -0.472,4.603 -2.077,4.285c-1.606,-0.317 -2.517,-2.61 -2.026,-5.096Zm16.951,-6.233c-3.309,-4.854 -4.587,-8.543 -2.839,-8.198c1.747,0.345 5.692,4.647 8.766,9.559c7.184,11.48 2.019,10.295 -5.927,-1.361Zm13.721,-14.319l-6.875,-10.75l8.002,1.581c5.905,1.167 7.308,2.685 5.353,5.793c-1.458,2.317 -1.379,6.559 0.184,9.429c4.997,9.198 0.443,5.062 -6.664,-6.053Zm52.726,5.811c-5.33,-5.787 -5.176,-7.748 0.691,-8.763c2.759,-0.477 3.936,1.12 3.086,4.188c-0.879,3.176 0.586,5.017 4.075,5.117c6.35,0.182 6.83,2.459 0.739,3.513c-2.303,0.398 -6.169,-1.426 -8.59,-4.055l-0.001,-0Zm-68.631,-25.604c-7.361,-11.763 -5.582,-14.392 2.349,-3.472c3.657,5.037 5.787,9.736 4.732,10.442c-1.054,0.706 -4.241,-2.43 -7.081,-6.97Zm85.363,18.146c-3.878,-6.462 -3.749,-6.818 2.722,-7.548c7.11,-0.801 14.662,5.766 13.344,11.605c-0.415,1.859 -1.676,0.733 -2.792,-2.501c-1.116,-3.234 -3.996,-6.268 -6.4,-6.743c-5.311,-1.049 -6.333,2.449 -2.42,8.288c1.596,2.382 2.162,4.184 1.259,4.006c-0.903,-0.179 -3.474,-3.377 -5.712,-7.107l-0.001,0Zm-22.926,-8.332c2.451,-1.656 5.065,-2.101 5.81,-0.99c0.745,1.111 -1.261,2.465 -4.456,3.01c-4.617,0.787 -4.895,0.372 -1.354,-2.02Zm44.231,5.37c-1.596,-2.382 -2.579,-5.746 -2.185,-7.476c0.39,-1.731 1.63,-0.5 2.746,2.734c2.147,6.219 10.371,9.626 11.344,4.7c0.316,-1.599 -1.851,-4.895 -4.815,-7.323c-2.964,-2.429 -5.069,-6.032 -4.679,-8.008c0.39,-1.975 3.564,0.669 7.052,5.874c6.15,9.179 4.814,16.077 -2.819,14.569c-2.056,-0.407 -5.045,-2.688 -6.64,-5.069l-0.004,-0.001Zm-196.989,-53.164l-5.668,-9.729l6.843,8.942c3.764,4.918 6.756,9.383 6.649,9.923c-0.467,2.363 -2.527,-0.043 -7.824,-9.136Zm9.478,-1.258c-2.803,-5.519 -2.676,-5.605 1.363,-0.913c2.451,2.848 4.355,5.689 4.231,6.315c-0.49,2.48 -2.649,0.395 -5.594,-5.402Zm8.56,-0.756c-2.736,-3.069 -3.525,-5.293 -1.754,-4.944c1.771,0.35 4.506,3.004 6.078,5.897c3.575,6.581 2.105,6.257 -4.325,-0.949l0.001,-0.004Zm20.628,3.33c1.458,-1.57 0.385,-3.949 -2.385,-5.288c-4.502,-2.176 -4.489,-2.365 0.128,-1.777c6.473,0.823 8.852,6.453 3.564,8.435c-2.373,0.889 -2.897,0.34 -1.308,-1.371l0.001,0.001Zm-13.309,-9.612c-0.697,-1.86 0.169,-3.097 1.924,-2.751c1.755,0.347 2.923,1.987 2.595,3.644c-0.327,1.657 -1.193,2.895 -1.924,2.751c-0.731,-0.145 -1.899,-1.785 -2.595,-3.644Zm185.928,35.699c-2.179,-4.01 -1.45,-5.075 3.689,-5.387c6.855,-0.417 7.48,1.501 2.278,6.967c-2.627,2.762 -3.773,2.459 -5.967,-1.579l-0,-0.001Zm59.127,2.34c-6.203,-9.913 -6.1,-11.475 0.836,-12.675c4.205,-0.728 4.435,-0.2 1.095,2.517c-2.324,1.891 -3.51,4.507 -2.635,5.813c2.886,4.306 6.597,3.451 7.625,-1.756c0.806,-4.079 1.624,-4.21 4.014,-0.642c2.391,3.568 2.06,4.834 -1.629,6.216c-2.547,0.954 -3.997,3.427 -3.222,5.494c2.324,6.203 -0.576,3.835 -6.084,-4.967Zm-75.899,-24.185l-4.4,-7.914l5.645,7.079c3.105,3.894 5.553,7.548 5.44,8.119c-0.476,2.412 -2.549,0.152 -6.685,-7.284Zm95.178,22.091c-1.596,-2.382 -2.579,-5.746 -2.185,-7.476c0.39,-1.731 1.63,-0.5 2.746,2.734c2.191,6.348 10.379,9.584 11.384,4.499c0.337,-1.709 -1.169,-4.229 -3.348,-5.6c-2.179,-1.371 -4.37,-4.85 -4.869,-7.732c-0.725,-4.193 0.243,-3.797 4.846,1.982c8.309,10.434 9.312,13.718 4.734,15.5c-5.831,2.27 -9.987,1.05 -13.308,-3.907l-0,-0Zm-187.372,-54.3c-3.128,-5.301 -3.722,-7.41 -1.322,-4.688c5.305,6.019 11.462,4.356 10.23,-2.763c-0.613,-3.54 1.201,-2.477 5.734,3.364c3.646,4.698 6.357,9.924 6.023,11.614c-0.353,1.786 -1.822,1.259 -3.509,-1.258c-4.168,-6.22 -11.556,-7.021 -10.539,-1.142c1.193,6.891 -0.134,5.863 -6.617,-5.126l-0,-0.001Zm22.379,-1.152c-1.594,-2.935 -1.525,-4.997 0.155,-4.665c1.658,0.327 4.3,2.962 5.872,5.856c1.594,2.934 1.525,4.997 -0.155,4.665c-1.658,-0.327 -4.3,-2.963 -5.872,-5.856Zm10.203,-2.303l-6.099,-6.95l8.641,-0.44c8.69,-0.442 16.303,5.288 15.101,11.367c-0.338,1.711 -2.848,0.112 -5.578,-3.553c-5.704,-7.658 -11.007,-6.257 -6.653,1.758c3.83,7.049 2.063,6.336 -5.412,-2.182l-0,-0Zm75.457,-25.885c-3.88,-6.466 -3.745,-6.819 2.891,-7.567c8.389,-0.946 12.555,4.212 8.547,10.585c-3.783,6.014 -6.437,5.314 -11.438,-3.019l0,0.001Zm10.948,-1.252c0.328,-1.657 -1.438,-3.415 -3.924,-3.906c-2.486,-0.491 -4.788,0.463 -5.115,2.12c-0.327,1.658 1.439,3.415 3.925,3.906c2.485,0.492 4.787,-0.463 5.114,-2.12Zm13.422,1.869l-4.4,-7.914l6.348,7.483c3.492,4.115 6.844,7.947 7.449,8.515c0.605,0.568 -0.271,0.763 -1.948,0.432c-1.677,-0.331 -5.028,-4.163 -7.449,-8.516l0,-0Zm8.517,-2.307c-4.436,-8.166 -0.02,-8.667 4.851,-0.55c2.352,3.919 2.876,6.849 1.165,6.511c-1.711,-0.338 -4.418,-3.021 -6.016,-5.961Zm-606.09,110.541c31.609,-8.046 48.571,-13.899 49.178,-16.969c1.068,-5.408 -36.341,-65.145 -41.382,-66.08c-1.847,-0.342 -17.224,2.959 -34.17,7.337c-16.947,4.378 -31.718,7.782 -32.825,7.563c-2.879,-0.569 -24.382,23.552 -23.925,26.838c0.807,5.799 28.41,51.935 31.556,52.742c1.824,0.467 25.029,-4.676 51.568,-11.431Zm-38.594,-46.529c-2.985,-4.77 -3.902,-9.098 -2.072,-9.784c1.805,-0.676 3.674,1.043 4.155,3.82c0.481,2.777 2.08,4.597 3.554,4.045c1.474,-0.552 2.164,1.609 1.534,4.801c-1.404,7.104 -0.761,7.362 -7.171,-2.882Zm23.064,-3.424c-5.738,-7.089 -6.799,-10.993 -2.719,-10.007c1.232,0.302 4.016,4.369 6.185,9.048c4.688,10.112 4.079,10.281 -3.466,0.959Zm10.977,-2.927c-4.447,-6.638 -4.183,-10.379 0.867,-12.272c4.311,-1.615 16.326,14.04 13.286,17.312c-3.299,3.551 -9.995,1.166 -14.153,-5.04Zm10.513,1.118c0.761,-3.853 -6.767,-12.343 -9.388,-10.586c-2.621,1.755 2.368,11.947 6.221,12.708c1.454,0.287 2.879,-0.667 3.167,-2.122Zm102.308,25.827c23.854,-5.764 44.851,-11.431 46.66,-12.594c1.996,-1.283 2.654,-4.617 1.674,-8.475c-2.345,-9.237 -35.138,-60.59 -39.203,-61.393c-1.894,-0.374 -16.039,2.467 -31.431,6.313c-15.393,3.847 -29.198,6.755 -30.678,6.462c-3.648,-0.72 -26.121,21.463 -27.181,26.832c-1.167,5.907 26.881,51.378 32.36,52.46c2.436,0.481 23.946,-3.841 47.799,-9.605Zm-34.841,-48.484c-4.393,-7.021 -4.467,-8.619 -0.43,-9.318c3.489,-0.604 4.066,0.44 2.031,3.676c-2.007,3.191 -1.452,4.278 1.889,3.7c3.116,-0.54 4.347,1.121 3.607,4.865c-1.376,6.963 -0.75,7.221 -7.097,-2.923Zm22.656,-3.933c-3.312,-4.084 -5.256,-7.938 -4.321,-8.565c0.934,-0.627 4.21,2.874 7.279,7.778c6.677,10.671 5.344,11.025 -2.958,0.787Zm13.274,-3.805c-3.328,-3.996 -4.965,-7.994 -3.636,-8.884c1.328,-0.89 4.773,1.899 7.654,6.199c6.79,10.135 3.833,12.111 -4.018,2.685Zm278.15,-15.41c4.444,-2.902 4.88,-4.638 2.644,-10.52c-1.472,-3.875 -1.865,-7.589 -0.873,-8.254c0.993,-0.665 3.019,1.986 4.503,5.89c3.622,9.532 9.187,10.124 35.426,3.771c12.252,-2.966 31.336,-7.516 42.408,-10.11c23.154,-5.424 26.225,-7.727 23.26,-17.438l-2.15,-7.041l7.386,8.103l7.385,8.104l27.972,-7.45c15.384,-4.097 35.714,-9.203 45.177,-11.345c9.463,-2.142 17.571,-5.74 18.016,-7.995c1.071,-5.421 -8.36,-25.358 -17.899,-37.836c-4.59,-6.006 -6.457,-11.244 -4.685,-13.15c1.868,-2.012 1.509,-2.631 -0.986,-1.696c-2.161,0.809 -5.631,-1.067 -7.71,-4.171c-5.612,-8.375 -10.971,-8.425 -43.609,-0.404c-22.619,5.56 -32.224,9.667 -40.181,17.185c-5.751,5.433 -10.72,11.217 -11.043,12.852c-0.8,4.049 -4.793,2.94 -8.31,-2.309c-3.705,-5.53 -2.846,-10.405 1.175,-6.67c1.818,1.689 2.5,1.358 1.685,-0.817c-1.752,-4.677 -11.682,-3.699 -44.142,4.344c-13.913,3.448 -26.41,6.085 -27.77,5.861c-4.79,-0.79 -28.481,25.234 -26.993,29.651c0.809,2.398 -1.806,-0.162 -5.81,-5.688c-4.004,-5.526 -8.719,-10.332 -10.478,-10.68c-1.759,-0.347 -17.474,2.973 -34.922,7.379c-26.603,6.717 -33.678,9.916 -43.826,19.818l-12.102,11.808l10.453,16.243c5.75,8.933 12.819,19.912 15.709,24.398c2.89,4.486 6.884,9.081 8.874,10.213c4.125,2.344 83.311,-16.753 91.416,-22.046l0,-0Zm-74.347,-32.622c-2.846,-4.547 -4.882,-9.529 -4.525,-11.069c0.352,-1.541 1.562,-0.155 2.678,3.079c2.517,7.293 7.441,8.605 8.684,2.313c0.511,-2.583 2.176,-3.538 3.702,-2.12c1.907,1.771 1.451,3.653 -1.459,6.02c-2.328,1.895 -3.638,5.032 -2.911,6.974c2.246,5.992 -0.745,3.474 -6.169,-5.197l-0,-0Zm29.698,-2.54c-0.696,-1.86 0.17,-3.098 1.924,-2.751c1.755,0.347 2.923,1.986 2.596,3.644c-0.328,1.657 -1.193,2.895 -1.924,2.75c-0.731,-0.144 -1.899,-1.784 -2.596,-3.643Zm89.051,-18.918c7.487,-1.428 5.254,-6.281 -3.704,-8.051c-9.267,-1.831 -13.681,-7.123 -7.784,-9.333c1.89,-0.708 3.153,0.148 2.806,1.903c-0.347,1.755 3.357,3.979 8.231,4.942c4.874,0.963 9.495,3.442 10.27,5.51c1.434,3.826 -5.508,8.02 -10.911,6.591c-1.637,-0.43 -1.145,-1.136 1.091,-1.562l0.001,-0Zm11.184,-13.033c-4.166,-5.058 -6.115,-8.914 -4.331,-8.57c1.784,0.343 5.759,4.644 8.832,9.556c7.051,11.267 5.273,10.877 -4.501,-0.984l0,-0.002Zm77.241,-19.769c-3.127,-5.301 -3.722,-7.411 -1.322,-4.688c4.81,5.456 12.338,4.414 10.157,-1.406c-0.84,-2.243 -0.137,-2.52 1.808,-0.713c2.385,2.216 2.122,3.819 -1.051,6.4c-2.328,1.894 -3.637,5.032 -2.91,6.973c2.429,6.482 -0.933,3.178 -6.682,-6.567l0,0.001Zm22.145,-1.981c-2.862,-5.634 -2.707,-5.669 2.059,-0.48c2.834,3.086 5.642,6.107 6.24,6.712c0.598,0.606 -0.329,0.821 -2.059,0.479c-1.731,-0.342 -4.539,-3.362 -6.24,-6.711Zm11.693,-0.686c-0.786,-4.617 -0.372,-4.895 2.02,-1.353c1.656,2.451 2.101,5.065 0.99,5.809c-1.111,0.745 -2.465,-1.261 -3.01,-4.456Z" style="fill:#fff;fill-rule:nonzero;"/><text x="67.866px" y="2628.53px" style="font-family:'DINAlternate-Bold', 'DIN Alternate', sans-serif;font-weight:700;font-size:622.688px;fill:#fff;">not ok dot computer</text><path d="M2700,182.047l62.335,191.848l201.721,0l-163.196,118.568l62.335,191.848l-163.195,-118.568l-163.195,118.568l62.335,-191.848l-163.196,-118.568l201.721,0l62.335,-191.848Z" style="fill:#fff;"/></g></svg>