<?xml version="1.0" encoding="UTF-8" standalone="no"?><!DOCTYPE svg PUBLIC "-//W3C//DTD SVG 1.1//EN" "http://www.w3.org/Graphics/SVG/1.1/DTD/svg11.dtd"><svg width="100%" height="100%" viewBox="0 0 5400 3000" version="1.1" xmlns="http://www.w3.org/2000/svg" xmlns:xlink="http://www.w3.org/1999/xlink" xml:space="preserve" xmlns:serif="http://www.serif.com/" style="fill-rule:evenodd;clip-rule:evenodd;stroke-linejoin:round;stroke-miterlimit:2;"><g><rect x="0" y="0" width="5400" height="3000" style="fill:none;"/><g><path d="M4581.5,2075.58c-0,-71.718 -58.226,-129.944 -129.944,-129.944l-1265.39,-0c-71.718,-0 -129.944,58.226 -129.944,129.944l0,259.887c0,71.718 58.226,129.944 129.944,129.944l925.151,-0l339.073,222.761l-135.975,-222.761l137.146,-0c71.718,-0 129.944,-58.226 129.944,-129.944l-0,-259.887Z" style="fill:#fff;"/><g><path d="M3296.31,2238.41c-0,8.024 -6.854,18.807 -20.562,32.348c-13.708,13.54 -24.908,21.481 -33.601,23.821c-11.702,3.678 -21.398,5.517 -29.088,5.517c-24.406,-0 -43.129,-8.86 -56.168,-26.58c-12.037,-15.714 -18.055,-36.109 -18.055,-61.184c0,-25.744 5.517,-54.497 16.55,-86.259c13.708,-39.452 30.759,-59.178 51.154,-59.178c9.696,-0 22.568,4.764 38.616,14.293c16.048,9.528 25.075,18.639 27.081,27.332c2.341,10.364 3.511,20.562 3.511,30.592c-0,36.777 -5.517,55.166 -16.55,55.166c-2.675,-0 -5.851,-1.003 -9.529,-3.009c-3.677,-2.006 -5.516,-4.347 -5.516,-7.021c-0,-1.338 0.668,-3.093 2.006,-5.266c1.337,-2.174 2.173,-3.594 2.507,-4.263c1.338,-4.347 2.006,-14.377 2.006,-30.091c0,-37.111 -8.358,-55.667 -25.075,-55.667c-18.389,0 -33.434,16.884 -45.136,50.652c-8.692,26.079 -13.039,50.82 -13.039,74.223c0,18.055 2.842,33.1 8.526,45.136c7.69,15.714 19.559,23.571 35.607,23.571c9.696,-0 21.063,-5.015 34.102,-15.045c11.702,-9.027 20.395,-18.556 26.079,-28.586c1.337,-3.344 3.343,-8.024 6.018,-14.042c1.672,-2.341 4.012,-3.511 7.021,-3.511c2.006,0 4.43,2.257 7.272,6.77c2.842,4.514 4.263,7.941 4.263,10.281Z" style="fill-rule:nonzero;"/><path d="M3480.36,2191.77c-0,28.753 -6.353,53.829 -19.057,75.226c-15.046,25.744 -35.942,38.616 -62.689,38.616c-27.081,0 -47.309,-10.531 -60.682,-31.595c-11.033,-17.385 -16.55,-40.455 -16.55,-69.208c-0,-28.418 6.352,-56.336 19.057,-83.751c16.048,-33.769 36.443,-50.653 61.184,-50.653c6.353,0 15.38,3.678 27.082,11.033c34.436,21.398 51.655,58.175 51.655,110.332Zm-24.073,-0.501c0,-21.398 -2.841,-40.622 -8.525,-57.674c-8.359,-23.738 -21.231,-35.607 -38.616,-35.607c-20.061,0 -35.774,13.207 -47.142,39.619c-8.693,20.395 -13.039,42.294 -13.039,65.698c-0,21.063 3.009,38.783 9.027,53.16c8.693,19.726 22.233,29.589 40.622,29.589c20.06,-0 35.273,-11.368 45.637,-34.103c8.024,-17.72 12.036,-37.947 12.036,-60.682Z" style="fill-rule:nonzero;"/><path d="M3742.65,2293.57c-7.021,4.347 -12.37,6.52 -16.048,6.52c-2.34,-0 -5.684,-1.17 -10.03,-3.511c0.334,-5.349 0.501,-14.376 0.501,-27.081c0.335,-11.702 0.502,-20.729 0.502,-27.082c-0,-102.976 -10.699,-154.464 -32.097,-154.464c-12.705,0 -23.738,16.048 -33.099,48.145c-7.356,25.744 -11.033,47.476 -11.033,65.196l-0,50.151c-0,2.674 0.752,6.436 2.256,11.283c1.505,4.848 2.257,8.442 2.257,10.783c0,2.675 -1.839,5.349 -5.516,8.024c-3.678,2.675 -6.854,4.012 -9.529,4.012c-3.009,0 -6.352,-2.09 -10.03,-6.269c-3.678,-4.179 -5.517,-7.773 -5.517,-10.782l0,-100.803c0,-10.699 -1.839,-24.24 -5.516,-40.622c-4.681,-20.729 -10.365,-31.094 -17.052,-31.094c-3.677,0 -9.194,4.681 -16.549,14.042c-25.076,32.097 -37.613,71.549 -37.613,118.356c-0,5.684 0.668,14.126 2.006,25.326c1.337,11.201 2.006,19.475 2.006,24.825c-0,10.03 -4.18,15.045 -12.538,15.045c-4.012,0 -7.523,-1.672 -10.532,-5.015c-1.337,-1.672 -2.841,-9.194 -4.513,-22.568c-1.672,-12.036 -2.508,-20.227 -2.508,-24.574l0,-118.355c0,-34.103 4.012,-51.154 12.036,-51.154c3.344,-0 6.771,1.588 10.281,4.764c3.511,3.176 5.266,6.436 5.266,9.78c0,7.021 -1.003,16.215 -3.009,27.582c-2.006,14.711 -3.176,23.906 -3.51,27.583l2.507,2.508c6.353,-14.377 12.705,-28.753 19.057,-43.13c9.028,-18.388 19.726,-27.583 32.097,-27.583c17.385,0 32.431,18.723 45.136,56.169c3.343,-4.012 7.522,-12.37 12.537,-25.075c5.015,-12.705 9.529,-21.732 13.541,-27.082c6.352,-8.024 14.209,-12.036 23.571,-12.036c9.027,0 19.057,6.018 30.09,18.055c20.395,21.732 30.592,61.016 30.592,117.854l0,92.277Z" style="fill-rule:nonzero;"/><path d="M3926.2,2167.7c-0,33.099 -4.848,60.849 -14.544,83.25c-13.039,31.093 -33.601,46.64 -61.685,46.64c-18.389,0 -34.437,-8.525 -48.145,-25.577c-2.34,1.003 -3.51,11.368 -3.51,31.094c-0,43.464 2.173,74.223 6.519,92.277c0.334,1.672 1.923,5.684 4.764,12.036c2.842,6.353 4.263,10.198 4.263,11.535c0,5.349 -3.343,8.024 -10.03,8.024c-8.024,0 -13.624,-1.17 -16.8,-3.51c-3.177,-2.341 -5.935,-10.031 -8.275,-23.07c-2.006,-11.033 -3.009,-19.726 -3.009,-26.078l-0,-127.383c-0,-11.702 0.668,-27.416 2.006,-47.142c1.337,-23.069 2.173,-38.783 2.507,-47.141c0.335,-9.028 0.335,-20.729 0,-35.106c-0.334,-18.389 -0.501,-30.258 -0.501,-35.607c-0,-23.069 6.018,-34.604 18.054,-34.604c6.018,-0 9.027,2.173 9.027,6.52c0,8.358 -0.669,20.561 -2.006,36.61c-1.337,16.048 -2.006,28.084 -2.006,36.108l2.006,0c7.69,-10.364 15.38,-20.896 23.069,-31.595c9.028,-11.702 20.228,-17.553 33.601,-17.553c22.401,0 39.285,10.031 50.653,30.091c9.361,16.048 14.042,36.108 14.042,60.181Zm-24.574,2.006c0,-17.72 -1.839,-32.933 -5.517,-45.637c-5.683,-18.723 -14.878,-28.085 -27.582,-28.085c-9.362,0 -20.729,8.191 -34.103,24.574c-11.702,14.377 -19.893,29.087 -24.574,44.133c-3.678,11.367 -6.687,28.084 -9.027,50.15c-1.672,16.049 -2.507,23.738 -2.507,23.07c-0,1.003 1.504,2.675 4.513,5.015c2.006,1.337 4.012,2.842 6.018,4.513c5.35,7.69 10.783,15.464 16.299,23.321c5.517,7.856 13.792,11.785 24.825,11.785c18.388,-0 32.263,-15.045 41.625,-45.136c6.687,-21.397 10.03,-43.965 10.03,-67.703Z" style="fill-rule:nonzero;"/><path d="M4094.71,2103c0,10.365 -1.086,25.828 -3.259,46.39c-2.174,20.562 -3.26,38.365 -3.26,53.41c-0,6.018 0.585,17.469 1.755,34.354c1.17,16.884 1.755,29.003 1.755,36.359c0,14.711 -1.671,23.571 -5.015,26.58c-2.006,1.337 -4.848,2.006 -8.525,2.006c-7.356,-0 -12.371,-3.176 -15.046,-9.529c-1.337,-6.352 -2.674,-12.538 -4.012,-18.556c-9.695,14.377 -26.245,23.404 -49.649,27.082c-8.693,1.337 -18.723,-2.508 -30.09,-11.535c-10.365,-8.024 -17.219,-16.048 -20.562,-24.072c-4.681,-11.033 -7.021,-32.264 -7.021,-63.692l-0,-108.827c-2.006,-10.03 3.677,-15.045 17.051,-15.045c9.361,-0 14.042,5.349 14.042,16.048c0,16.048 -0.501,36.945 -1.504,62.689c-1.003,32.765 -1.505,53.661 -1.505,62.688c-0.334,12.036 2.341,24.072 8.024,36.109c6.687,14.376 15.213,21.564 25.577,21.564c17.051,0 30.258,-11.367 39.619,-34.102c6.687,-17.051 10.03,-35.774 10.03,-56.169l0,-65.697c0,-2.675 -0.919,-6.436 -2.758,-11.284c-1.839,-4.848 -2.758,-8.777 -2.758,-11.786c-0,-1.671 0.167,-3.51 0.501,-5.516c4.681,-4.347 9.362,-6.687 14.043,-7.021c15.045,-1.338 22.567,4.513 22.567,17.552Z" style="fill-rule:nonzero;"/><path d="M4218.08,2132.59c-2.675,2.006 -9.027,3.678 -19.057,5.015c-11.033,1.338 -17.386,2.508 -19.057,3.511c-0.335,3.678 -0.502,22.233 -0.502,55.667c0,26.079 0.334,43.631 1.003,52.658c0,3.678 0.836,9.529 2.508,17.553c1.671,8.024 2.507,14.21 2.507,18.556c0,2.675 -1.671,5.349 -5.015,8.024c-3.343,2.675 -6.352,4.012 -9.027,4.012c-6.687,0 -12.036,-6.854 -16.048,-20.562c-2.675,-10.03 -4.012,-19.558 -4.012,-28.586c-0,-47.141 0.334,-81.912 1.003,-104.313c-2.006,-1.672 -9.696,-1.672 -23.07,-0c-10.698,1.337 -16.048,-2.508 -16.048,-11.535c0,-12.705 13.541,-18.556 40.622,-17.553l6.52,-90.772c-0,-1.003 -0.418,-2.591 -1.254,-4.765c-0.836,-2.173 -1.254,-3.761 -1.254,-4.764c0,-2.006 1.338,-3.928 4.012,-5.767c2.675,-1.839 5.851,-2.591 9.529,-2.257c11.702,1.003 17.553,6.854 17.553,17.553c-0,8.358 -1.17,20.896 -3.511,37.613c-2.34,16.717 -3.51,29.087 -3.51,37.111c-0,4.012 0.334,7.857 1.003,11.535l27.583,-1.505c9.361,0 14.042,3.678 14.042,11.034c-0,5.349 -2.173,9.528 -6.52,12.537Z" style="fill-rule:nonzero;"/><path d="M4378.06,2240.91c0,14.711 -9.863,27.917 -29.589,39.619c-17.72,10.699 -34.437,16.048 -50.151,16.048c-44.801,0 -67.202,-28.419 -67.202,-85.256c0,-25.075 4.514,-51.99 13.541,-80.743c12.036,-37.446 27.416,-56.169 46.139,-56.169c16.048,0 33.601,8.108 52.658,24.323c19.057,16.216 28.586,32.348 28.586,48.396c-0,20.729 -8.358,38.783 -25.075,54.163c-16.717,15.379 -35.607,23.069 -56.671,23.069c-2.006,0 -6.269,-1.672 -12.788,-5.015c-6.52,-3.343 -10.95,-5.015 -13.29,-5.015c-4.347,-0 -6.52,1.337 -6.52,4.012c0,38.449 12.705,57.673 38.115,57.673c13.039,0 25.075,-4.346 36.108,-13.039c6.687,-5.015 14.043,-12.872 22.067,-23.571c6.352,-8.358 10.531,-12.537 12.537,-12.537c7.69,-0 11.535,4.68 11.535,14.042Zm-34.604,-92.278c0,-11.701 -3.343,-22.651 -10.03,-32.848c-6.687,-10.198 -15.547,-15.296 -26.58,-15.296c-13.374,-0 -24.24,8.358 -32.598,25.075c-7.021,14.042 -10.532,28.586 -10.532,43.631c0,9.696 3.093,17.804 9.278,24.323c6.186,6.52 14.126,9.78 23.822,9.78c13.708,-0 25.075,-5.851 34.102,-17.553c8.359,-10.699 12.538,-23.069 12.538,-37.112Z" style="fill-rule:nonzero;"/><path d="M4511.96,2112.03c-0,1.338 -0.168,4.18 -0.502,8.526c-4.346,6.687 -8.526,10.03 -12.538,10.03c-2.674,0 -5.015,-1.671 -7.021,-5.015c-1.003,-21.063 -9.696,-31.595 -26.078,-31.595c-10.699,0 -21.231,19.726 -31.595,59.178c-4.012,14.377 -6.018,33.601 -6.018,57.673c-0,30.76 0.836,49.65 2.507,56.671c0.335,1.003 1.171,3.092 2.508,6.269c1.337,3.176 2.006,5.6 2.006,7.271c-0,7.356 -5.015,11.034 -15.045,11.034c-11.368,-0 -17.052,-5.851 -17.052,-17.553c0,-1.672 0.418,-4.096 1.254,-7.272c0.836,-3.176 1.254,-5.6 1.254,-7.272c-0,-18.388 -0.836,-45.971 -2.508,-82.749c-1.671,-36.777 -2.507,-64.36 -2.507,-82.748c-0,-6.687 1.17,-10.783 3.51,-12.287c2.341,-1.505 6.854,-2.257 13.541,-2.257c8.359,-0 13.207,3.009 14.544,9.027c0.334,6.687 0.669,13.206 1.003,19.559c8.693,-13.374 13.708,-20.896 15.045,-22.568c7.356,-8.358 15.045,-12.538 23.069,-12.538c6.019,0 12.037,1.839 18.055,5.517c3.343,2.006 7.94,7.188 13.791,15.547c5.851,8.358 8.777,14.209 8.777,17.552Z" style="fill-rule:nonzero;"/></g></g><g><path d="M2917.16,1540.67c-0,-147.533 -171.947,-267.311 -383.737,-267.311c-211.789,0 -383.736,119.778 -383.736,267.311c0,87.186 61.038,168.894 163.542,218.923l-48.421,182.043l169.188,-142.784c32.426,6.059 65.854,9.129 99.427,9.129c211.79,-0 383.737,-119.778 383.737,-267.311Z" style="fill:#fff;"/><g><path d="M2462.97,1363.4c-0,7.69 -1.003,17.553 -3.009,29.589c-2.341,15.714 -3.845,25.577 -4.514,29.589c-1.003,10.364 -2.675,44.801 -5.015,103.31c-2.006,53.494 -3.009,83.083 -3.009,88.767c-0,35.774 3.176,61.017 9.529,75.728c-2.341,3.677 -5.35,5.516 -9.028,5.516c-3.343,0 -7.104,-1.671 -11.283,-5.015c-4.18,-3.343 -6.771,-6.686 -7.774,-10.03c0,-6.687 -1.003,-16.884 -3.009,-30.592c-19.726,25.076 -38.616,37.613 -56.67,37.613c-21.732,0 -38.449,-8.191 -50.151,-24.574c-10.03,-14.042 -15.045,-32.598 -15.045,-55.667c-0,-28.084 5.182,-57.172 15.547,-87.262c13.373,-39.452 31.093,-59.178 53.159,-59.178c9.362,-0 18.89,3.51 28.586,10.532c2.006,1.337 9.863,8.358 23.571,21.063c3.344,-22.735 5.015,-72.552 5.015,-149.449c2.341,-2.341 5.517,-3.511 9.529,-3.511c6.352,0 11.869,2.34 16.55,7.021c4.68,4.681 7.021,10.198 7.021,16.55Zm-37.613,185.056c-0,-14.711 -3.344,-27.917 -10.031,-39.619c-8.024,-14.042 -18.89,-21.063 -32.598,-21.063c-16.716,-0 -30.09,17.051 -40.12,51.154c-8.024,25.744 -12.036,49.983 -12.036,72.718c-0,14.711 2.34,27.416 7.021,38.115c6.352,14.042 15.881,21.063 28.586,21.063c20.729,-0 36.443,-16.048 47.141,-48.145c8.025,-23.069 12.037,-47.81 12.037,-74.223Z" style="fill-rule:nonzero;"/><path d="M2647.02,1583.06c-0,28.753 -6.353,53.829 -19.057,75.226c-15.046,25.744 -35.942,38.616 -62.689,38.616c-27.081,0 -47.309,-10.531 -60.682,-31.595c-11.033,-17.385 -16.55,-40.455 -16.55,-69.208c0,-28.418 6.352,-56.336 19.057,-83.751c16.049,-33.769 36.443,-50.653 61.184,-50.653c6.353,0 15.38,3.678 27.082,11.034c34.436,21.397 51.655,58.174 51.655,110.331Zm-24.072,-0.501c-0,-21.398 -2.842,-40.622 -8.526,-57.674c-8.359,-23.738 -21.231,-35.607 -38.616,-35.607c-20.06,0 -35.774,13.207 -47.142,39.619c-8.693,20.395 -13.039,42.294 -13.039,65.698c-0,21.063 3.009,38.783 9.027,53.16c8.693,19.726 22.234,29.589 40.622,29.589c20.06,-0 35.273,-11.368 45.637,-34.103c8.024,-17.72 12.037,-37.947 12.037,-60.682Z" style="fill-rule:nonzero;"/><path d="M2756.35,1523.88c-2.675,2.006 -9.028,3.678 -19.058,5.015c-11.033,1.338 -17.385,2.508 -19.057,3.511c-0.334,3.678 -0.502,22.233 -0.502,55.667c0,26.079 0.335,43.631 1.003,52.659c0,3.677 0.836,9.528 2.508,17.552c1.672,8.024 2.508,14.21 2.508,18.556c-0,2.675 -1.672,5.349 -5.016,8.024c-3.343,2.675 -6.352,4.012 -9.027,4.012c-6.686,0 -12.036,-6.854 -16.048,-20.562c-2.675,-10.03 -4.012,-19.558 -4.012,-28.585c0,-47.142 0.334,-81.913 1.003,-104.314c-2.006,-1.672 -9.696,-1.672 -23.069,-0c-10.699,1.337 -16.049,-2.508 -16.049,-11.535c0,-12.705 13.541,-18.555 40.623,-17.552l6.519,-90.773c0,-1.003 -0.418,-2.591 -1.254,-4.765c-0.835,-2.173 -1.253,-3.761 -1.253,-4.764c-0,-2.006 1.337,-3.928 4.012,-5.767c2.674,-1.839 5.851,-2.591 9.528,-2.257c11.702,1.003 17.553,6.854 17.553,17.553c0,8.358 -1.17,20.896 -3.51,37.613c-2.341,16.717 -3.511,29.087 -3.511,37.111c-0,4.012 0.334,7.857 1.003,11.535l27.583,-1.505c9.361,0 14.042,3.678 14.042,11.034c0,5.349 -2.173,9.528 -6.519,12.537Z" style="fill-rule:nonzero;"/></g></g><g><path d="M1598.31,950.361c0,-39.275 31.887,-71.163 71.163,-71.163l270.003,0c39.276,0 71.163,31.888 71.163,71.163l-0,142.327c-0,39.276 -31.887,71.163 -71.163,71.163l-21.639,-0l92.802,105.505l-195.856,-105.505l-145.31,-0c-39.276,-0 -71.163,-31.887 -71.163,-71.163l0,-142.327Z" style="fill:#ebebeb;"/><g><path d="M1792.1,1054.3c0,16.896 -3.733,31.631 -11.199,44.205c-8.84,15.128 -21.12,22.692 -36.837,22.692c-15.914,0 -27.8,-6.189 -35.659,-18.566c-6.483,-10.216 -9.725,-23.772 -9.725,-40.668c0,-16.7 3.733,-33.105 11.199,-49.215c9.43,-19.843 21.415,-29.765 35.953,-29.765c3.733,0 9.038,2.161 15.914,6.484c20.236,12.573 30.354,34.185 30.354,64.833Zm-14.145,-0.294c-0,-12.574 -1.67,-23.871 -5.01,-33.891c-4.912,-13.949 -12.476,-20.923 -22.692,-20.923c-11.788,-0 -21.022,7.76 -27.702,23.281c-5.108,11.984 -7.662,24.853 -7.662,38.605c-0,12.378 1.768,22.791 5.304,31.239c5.109,11.591 13.065,17.387 23.871,17.387c11.788,-0 20.727,-6.68 26.818,-20.04c4.715,-10.412 7.073,-22.299 7.073,-35.658Z" style="fill-rule:nonzero;"/><path d="M1910.27,1123.85c-4.911,3.93 -8.841,5.894 -11.788,5.894c-4.322,0 -11.788,-6.188 -22.397,-18.566c-13.359,-15.913 -20.432,-24.263 -21.218,-25.049c-2.358,-1.965 -6.483,-6.582 -12.377,-13.851c-5.108,-6.09 -9.627,-10.314 -13.557,-12.672l-5.304,7.073l-0,29.175c-0,1.768 0.638,4.273 1.915,7.515c1.277,3.242 1.916,5.746 1.916,7.515c-0,1.178 -0.835,2.308 -2.505,3.389c-1.67,1.08 -3.193,1.621 -4.568,1.621c-7.858,-0 -11.788,-4.224 -11.788,-12.673l0,-41.257c0,-2.554 0.344,-6.336 1.032,-11.346c0.687,-5.01 1.031,-8.792 1.031,-11.346l0,-81.337c0,-11.592 -0.491,-20.727 -1.473,-27.407c-0,-0.983 -0.492,-3.144 -1.474,-6.484c-0.589,-2.75 -0.884,-5.01 -0.884,-6.778c0,-1.964 1.523,-3.929 4.568,-5.894c3.045,-1.964 5.746,-2.947 8.104,-2.947c1.768,0 3.684,0.541 5.747,1.621c2.063,1.081 3.094,2.407 3.094,3.979c0,0.196 -0.491,2.554 -1.473,7.072c-1.376,5.305 -2.063,15.619 -2.063,30.944l-1.179,85.463l1.473,1.473c6.287,-3.929 14.932,-11.199 25.934,-21.808c6.876,-7.072 13.753,-14.145 20.629,-21.218c11.198,-11.395 17.78,-17.093 19.745,-17.093c2.947,0 5.304,1.327 7.072,3.979c1.769,2.652 2.555,5.452 2.358,8.399l-0.295,1.473c-7.465,4.912 -18.467,13.753 -33.006,26.523c-16.7,14.735 -25.049,24.46 -25.049,29.175c-0,1.769 2.947,6.189 8.841,13.262c9.234,10.806 18.369,21.611 27.407,32.417c12.377,13.556 22.888,22.397 31.532,26.523l0,3.241Z" style="fill-rule:nonzero;"/></g></g><g><path d="M1459.26,410.42c-0,-54.413 -44.177,-98.59 -98.59,-98.59l-443.579,0c-54.413,0 -98.589,44.177 -98.589,98.59l0,197.178c0,54.413 44.176,98.589 98.589,98.589l109.657,0l-80.094,169.011l176.208,-169.011l237.808,0c54.413,0 98.59,-44.176 98.59,-98.589l-0,-197.178Z" style="fill:#ebebeb;"/><g><path d="M1068.42,640.83c-2.006,3.678 -4.848,5.517 -8.526,5.517c-3.677,0 -9.695,-2.34 -18.054,-7.021l0,-4.012c0,-3.009 0.167,-7.523 0.502,-13.541c0.334,-6.018 0.501,-10.364 0.501,-13.039c0,-111 -13.875,-166.5 -41.625,-166.5c-8.693,-0 -18.054,6.352 -28.084,19.057c-25.41,31.428 -38.115,71.047 -38.115,118.857c0,6.352 1.087,15.63 3.26,27.834c2.173,12.203 3.26,21.481 3.26,27.833c-0,5.015 -3.511,7.523 -10.532,7.523c-13.373,-0 -20.06,-10.532 -20.06,-31.595l-0,-113.842c-0,-3.009 0.334,-7.356 1.003,-13.039c0.668,-5.684 1.003,-10.03 1.003,-13.04c-0,-4.346 -0.585,-10.698 -1.755,-19.057c-1.171,-8.358 -1.756,-14.544 -1.756,-18.556c0,-2.674 2.09,-5.767 6.269,-9.277c4.179,-3.511 7.439,-5.266 9.779,-5.266c4.347,-0 8.359,2.34 12.037,7.021c-1.003,21.732 -1.505,34.437 -1.505,38.114c0,5.015 0.167,9.863 0.502,14.544c3.009,-1.003 7.021,-6.52 12.036,-16.55c6.352,-12.705 11.702,-21.397 16.048,-26.078c8.024,-9.362 17.218,-14.042 27.583,-14.042c4.012,-0 10.03,1.504 18.054,4.513c18.055,6.687 30.927,17.72 38.616,33.1c13.04,26.413 19.559,61.351 19.559,104.815l0,75.727Z" style="fill-rule:nonzero;"/><path d="M1252.47,539.526c0,28.753 -6.352,53.828 -19.057,75.226c-15.045,25.744 -35.941,38.616 -62.688,38.616c-27.082,0 -47.309,-10.532 -60.683,-31.595c-11.033,-17.385 -16.55,-40.455 -16.55,-69.208c0,-28.419 6.353,-56.336 19.058,-83.752c16.048,-33.768 36.443,-50.652 61.184,-50.652c6.352,0 15.379,3.678 27.081,11.033c34.437,21.398 51.655,58.175 51.655,110.332Zm-24.072,-0.502c-0,-21.397 -2.842,-40.622 -8.526,-57.673c-8.358,-23.738 -21.23,-35.607 -38.616,-35.607c-20.06,0 -35.774,13.206 -47.141,39.619c-8.693,20.395 -13.04,42.294 -13.04,65.698c0,21.063 3.009,38.783 9.028,53.159c8.692,19.726 22.233,29.589 40.622,29.589c20.06,0 35.272,-11.367 45.637,-34.102c8.024,-17.72 12.036,-37.948 12.036,-60.683Z" style="fill-rule:nonzero;"/><path d="M1361.8,480.348c-2.675,2.006 -9.027,3.678 -19.057,5.015c-11.034,1.338 -17.386,2.508 -19.058,3.511c-0.334,3.677 -0.501,22.233 -0.501,55.667c-0,26.078 0.334,43.631 1.003,52.658c-0,3.678 0.836,9.529 2.507,17.553c1.672,8.024 2.508,14.209 2.508,18.556c-0,2.675 -1.672,5.349 -5.015,8.024c-3.344,2.675 -6.353,4.012 -9.027,4.012c-6.687,0 -12.036,-6.854 -16.048,-20.562c-2.675,-10.03 -4.013,-19.559 -4.013,-28.586c0,-47.141 0.335,-81.913 1.003,-104.313c-2.006,-1.672 -9.695,-1.672 -23.069,-0c-10.699,1.337 -16.048,-2.508 -16.048,-11.535c-0,-12.705 13.541,-18.556 40.622,-17.553l6.52,-90.773c-0,-1.003 -0.418,-2.591 -1.254,-4.764c-0.836,-2.173 -1.254,-3.761 -1.254,-4.764c0,-2.006 1.337,-3.929 4.012,-5.767c2.675,-1.839 5.851,-2.592 9.529,-2.257c11.702,1.003 17.553,6.854 17.553,17.552c-0,8.359 -1.171,20.897 -3.511,37.614c-2.34,16.716 -3.511,29.087 -3.511,37.111c0,4.012 0.335,7.857 1.003,11.535l27.583,-1.505c9.362,0 14.043,3.678 14.043,11.033c-0,5.35 -2.174,9.529 -6.52,12.538Z" style="fill-rule:nonzero;"/></g></g></g></svg>