<?xml version="1.0" encoding="UTF-8" standalone="no"?><!DOCTYPE svg PUBLIC "-//W3C//DTD SVG 1.1//EN" "http://www.w3.org/Graphics/SVG/1.1/DTD/svg11.dtd"><svg width="100%" height="100%" viewBox="0 0 5400 3000" version="1.1" xmlns="http://www.w3.org/2000/svg" xmlns:xlink="http://www.w3.org/1999/xlink" xml:space="preserve" xmlns:serif="http://www.serif.com/" style="fill-rule:evenodd;clip-rule:evenodd;stroke-linejoin:round;stroke-miterlimit:2;"><g><rect x="0" y="0" width="5400" height="3000" style="fill:none;"/><g><path id="path3548" d="M4053.16,450.213c0,-0 10.777,-7.979 15.54,-11.447c5.218,-3.819 9.845,-12.803 9.576,-19.205c-0.377,-10.06 -11.405,-20.658 -17.269,-28.835c-8.822,-12.265 -23.186,-26.629 -32.654,-38.41c-7.747,-9.63 -18.99,-21.896 -25.015,-32.655c-4.735,-8.661 -10.06,-21.034 -11.513,-30.771c-1.237,-8.554 4.188,-19.415 2.735,-27.915l-0.044,-0.032l5.002,-33.543c8.123,-47.879 -51.806,-70.15 -80.695,-90.27c-19.312,-13.449 -84.083,-30.933 -107.592,-30.772c-33.031,0.269 -70.258,21.142 -88.388,36.528c-48.47,41.208 -92.045,90.647 -126.798,136.428c-28.727,37.765 -63.265,93.875 -86.451,136.374c-34.107,62.511 -71.119,149.984 -88.387,219.059c-20.174,80.64 -22.864,190.654 -26.898,272.801c-1.561,32.224 4.142,83.277 -0,115.286c-5.81,44.92 -16.946,93.068 -23.079,136.428c-2.636,18.936 -22.541,42.23 -36.474,38.41c-50.569,-13.772 -139.817,-41.907 -201.737,-44.167c-48.901,-1.829 -124,-3.389 -176.775,1.883c-70.042,7.047 -162.68,25.5 -230.571,44.221c-25.984,7.155 -59.553,20.496 -84.514,30.718c-86.827,35.667 -203.566,99.254 -292.061,130.671c-87.473,31.041 -146.003,53.796 -292.007,76.821c-146.003,23.079 -208.514,93.014 -295.88,113.403c-53.42,12.427 -134.007,0.215 -222.878,-1.937c-31.783,-0.807 -126.449,26.092 -134.491,46.104c24.305,25.446 146.019,48.04 146.019,48.04c0,0 -153.771,-18.721 -192.128,24.962c-19.781,22.54 -49.955,36.527 -28.824,86.45c18.941,44.759 174.386,8.339 232.481,44.221c-3.502,34.215 5.67,34.968 19.227,38.411c61.704,15.708 154.503,59.176 213.249,97.963c55.195,36.42 117.007,102.106 171.018,140.301c79.135,56.002 195.12,114.156 284.314,149.823c78.375,31.32 179.303,61.221 260.674,88.684c0,-0 -8.476,41.288 -19.343,53.876c-11.082,12.912 -34.591,19.636 -48.417,29.588c-11.136,8.07 -41.1,17.323 -34.967,29.588c8.123,16.301 44.22,-23.831 59.176,-13.449c10.006,6.994 7.639,28.351 5.379,40.348c-3.389,18.129 -24.262,36.151 -29.588,53.796c-11.243,37.227 -24.423,92.745 -10.759,129.111c11.459,30.449 78.005,75.315 78.005,75.315c-0,0 4.949,-15.923 10.759,-18.828c10.921,-5.38 71.173,-24.585 83.384,-24.209c67.138,2.044 113.08,14.525 180.218,13.449c20.174,-0.322 67.246,2.69 67.246,2.69c-0,0 -41.531,-22.702 -43.037,-40.347c-2.851,-33.3 67.245,-88.764 67.245,-88.764c0,-0 -115.285,24.316 -164.079,16.139c-21.034,-3.497 -64.555,-29.588 -64.555,-29.588c9.844,-0 -47.234,-35.614 -64.556,-61.866c-7.209,-10.867 12.857,-27.705 16.139,-40.347c7.962,-30.718 11.261,-91.516 11.261,-91.516c32.105,10.941 64.791,20.971 93.265,26.207c52.944,9.754 110.163,10.68 168.268,6.531c45.727,37.658 36.32,20.367 49.984,34.569c5.678,5.908 9.514,15.54 14.036,24.034l18.242,78.179c0,0 34.107,62.458 43.037,91.454c9.146,29.696 18.506,63.319 16.139,102.213c-0.861,14.095 -38.142,10.275 -40.347,24.209c-1.345,8.5 10.275,21.249 18.829,21.518c7.961,0.269 11.135,-20.873 18.828,-18.828c12.104,3.281 16.785,30.287 10.76,40.347c-11.674,19.636 51.59,34.214 64.555,40.347c44.059,20.819 84.245,13.449 131.801,24.209c48.471,11.028 111.413,32.385 161.39,37.657c27.49,2.905 66.169,21.25 88.764,5.38c10.329,-7.263 18.452,-25.016 18.828,-37.658c0.538,-18.398 -28.512,-38.572 -24.208,-56.486c2.959,-12.266 34.914,-14.579 32.278,-26.898c-5.111,-23.724 -67.192,-16.085 -91.454,-16.139c-31.632,-0.054 -41.907,-2.69 -75.315,-16.139c-16.408,-6.617 -57.724,-62.619 -75.315,-64.556c-31.955,-3.497 -75.96,44.544 -107.593,32.278c-24.262,-9.36 -33.246,-37.066 -45.727,-61.866c-11.835,-23.455 -36.904,-57.078 -37.657,-83.384c-0.538,-19.152 15.117,-42.715 16.139,-61.866c0.861,-16.3 -8.065,-53.901 -8.065,-53.901l-0.035,-0.07c3.383,-8.76 5.588,-16.499 8.1,-24.034c5.541,-16.515 7.029,-40.255 13.449,-56.486c4.002,-10.118 4.643,-11.84 4.643,-11.84c-0,-0 24.255,-4.929 36.081,-7.365c71.441,-14.687 190.385,-57.832 253.596,-94.144c130.402,-74.831 253.758,-221.48 374.692,-326.598c64.717,-56.325 125.614,-170.965 144.067,-259.406c28.888,-138.149 1.667,-213.895 -11.513,-295.88c-11.943,-74.132 -49.385,-149.447 -74.938,-213.249c-22.971,-57.455 -67.784,-130.026 -84.514,-190.224c-14.956,-53.689 -9.415,-133.308 -0,-188.288c8.715,-50.784 21.195,-101.406 46.103,-142.184c24.639,-40.347 29.319,-62.565 67.246,-96.026c23.509,-20.766 115.285,-80.695 115.285,-80.695l2.709,-15.562c-0,-0 23.002,-0.374 35.702,0.176c13.256,0.531 46.619,22.358 53.642,11.447Z" style="fill:#585858;"/><path id="path35481" serif:id="path3548" d="M2936.98,2449.31c34.209,13.981 58.572,12.923 58.572,12.923l0.18,-0.016c0.18,-0.025 60.102,-8.196 60.102,-8.196l14.921,-4.813c2.571,12.085 6.762,33.927 6.16,45.336c-1.022,19.151 -16.677,42.714 -16.139,61.866c0.753,26.306 25.822,59.929 37.657,83.384c12.481,24.8 21.465,52.506 45.727,61.866c31.633,12.266 75.638,-35.775 107.593,-32.278c7.008,0.772 17.782,10.125 29.248,21.519c-0.006,0.002 -32.585,11.082 -45.387,16.139c-23.563,9.306 -72.571,21.464 -78.005,32.278l-5.379,10.759c-0,-0 39.217,11.136 56.486,13.449c24.8,3.335 58.369,1.937 83.384,2.69c29.857,0.914 69.667,3.55 99.524,2.69c28.325,-0.807 93.795,-12.987 93.913,-13.008c4.362,2.502 7.339,5.855 8.3,10.318c2.636,12.319 -29.319,14.632 -32.278,26.898c-1.428,5.944 0.816,12.137 4.432,18.429l-0,-0c-18.215,-24.855 -73.184,-10.951 -103.955,-13.049c-26.576,-1.776 -88.764,-2.69 -88.764,-2.69l-94.144,5.379l37.657,26.899c0,-0 62.081,17.214 88.764,24.208c32.171,8.446 74.508,23.509 107.593,26.898c20.066,2.098 50.445,17.05 63.846,-3.141c-2.891,4.613 -6.327,8.593 -10.049,11.211c-22.595,15.87 -61.274,-2.475 -88.764,-5.38c-49.977,-5.272 -112.919,-26.629 -161.39,-37.657c-47.556,-10.76 -87.742,-3.39 -131.801,-24.209c-12.965,-6.133 -76.229,-20.711 -64.555,-40.347c6.025,-10.06 1.344,-37.066 -10.76,-40.347c-7.693,-2.045 -10.867,19.097 -18.828,18.828c-8.554,-0.269 -20.174,-13.018 -18.829,-21.518c2.205,-13.934 39.486,-10.114 40.347,-24.209c2.367,-38.894 -6.993,-72.517 -16.139,-102.213c-8.93,-28.996 -43.037,-91.454 -43.037,-91.454l-16.203,-69.442Zm-436.937,-99.824l-0,-0c-0,-0 27.403,24.527 45.035,31.024c18.153,6.689 61.092,7.9 61.178,7.902c-1.821,17.942 -4.487,38.285 -8.129,52.336c-3.282,12.642 -23.348,29.48 -16.139,40.347c17.322,26.252 74.4,61.866 64.556,61.866c-0,-0 43.521,26.091 64.555,29.588c48.794,8.177 164.079,-16.139 164.079,-16.139c0,-0 -34.426,27.239 -54.043,54.998l0.006,-0.009c11.554,-16.444 26.183,-30.055 26.183,-30.055c-0,0 -73.552,11.432 -114.706,10.033c-30.019,-1.022 -66.923,-25.015 -94.144,-37.657c-21.249,-9.845 -72.625,-34.968 -72.625,-34.968c-0,0 44.274,48.955 59.176,69.936c8.984,12.642 35.775,25.983 48.417,34.967c35.559,25.285 154.99,47.112 154.99,47.112c-0,0 -3.659,-2.58 -7.893,-6.569c12.711,11.637 30.431,21.323 30.431,21.323c-0,0 -47.072,-3.012 -67.246,-2.69c-12.111,0.194 -23.533,-0.053 -34.52,-0.6c-0.159,-0.059 -88.544,-32.662 -124.179,-50.506c-24.639,-12.32 -60.467,-27.167 -78.005,-48.417c-18.721,-22.648 -34.967,-91.454 -34.967,-91.454c-0,0 -14.633,88.549 -10.76,126.422c2.314,22.594 21.451,74.144 21.451,74.144l0,-0c-1.053,0.439 -1.935,0.832 -2.622,1.171c-5.81,2.905 -10.759,18.828 -10.759,18.828c-0,0 -66.546,-44.866 -78.005,-75.315c-13.664,-36.366 -0.484,-91.884 10.759,-129.111c5.326,-17.645 26.199,-35.667 29.588,-53.796c2.26,-11.997 4.627,-33.354 -5.379,-40.348c-14.956,-10.382 -51.053,29.75 -59.176,13.449c-6.133,-12.265 23.831,-21.518 34.967,-29.588c13.826,-9.952 37.335,-16.676 48.417,-29.588c3.482,-4.033 6.718,-11.012 9.509,-18.636Z" style="fill:#ff6e00;"/><path id="path35482" serif:id="path3548" d="M3952.44,459.859l-2.905,1.911c-0.859,-0.018 -44.502,-14.761 -44.502,-14.761c-25.071,-4.619 -84.596,-24.091 -91.511,-26.398c-0.573,-0.107 -1.366,-0.383 -2.285,-1.05c-0.497,-0.361 -2.449,-1.515 -3.749,-6.892c-1.336,-5.526 -0.237,-23.975 2.135,-55.007l0.063,-0.826l-3.549,-5.044c0,-0 39.69,-41.488 39.691,-41.49c1.675,-5.622 6.535,-31.163 19.95,-86.466l0.589,-2.427l2.234,-1.117c-0,0 24.077,-14.539 30.308,-14.354l0.016,0.001c8.201,0.295 18.173,6.372 25.43,10.265l0,0.001c6.311,3.387 18.71,12.22 22.514,14.958c3.714,0.454 14.113,1.671 19.129,1.671l0.021,-0c3.902,0.03 8.873,-1.928 13.45,-2.689c4.638,-0.771 8.959,-0.475 12.362,1.577c2.348,1.411 3.187,14.151 4.495,17.122l3.198,-21.444c8.123,-47.879 -51.806,-70.15 -80.695,-90.27c-19.312,-13.449 -84.083,-30.933 -107.592,-30.772c-33.031,0.269 -70.258,21.142 -88.388,36.528c-48.47,41.208 -92.045,90.647 -126.798,136.428c-28.727,37.765 -63.265,93.875 -86.451,136.374c-34.107,62.511 -71.119,149.984 -88.387,219.059c-20.174,80.64 -22.864,190.654 -26.898,272.801c-1.561,32.224 4.142,83.277 -0,115.286c-5.81,44.92 -16.946,93.068 -23.079,136.428c-2.636,18.936 -22.541,42.23 -36.474,38.41c-50.569,-13.772 -139.817,-41.907 -201.737,-44.167c-48.901,-1.829 -124,-3.389 -176.775,1.883c-70.042,7.047 -162.68,25.5 -230.571,44.221c-25.984,7.155 -59.553,20.496 -84.514,30.718c-86.827,35.667 -203.566,99.254 -292.061,130.671c-87.473,31.041 -146.003,53.796 -292.007,76.821c-146.003,23.079 -208.514,93.014 -295.88,113.403c-53.42,12.427 -134.007,0.215 -222.878,-1.937c-31.783,-0.807 -126.449,26.092 -134.491,46.104c24.305,25.446 146.019,48.04 146.019,48.04c0,0 -153.771,-18.721 -192.128,24.962c-19.781,22.54 -49.955,36.527 -28.824,86.45c18.941,44.759 174.386,8.339 232.481,44.221c-3.502,34.215 5.67,34.968 19.227,38.411c61.704,15.708 154.503,59.176 213.249,97.963c55.195,36.42 117.007,102.106 171.018,140.301c79.135,56.002 195.12,114.156 284.314,149.823c78.375,31.32 179.303,61.221 260.674,88.684l-1.888,8.293c-0,-0 30.064,23.835 45.909,29.673c16.618,6.123 54.54,10.631 54.589,10.632c1.125,-13.483 0.901,-13.612 0.901,-13.612c32.105,10.941 64.791,20.971 93.265,26.207c52.944,9.754 110.163,10.68 168.268,6.531c45.727,37.658 53.293,26.974 55.814,31.895l-0.008,-0.016c0,0 64.012,8.943 66.227,8.788c0,0 55.567,-5.449 55.567,-5.449c0,0 1.827,1.025 22.234,-5.777c1.942,-5.695 1.82,-5.242 3.562,-10.468c5.541,-16.515 9.627,-24.659 16.047,-40.89c4.002,-10.118 4.643,-11.84 4.643,-11.84c-0,-0 24.255,-4.929 36.081,-7.365c71.441,-14.687 190.385,-57.832 253.596,-94.144c130.402,-74.831 253.758,-221.48 374.692,-326.598c64.717,-56.325 125.614,-170.965 144.067,-259.406c28.888,-138.149 1.667,-213.895 -11.513,-295.88c-11.943,-74.132 -49.385,-149.447 -74.938,-213.249c-22.971,-57.455 -67.784,-130.026 -84.514,-190.224c-14.956,-53.689 -9.415,-133.308 -0,-188.288c8.715,-50.784 21.195,-101.406 46.103,-142.184c24.639,-40.347 29.319,-62.565 67.246,-96.026c19.087,-16.86 83.174,-59.535 106.612,-74.988Z" style="fill:#fff;"/><path id="path35483" serif:id="path3548" d="M2358.09,1780.52c-1.521,1.047 -2.932,2.331 -4.516,3.526c-5.599,4.226 -11.938,8.455 -21.148,10.741c-7.271,1.828 -12.33,6.093 -18.017,10.076c-8.383,5.872 -17.539,11.583 -31.042,14.277c-1.812,0.362 -1.735,1.065 -2.984,1.778c-3.212,1.831 -9.347,4.683 -25.98,8.841c-14.165,3.541 -36.18,11.915 -52.033,18.256c-8.081,3.256 -17.415,4.925 -26.616,7.077c-6.683,1.562 -13.351,3.292 -18.757,7.346c-11.127,8.346 -32.966,24.809 -50.543,29.189c-18.79,4.685 -44.147,11.701 -61.806,20.504l-64.544,32.272c-2.919,1.459 -6.118,1.756 -9.068,1.066c22.412,12.071 58.003,19.141 79.737,31.757c35.197,20.416 84.975,42.399 122.302,58.457l0.004,0.002c60.955,26.267 125.934,72.026 190.499,82.46l0.009,0.001c23.202,3.781 58.058,4.471 82.868,2.555c13.007,-1.018 29.807,-6.819 42.84,-8.052l0.027,-0.003c8.373,-0.758 18.451,-1.447 28.27,-1.421c5.569,-2.476 14.49,-6.377 23.708,-10.137c9.049,-9.274 24.28,-19.512 34.663,-24.728l0.011,-0.006c11.61,-5.805 16.345,-6.561 23.403,-13.62c9.724,-9.723 23.299,-16.456 33.095,-21.353l0.011,-0.006c11.332,-5.639 16.915,-11.12 26.874,-16.127l0.024,-0.012c10.191,-5.071 18.499,-16.796 23.399,-21.696l1.492,-1.566c-3.637,-1.074 -7.368,-2.158 -10.938,-3.409c-2.209,-0.775 -4.364,-1.61 -6.437,-2.517c-2.516,1.535 -5.407,3.077 -8.97,4.847c-12.375,6.186 -19.629,7.162 -28.771,16.303c-5.831,5.832 -11.89,9.674 -17.823,13.252c-4.138,2.494 -8.223,4.751 -11.785,8.287c-7.069,7.07 -19.264,19.838 -33.043,26.698c-13.183,6.618 -19.267,15.009 -32.283,21.521c-7.802,3.922 -36.936,16.905 -38.162,17.451c-5.27,4.082 -12.888,3.703 -17.725,-1.134c-5.248,-5.249 -5.248,-13.772 0,-19.02c0.929,-0.929 3.617,-2.928 7.816,-5.012c8.933,-4.433 28.824,-12.713 36.012,-16.329l0.015,-0.007c13.011,-6.506 19.085,-14.896 32.278,-21.519l0.021,-0.01c11.022,-5.487 20.441,-16.049 26.086,-21.694l0.015,-0.014c4.257,-4.231 8.9,-7.399 13.772,-10.381c5.14,-3.147 10.656,-5.978 15.786,-11.108c11.473,-11.473 20.116,-13.537 35.619,-21.271c-0.276,-0.567 -0.545,-1.142 -0.807,-1.724c-1.13,-2.513 -3.349,-6.94 -3.778,-7.794c-1.099,-0.575 -2.529,-0.568 -3.987,-0.725c-3.865,-0.416 -8.052,-0.405 -12.046,-0.658c-2.682,-0.17 -5.288,-0.481 -7.774,-0.964c-3.615,6.982 -8.773,10.602 -19.247,18.446l-0.004,0.003c-6.544,4.893 -26.174,21.117 -37.061,23.793c-8.443,2.116 -11.1,8.16 -14.996,13.455c-4.924,6.692 -10.57,13.133 -19.917,17.807c-6.693,3.346 -12.638,8.138 -19.553,11.094c-17.075,7.317 -34.119,10.388 -50.383,18.494c-16.579,8.289 -45.376,20.025 -53.827,24.223c-6.647,3.303 -14.726,0.587 -18.028,-6.06c-3.303,-6.648 -0.587,-14.726 6.06,-18.029c8.442,-4.194 37.206,-15.913 53.774,-24.197l0.008,-0.004c16.749,-8.347 34.24,-11.624 51.813,-19.156l0.006,-0.002c6.425,-2.746 11.883,-7.313 18.1,-10.422c8.725,-4.362 11.534,-11.934 16.377,-17.807c5.617,-6.812 12.473,-12.591 24.055,-15.495l0.03,-0.007c2.656,-0.653 5.963,-2.957 9.409,-5.348c7.342,-5.093 14.64,-11.35 18.024,-13.88c7.447,-5.576 10.606,-6.761 12.914,-13.528c-0.95,-1.846 -1.8,-3.809 -2.557,-5.859c-1.369,-3.707 -2.334,-7.811 -3.542,-11.45c-4.205,5.907 -8.223,8.583 -12.925,11.273c-2.744,1.57 -5.939,3.058 -10.053,6.133c-12.149,9.113 -17.531,15.73 -31.607,22.768c-9.853,4.953 -16.477,12.273 -29.59,18.83c-11.036,5.544 -25.623,12.812 -37.681,18.84c-10.168,5.085 -24.691,16.619 -37.721,19.848c-13.315,3.328 -15.087,6.556 -26.835,12.43c-8.983,4.492 -31.814,15.441 -38.347,20.289c-5.96,4.424 -14.391,3.176 -18.815,-2.784c-4.423,-5.96 -3.176,-14.391 2.785,-18.815c7.239,-5.373 32.394,-17.771 42.348,-22.748c14.074,-7.037 16.39,-10.48 32.354,-14.471l0.014,-0.003c11.26,-2.791 23.418,-13.419 32.187,-17.804c12.043,-6.021 26.613,-13.279 37.646,-18.823l0.012,-0.006c13.115,-6.557 19.725,-13.87 29.575,-18.822l0.013,-0.006c12.363,-6.182 16.879,-12.259 27.541,-20.255l0.008,-0.006c4.132,-3.09 7.544,-5.029 10.547,-6.684c3.79,-2.09 6.351,-3.385 9.677,-10.061c1.029,-2.065 2.519,-3.75 4.285,-4.993c-1.555,-1.862 -3.228,-3.477 -5.045,-4.689c-2.986,-1.956 -7.204,-2.324 -11.411,-2.895c-6.639,-0.901 -13.408,-1.604 -18.967,-3.197c-3.26,2.434 -6.75,4.293 -10.342,5.924c-4.224,1.918 -8.804,3.045 -12.287,6.529c-10.345,10.344 -26.076,16.531 -41.151,24.037c-14.253,7.155 -23.025,14.202 -37.659,21.519c-14.494,7.247 -33.763,13.476 -46.331,22.915c-4.406,3.325 -9.661,5.81 -15.274,8.075c-5.665,2.287 -11.869,4.227 -17.044,8.094c-5.143,3.851 -11.198,6.763 -17.48,9.56c-6.535,2.91 -13.508,5.509 -18.71,10.685c-6.56,6.584 -15.654,11.323 -24.966,14.561c-10.475,3.641 -25.053,6.487 -27.12,6.88c-5.7,2.768 -12.748,1.182 -16.66,-4.091c-4.423,-5.961 -3.174,-14.391 2.788,-18.814c1.601,-1.189 6.871,-3.199 14.465,-4.787c9.073,-1.897 24.164,-4.429 32.458,-12.754l0.021,-0.021c6.516,-6.483 14.536,-10.73 22.706,-14.414c5.786,-2.609 11.668,-4.811 16.381,-8.34l0.005,-0.004c6.082,-4.545 13.011,-7.505 19.789,-10.186c4.512,-1.785 8.965,-3.294 12.451,-5.924l0.013,-0.01c13.768,-10.34 34.631,-17.56 50.478,-25.483c14.626,-7.313 23.39,-14.358 37.658,-21.519l0.019,-0.009c12.357,-6.154 25.663,-10.51 34.143,-18.99c2.227,-2.227 4.626,-4.055 7.143,-5.626c-2.191,-0.48 -4.393,-0.977 -6.541,-1.54c-6.397,-1.677 -12.393,-3.888 -17.183,-6.972c-0.886,-0.566 -1.759,-1.189 -2.621,-1.861c-2.241,4.143 -7.862,12.318 -14.435,18.901c-5.795,5.804 -12.447,10.169 -18.107,11.576c-4.554,1.153 -14.157,4.369 -22.256,7.878c-3.97,1.721 -7.642,3.182 -9.193,4.733c-7.269,7.269 -24.061,20.902 -35.773,26.728c-13.803,6.901 -25.044,15.991 -40.4,19.844l-0.001,0.001c-16.584,4.158 -29.461,13.766 -42.968,20.494c-15.515,7.783 -39.828,22.266 -47.812,29.948c-5.348,5.147 -13.869,4.983 -19.016,-0.366c-5.147,-5.348 -4.983,-13.869 0.366,-19.016c9.124,-8.78 36.67,-25.714 54.418,-34.617l0.017,-0.008c15.186,-7.565 29.853,-17.862 48.45,-22.525c13.373,-3.356 22.896,-11.803 34.929,-17.82l0.012,-0.006c9.459,-4.705 22.9,-15.819 28.758,-21.677c2.453,-2.453 7.038,-5.471 12.785,-8.237c10.275,-4.944 24.768,-9.831 31.109,-11.436l0.029,-0.007c1.908,-0.475 3.684,-2.555 5.618,-4.492c4.551,-4.558 8.563,-10.169 9.829,-12.727l2.666,-5.332c0.629,-1.258 1.429,-2.374 2.357,-3.333c-0.747,-0.865 -1.502,-1.676 -2.271,-2.411c-2.444,-2.298 -7.576,-6.235 -10.36,-8.338c-5.709,-1.765 -20.112,-6.388 -29.97,-11.029c-6.24,5.322 -14.34,9.56 -22.412,13.57c-11.587,5.793 -28.602,14.844 -41.004,17.289c-15.667,3.164 -28.049,3.946 -43.402,10.067c-16.245,6.487 -36.144,12.775 -52.762,21.054c-4.78,2.405 -8.944,6.37 -13.668,10.02c-6.839,5.286 -14.445,10.125 -24.073,12.524l-0.003,0c-8.953,2.227 -26.731,9.966 -35.517,16.532c-15.618,11.728 -24.227,13.871 -42.451,18.427c-12.131,3.058 -20.372,7.849 -29.546,12.436c-6.984,3.492 -35.946,14.284 -39.214,15.498c-3.911,2.452 -8.984,2.823 -13.369,0.535c-6.581,-3.433 -9.136,-11.564 -5.702,-18.145c0.505,-0.969 2.288,-4.222 7.208,-6.564c5.617,-2.674 31.734,-11.726 39.048,-15.383c10.838,-5.419 20.672,-10.848 35.018,-14.464l0.013,-0.003c14.04,-3.51 20.815,-4.813 32.856,-13.855l0.012,-0.01c11.201,-8.371 33.771,-18.276 45.147,-21.106c7.143,-1.779 12.244,-6.17 17.162,-10.103c4.987,-3.989 9.807,-7.764 15.038,-10.392l0.02,-0.01c17.269,-8.607 37.922,-15.228 54.811,-21.973l0.004,-0.001c17.025,-6.788 30.681,-7.943 48.075,-11.456l0.031,-0.006c10.453,-2.061 24.527,-10.114 34.261,-14.981l0.016,-0.008c4.669,-2.319 9.48,-4.539 13.522,-7.284c-1.817,-1.969 -3.621,-3.813 -5.425,-5.335c-7.911,-6.603 -21.032,-12.393 -28.096,-19.966l-0.008,-0.009c-1.406,-1.512 -2.832,-3.195 -4.243,-5.001Z" style="fill:#ffece9;"/><path id="path35484" serif:id="path3548" d="M2119.74,1514.06c-1.753,-0.837 -3.715,-1.306 -5.786,-1.306c-3.949,-0 -7.502,1.705 -9.964,4.419c-68.426,13.025 -153.923,23.151 -219.639,27.893l0,0c-50.476,3.645 -144.365,18.471 -195.356,18.067c-18.943,-0.15 -34.188,-1.386 -34.188,-1.386c-7.399,-0.602 -13.894,4.916 -14.495,12.314c-0.602,7.398 4.916,13.893 12.314,14.495c0,0 16.123,1.315 36.156,1.474c51.549,0.409 146.478,-14.451 197.506,-18.135c14.521,-1.048 29.993,-2.356 46.043,-3.899c-7.634,3.453 -11.612,6.311 -13.503,8.329c-3.529,3.767 -4.488,7.417 -4.66,10.434c-2.251,0.522 -4.703,1.057 -7.273,1.57c-13.602,2.715 -25.639,8.139 -37.36,13.51c-9.698,4.445 -19.115,8.904 -29.454,10.619l-0.008,0.002c-30.111,5.036 -44.892,13.485 -72.55,27.514c-3.729,-5.815 -11.364,-7.906 -17.586,-4.627c0,0 -29.202,15.407 -42.172,21.102l-0.018,0.007c-19.562,8.655 -48.506,23.333 -66.413,25.891c-10.113,1.445 -24.8,2.996 -36.869,0.79c-4.362,-0.798 -8.51,-1.678 -10.898,-4.329c0.341,-1.072 1.033,-3.127 1.7,-4.455c3.032,-6.035 7.661,-12.486 11.217,-18.524c4.253,-7.221 6.995,-14.222 7.266,-19.945c0.327,-6.885 -1.902,-12.836 -7.431,-17.63l-0.003,-0.002c-10.71,-9.276 -14.182,-11.476 -18.237,-12.45c-2.124,-0.51 -4.512,-0.71 -8.063,-0.657c-10.151,0.152 -36.733,1.359 -142.42,-23.88c-7.22,-1.724 -14.481,2.738 -16.205,9.958c-1.724,7.219 2.738,14.481 9.957,16.205c92.015,21.973 126.685,24.481 141.814,24.664c3.248,0.039 6.343,0.005 7.969,-0.024l4.928,4.235c-1.361,2.739 -4.195,8.3 -6.477,11.891c-4.824,7.59 -9.653,15.463 -11.725,22.343c-2.43,8.069 -1.729,15.38 2.121,21.513c5.835,9.311 16.553,15.152 29.65,17.546c14.895,2.723 33.028,1.162 45.51,-0.621c3.103,-0.443 6.512,-1.2 10.138,-2.2c2.667,5.67 9.043,8.875 15.362,7.33c1.452,-0.355 4.768,-1.678 9.159,-4.013c11.638,-6.189 35.739,-20.75 47.458,-26.61c14.74,-7.37 30.664,-8.607 45.727,-16.139c29.052,-14.525 42.16,-23.442 71.519,-28.352c12.669,-2.102 24.34,-7.245 36.241,-12.699c9.879,-4.527 19.952,-9.297 31.418,-11.585l0.001,-0c13.923,-2.78 21.388,-4.853 25.029,-6.365c10.896,-4.524 11.103,-11.848 10.914,-15.27c-0.043,-0.775 -0.145,-1.551 -0.324,-2.325c2.677,-1.101 5.759,-2.275 9.041,-3.37l0.005,-0.001c15.141,-5.065 33.989,-3.723 50.128,-7.783c14.382,-3.609 29.89,-2.284 45.134,-2.284c15.763,0 29.373,-2.689 45.727,-2.689c12.229,-0 25.296,-2.548 38.23,-5.782c0.189,-0.047 0.377,-0.098 0.561,-0.153l2.287,0.411c13.707,2.003 31.877,0.85 46.509,0.286c-8.254,3.989 -16.68,7.504 -24.569,9.719l-0.001,0c-15.526,4.362 -30.836,13.957 -45.998,23.523c-12.66,7.987 -25.155,16.042 -37.974,18.907l-0.016,0.004c-15.448,3.493 -33.816,5.382 -50.337,10.017c-3.865,1.073 -7.816,2.156 -11.715,3.292c-20.648,5.77 -47.719,9.28 -69.328,9.28c-26.925,0 -52.038,7.42 -78.907,13.453l-0.005,0.002c-29.935,6.745 -78.025,18.599 -105.781,34.15l-0.006,0.003c-30.178,16.944 -68.849,22.265 -93.481,36.034l-0.014,0.008c-25.833,14.521 -62.87,28.831 -79.612,39.81c-6.207,4.071 -7.941,12.415 -3.87,18.622c4.071,6.207 12.415,7.942 18.622,3.871c16.397,-10.754 52.738,-24.633 78.026,-38.848c24.617,-13.759 63.305,-19.09 93.493,-36.04c25.813,-14.462 70.683,-25.094 98.531,-31.369c24.873,-5.585 48.069,-12.797 73.004,-12.797c23.885,-0 53.812,-3.908 76.624,-10.288l0.072,-0.02c3.89,-1.135 7.761,-2.195 11.579,-3.256l0.017,-0.004c16.088,-4.513 33.97,-6.283 48.984,-9.676c15.582,-3.486 31.056,-12.696 46.446,-22.406c12.893,-8.134 25.718,-16.667 38.92,-20.375c18.28,-5.134 39.31,-16.476 55.481,-25.639c0.351,5.38 0.617,10.54 0.65,14.193c0.059,8.771 -2.87,19.584 -4.001,29.78c-1.047,9.447 -0.696,18.474 2.2,26.031c4.431,11.589 17.11,24.362 28.722,30.442c-5.947,1.816 -12.184,3.695 -19.413,5.496l-0.017,0.004c-14.547,3.666 -32.741,10.635 -45.784,17.156c-12.566,6.283 -28.724,16.95 -42.963,20.497l-0.018,0.005c-7.633,1.923 -18.661,2.222 -28.601,3.41c-8.756,1.047 -16.819,2.805 -22.561,5.676l-0.007,0.003c-18.582,9.315 -34.262,9.336 -55.845,9.336c-20.415,0 -46.726,-0.375 -66.107,6.066l-0.006,0.002c-21.753,7.251 -45.208,16.996 -65.642,21.093c-16.396,3.268 -28.307,11.755 -46.354,16.28l-0.005,0.002c-6.168,1.551 -27.825,10.357 -42.375,15.544c-3.53,1.258 -8.03,2.588 -9.053,2.887c-33.527,0.333 -66.867,19.239 -88.413,24.598c-7.203,1.792 -11.597,9.095 -9.805,16.298c1.792,7.203 9.094,11.597 16.298,9.805c20.222,-5.03 51.353,-23.811 82.828,-23.811c2.433,0 9.021,-1.534 17.176,-4.441c13.72,-4.89 34.09,-13.332 39.901,-14.794c17.557,-4.402 29.101,-12.807 45.075,-15.992l0.008,-0.001c21.424,-4.296 46.059,-14.347 68.853,-21.945c16.879,-5.609 39.842,-4.692 57.621,-4.692c26.297,-0 45.261,-0.84 67.893,-12.186c4.572,-2.285 11.604,-2.863 18.758,-3.559c9.696,-0.944 19.641,-1.661 26.903,-3.488c2,-0.499 4.038,-1.115 6.097,-1.825l-1.944,0.964c-12.431,6.242 -25.712,11.511 -40.337,18.824c-11.421,5.71 -28.156,17.468 -40.284,20.5c-16.254,4.063 -32.283,10.404 -45.79,17.157c-16.674,8.337 -33.349,11.296 -48.41,18.825c-17.486,8.717 -32.713,19.047 -48.424,26.902c-13.747,6.874 -32.057,12.391 -42.974,15.121c-7.201,1.8 -11.586,9.108 -9.785,16.309c1.8,7.201 9.108,11.586 16.309,9.786c12.323,-3.081 32.962,-9.398 48.48,-17.158c15.704,-7.851 30.923,-18.178 48.402,-26.89l0.007,-0.004c15.07,-7.535 31.747,-10.494 48.424,-18.832c11.885,-5.943 25.982,-11.545 40.285,-15.121c13.694,-3.424 32.894,-16.089 45.789,-22.537c14.641,-7.32 27.935,-12.595 40.369,-18.839c15.042,-7.521 30.428,-13.869 45.706,-21.508c13.642,-6.821 28.894,-12.014 39.694,-20.085l0.004,-0.004c8.729,-6.534 20.781,-14.179 30.204,-16.558c3.953,-0.972 8.339,-3.3 12.732,-6.407c3.755,-2.657 7.615,-6.092 11.544,-8.07c5.539,-2.79 8.315,-8.898 7.131,-14.699l0.359,-0.003c5.25,-0.022 13.345,-0.463 21.167,-0.984c-1.738,6.144 -2.841,13.155 -2.405,20.598l-0,0.003c1.668,28.296 7.256,35.753 11.339,48.922l1.397,3.939c-1.569,0.992 -3.105,2.079 -4.643,3.233c-3.789,2.844 -7.587,6.467 -14.045,8.069l-0.021,0.005c-8.907,2.241 -15.863,6.419 -22.706,11.183c-6.951,4.838 -13.704,10.615 -25.083,12.885l-0.003,0c-3.175,0.636 -5.109,1.386 -6.672,2.149c-2.861,1.397 -2.794,3.565 -23.543,8.752c-15.1,3.775 -38.597,12.616 -55.529,19.389l-0.016,0.006c-6.889,2.776 -14.877,4.011 -22.703,5.841c-10.345,2.418 -20.405,5.744 -28.773,12.02c-9.101,6.825 -26.531,21.025 -40.909,24.607l-0.001,0c-20.481,5.107 -48.058,12.938 -67.303,22.532l-64.57,32.285c-6.639,3.32 -9.334,11.405 -6.015,18.044c0.679,1.358 1.557,2.551 2.582,3.561c-18.155,-9.907 -41.331,-21.434 -60.423,-25.429l-0.012,-0.003c-9.834,-2.04 -21.633,-1.291 -33.441,-0.295c-9.126,0.769 -18.256,1.772 -25.871,0.268l-0.013,-0.003c-14.209,-2.779 -30.635,-14.378 -44.465,-18.517l-0.016,-0.004c-19.211,-5.698 -55.094,-31.025 -55.094,-31.025c-6.09,-4.245 -14.48,-2.747 -18.724,3.342c-4.245,6.09 -2.747,14.479 3.342,18.724c-0,0 41.015,28.277 62.812,34.742c14.54,4.351 31.998,16.201 46.957,19.131c9.812,1.936 21.576,1.136 33.333,0.145c9.076,-0.766 18.146,-1.739 25.697,-0.174c18.612,3.898 41.432,16.23 58.069,25.484c22.198,12.386 58.481,19.386 80.48,32.156l0.002,0.001c36.031,20.901 86.96,43.462 125.167,59.898c62.874,27.095 130.232,73.541 196.829,84.306c24.997,4.072 62.54,4.887 89.263,2.823l0.006,-0c13.137,-1.027 30.106,-6.839 43.241,-8.087c5.912,-0.535 12.814,-1.093 19.762,-1.303c3.497,1.7 7.699,1.881 11.504,0.133l0.192,-0.088c3.751,0.169 7.347,0.514 10.621,1.099c6.334,1.161 13.856,5.852 20.039,7.714c5.886,1.776 13.753,2.02 21.208,2.748c1.949,0.19 3.856,0.426 5.611,0.86c0.561,0.139 1.148,0.156 1.615,0.347c0.136,1.282 0.486,5.107 0.065,6.775l-0.008,0.03c-0.877,3.547 -3.679,6.771 -6.467,10.052c-4.399,5.177 -9.293,10.129 -12.739,14.696c-9.025,11.94 -23.984,25.955 -30.723,39.433c-0.396,0.272 -1.863,1.272 -2.71,1.767c-1.614,0.943 -3.236,1.882 -4.757,2.922c-5.037,3.446 -9.052,7.879 -10.964,14.58c-1.941,6.804 -1.672,17.739 7.513,36.108c9.093,18.186 15.128,26.135 20.489,30.086c4.796,3.534 9.487,4.949 15.431,5.468c4.593,0.401 10.543,-0.011 19.891,1.921c30.269,6.256 22.521,13.386 65.471,4.146c7.257,-1.561 11.881,-8.72 10.32,-15.977c-1.562,-7.257 -8.721,-11.881 -15.977,-10.319c-35.702,7.68 -29.209,1.009 -54.37,-4.192c-7.63,-1.577 -13.407,-1.931 -18.077,-2.128c-1.685,-0.071 -3.191,-0.114 -4.571,-0.219c-0.808,-0.061 -1.521,0.118 -2.16,-0.353c-3.523,-2.597 -6.413,-8.511 -12.389,-20.462c-2.929,-5.858 -4.687,-10.356 -5.421,-13.932c-0.152,-0.74 -0.22,-1.69 -0.244,-2.278c1.24,-0.751 4.766,-2.903 6.669,-4.17c4.093,-2.724 7.533,-6.1 9.799,-10.715l0.008,-0.017c5.963,-12.232 20.042,-24.617 28.236,-35.458l0.004,-0.004c3.935,-5.215 9.89,-10.917 14.581,-16.929c4.396,-5.634 7.781,-11.579 9.254,-17.51c1.237,-4.925 1.631,-11.73 0.501,-17.729c-1.014,-5.378 -3.265,-10.12 -6.344,-13.462c-4.811,-5.232 -11.99,-8.271 -20.336,-9.545c-6.53,-0.998 -14.032,-0.627 -19.628,-2.015c4.521,-1.683 8.697,-3.101 12.04,-4.002c11.01,-2.952 26.582,-2.462 37.59,-5.361c20.508,-5.386 48.044,-14.332 65.803,-25.959c15.348,-10.023 29.257,-26.756 43.079,-43.508c5.387,-6.529 10.746,-13.074 16.26,-19.029c4.122,-0.669 7.877,-3.242 9.886,-7.26c0.567,-1.134 0.958,-2.31 1.185,-3.498c3.171,-2.694 6.425,-5.091 9.789,-7.09c23.608,-13.997 61.326,-18.617 87.929,-25.436l0.002,-0c40.132,-10.303 95.035,-18.303 134.841,-29.683c28.522,-8.119 66.14,-20.859 93.234,-32.925c21.536,-9.559 52.587,-20.878 68.837,-37.993l0.002,-0.002c14.14,-14.906 23.641,-42.062 29.944,-61.619l0.004,-0.012c7.007,-21.883 6.644,-53.448 13.485,-75.428c5.429,-17.393 14.391,-40.525 24.996,-55.352l0.001,-0c5.195,-7.264 13.336,-13.887 21.459,-20.555c9.833,-8.071 19.703,-16.14 26.487,-24.553c17.34,-21.438 33.643,-44.915 47.673,-78.586c2.855,-6.851 -0.39,-14.732 -7.242,-17.587c-6.852,-2.855 -14.732,0.39 -17.587,7.242c-12.866,30.877 -27.868,52.371 -43.769,72.029l-0.007,0.009c-5.758,7.142 -14.285,13.812 -22.621,20.655c-10.047,8.247 -19.846,16.714 -26.271,25.697c-12.096,16.911 -22.607,43.16 -28.798,62.993l-0.002,0.005c-6.823,21.923 -6.434,53.405 -13.417,75.215c-5.209,16.163 -12.166,39.017 -23.845,51.331c-14.093,14.84 -41.568,23.638 -60.257,31.933l-0.007,0.003c-26.062,11.606 -62.247,23.826 -89.672,31.632l-0.008,0.002c-39.604,11.323 -94.227,19.247 -134.146,29.495c-28.802,7.382 -69.407,13.198 -94.969,28.356l-0.005,0.003c-4.797,2.85 -9.444,6.343 -13.978,10.295c-9.155,-4.618 -12.684,-6.47 -14.701,-7.518c-0.64,-0.741 -1.37,-1.422 -2.189,-2.027c-2.408,-1.779 -5.215,-2.636 -7.997,-2.631c-5.856,-2.294 -12.772,-4.169 -19.519,-6.299c-1.995,-0.629 -3.983,-1.26 -5.889,-1.957c-0.649,-1.431 -1.561,-2.771 -2.737,-3.946c-2.193,-2.193 -4.957,-3.47 -7.815,-3.83c-0.88,-1.904 -1.703,-3.9 -2.587,-5.801c-2.613,-5.623 -5.977,-10.429 -10.234,-13.403c-5.623,-3.929 -13.388,-5.564 -21.74,-6.012c-3.241,-0.174 -6.579,-0.218 -9.749,-0.484c-2.045,-0.172 -4.081,0.072 -5.416,-1.008l-0.022,-0.017c-1.989,-1.595 -2.433,-4.668 -3.368,-7.562c-2.11,-6.536 -4.012,-13.349 -6.878,-18.294l-0.014,-0.024c-6.467,-11.051 -15.046,-26.941 -25.696,-34.02l-0.023,-0.016c-5.043,-3.321 -11.485,-5.311 -18.433,-6.482c-6.787,-1.144 -14.205,-1.336 -19.784,-3.157l-0.03,-0.009c-5.714,-1.835 -12.683,-5.787 -18.262,-7.872l-0.051,-0.019c-5.666,-2.066 -12.639,-3.43 -19.481,-5.031c-4.707,-1.102 -9.393,-2.18 -12.852,-4.412l-0.029,-0.019c-2.924,-1.866 -5.29,-5.146 -7.752,-8.375c-3.926,-5.148 -7.767,-10.448 -11.746,-14.244l-0.029,-0.028c-4.136,-3.9 -14.673,-11.789 -14.673,-11.789l-1.97,-1.466l-2.36,-0.676c0,0 -22.917,-6.309 -31.328,-11.788l-0.014,-0.009c-6.319,-4.095 -11.742,-12.996 -17.493,-17.839l-0.019,-0.016c-7.17,-5.992 -19.311,-10.848 -25.7,-17.691c-5.183,-5.578 -10.876,-14.458 -13.14,-21.731c-3.551,-11.453 -8.721,-17.876 -10.174,-42.515c-0.841,-14.39 8.044,-26.047 8.044,-26.047l18.362,-24.178l-30.245,2.646c-0,0 -29.345,2.587 -41.921,2.639l-0.017,0c-8.115,0.054 -17.901,1.023 -27.518,1.158c-7.518,0.105 -14.949,-0.118 -20.752,-2.692l-0.018,-0.009c-6.584,-2.896 -14.53,-10.029 -17.08,-16.706l-0.003,-0.008c-2.001,-5.218 -0.935,-11.728 0.064,-18.33c1.483,-9.795 3.572,-19.75 3.514,-28.063l-0,-0.013c-0.068,-7.589 -1.074,-21.338 -1.849,-30.914c2.095,-3.863 2.258,-8.677 0.01,-12.827c-0.38,-0.702 -0.814,-1.357 -1.294,-1.962l-0.814,-8.902l-13.161,0.951c-0,-0 -31.589,2.288 -45.127,2.66l-0.015,0c-13.829,0.41 -32.4,2.131 -46.067,0.139c-3.108,-0.462 -7.78,-1.803 -12.195,-3.218c82.369,-17.362 188.213,-55.858 269.319,-78.1c71.3,-19.513 166.18,-46.706 238.552,-61.664c56.371,-11.583 132.221,-24.083 189.498,-29.368l0.003,0c51.485,-4.772 120.833,-10.315 172.316,-5.384c32.411,3.125 -0.023,0.104 105.924,23.942c7.242,1.629 14.444,-2.927 16.074,-10.169c1.629,-7.242 -2.927,-14.444 -10.169,-16.073c-109.232,-24.577 -75.83,-21.252 -109.255,-24.475l-0.004,0c-52.992,-5.075 -124.372,0.464 -177.361,5.375c-58.168,5.367 -135.202,18.043 -192.448,29.806l-0.007,0.002c-72.883,15.062 -168.434,42.417 -240.23,62.066l-0.003,0.001c-80.786,22.154 -186.232,60.595 -268.194,77.814l-4.898,1.019Zm238.344,266.452c-1.521,1.047 -2.932,2.331 -4.516,3.526c-5.599,4.226 -11.938,8.455 -21.148,10.741c-7.271,1.828 -12.33,6.093 -18.017,10.076c-8.383,5.872 -17.539,11.583 -31.042,14.277c-1.812,0.362 -1.735,1.065 -2.984,1.778c-3.212,1.831 -9.347,4.683 -25.98,8.841c-14.165,3.541 -36.18,11.915 -52.033,18.256c-8.081,3.256 -17.415,4.925 -26.616,7.077c-6.683,1.562 -13.351,3.292 -18.757,7.346c-11.127,8.346 -32.966,24.809 -50.543,29.189c-18.79,4.685 -44.147,11.701 -61.806,20.504l-64.544,32.272c-2.919,1.459 -6.118,1.756 -9.068,1.066c22.412,12.071 58.003,19.141 79.737,31.757c35.197,20.416 84.975,42.399 122.302,58.457l0.004,0.002c60.955,26.267 125.934,72.026 190.499,82.46l0.009,0.001c23.202,3.781 58.058,4.471 82.868,2.555c13.007,-1.018 29.807,-6.819 42.84,-8.052l0.027,-0.003c8.373,-0.758 18.451,-1.447 28.27,-1.421c5.569,-2.476 14.49,-6.377 23.708,-10.137c9.049,-9.274 24.28,-19.512 34.663,-24.728l0.011,-0.006c11.61,-5.805 16.345,-6.561 23.403,-13.62c9.724,-9.723 23.299,-16.456 33.095,-21.353l0.011,-0.006c11.332,-5.639 16.915,-11.12 26.874,-16.127l0.024,-0.012c10.191,-5.071 18.499,-16.796 23.399,-21.696l1.492,-1.566c-3.637,-1.074 -7.368,-2.158 -10.938,-3.409c-2.209,-0.775 -4.364,-1.61 -6.437,-2.517c-2.516,1.535 -5.407,3.077 -8.97,4.847c-12.375,6.186 -19.629,7.162 -28.771,16.303c-5.831,5.832 -11.89,9.674 -17.823,13.252c-4.138,2.494 -8.223,4.751 -11.785,8.287c-7.069,7.07 -19.264,19.838 -33.043,26.698c-13.183,6.618 -19.267,15.009 -32.283,21.521c-7.802,3.922 -36.936,16.905 -38.162,17.451c-5.27,4.082 -12.888,3.703 -17.725,-1.134c-5.248,-5.249 -5.248,-13.772 0,-19.02c0.929,-0.929 3.617,-2.928 7.816,-5.012c8.933,-4.433 28.824,-12.713 36.012,-16.329l0.015,-0.007c13.011,-6.506 19.085,-14.896 32.278,-21.519l0.021,-0.01c11.022,-5.487 20.441,-16.049 26.086,-21.694l0.015,-0.014c4.257,-4.231 8.9,-7.399 13.772,-10.381c5.14,-3.147 10.656,-5.978 15.786,-11.108c11.473,-11.473 20.116,-13.537 35.619,-21.271c-0.276,-0.567 -0.545,-1.142 -0.807,-1.724c-1.13,-2.513 -3.349,-6.94 -3.778,-7.794c-1.099,-0.575 -2.529,-0.568 -3.987,-0.725c-3.865,-0.416 -8.052,-0.405 -12.046,-0.658c-2.682,-0.17 -5.288,-0.481 -7.774,-0.964c-3.615,6.982 -8.773,10.602 -19.247,18.446l-0.004,0.003c-6.544,4.893 -26.174,21.117 -37.061,23.793c-8.443,2.116 -11.1,8.16 -14.996,13.455c-4.924,6.692 -10.57,13.133 -19.917,17.807c-6.693,3.346 -12.638,8.138 -19.553,11.094c-17.075,7.317 -34.119,10.388 -50.383,18.494c-16.579,8.289 -45.376,20.025 -53.827,24.223c-6.647,3.303 -14.726,0.587 -18.028,-6.06c-3.303,-6.648 -0.587,-14.726 6.06,-18.029c8.442,-4.194 37.206,-15.913 53.774,-24.197l0.008,-0.004c16.749,-8.347 34.24,-11.624 51.813,-19.156l0.006,-0.002c6.425,-2.746 11.883,-7.313 18.1,-10.422c8.725,-4.362 11.534,-11.934 16.377,-17.807c5.617,-6.812 12.473,-12.591 24.055,-15.495l0.03,-0.007c2.656,-0.653 5.963,-2.957 9.409,-5.348c7.342,-5.093 14.64,-11.35 18.024,-13.88c7.447,-5.576 10.606,-6.761 12.914,-13.528c-0.95,-1.846 -1.8,-3.809 -2.557,-5.859c-1.369,-3.707 -2.334,-7.811 -3.542,-11.45c-4.205,5.907 -8.223,8.583 -12.925,11.273c-2.744,1.57 -5.939,3.058 -10.053,6.133c-12.149,9.113 -17.531,15.73 -31.607,22.768c-9.853,4.953 -16.477,12.273 -29.59,18.83c-11.036,5.544 -25.623,12.812 -37.681,18.84c-10.168,5.085 -24.691,16.619 -37.721,19.848c-13.315,3.328 -15.087,6.556 -26.835,12.43c-8.983,4.492 -31.814,15.441 -38.347,20.289c-5.96,4.424 -14.391,3.176 -18.815,-2.784c-4.423,-5.96 -3.176,-14.391 2.785,-18.815c7.239,-5.373 32.394,-17.771 42.348,-22.748c14.074,-7.037 16.39,-10.48 32.354,-14.471l0.014,-0.003c11.26,-2.791 23.418,-13.419 32.187,-17.804c12.043,-6.021 26.613,-13.279 37.646,-18.823l0.012,-0.006c13.115,-6.557 19.725,-13.87 29.575,-18.822l0.013,-0.006c12.363,-6.182 16.879,-12.259 27.541,-20.255l0.008,-0.006c4.132,-3.09 7.544,-5.029 10.547,-6.684c3.79,-2.09 6.351,-3.385 9.677,-10.061c1.029,-2.065 2.519,-3.75 4.285,-4.993c-1.555,-1.862 -3.228,-3.477 -5.045,-4.689c-2.986,-1.956 -7.204,-2.324 -11.411,-2.895c-6.639,-0.901 -13.408,-1.604 -18.967,-3.197c-3.26,2.434 -6.75,4.293 -10.342,5.924c-4.224,1.918 -8.804,3.045 -12.287,6.529c-10.345,10.344 -26.076,16.531 -41.151,24.037c-14.253,7.155 -23.025,14.202 -37.659,21.519c-14.494,7.247 -33.763,13.476 -46.331,22.915c-4.406,3.325 -9.661,5.81 -15.274,8.075c-5.665,2.287 -11.869,4.227 -17.044,8.094c-5.143,3.851 -11.198,6.763 -17.48,9.56c-6.535,2.91 -13.508,5.509 -18.71,10.685c-6.56,6.584 -15.654,11.323 -24.966,14.561c-10.475,3.641 -25.053,6.487 -27.12,6.88c-5.7,2.768 -12.748,1.182 -16.66,-4.091c-4.423,-5.961 -3.174,-14.391 2.788,-18.814c1.601,-1.189 6.871,-3.199 14.465,-4.787c9.073,-1.897 24.164,-4.429 32.458,-12.754l0.021,-0.021c6.516,-6.483 14.536,-10.73 22.706,-14.414c5.786,-2.609 11.668,-4.811 16.381,-8.34l0.005,-0.004c6.082,-4.545 13.011,-7.505 19.789,-10.186c4.512,-1.785 8.965,-3.294 12.451,-5.924l0.013,-0.01c13.768,-10.34 34.631,-17.56 50.478,-25.483c14.626,-7.313 23.39,-14.358 37.658,-21.519l0.019,-0.009c12.357,-6.154 25.663,-10.51 34.143,-18.99c2.227,-2.227 4.626,-4.055 7.143,-5.626c-2.191,-0.48 -4.393,-0.977 -6.541,-1.54c-6.397,-1.677 -12.393,-3.888 -17.183,-6.972c-0.886,-0.566 -1.759,-1.189 -2.621,-1.861c-2.241,4.143 -7.862,12.318 -14.435,18.901c-5.795,5.804 -12.447,10.169 -18.107,11.576c-4.554,1.153 -14.157,4.369 -22.256,7.878c-3.97,1.721 -7.642,3.182 -9.193,4.733c-7.269,7.269 -24.061,20.902 -35.773,26.728c-13.803,6.901 -25.044,15.991 -40.4,19.844l-0.001,0.001c-16.584,4.158 -29.461,13.766 -42.968,20.494c-15.515,7.783 -39.828,22.266 -47.812,29.948c-5.348,5.147 -13.869,4.983 -19.016,-0.366c-5.147,-5.348 -4.983,-13.869 0.366,-19.016c9.124,-8.78 36.67,-25.714 54.418,-34.617l0.017,-0.008c15.186,-7.565 29.853,-17.862 48.45,-22.525c13.373,-3.356 22.896,-11.803 34.929,-17.82l0.012,-0.006c9.459,-4.705 22.9,-15.819 28.758,-21.677c2.453,-2.453 7.038,-5.471 12.785,-8.237c10.275,-4.944 24.768,-9.831 31.109,-11.436l0.029,-0.007c1.908,-0.475 3.684,-2.555 5.618,-4.492c4.551,-4.558 8.563,-10.169 9.829,-12.727l2.666,-5.332c0.629,-1.258 1.429,-2.374 2.357,-3.333c-0.747,-0.865 -1.502,-1.676 -2.271,-2.411c-2.444,-2.298 -7.576,-6.235 -10.36,-8.338c-5.709,-1.765 -20.112,-6.388 -29.97,-11.029c-6.24,5.322 -14.34,9.56 -22.412,13.57c-11.587,5.793 -28.602,14.844 -41.004,17.289c-15.667,3.164 -28.049,3.946 -43.402,10.067c-16.245,6.487 -36.144,12.775 -52.762,21.054c-4.78,2.405 -8.944,6.37 -13.668,10.02c-6.839,5.286 -14.445,10.125 -24.073,12.524l-0.003,0c-8.953,2.227 -26.731,9.966 -35.517,16.532c-15.618,11.728 -24.227,13.871 -42.451,18.427c-12.131,3.058 -20.372,7.849 -29.546,12.436c-6.984,3.492 -35.946,14.284 -39.214,15.498c-3.911,2.452 -8.984,2.823 -13.369,0.535c-6.581,-3.433 -9.136,-11.564 -5.702,-18.145c0.505,-0.969 2.288,-4.222 7.208,-6.564c5.617,-2.674 31.734,-11.726 39.048,-15.383c10.838,-5.419 20.672,-10.848 35.018,-14.464l0.013,-0.003c14.04,-3.51 20.815,-4.813 32.856,-13.855l0.012,-0.01c11.201,-8.371 33.771,-18.276 45.147,-21.106c7.143,-1.779 12.244,-6.17 17.162,-10.103c4.987,-3.989 9.807,-7.764 15.038,-10.392l0.02,-0.01c17.269,-8.607 37.922,-15.228 54.811,-21.973l0.004,-0.001c17.025,-6.788 30.681,-7.943 48.075,-11.456l0.031,-0.006c10.453,-2.061 24.527,-10.114 34.261,-14.981l0.016,-0.008c4.669,-2.319 9.48,-4.539 13.522,-7.284c-1.817,-1.969 -3.621,-3.813 -5.425,-5.335c-7.911,-6.603 -21.032,-12.393 -28.096,-19.966l-0.008,-0.009c-1.406,-1.512 -2.832,-3.195 -4.243,-5.001Z" style="fill:#b6b6b6;"/><path id="path35485" serif:id="path3548" d="M3769.54,160.316c13.45,-5.057 1.507,-5.487 12.912,-4.788c17.537,1.076 14.578,-1.076 18.344,3.443c3.174,3.874 7.693,9.361 8.823,14.256c1.398,5.972 0.645,14.848 -2.045,20.335c-3.066,6.402 -10.49,13.557 -16.999,16.354c-5.434,2.26 -14.149,2.69 -19.69,0.646c-4.895,-1.775 -8.768,-9.952 -10.167,-14.955c-6.133,-21.734 8.822,-35.291 8.822,-35.291Z"/><path id="path35486" serif:id="path3548" d="M3829.36,368.63c-0.988,17.018 -0.645,26.883 0.082,32.597c0.242,1.9 0.594,3.374 0.839,4.255c10.454,3.476 60.242,19.84 83.757,24.173c13.978,2.541 48.984,8.918 49.781,8.935c-0,-0 23.002,-0.374 35.702,0.176c10.271,0.411 44.309,23.721 56.515,12.949c-13.192,-2.068 -41.3,-17.451 -53.207,-23.544c-13.357,-6.814 -31.361,-15.685 -44.395,-23.148l-0.002,-0.002c-5.785,-3.321 -11.959,-8.433 -18.29,-13.138c-3.75,-2.786 -7.54,-5.452 -11.356,-7.321c-7.478,-1.643 -15.779,-1.344 -23.756,-1.435c-1.426,0.257 -2.862,0.532 -4.299,0.806c-9.417,1.798 -18.882,3.666 -26.838,2.542l-0.013,-0.002c-13.6,-1.991 -31.511,-8.457 -42.664,-16.309c-0.578,-0.407 -1.203,-0.929 -1.856,-1.534Zm8.684,-17.677c1.019,1.369 9.405,4.667 14.162,5.883c12.656,3.174 32.457,4.194 45.377,5.624l0.004,0c2.414,0.271 4.906,0.422 7.443,0.516c7.87,-1.321 15.528,-2.013 22.085,-0.392l0.002,0.001c2.195,0.544 4.4,1.36 6.602,2.383c1.908,0.441 3.764,0.995 5.554,1.693c18.617,7.178 45.773,27.906 64.068,35.842c8.392,3.598 18.647,7.22 27.556,13.185c8.635,5.78 12.57,9.882 18.417,12.483c-0,-0 10.607,1.599 11.696,6.031c0.711,2.892 8.615,4.532 7.693,4.564c5.916,-0.189 -3.987,2.904 0,0c5.218,-3.819 9.845,-12.803 9.576,-19.205c-0.377,-10.06 -11.405,-20.658 -17.269,-28.835c-8.822,-12.265 -23.186,-26.629 -32.654,-38.41c-7.747,-9.63 -18.99,-21.896 -25.015,-32.655c-4.735,-8.661 -10.06,-21.034 -11.513,-30.771c-0.75,-5.189 0.951,-11.227 2.081,-17.072c-0.335,-1.934 -6.202,-15.216 -6.978,-17.467c-0.429,-1.243 -0.767,-2.525 -1.696,-3.082l-0.006,-0.004c-0.671,-0.405 -1.482,-0.45 -2.336,-0.445c-1.544,0.01 -3.202,0.323 -4.888,0.7c-4.563,1.019 -9.277,2.425 -13.09,2.402c-6.56,-0.003 -21.806,-1.926 -21.806,-1.926l-1.373,-0.175l-1.118,-0.815c-0,-0 -15.278,-11.17 -22.398,-14.992c-5.974,-3.205 -8.715,-4.04 -15.477,-4.292c-1.665,-0.041 -4.07,0.785 -6.4,1.634c-2.295,0.836 -4.503,1.796 -6.062,2.507c-15.037,61.815 -21.683,82.596 -21.683,82.596l-0.371,1.202c0,0 -30.183,31.292 -30.183,31.292Z" style="fill:#ff6e00;"/></g><g><path d="M2062.36,675.65c0,-22.849 -1.248,-39.649 -3.744,-50.401c1.536,-2.88 -0.768,-4.32 -6.912,-4.32c-6.528,-0 -14.976,1.632 -25.345,4.896c-10.368,3.264 -18.816,6.528 -25.344,9.792c-15.552,7.488 -24.192,14.784 -25.92,21.888l-0,78.338l-19.297,-0c-2.496,-6.528 -3.744,-24.865 -3.744,-55.009c0,-26.881 0.528,-46.657 1.584,-59.329c1.056,-12.672 1.872,-19.872 2.448,-21.6c4.992,-3.265 9.024,-4.897 12.097,-4.897c4.8,0 7.2,5.665 7.2,16.993c-0,4.416 -0.24,8.688 -0.72,12.816c-0.48,4.128 -0.72,6.96 -0.72,8.496c31.104,-22.848 55.201,-34.273 72.289,-34.273c19.392,0 30.432,15.649 33.12,46.945c1.152,10.944 1.728,26.113 1.728,45.505l-0.288,22.752c0,8.448 0.192,16.609 0.576,24.481c-1.92,1.152 -3.456,1.728 -4.608,1.728c-0.576,-0.192 -1.824,-0.48 -3.744,-0.864c-1.92,-0.384 -4.416,-0.672 -7.488,-0.864c-1.92,-7.68 -2.976,-15.504 -3.168,-23.473c-0.192,-7.968 -0.288,-15.312 -0.288,-22.032l0.288,-17.568Z" style="fill:#fff;fill-rule:nonzero;"/><path d="M2104.7,684.002c-0,-22.656 9.792,-40.897 29.376,-54.721c15.552,-10.944 34.273,-17.568 56.161,-19.872l8.064,-0c4.224,-0 9.888,1.248 16.993,3.744c15.744,5.376 26.496,14.88 32.256,28.512c2.304,5.376 3.456,9.936 3.456,13.68c0,3.744 -0.096,6.385 -0.288,7.921c0,24 -9.12,42.912 -27.36,56.736c-16.897,12.673 -38.017,19.009 -63.361,19.009c-18.241,-0 -32.017,-4.224 -41.329,-12.672c-9.312,-8.449 -13.968,-22.561 -13.968,-42.337Zm19.872,6.912c0,11.904 3.168,19.968 9.504,24.192c4.8,3.072 12.864,4.608 24.193,4.608c11.328,0 21.312,-0.864 29.952,-2.592c8.64,-1.728 16.32,-4.704 23.04,-8.928c14.401,-9.216 21.601,-23.52 21.601,-42.912c-0,-11.521 -3.072,-20.929 -9.216,-28.225c-6.72,-7.872 -15.553,-11.808 -26.497,-11.808c-7.488,1.344 -15.024,2.784 -22.608,4.32c-7.584,1.536 -14.736,4.512 -21.456,8.928c-14.593,9.408 -24.097,26.881 -28.513,52.417Z" style="fill:#fff;fill-rule:nonzero;"/><path d="M2306.88,711.074l0.576,-46.08c0,-7.297 -0.672,-13.537 -2.016,-18.721l-44.641,0l-0.576,-19.872l43.201,-0l-0,-74.305c0.576,-1.728 1.728,-3.456 3.456,-5.184c2.688,-2.688 4.944,-4.032 6.768,-4.032c1.824,-0 3.408,0.192 4.752,0.576c1.344,0.384 2.784,1.728 4.32,4.032c3.072,12.672 4.608,31.776 4.608,57.313c0,6.336 0.288,12.576 0.864,18.72c6.144,-0.768 12.289,-1.152 18.433,-1.152l14.976,-0c3.648,-0 7.008,-0.192 10.08,-0.576l-0.864,20.736l-42.049,-1.152l1.44,99.362c-3.456,1.536 -6.432,2.304 -8.928,2.304c-9.6,-0 -14.4,-10.656 -14.4,-31.969Z" style="fill:#fff;fill-rule:nonzero;"/><path d="M2507.9,684.002c0,-22.656 9.792,-40.897 29.377,-54.721c15.552,-10.944 34.272,-17.568 56.161,-19.872l8.064,-0c4.224,-0 9.888,1.248 16.992,3.744c15.744,5.376 26.496,14.88 32.257,28.512c2.304,5.376 3.456,9.936 3.456,13.68c-0,3.744 -0.096,6.385 -0.288,7.921c-0,24 -9.121,42.912 -27.361,56.736c-16.896,12.673 -38.016,19.009 -63.361,19.009c-18.24,-0 -32.016,-4.224 -41.329,-12.672c-9.312,-8.449 -13.968,-22.561 -13.968,-42.337Zm19.873,6.912c-0,11.904 3.168,19.968 9.504,24.192c4.8,3.072 12.864,4.608 24.192,4.608c11.328,0 21.312,-0.864 29.953,-2.592c8.64,-1.728 16.32,-4.704 23.04,-8.928c14.4,-9.216 21.6,-23.52 21.6,-42.912c0,-11.521 -3.072,-20.929 -9.216,-28.225c-6.72,-7.872 -15.552,-11.808 -26.496,-11.808c-7.488,1.344 -15.024,2.784 -22.609,4.32c-7.584,1.536 -14.736,4.512 -21.456,8.928c-14.592,9.408 -24.096,26.881 -28.512,52.417Z" style="fill:#fff;fill-rule:nonzero;"/><path d="M2695.11,686.306l1.44,25.056c0,15.361 -3.648,24.673 -10.944,27.937c-1.536,0.576 -3.36,0.864 -5.472,0.864c-2.112,-0 -4.608,-0.48 -7.488,-1.44l0.288,-107.714c-0,-15.552 -0.912,-31.152 -2.736,-46.801c-1.824,-15.648 -2.736,-31.248 -2.736,-46.801c-0,-6.144 3.264,-9.216 9.792,-9.216l2.304,0c1.344,0 2.208,0.096 2.592,0.288c2.88,11.905 4.8,26.305 5.76,43.201c2.112,37.441 4.032,62.593 5.76,75.457c3.264,-1.728 10.56,-6.624 21.889,-14.688c11.328,-8.064 20.448,-14.544 27.36,-19.44c6.912,-4.896 13.44,-9.456 19.584,-13.681c14.401,-9.408 23.425,-14.112 27.073,-14.112c3.072,0 5.472,1.824 7.2,5.472c-9.6,12.097 -25.056,25.537 -46.369,40.321c-8.64,5.952 -17.232,11.856 -25.776,17.712c-8.544,5.856 -16.368,11.952 -23.473,18.289c12.865,3.456 25.057,7.056 36.577,10.8c11.52,3.744 22.656,7.152 33.409,10.224c24.768,7.296 46.08,11.424 63.937,12.384c-0,5.184 -0.48,8.544 -1.44,10.08c-1.728,2.688 -5.281,4.224 -10.657,4.608l-2.304,0c-11.712,-3.264 -27.264,-6.912 -46.656,-10.944c-38.209,-7.872 -64.513,-13.824 -78.914,-17.856Z" style="fill:#fff;fill-rule:nonzero;"/><path d="M1589.17,802.372c0,18.432 -0.528,36.432 -1.584,54.001c-1.056,17.568 -2.016,34.752 -2.88,51.552c-0.864,16.801 -1.296,34.657 -1.296,53.569c0,18.913 1.344,38.929 4.032,60.049c0,4.416 -0.816,7.584 -2.448,9.504c-1.632,1.921 -4.368,2.881 -8.208,2.881c-9.024,-0 -13.536,-7.489 -13.536,-22.465l-0,-9.504c-27.264,20.352 -50.305,30.529 -69.121,30.529c-7.488,-0 -15.12,-1.825 -22.897,-5.473c-7.776,-3.648 -15.12,-11.04 -22.032,-22.176c-0.96,-4.608 -1.44,-9.312 -1.44,-14.112c0,-4.8 0.912,-10.608 2.736,-17.424c1.824,-6.817 5.568,-13.873 11.232,-21.169c5.664,-7.296 12.529,-13.728 20.593,-19.296c17.664,-11.904 36.768,-17.856 57.313,-17.856c8.832,-0 17.28,1.344 25.344,4.032c0,-3.456 0.24,-9.504 0.72,-18.145c0.48,-8.64 1.008,-17.76 1.584,-27.36c1.152,-24.96 1.92,-39.697 2.304,-44.209c0.384,-4.512 0.912,-8.352 1.584,-11.52c0.672,-3.168 1.68,-5.904 3.024,-8.208c2.88,-4.8 7.872,-7.2 14.976,-7.2Zm-120.386,186.051c0,15.168 5.473,22.752 16.417,22.752c1.728,0 3.648,-0.192 5.76,-0.576c7.872,0 17.568,-2.304 29.088,-6.912c21.889,-8.64 35.233,-16.128 40.033,-22.464l-0,-38.305c-0,-6.72 -5.472,-10.08 -16.416,-10.08c-1.344,-0.192 -3.12,-0.288 -5.328,-0.288c-2.208,-0 -5.617,0.48 -10.225,1.44c-4.608,0.96 -9.792,2.688 -15.552,5.184c-5.76,2.496 -11.424,5.568 -16.992,9.216c-11.712,7.872 -19.776,17.088 -24.192,27.649c-1.729,4.032 -2.593,8.16 -2.593,12.384Z" style="fill:#fff;fill-rule:nonzero;"/><path d="M1611.35,978.919c-0,-22.657 9.792,-40.897 29.376,-54.721c15.552,-10.944 34.273,-17.569 56.161,-19.873l8.064,0c4.224,0 9.888,1.248 16.993,3.744c15.744,5.377 26.496,14.881 32.256,28.513c2.304,5.376 3.456,9.936 3.456,13.68c0,3.744 -0.096,6.384 -0.288,7.92c0,24.001 -9.12,42.913 -27.36,56.737c-16.897,12.672 -38.017,19.009 -63.361,19.009c-18.241,-0 -32.017,-4.225 -41.329,-12.673c-9.312,-8.448 -13.968,-22.56 -13.968,-42.336Zm19.872,6.912c0,11.904 3.168,19.968 9.504,24.192c4.8,3.072 12.864,4.608 24.193,4.608c11.328,0 21.312,-0.864 29.952,-2.592c8.64,-1.728 16.32,-4.704 23.04,-8.928c14.401,-9.216 21.601,-23.52 21.601,-42.913c-0,-11.52 -3.072,-20.928 -9.216,-28.224c-6.72,-7.872 -15.553,-11.808 -26.497,-11.808c-7.488,1.344 -15.024,2.784 -22.608,4.32c-7.584,1.536 -14.736,4.512 -21.456,8.928c-14.593,9.408 -24.097,26.88 -28.513,52.417Z" style="fill:#fff;fill-rule:nonzero;"/><path d="M1813.52,1005.99l0.576,-46.081c0,-7.296 -0.672,-13.536 -2.016,-18.72l-44.641,0l-0.576,-19.872l43.201,-0l-0,-74.305c0.576,-1.729 1.728,-3.457 3.456,-5.185c2.688,-2.688 4.944,-4.032 6.768,-4.032c1.824,0 3.408,0.192 4.752,0.576c1.344,0.384 2.784,1.728 4.32,4.032c3.072,12.673 4.608,31.777 4.608,57.313c0,6.336 0.288,12.577 0.864,18.721c6.144,-0.768 12.289,-1.152 18.433,-1.152l14.976,-0c3.648,-0 7.008,-0.192 10.08,-0.576l-0.864,20.736l-42.049,-1.152l1.44,99.362c-3.456,1.536 -6.432,2.304 -8.928,2.304c-9.6,-0 -14.4,-10.657 -14.4,-31.969Z" style="fill:#fff;fill-rule:nonzero;"/><path d="M2123.7,1003.4c7.872,-3.264 15.552,-6.24 23.04,-8.928c7.489,-2.688 14.641,-4.032 21.457,-4.032c6.816,-0 10.224,2.112 10.224,6.336c-0,0.96 -0.24,2.448 -0.72,4.464c-0.48,2.016 -3.072,4.416 -7.776,7.2c-4.704,2.784 -10.464,5.424 -17.28,7.92c-6.817,2.496 -14.257,4.8 -22.321,6.912c-8.064,2.112 -15.936,3.936 -23.616,5.472c-15.936,3.264 -27.265,4.897 -33.985,4.897c-6.72,-0 -13.968,-0.768 -21.744,-2.305c-7.776,-1.536 -15.024,-4.032 -21.744,-7.488c-15.553,-8.064 -23.329,-19.968 -23.329,-35.712l0,-6.912c0,-3.456 1.44,-8.4 4.32,-14.833c2.88,-6.432 7.2,-12.864 12.96,-19.296c5.761,-6.432 12.481,-12.336 20.161,-17.712c16.128,-11.52 33.024,-19.008 50.689,-22.465c6.144,-1.344 11.28,-2.016 15.408,-2.016c4.128,0 7.536,0.048 10.224,0.144c2.688,0.096 5.472,0.288 8.352,0.576c2.88,0.288 5.376,1.008 7.488,2.16c4.992,2.497 7.488,7.393 7.488,14.689c0,4.608 -3.264,9.12 -9.792,13.536c-1.728,1.152 -3.264,2.208 -4.608,3.168c-0.96,-4.416 -2.208,-8.16 -3.744,-11.232c-1.536,-3.072 -4.896,-4.608 -10.08,-4.608c-22.656,4.8 -42.145,12 -58.465,21.6c-18.432,10.944 -27.648,22.464 -27.648,34.561c-0,1.344 0.096,2.784 0.288,4.32c-0,12.288 4.704,21.024 14.112,26.208c7.104,3.84 16.272,5.76 27.504,5.76c11.232,0 20.977,-1.296 29.233,-3.888c8.256,-2.592 16.224,-5.424 23.904,-8.496Z" style="fill:#fff;fill-rule:nonzero;"/><path d="M2201.18,978.919c0,-22.657 9.792,-40.897 29.377,-54.721c15.552,-10.944 34.272,-17.569 56.161,-19.873l8.064,0c4.224,0 9.888,1.248 16.992,3.744c15.744,5.377 26.497,14.881 32.257,28.513c2.304,5.376 3.456,9.936 3.456,13.68c-0,3.744 -0.096,6.384 -0.288,7.92c-0,24.001 -9.12,42.913 -27.361,56.737c-16.896,12.672 -38.016,19.009 -63.361,19.009c-18.24,-0 -32.016,-4.225 -41.328,-12.673c-9.313,-8.448 -13.969,-22.56 -13.969,-42.336Zm19.873,6.912c-0,11.904 3.168,19.968 9.504,24.192c4.8,3.072 12.864,4.608 24.192,4.608c11.328,0 21.313,-0.864 29.953,-2.592c8.64,-1.728 16.32,-4.704 23.04,-8.928c14.4,-9.216 21.6,-23.52 21.6,-42.913c0,-11.52 -3.072,-20.928 -9.216,-28.224c-6.72,-7.872 -15.552,-11.808 -26.496,-11.808c-7.488,1.344 -15.024,2.784 -22.609,4.32c-7.584,1.536 -14.736,4.512 -21.456,8.928c-14.592,9.408 -24.096,26.88 -28.512,52.417Z" style="fill:#fff;fill-rule:nonzero;"/><path d="M2383.77,1029.03c-7.872,3.265 -13.104,4.897 -15.696,4.897c-2.592,-0 -4.368,-0.288 -5.328,-0.864c-0.96,-0.576 -2.016,-1.921 -3.168,-4.033c-0,-6.336 0.24,-14.304 0.72,-23.904c0.48,-9.6 0.912,-19.872 1.296,-30.816c0.384,-10.945 0.576,-21.985 0.576,-33.121c-0,-11.136 -0.576,-21.312 -1.728,-30.528c-0,-6.145 4.128,-9.217 12.384,-9.217c1.92,0 3.408,3.456 4.464,10.369c1.056,6.912 1.824,12.288 2.304,16.128c0.48,3.84 0.912,6.624 1.296,8.352c4.992,-9.024 14.88,-16.128 29.665,-21.312c7.872,-2.496 15.264,-3.744 22.176,-3.744c6.912,-0 13.008,0.816 18.288,2.448c5.28,1.632 9.793,4.608 13.537,8.928c3.744,4.32 5.616,10.032 5.616,17.136c4.992,-9.408 16.224,-17.856 33.696,-25.344c15.936,-7.105 30.241,-10.657 42.913,-10.657c18.24,0 27.168,6.913 26.784,20.737l6.048,107.137c0,0.961 -2.784,1.633 -8.352,2.017c-10.752,0.768 -16.128,-0.192 -16.128,-2.881c-0.192,-3.84 -0.288,-7.68 -0.288,-11.52l1.44,-46.368c0,-21.697 -2.112,-38.881 -6.336,-51.553c-12.672,0.96 -22.416,3.024 -29.233,6.192c-6.816,3.168 -12.816,7.104 -18,11.808c-5.184,4.704 -9.792,10.992 -13.824,18.864c-9.024,17.665 -13.536,41.089 -13.536,70.273c-1.152,4.033 -4.896,6.049 -11.232,6.049c-4.225,-0 -7.681,-0.72 -10.369,-2.16c-2.688,-1.441 -3.744,-2.737 -3.168,-3.889c3.648,-20.352 5.472,-36.192 5.472,-47.52c0,-9.024 -0.912,-17.617 -2.736,-25.777c-1.824,-8.16 -4.08,-17.52 -6.768,-28.08c-27.648,-0 -46.272,11.04 -55.873,33.12c-4.224,9.792 -6.576,18.961 -7.056,27.505c-0.48,8.544 -0.72,15.84 -0.72,21.888c0,6.048 0.288,12.528 0.864,19.44Z" style="fill:#fff;fill-rule:nonzero;"/><path d="M2617.06,918.15c26.112,-9.024 48.673,-13.537 67.681,-13.537c24.193,0 40.321,6.337 48.385,19.009c3.648,5.952 5.472,12.384 5.472,19.296c-0,9.6 -3.024,19.488 -9.072,29.665c-6.048,10.176 -14.064,19.392 -24.049,27.648c-23.232,19.008 -51.456,30.816 -84.673,35.425c0,2.112 0.048,5.52 0.144,10.224c0.096,4.704 0.192,9.936 0.288,15.696c0.096,5.76 0.192,11.904 0.288,18.432c0.096,6.528 0.24,12.768 0.432,18.721c0.576,14.784 1.008,23.232 1.296,25.344c0.288,2.112 0.432,3.84 0.432,5.184c0,4.8 -1.536,8.4 -4.608,10.8c-3.072,2.4 -7.104,3.6 -12.096,3.6l-2.88,0l-4.608,-231.555c1.728,-2.496 4.032,-3.649 6.912,-3.456c2.88,0.192 5.184,0.96 6.912,2.304c1.728,1.344 2.976,3.744 3.744,7.2Zm84.097,10.08c-6.336,-3.264 -13.104,-4.896 -20.304,-4.896c-7.2,-0 -14.352,0.672 -21.456,2.016c-16.129,3.072 -28.033,9.888 -35.713,20.448c-3.456,4.992 -5.184,11.136 -5.184,18.432l0,52.129c39.553,-8.832 67.585,-21.12 84.097,-36.864c9.601,-9.024 14.401,-18.337 14.401,-27.937c-0,-10.176 -5.28,-17.952 -15.841,-23.328Z" style="fill:#fff;fill-rule:nonzero;"/><path d="M2752.13,995.335c0,-3.072 -0.24,-7.344 -0.72,-12.816c-0.48,-5.472 -0.912,-11.472 -1.296,-18.001c-0.384,-6.528 -0.576,-13.152 -0.576,-19.872c0,-6.72 0.576,-12.864 1.728,-18.432c2.496,-12.48 7.68,-18.721 15.552,-18.721c5.377,1.537 8.977,3.457 10.801,5.761c1.824,2.304 2.736,5.136 2.736,8.496c-0,3.36 -0.864,7.536 -2.592,12.528c-6.336,16.704 -9.505,31.776 -9.505,45.217c0,4.416 0.288,9.12 0.864,14.112c3.073,12.864 13.633,19.296 31.681,19.296c9.408,0 18.336,-1.632 26.784,-4.896c16.129,-5.952 27.073,-12.96 32.833,-21.024c1.728,-8.832 2.592,-16.561 2.592,-23.185c0,-6.624 -0.24,-12.528 -0.72,-17.712c-0.48,-5.184 -1.056,-10.896 -1.728,-17.136c-0.672,-6.24 -1.104,-13.104 -1.296,-20.593c2.496,-1.152 4.944,-1.728 7.344,-1.728c2.4,0 4.896,1.248 7.488,3.745c2.592,2.496 4.8,7.2 6.624,14.112c1.824,6.912 3.024,15.024 3.6,24.336c0.576,9.312 0.912,18.96 1.008,28.945c0.096,9.984 0.144,19.632 0.144,28.944c0,9.312 0.384,17.328 1.152,24.048c-2.304,2.113 -4.512,3.169 -6.624,3.169c-7.68,-0 -13.344,-7.681 -16.992,-23.041c-2.496,2.112 -6.72,4.704 -12.672,7.776c-12.672,6.912 -27.649,11.52 -44.929,13.825c-3.264,0.384 -6.912,0.576 -10.944,0.576c-4.032,-0 -9.072,-0.768 -15.12,-2.305c-6.048,-1.536 -11.761,-5.088 -17.137,-10.656c-5.376,-5.568 -8.736,-13.824 -10.08,-24.768Z" style="fill:#fff;fill-rule:nonzero;"/><path d="M2946.82,1005.99l0.576,-46.081c0,-7.296 -0.672,-13.536 -2.016,-18.72l-44.64,0l-0.576,-19.872l43.2,-0l0,-74.305c0.576,-1.729 1.728,-3.457 3.456,-5.185c2.688,-2.688 4.944,-4.032 6.768,-4.032c1.825,0 3.409,0.192 4.753,0.576c1.344,0.384 2.784,1.728 4.32,4.032c3.072,12.673 4.608,31.777 4.608,57.313c-0,6.336 0.288,12.577 0.864,18.721c6.144,-0.768 12.288,-1.152 18.432,-1.152l14.976,-0c3.648,-0 7.008,-0.192 10.08,-0.576l-0.864,20.736l-42.048,-1.152l1.44,99.362c-3.456,1.536 -6.432,2.304 -8.928,2.304c-9.601,-0 -14.401,-10.657 -14.401,-31.969Z" style="fill:#fff;fill-rule:nonzero;"/><path d="M3081.32,1013.48c16.896,0 42.336,-7.68 76.321,-23.04c2.112,-0 3.84,0.72 5.184,2.16c1.344,1.44 2.016,3.12 2.016,5.04c-7.68,13.056 -22.368,23.232 -44.065,30.528c-21.696,7.297 -41.952,8.545 -60.769,3.744c-21.312,-5.568 -34.272,-17.568 -38.88,-36c-0.384,-3.648 -0.576,-8.544 -0.576,-14.688c-0,-6.144 1.584,-14.257 4.752,-24.337c3.168,-10.08 8.592,-19.632 16.272,-28.656c7.68,-9.024 16.704,-16.128 27.072,-21.313c10.369,-5.184 21.409,-7.776 33.121,-7.776c11.136,0 23.616,3.84 37.44,11.521c6.529,3.648 11.713,7.776 15.553,12.384c3.84,4.608 5.76,9.312 5.76,14.112c-0,1.344 -0.096,2.688 -0.288,4.032c-0.384,11.712 -6.048,19.104 -16.992,22.176c-4.801,1.344 -10.369,2.016 -16.705,2.016l-41.472,-1.728c-13.825,0 -24.385,2.976 -31.681,8.929c-4.224,3.264 -7.2,8.16 -8.928,14.688c4.8,17.472 17.088,26.208 36.865,26.208Zm51.264,-88.993c-4.224,-3.072 -8.64,-5.28 -13.248,-6.624c-4.608,-1.344 -8.448,-2.016 -11.52,-2.016c-3.072,-0 -8.064,1.008 -14.976,3.024c-6.912,2.016 -13.056,4.272 -18.433,6.768c-13.248,6.144 -19.872,12.576 -19.872,19.296c15.36,1.344 26.881,2.016 34.561,2.016c21.312,0 35.712,-1.824 43.2,-5.472c4.608,-1.92 6.912,-4.32 6.912,-7.2c0,-3.456 -2.208,-6.72 -6.624,-9.792Z" style="fill:#fff;fill-rule:nonzero;"/><path d="M3323.53,928.518c-8.064,-5.76 -18.432,-8.64 -31.104,-8.64c-11.904,-0 -22.944,2.208 -33.121,6.624c-19.2,8.064 -32.352,18.432 -39.456,31.104c-3.072,5.76 -4.608,11.904 -4.608,18.433l-0,9.648c-0,5.28 0.96,12.384 2.88,21.312c1.92,8.928 2.88,18 2.88,27.217c-4.032,0.192 -7.296,0.672 -9.792,1.44c-2.496,0.768 -4.608,1.152 -6.336,1.152c-1.728,-0 -3.217,-0.768 -4.465,-2.304c-1.248,-1.536 -2.64,-4.513 -4.176,-8.929c-0.192,-1.152 -0.576,-4.416 -1.152,-9.792c-0.576,-5.376 -1.296,-11.904 -2.16,-19.584c-0.864,-7.68 -1.824,-16.08 -2.88,-25.2c-1.056,-9.121 -2.064,-18.097 -3.024,-26.929c-2.112,-19.2 -3.744,-33.312 -4.896,-42.337c0,-4.608 3.36,-6.912 10.08,-6.912c4.032,0 7.2,1.68 9.504,5.04c2.305,3.36 4.129,7.2 5.473,11.521c1.344,4.32 2.256,8.592 2.736,12.816c0.48,4.224 0.912,7.2 1.296,8.928c25.344,-22.656 56.833,-33.985 94.465,-33.985c4.224,0 8.64,0.096 13.248,0.288c1.152,-0.192 2.592,-0.288 4.32,-0.288c1.728,0 3.457,1.152 5.185,3.456c2.112,2.688 3.168,5.952 3.168,9.793c-0,9.6 -2.688,14.976 -8.065,16.128Z" style="fill:#fff;fill-rule:nonzero;"/></g></g></svg>