<?xml version="1.0" encoding="UTF-8" standalone="no"?><!DOCTYPE svg PUBLIC "-//W3C//DTD SVG 1.1//EN" "http://www.w3.org/Graphics/SVG/1.1/DTD/svg11.dtd"><svg width="100%" height="100%" viewBox="0 0 5400 3000" version="1.1" xmlns="http://www.w3.org/2000/svg" xmlns:xlink="http://www.w3.org/1999/xlink" xml:space="preserve" xmlns:serif="http://www.serif.com/" style="fill-rule:evenodd;clip-rule:evenodd;stroke-linejoin:round;stroke-miterlimit:2;"><rect x="0" y="0" width="5400" height="3000" style="fill:none;"/><g><path d="M2700,71.914c-788.182,-0 -1428.09,639.904 -1428.09,1428.09c-0,788.182 639.904,1428.09 1428.09,1428.09c788.182,0 1428.09,-639.904 1428.09,-1428.09c0,-788.182 -639.904,-1428.09 -1428.09,-1428.09Zm0,55.302c757.66,-0 1372.78,615.124 1372.78,1372.78c0,757.66 -615.124,1372.78 -1372.78,1372.78c-757.66,0 -1372.78,-615.124 -1372.78,-1372.78c-0,-757.66 615.124,-1372.78 1372.78,-1372.78Z"/><path d="M2701.19,2528.89c-0.395,0 -0.791,0 -1.187,0c-17.662,0 -35.22,-0.445 -52.665,-1.326c-15.242,-0.77 -28.241,10.979 -29.011,26.221c-0.769,15.241 10.98,28.24 26.222,29.01c18.368,0.928 36.857,1.397 55.454,1.397c0.417,0 0.833,0 1.25,-0c15.261,-0.018 27.637,-12.422 27.62,-27.683c-0.018,-15.261 -12.422,-27.637 -27.683,-27.619Zm107.539,-5.685c-17.766,1.869 -35.667,3.285 -53.689,4.236c-15.24,0.805 -26.96,13.831 -26.155,29.07c0.805,15.24 13.831,26.96 29.07,26.155c18.986,-1.002 37.844,-2.494 56.56,-4.463c15.177,-1.597 26.203,-15.215 24.606,-30.392c-1.596,-15.177 -15.215,-26.203 -30.392,-24.606Zm-215.09,0.245c-17.94,-1.845 -35.745,-4.152 -53.401,-6.909c-15.078,-2.355 -29.231,7.975 -31.586,23.054c-2.354,15.078 7.976,29.231 23.054,31.585c18.606,2.906 37.368,5.337 56.274,7.282c15.181,1.562 28.774,-9.495 30.335,-24.676c1.562,-15.181 -9.495,-28.774 -24.676,-30.336Zm321.413,-17.104c-17.486,3.724 -35.136,7.003 -52.937,9.825c-15.073,2.39 -25.37,16.567 -22.981,31.64c2.389,15.072 16.566,25.37 31.639,22.98c18.763,-2.974 37.367,-6.43 55.798,-10.356c14.926,-3.179 24.464,-17.878 21.285,-32.804c-3.179,-14.926 -17.878,-24.464 -32.804,-21.285Zm-427.772,0.493c-17.628,-3.712 -35.089,-7.875 -52.373,-12.477c-14.747,-3.927 -29.908,4.858 -33.835,19.605c-3.927,14.747 4.858,29.908 19.605,33.835c18.22,4.851 36.627,9.24 55.209,13.152c14.934,3.144 29.611,-6.427 32.755,-21.361c3.144,-14.933 -6.428,-29.61 -21.361,-32.754Zm531.718,-28.433c-17.011,5.55 -34.217,10.668 -51.604,15.342c-14.738,3.961 -23.487,19.143 -19.526,33.881c3.961,14.737 19.143,23.487 33.881,19.525c18.329,-4.926 36.468,-10.322 54.402,-16.173c14.508,-4.733 22.444,-20.355 17.711,-34.863c-4.734,-14.509 -20.355,-22.445 -34.864,-17.712Zm-635.731,0.735c-17.122,-5.542 -34.048,-11.522 -50.766,-17.925c-14.251,-5.458 -30.253,1.68 -35.712,15.932c-5.458,14.251 1.68,30.253 15.932,35.712c17.623,6.75 35.466,13.053 53.516,18.895c14.52,4.7 30.123,-3.273 34.823,-17.792c4.699,-14.52 -3.273,-30.123 -17.793,-34.822Zm736.16,-39.468c-16.347,7.316 -32.92,14.217 -49.705,20.691c-14.239,5.492 -21.34,21.51 -15.848,35.749c5.491,14.239 21.51,21.34 35.749,15.848c17.692,-6.824 35.162,-14.098 52.394,-21.81c13.929,-6.234 20.178,-22.604 13.944,-36.534c-6.234,-13.929 -22.604,-20.178 -36.534,-13.944Zm-836.678,0.969c-16.432,-7.308 -32.638,-15.035 -48.604,-23.165c-13.6,-6.926 -30.263,-1.508 -37.188,12.091c-6.926,13.6 -1.508,30.263 12.092,37.188c16.828,8.57 33.909,16.713 51.228,24.416c13.944,6.201 30.3,-0.085 36.501,-14.029c6.202,-13.944 -0.084,-30.3 -14.029,-36.501Zm932.495,-50.041c-15.504,8.996 -31.264,17.599 -47.266,25.795c-13.583,6.957 -18.963,23.632 -12.006,37.215c6.957,13.584 23.633,18.963 37.216,12.006c16.863,-8.637 33.472,-17.703 49.81,-27.183c13.2,-7.659 17.699,-24.594 10.039,-37.794c-7.659,-13.2 -24.594,-17.698 -37.793,-10.039Zm-1028.42,1.191c-15.568,-8.985 -30.879,-18.366 -45.92,-28.13c-12.8,-8.309 -29.939,-4.662 -38.248,8.138c-8.309,12.801 -4.663,29.94 8.138,38.249c15.849,10.287 31.982,20.172 48.386,29.64c13.218,7.628 30.142,3.091 37.771,-10.127c7.628,-13.217 3.091,-30.142 -10.127,-37.77Zm1118.6,-60.018c-14.492,10.571 -29.27,20.773 -44.321,30.592c-12.781,8.339 -16.388,25.486 -8.05,38.267c8.339,12.782 25.486,16.389 38.267,8.05c15.857,-10.345 31.427,-21.093 46.695,-32.231c12.329,-8.994 15.037,-26.305 6.043,-38.634c-8.993,-12.33 -26.305,-15.038 -38.634,-6.044Zm-1208.91,1.398c-14.539,-10.554 -28.792,-21.48 -42.744,-32.762c-11.866,-9.596 -29.291,-7.753 -38.887,4.114c-9.596,11.866 -7.753,29.291 4.114,38.887c14.698,11.886 29.712,23.395 45.028,34.514c12.35,8.966 29.656,6.218 38.621,-6.132c8.965,-12.35 6.218,-29.655 -6.132,-38.621Zm1292.48,-69.296c-13.323,12.027 -26.962,23.71 -40.903,35.037c-11.844,9.623 -13.648,27.052 -4.025,38.896c9.624,11.845 27.053,13.648 38.897,4.025c14.685,-11.931 29.052,-24.239 43.087,-36.907c11.328,-10.226 12.223,-27.726 1.997,-39.054c-10.225,-11.328 -27.725,-12.223 -39.053,-1.997Zm-1376.21,1.59c-13.358,-12.002 -26.401,-24.349 -39.114,-37.026c-10.806,-10.775 -28.329,-10.75 -39.104,0.056c-10.776,10.807 -10.751,28.329 0.056,39.105c13.391,13.353 27.13,26.358 41.2,39.001c11.352,10.2 28.849,9.265 39.049,-2.087c10.2,-11.352 9.265,-28.849 -2.087,-39.049Zm1452.29,-77.799c-12.01,13.351 -24.365,26.387 -37.049,39.093c-10.782,10.8 -10.767,28.322 0.034,39.104c10.8,10.782 28.322,10.767 39.104,-0.033c13.361,-13.384 26.374,-27.115 39.025,-41.179c10.207,-11.345 9.282,-28.843 -2.064,-39.049c-11.346,-10.207 -28.844,-9.282 -39.05,2.064Zm-1528.54,1.766c-12.035,-13.317 -23.726,-26.949 -35.061,-40.884c-9.63,-11.839 -27.06,-13.632 -38.899,-4.002c-11.839,9.63 -13.632,27.06 -4.002,38.899c11.94,14.678 24.256,29.039 36.933,43.066c10.232,11.323 27.732,12.208 39.054,1.975c11.323,-10.232 12.208,-27.732 1.975,-39.054Zm1596.29,-85.455c-10.563,14.533 -21.496,28.779 -32.787,42.725c-9.603,11.861 -7.77,29.287 4.091,38.89c11.861,9.603 29.287,7.769 38.89,-4.092c11.895,-14.691 23.413,-29.699 34.541,-45.009c8.972,-12.344 6.234,-29.651 -6.111,-38.624c-12.344,-8.972 -29.651,-6.235 -38.624,6.11Zm-1664.24,1.922c-10.58,-14.486 -20.791,-29.259 -30.618,-44.303c-8.346,-12.777 -25.495,-16.374 -38.272,-8.028c-12.777,8.346 -16.374,25.495 -8.028,38.271c10.354,15.851 21.112,31.415 32.258,46.677c9.001,12.324 26.314,15.022 38.638,6.021c12.325,-9.001 15.023,-26.314 6.022,-38.638Zm1722.91,-92.198c-8.994,15.563 -18.383,30.868 -28.155,45.903c-8.317,12.796 -4.68,29.937 8.116,38.253c12.796,8.317 29.936,4.68 38.253,-8.116c10.296,-15.842 20.19,-31.97 29.667,-48.368c7.637,-13.213 3.109,-30.14 -10.104,-37.776c-13.213,-7.636 -30.14,-3.109 -37.777,10.104Zm-1781.79,2.057c-9.005,-15.499 -17.617,-31.253 -25.822,-47.251c-6.965,-13.579 -23.643,-18.949 -37.223,-11.984c-13.579,6.965 -18.948,23.644 -11.984,37.223c8.647,16.858 17.723,33.462 27.213,49.795c7.666,13.195 24.604,17.684 37.799,10.017c13.196,-7.667 17.684,-24.604 10.017,-37.8Zm1830.7,-97.959c-7.318,16.428 -15.053,32.63 -23.194,48.591c-6.933,13.595 -1.524,30.262 12.071,37.195c13.595,6.934 30.261,1.525 37.195,-12.07c8.579,-16.823 16.732,-33.9 24.445,-51.215c6.209,-13.94 -0.067,-30.299 -14.008,-36.509c-13.941,-6.209 -30.3,0.067 -36.509,14.008Zm-1879.82,2.171c-7.325,-16.343 -14.236,-32.912 -20.719,-49.693c-5.5,-14.235 -21.523,-21.327 -35.759,-15.827c-14.235,5.5 -21.327,21.523 -15.827,35.758c6.834,17.688 14.119,35.153 21.84,52.381c6.242,13.926 22.616,20.164 36.542,13.923c13.926,-6.242 20.165,-22.616 13.923,-36.542Zm1918.38,-102.666c-5.552,17.119 -11.541,34.042 -17.954,50.755c-5.466,14.248 1.663,30.254 15.911,35.721c14.248,5.467 30.254,-1.662 35.721,-15.91c6.761,-17.619 13.074,-35.459 18.927,-53.505c4.708,-14.517 -3.256,-30.125 -17.772,-34.833c-14.517,-4.708 -30.125,3.256 -34.833,17.772Zm-1957.17,2.26c-5.56,-17.008 -10.688,-34.211 -15.372,-51.595c-3.97,-14.736 -19.156,-23.476 -33.892,-19.506c-14.736,3.97 -23.476,19.156 -19.506,33.892c4.938,18.327 10.344,36.462 16.205,54.392c4.742,14.506 20.368,22.433 34.874,17.691c14.506,-4.742 22.433,-20.368 17.691,-34.874Zm1984.93,-106.255c-3.722,17.625 -7.895,35.084 -12.508,52.365c-3.935,14.745 4.84,29.911 19.585,33.847c14.745,3.935 29.911,-4.84 33.847,-19.585c4.862,-18.217 9.262,-36.622 13.185,-55.202c3.152,-14.932 -6.41,-29.614 -21.342,-32.767c-14.932,-3.153 -29.614,6.41 -32.767,21.342Zm-2012.93,2.325c-3.734,-17.484 -7.024,-35.132 -9.856,-52.931c-2.398,-15.071 -16.581,-25.361 -31.652,-22.962c-15.072,2.398 -25.361,16.581 -22.963,31.652c2.986,18.761 6.453,37.363 10.389,55.792c3.187,14.924 17.892,24.453 32.816,21.265c14.925,-3.187 24.454,-17.892 21.266,-32.816Zm2029.61,-108.678c-1.855,17.94 -4.173,35.743 -6.94,53.398c-2.363,15.077 7.958,29.236 23.035,31.599c15.077,2.364 29.236,-7.958 31.6,-23.035c2.916,-18.605 5.358,-37.366 7.314,-56.271c1.57,-15.18 -9.479,-28.779 -24.659,-30.35c-15.18,-1.57 -28.779,9.479 -30.35,24.659Zm-2046.53,2.365c-1.879,-17.765 -3.306,-35.664 -4.268,-53.686c-0.813,-15.24 -13.846,-26.952 -29.085,-26.138c-15.239,0.813 -26.951,13.846 -26.138,29.085c1.013,18.985 2.516,37.842 4.496,56.557c1.605,15.176 15.23,26.194 30.406,24.589c15.177,-1.606 26.194,-15.23 24.589,-30.407Zm2052.03,-109.911c0,0.197 0,0.395 0,0.592c0,17.862 -0.456,35.619 -1.357,53.259c-0.778,15.241 10.964,28.247 26.205,29.025c15.241,0.779 28.247,-10.963 29.025,-26.204c0.949,-18.574 1.429,-37.272 1.429,-56.08c0,-0.208 0,-0.415 0,-0.623c-0.008,-15.261 -12.405,-27.644 -27.666,-27.635c-15.261,0.008 -27.644,12.405 -27.636,27.666Zm-2057.77,2.376c-0.001,-0.594 -0.001,-1.189 -0.001,-1.784c-0,-17.461 0.435,-34.822 1.297,-52.071c0.761,-15.242 -10.996,-28.235 -26.238,-28.996c-15.242,-0.761 -28.235,10.996 -28.996,26.238c-0.906,18.163 -1.365,36.443 -1.365,54.829c-0,0.626 0,1.252 0.001,1.878c0.026,15.261 12.437,27.63 27.698,27.604c15.261,-0.026 27.63,-12.437 27.604,-27.698Zm2052.15,-109.918c1.858,17.767 3.264,35.669 4.205,53.692c0.796,15.24 13.815,26.967 29.056,26.171c15.24,-0.795 26.967,-13.815 26.171,-29.055c-0.991,-18.987 -2.472,-37.845 -4.43,-56.562c-1.588,-15.178 -15.2,-26.212 -30.378,-24.624c-15.179,1.588 -26.212,15.2 -24.624,30.378Zm-2046.77,2.361c1.835,-17.943 4.132,-35.749 6.879,-53.408c2.346,-15.079 -7.992,-29.227 -23.072,-31.572c-15.079,-2.346 -29.227,7.992 -31.572,23.072c-2.895,18.608 -5.316,37.373 -7.25,56.28c-1.553,15.182 9.512,28.768 24.694,30.321c15.182,1.553 28.768,-9.512 30.321,-24.693Zm2029.98,-108.693c3.714,17.488 6.983,35.139 9.794,52.942c2.381,15.074 16.552,25.38 31.626,22.999c15.074,-2.38 25.38,-16.551 22.999,-31.625c-2.963,-18.765 -6.409,-37.371 -10.323,-55.804c-3.17,-14.928 -17.864,-24.474 -32.792,-21.304c-14.928,3.17 -24.474,17.864 -21.304,32.792Zm-2013.42,2.321c3.701,-17.63 7.854,-35.093 12.446,-52.379c3.918,-14.749 -4.875,-29.905 -19.624,-33.824c-14.75,-3.918 -29.906,4.875 -33.824,19.624c-4.841,18.222 -9.219,36.632 -13.12,55.217c-3.136,14.935 6.444,29.606 21.38,32.742c14.935,3.135 29.606,-6.445 32.742,-21.38Zm1985.55,-106.284c5.54,17.014 10.648,34.223 15.311,51.613c3.953,14.74 19.129,23.498 33.87,19.546c14.74,-3.953 23.498,-19.129 19.545,-33.87c-4.916,-18.332 -10.301,-36.474 -16.141,-54.411c-4.725,-14.511 -20.342,-22.456 -34.854,-17.731c-14.511,4.725 -22.456,20.342 -17.731,34.853Zm-1957.91,2.257c5.532,-17.125 11.501,-34.055 17.895,-50.776c5.45,-14.255 -1.698,-30.253 -15.952,-35.703c-14.255,-5.45 -30.253,1.698 -35.703,15.952c-6.74,17.627 -13.033,35.474 -18.864,53.528c-4.692,14.522 3.29,30.121 17.812,34.812c14.522,4.691 30.121,-3.291 34.812,-17.813Zm1919.23,-102.708c7.307,16.351 14.198,32.928 20.662,49.717c5.484,14.241 21.498,21.352 35.74,15.869c14.242,-5.484 21.352,-21.498 15.869,-35.74c-6.814,-17.697 -14.078,-35.17 -21.779,-52.406c-6.226,-13.934 -22.593,-20.191 -36.526,-13.966c-13.933,6.226 -20.191,22.592 -13.966,36.526Zm-1880.79,2.168c7.298,-16.437 15.015,-32.647 23.137,-48.618c6.917,-13.603 1.489,-30.264 -12.114,-37.181c-13.603,-6.918 -30.263,-1.49 -37.181,12.113c-8.56,16.833 -16.693,33.919 -24.385,51.243c-6.194,13.948 0.102,30.3 14.05,36.493c13.948,6.193 30.3,-0.102 36.493,-14.05Zm1831.78,-98.013c8.987,15.509 17.58,31.273 25.767,47.28c6.949,13.587 23.622,18.977 37.209,12.028c13.587,-6.949 18.976,-23.622 12.027,-37.209c-8.627,-16.869 -17.683,-33.482 -27.154,-49.826c-7.652,-13.205 -24.584,-17.713 -37.788,-10.061c-13.205,7.651 -17.713,24.583 -10.061,37.788Zm-1782.98,2.055c8.976,-15.572 18.348,-30.889 28.102,-45.935c8.302,-12.805 4.646,-29.941 -8.16,-38.243c-12.805,-8.302 -29.941,-4.645 -38.243,8.16c-10.278,15.854 -20.154,31.993 -29.612,48.402c-7.621,13.222 -3.073,30.144 10.149,37.765c13.221,7.621 30.143,3.073 37.764,-10.149Zm1724.21,-92.263c10.563,14.498 20.757,29.282 30.567,44.338c8.331,12.786 25.476,16.403 38.262,8.072c12.786,-8.332 16.403,-25.476 8.072,-38.263c-10.336,-15.862 -21.075,-31.438 -32.204,-46.712c-8.987,-12.335 -26.297,-15.053 -38.631,-6.066c-12.334,8.986 -15.052,26.296 -6.066,38.631Zm-1665.64,1.92c10.546,-14.545 21.464,-28.804 32.739,-42.763c9.589,-11.872 7.736,-29.296 -4.136,-38.885c-11.872,-9.589 -29.296,-7.736 -38.885,4.136c-11.878,14.705 -23.379,29.727 -34.49,45.05c-8.958,12.355 -6.2,29.659 6.155,38.617c12.355,8.958 29.659,6.2 38.617,-6.155Zm1597.79,-85.531c12.019,13.33 23.695,26.976 35.014,40.923c9.616,11.85 27.044,13.664 38.894,4.047c11.85,-9.616 13.663,-27.044 4.047,-38.894c-11.923,-14.692 -24.222,-29.067 -36.883,-43.109c-10.219,-11.334 -27.718,-12.239 -39.052,-2.02c-11.334,10.22 -12.239,27.719 -2.02,39.053Zm-1530.13,1.764c11.995,-13.365 24.334,-26.415 37.004,-39.136c10.77,-10.812 10.734,-28.334 -0.078,-39.104c-10.813,-10.769 -28.335,-10.734 -39.105,0.079c-13.345,13.399 -26.343,27.145 -38.978,41.223c-10.193,11.357 -9.248,28.854 2.109,39.047c11.358,10.194 28.855,9.248 39.048,-2.109Zm1453.97,-77.885c13.344,12.017 26.372,24.379 39.071,37.07c10.794,10.788 28.316,10.783 39.104,-0.011c10.788,-10.794 10.783,-28.316 -0.011,-39.104c-13.376,-13.369 -27.099,-26.39 -41.155,-39.048c-11.34,-10.213 -28.838,-9.298 -39.051,2.042c-10.213,11.34 -9.298,28.838 2.042,39.051Zm-1377.98,1.59c13.309,-12.043 26.935,-23.742 40.863,-35.084c11.833,-9.637 13.616,-27.068 3.979,-38.901c-9.637,-11.834 -27.068,-13.617 -38.901,-3.98c-14.671,11.948 -29.024,24.271 -43.044,36.956c-11.317,10.239 -12.192,27.739 -1.953,39.056c10.239,11.317 27.739,12.191 39.056,1.953Zm1294.33,-69.393c14.527,10.571 28.767,21.513 42.706,32.812c11.856,9.61 29.283,7.786 38.892,-4.069c9.61,-11.855 7.787,-29.282 -4.069,-38.892c-14.684,-11.903 -29.686,-23.43 -44.989,-34.566c-12.34,-8.98 -29.648,-6.252 -38.628,6.087c-8.979,12.34 -6.251,29.648 6.088,38.628Zm-1210.83,1.399c14.48,-10.589 29.247,-20.808 44.286,-30.644c12.772,-8.353 16.359,-25.504 8.006,-38.276c-8.354,-12.772 -25.505,-16.359 -38.276,-8.006c-15.845,10.363 -31.403,21.13 -46.658,32.285c-12.319,9.008 -15.007,26.323 -5.999,38.642c9.008,12.319 26.322,15.007 38.641,5.999Zm1120.59,-60.123c15.557,9.003 30.857,18.402 45.887,28.183c12.791,8.324 29.934,4.697 38.258,-8.094c8.324,-12.791 4.697,-29.934 -8.094,-38.258c-15.837,-10.306 -31.959,-20.209 -48.352,-29.696c-13.208,-7.644 -30.138,-3.126 -37.782,10.083c-7.644,13.209 -3.126,30.138 10.083,37.782Zm-1030.48,1.191c15.493,-9.014 31.243,-17.635 47.236,-25.849c13.575,-6.973 18.935,-23.655 11.963,-37.23c-6.973,-13.575 -23.655,-18.935 -37.23,-11.963c-16.854,8.657 -33.451,17.742 -49.779,27.241c-13.191,7.675 -17.67,24.615 -9.996,37.806c7.675,13.191 24.615,17.669 37.806,9.995Zm934.61,-50.153c16.424,7.327 32.621,15.072 48.578,23.222c13.591,6.941 30.261,1.542 37.202,-12.049c6.941,-13.591 1.542,-30.261 -12.049,-37.202c-16.818,-8.589 -33.89,-16.752 -51.2,-24.475c-13.937,-6.217 -30.3,0.05 -36.517,13.987c-6.218,13.937 0.049,30.3 13.986,36.517Zm-838.85,0.97c16.339,-7.335 32.904,-14.256 49.681,-20.749c14.232,-5.508 21.315,-21.535 15.807,-35.767c-5.509,-14.233 -21.536,-21.315 -35.768,-15.807c-17.684,6.844 -35.145,14.139 -52.368,21.871c-13.923,6.25 -20.152,22.627 -13.902,36.55c6.25,13.922 22.627,20.151 36.55,13.902Zm738.379,-39.586c17.115,5.562 34.034,11.561 50.743,17.984c14.245,5.475 30.256,-1.645 35.731,-15.89c5.475,-14.245 -1.645,-30.255 -15.89,-35.731c-17.615,-6.77 -35.45,-13.094 -53.493,-18.957c-14.514,-4.717 -30.126,3.238 -34.843,17.751c-4.716,14.514 3.238,30.127 17.752,34.843Zm-637.995,0.736c17.005,-5.57 34.205,-10.708 51.586,-15.402c14.733,-3.978 23.465,-19.17 19.486,-33.903c-3.978,-14.733 -19.17,-23.465 -33.903,-19.487c-18.324,4.949 -36.456,10.365 -54.383,16.237c-14.503,4.75 -22.421,20.381 -17.67,34.884c4.75,14.503 20.381,22.421 34.884,17.671Zm534.014,-28.555c17.623,3.731 35.08,7.915 52.358,12.538c14.743,3.944 29.914,-4.823 33.858,-19.565c3.945,-14.743 -4.822,-29.914 -19.565,-33.858c-18.214,-4.873 -36.617,-9.284 -55.194,-13.218c-14.93,-3.161 -29.618,6.393 -32.78,21.323c-3.161,14.93 6.393,29.618 21.323,32.78Zm-430.1,0.494c17.482,-3.745 35.128,-7.044 52.925,-9.887c15.07,-2.407 25.351,-16.595 22.944,-31.665c-2.407,-15.071 -16.596,-25.351 -31.666,-22.945c-18.759,2.997 -37.359,6.474 -55.785,10.421c-14.923,3.196 -24.443,17.907 -21.247,32.829c3.196,14.923 17.906,24.443 32.829,21.247Zm323.758,-17.23c17.938,1.866 35.74,4.194 53.394,6.972c15.075,2.372 29.241,-7.942 31.613,-23.017c2.372,-15.076 -7.942,-29.241 -23.018,-31.613c-18.603,-2.927 -37.363,-5.38 -56.267,-7.347c-15.179,-1.579 -28.784,9.462 -30.364,24.641c-1.579,15.179 9.463,28.785 24.642,30.364Zm-217.456,0.248c17.765,-1.889 35.663,-3.326 53.685,-4.298c15.238,-0.822 26.943,-13.861 26.121,-29.1c-0.822,-15.239 -13.861,-26.944 -29.1,-26.122c-18.985,1.025 -37.841,2.538 -56.555,4.529c-15.175,1.614 -26.185,15.245 -24.571,30.42c1.614,15.175 15.245,26.186 30.42,24.571Zm107.532,-5.808l2.376,-0.002c18.063,-0 36.017,0.466 53.853,1.387c15.24,0.787 28.253,-10.947 29.04,-26.188c0.787,-15.241 -10.947,-28.253 -26.188,-29.04c-16.432,-0.849 -32.961,-1.331 -49.578,-1.438l-7.127,-0.023c-0.834,-0 -1.668,0.001 -2.501,0.002c-15.261,0.035 -27.623,12.453 -27.589,27.714c0.035,15.261 12.453,27.623 27.714,27.588Z"/><g><path d="M1471.33,1075.09c1.861,0.512 2.088,3.328 0.68,8.447c-0.192,0.698 -0.757,2.295 -1.693,4.79l-1.056,3.839c-0.576,2.094 -0.447,3.444 0.388,4.049c0.835,0.605 3.928,1.643 9.279,3.115l128.089,35.232c8.376,2.304 13.23,3.764 14.562,4.381c1.332,0.616 1.742,1.855 1.23,3.717c-0.704,2.559 -12.632,8.163 -35.784,16.812c-3.007,0.925 -7.201,2.524 -12.582,4.798c-0.826,0.274 -2.923,1.073 -6.291,2.4c-18.557,7.409 -53.201,20.531 -103.932,39.364l109.94,30.239c8.609,2.368 13.482,2.395 14.62,0.079c1.137,-2.315 2.602,-6.73 4.394,-13.245l0.384,-1.396c0.767,-2.792 1.966,-3.964 3.595,-3.516c1.861,0.512 2.088,3.328 0.68,8.446c-0.256,0.931 -1.545,4.706 -3.866,11.326c-1.193,3.426 -2.173,6.535 -2.941,9.327c-0.64,2.327 -1.164,4.686 -1.571,7.077c-0.751,4.548 -1.83,9.382 -3.238,14.501c-1.024,3.723 -2.467,5.328 -4.328,4.816c-1.629,-0.447 -1.835,-2.882 -0.619,-7.303l0.864,-3.141l0.899,-4.633c1.07,-5.712 0.823,-8.909 -0.742,-9.589c-0.866,-0.489 -4.208,-1.533 -10.025,-3.133l-95.979,-26.4c-17.451,-4.8 -28.209,-6.633 -32.275,-5.499c-5.422,1.512 -9.253,6.34 -11.493,14.484c-1.6,5.817 -3.447,8.437 -5.541,7.861c-1.628,-0.448 -2.027,-2.184 -1.195,-5.209l0.384,-1.396l5.629,-19.1c0.256,-0.93 0.672,-2.443 1.248,-4.537c0.407,-2.391 0.867,-4.517 1.379,-6.378l3.552,-12.914l135.736,-51.264l-97.026,-26.687c-5.817,-1.6 -9.254,-2.296 -10.313,-2.086c-1.059,0.209 -2.036,1.943 -2.932,5.2c-0.832,3.025 -1.388,5.5 -1.667,7.425l-0.576,2.094c-1.216,4.421 -2.755,6.376 -4.616,5.864c-1.164,-0.32 -1.558,-1.617 -1.182,-3.892c0.375,-2.274 2.419,-10.159 6.131,-23.654c3.52,-12.798 5.684,-20.211 6.493,-22.241c0.808,-2.03 1.911,-2.853 3.307,-2.47Z" style="fill-rule:nonzero;"/><path d="M1633.83,908.671c21.169,9.989 35.875,25.334 44.119,46.034c8.244,20.701 7.68,40.981 -1.692,60.841c-9.989,21.169 -25.882,35.483 -47.68,42.942c-21.798,7.459 -43.499,6.091 -65.105,-4.104c-22.479,-10.607 -37.596,-26.212 -45.352,-46.816c-7.755,-20.604 -6.536,-41.708 3.659,-63.314c9.681,-20.515 25.265,-34.174 46.754,-40.978c21.489,-6.805 43.254,-5.006 65.297,5.395Zm-13.539,31.235c-25.316,-11.945 -47.705,-16.239 -67.167,-12.882c-12.474,2.119 -21.44,8.962 -26.898,20.529c-7.517,15.932 -4.245,31.618 9.816,47.058c9.852,10.786 24.163,20.608 42.932,29.464c22.479,10.607 41.901,14.969 58.266,13.085c16.366,-1.884 27.844,-9.81 34.434,-23.777c12.667,-26.844 -4.461,-51.336 -51.383,-73.477Z" style="fill-rule:nonzero;"/><path d="M1704.77,732.599c2.788,1.909 3.364,4.058 1.728,6.447c-1.772,2.589 -4.618,2.688 -8.538,0.297c-8.573,-4.992 -16.402,-7.866 -23.488,-8.623c-9.758,-1.124 -19.273,5.084 -28.543,18.625c-1.363,1.991 -3.376,5.145 -6.04,9.463l120.072,82.202c3.784,2.59 7.752,1.066 11.904,-4.572c4.153,-5.638 6.926,-7.98 8.32,-7.026c1.394,0.954 0.932,3.124 -1.386,6.509l-1.431,2.091c-1.227,1.792 -3.235,4.511 -6.024,8.159l-10.224,14.934c-2.664,4.318 -6.245,9.762 -10.744,16.333l-4.907,7.169c-2.727,3.982 -4.787,5.497 -6.181,4.542c-1.394,-0.954 0.059,-4.785 4.359,-11.492c1.635,-2.39 2.527,-4.119 2.674,-5.188c0.692,-1.866 0.26,-3.478 -1.296,-4.835c-1.556,-1.358 -6.516,-4.9 -14.879,-10.625l-107.229,-73.41c-10.832,15.396 -16.157,26.592 -15.976,33.589c0.182,6.997 6,15.586 17.454,25.767c4.171,3.733 5.575,6.595 4.211,8.586c-1.226,1.792 -4.13,1.121 -8.71,-2.015c-5.774,-3.953 -16.511,-12.62 -32.21,-25.999l48.242,-69.185c4.226,-6.173 12.615,-18.854 25.168,-38.044c1.09,-1.593 2.123,-3.956 3.099,-7.09l6.477,3.995l11.366,6.466l13.158,7.692l5.786,3.083c1.928,1.028 3.191,1.746 3.788,2.155Z" style="fill-rule:nonzero;"/><path d="M1930.69,554.491c15.949,17.132 23.91,36.839 23.882,59.121c-0.028,22.281 -8.079,40.904 -24.151,55.867c-17.133,15.95 -37.204,23.343 -60.213,22.179c-23.009,-1.164 -42.653,-10.489 -58.932,-27.975c-16.937,-18.193 -25.182,-38.294 -24.737,-60.304c0.446,-22.011 9.411,-41.155 26.897,-57.434c16.603,-15.457 36.144,-22.356 58.623,-20.699c22.479,1.657 42.023,11.406 58.631,29.245Zm-24.165,23.98c-19.074,-20.489 -38.27,-32.786 -57.588,-36.892c-12.37,-2.661 -23.235,0.365 -32.596,9.08c-12.894,12.003 -15.677,27.783 -8.351,47.34c5.145,13.673 14.789,28.104 28.93,43.294c16.937,18.192 33.353,29.451 49.248,33.775c15.896,4.325 29.495,1.225 40.799,-9.298c21.725,-20.225 14.911,-49.325 -20.442,-87.299Z" style="fill-rule:nonzero;"/><path d="M2156.8,495.457c0.785,1.217 0.889,2.155 0.31,2.816c-0.579,0.661 -2.895,2.3 -6.95,4.918l-6.082,3.927l-44.507,29.165c-3.65,2.356 -5.867,2.926 -6.652,1.71c-0.916,-1.42 1.774,-4.593 8.072,-9.52c3.793,-3.024 5.297,-5.144 4.511,-6.36c-0.523,-0.811 -4.753,-2.245 -12.688,-4.303c-7.137,-1.712 -34.91,-8.915 -83.319,-21.609l35.34,54.739c3.141,4.866 5.582,7.311 7.322,7.337c1.74,0.026 6.021,-2.02 12.842,-6.136c2.23,-1.44 3.869,-1.349 4.916,0.273c0.916,1.419 -0.147,3.11 -3.188,5.073l-2.128,1.375c-2.289,0.903 -12.152,6.983 -29.587,18.24c-7.704,4.974 -13.25,8.841 -16.637,11.603l-2.129,1.374c-2.838,1.833 -4.781,1.938 -5.828,0.316c-1.178,-1.825 1.238,-4.533 7.248,-8.127c4.055,-2.617 5.994,-4.731 5.817,-6.34c-0.177,-1.609 -2.687,-6.164 -7.53,-13.665l-65.773,-101.875c-3.665,-5.677 -5.795,-8.754 -6.39,-9.231c-1.656,-1.23 -5.017,-0.208 -10.086,3.064c-5.068,3.273 -8.192,3.996 -9.37,2.172c-0.916,-1.419 0.045,-3.045 2.884,-4.878c0.405,-0.261 1.419,-0.916 3.041,-1.963c1.955,-0.975 3.541,-1.856 4.758,-2.641l19.963,-12.458c1.013,-0.654 5.205,-3.504 12.576,-8.55l10.143,-6.979c2.838,-1.833 4.781,-1.938 5.828,-0.316c0.916,1.419 -1.905,4.39 -8.465,8.912c-3.113,2.297 -4.86,3.928 -5.243,4.893c-0.382,0.965 0.343,2.866 2.176,5.704l32.395,50.178c15.268,-59.55 22.443,-90.035 21.527,-91.454c-0.654,-1.014 -5.138,1.163 -13.45,6.529c-2.433,1.571 -4.173,1.545 -5.22,-0.076c-0.785,-1.217 -0.534,-2.385 0.755,-3.504c1.288,-1.118 6.291,-4.492 15.008,-10.12c15.611,-10.079 24.8,-15.868 27.566,-17.366c2.767,-1.499 4.608,-1.539 5.524,-0.12c1.309,2.027 0.074,4.118 -3.707,6.271l-8.711,5.193c-2.969,1.63 -5.238,5.68 -6.805,12.15c-1.196,3.931 -2.895,10.198 -5.096,18.801c-3.136,12.939 -8.108,32.378 -14.915,58.316c4.468,1.137 20.446,4.753 47.934,10.847l59.248,13.021c9.342,2.011 15.285,2.986 17.829,2.923c2.545,-0.063 5.845,-1.404 9.899,-4.022c2.433,-1.57 4.108,-1.646 5.024,-0.227Z" style="fill-rule:nonzero;"/><path d="M2367.31,325.514c9.571,26.562 6.759,50.79 -8.438,72.682c-10.994,15.761 -28.069,27.814 -51.226,36.158c0.681,-0.245 -2.028,0.602 -8.126,2.543c-6.098,1.941 -15.39,5.161 -27.877,9.661l-7.492,2.699c0.455,-0.163 -1.548,0.686 -6.007,2.549c-4.458,1.864 -8.958,3.613 -13.499,5.249l-3.064,1.105c-3.86,1.391 -6.158,1.064 -6.894,-0.979c-0.655,-1.816 0.421,-3.102 3.227,-3.856l7.956,-2.482c4.622,-1.409 6.669,-3.558 6.142,-6.446c0.127,-1.071 -1.078,-5.126 -3.614,-12.164l-39.39,-109.314c-3.927,-10.898 -6.24,-16.605 -6.939,-17.122c-1.626,-0.954 -5.886,-0.317 -12.778,1.911c-4.087,1.472 -6.417,1.414 -6.989,-0.175c-0.655,-1.817 1.061,-3.461 5.148,-4.934c-0.454,0.164 0.567,-0.204 3.065,-1.104c2.806,-0.755 6.933,-2.114 12.382,-4.077l22.816,-8.222c29.741,-10.716 51.509,-16.508 65.305,-17.375c16.538,-1.086 31.854,3.335 45.948,13.262c14.094,9.927 24.208,23.404 30.344,40.431Zm-32.72,10.636c-16.934,-46.995 -44.471,-63.62 -82.612,-49.877c-11.578,4.172 -17.767,7.108 -18.566,8.806c-0.798,1.699 0.07,6.067 2.606,13.105l43.317,120.212c1.473,4.086 3.337,6.236 5.594,6.448c2.257,0.213 7.359,-1.112 15.305,-3.975c40.411,-14.562 51.863,-46.135 34.356,-94.719Z" style="fill-rule:nonzero;"/><path d="M2575,287.219c3.921,23.077 -0.248,43.918 -12.507,62.524c-12.26,18.606 -29.214,29.748 -50.864,33.427c-23.077,3.921 -43.91,-0.922 -62.5,-14.531c-18.59,-13.608 -29.886,-32.189 -33.889,-55.741c-4.164,-24.505 -0.016,-45.832 12.443,-63.982c12.459,-18.15 30.466,-29.226 54.018,-33.229c22.364,-3.8 42.483,1.165 60.36,14.895c17.876,13.729 28.856,32.608 32.939,56.637Zm-33.363,6.771c-4.69,-27.597 -13.979,-48.416 -27.87,-62.456c-8.875,-9.017 -19.618,-12.454 -32.227,-10.312c-17.367,2.951 -28.359,14.61 -32.976,34.977c-3.208,14.253 -3.073,31.609 0.403,52.069c4.164,24.504 11.701,42.928 22.61,55.272c10.91,12.343 23.977,17.221 39.203,14.634c29.263,-4.973 39.549,-33.034 30.857,-84.184Z" style="fill-rule:nonzero;"/><path d="M2759.58,244.536c0.034,3.379 -1.398,5.082 -4.293,5.111c-3.137,0.031 -4.849,-2.245 -5.136,-6.827c-0.822,-9.887 -2.953,-17.95 -6.393,-24.191c-4.671,-8.641 -15.211,-12.881 -31.62,-12.718c-2.413,0.024 -6.152,0.182 -11.217,0.473l1.442,145.508c0.045,4.584 3.568,6.963 10.568,7.135c7.001,0.172 10.509,1.102 10.526,2.791c0.017,1.69 -2.026,2.554 -6.128,2.595l-2.534,0.025c-2.172,0.022 -5.551,-0.065 -10.138,-0.261l-18.098,0.179c-5.065,0.292 -11.579,0.477 -19.543,0.556l-8.687,0.086c-4.826,0.048 -7.247,-0.773 -7.264,-2.462c-0.017,-1.689 3.955,-2.694 11.916,-3.014c2.896,-0.029 4.824,-0.289 5.784,-0.782c1.926,-0.501 2.999,-1.779 3.22,-3.832c0.221,-2.054 0.281,-8.148 0.181,-18.283l-1.288,-129.943c-18.824,-0.055 -31.051,1.997 -36.681,6.155c-5.63,4.159 -9.335,13.849 -11.115,29.07c-0.669,5.557 -2.21,8.348 -4.623,8.372c-2.172,0.021 -3.285,-2.743 -3.34,-8.293c-0.069,-6.998 0.88,-20.763 2.849,-41.296l84.343,-0.112c7.481,-0.074 22.681,-0.466 45.6,-1.175c1.93,-0.02 4.459,-0.527 7.587,-1.524l0.437,7.598l1.215,13.02l1.237,15.191l0.788,6.508c0.263,2.17 0.398,3.616 0.405,4.34Z" style="fill-rule:nonzero;"/><path d="M3011.64,349.792c-0.147,0.709 -0.68,2.694 -1.599,5.953c-3.581,12.567 -5.908,21.45 -6.981,26.65c-0.732,3.545 -1.451,8.817 -2.158,15.817l-0.512,2.482c-0.488,2.363 -1.677,3.349 -3.568,2.959c-1.891,-0.39 -3.366,-2.79 -4.428,-7.198l-1.799,-7.394c-0.139,-0.521 -0.347,-1.304 -0.625,-2.347c-12.83,8.439 -28.581,10.731 -47.251,6.876c-23.87,-4.929 -42.075,-17.004 -54.615,-36.226c-12.54,-19.222 -16.322,-40.886 -11.344,-64.992c4.977,-24.106 16.391,-42.386 34.24,-54.84c17.848,-12.454 38.117,-16.339 60.805,-11.654c17.725,3.66 31.662,11.343 41.812,23.049c0.75,1.14 1.598,1.808 2.543,2.003c1.182,0.244 2.562,-1.072 4.142,-3.95c2.728,-4.857 5.274,-7.042 7.637,-6.554c1.654,0.341 2.286,1.458 1.896,3.348c-0.049,0.237 -0.505,1.251 -1.368,3.044c-3.077,7.743 -6.369,19.507 -9.875,35.292c-2.285,9.877 -4.61,14.572 -6.973,14.084c-1.891,-0.39 -2.825,-2.431 -2.802,-6.123c0.272,-13.25 -0.612,-23.288 -2.652,-30.116c-4.781,-15.033 -15.798,-24.33 -33.05,-27.893c-14.416,-2.976 -27.318,1.629 -38.705,13.816c-11.387,12.186 -19.545,30.215 -24.474,54.084c-4.929,23.87 -4.106,43.752 2.468,59.648c6.574,15.895 17.897,25.502 33.967,28.821c12.29,2.537 23.377,0.453 33.263,-6.253c9.886,-6.707 17.666,-17.236 23.34,-31.588c2.45,-5.901 4.621,-8.656 6.511,-8.265c2.364,0.488 3.082,2.977 2.155,7.467Z" style="fill-rule:nonzero;"/><path d="M3214.88,394.78c-8.467,21.823 -22.733,37.578 -42.799,47.265c-20.065,9.687 -40.335,10.559 -60.808,2.616c-21.823,-8.467 -37.225,-23.308 -46.207,-44.524c-8.982,-21.216 -9.152,-42.96 -0.511,-65.233c8.991,-23.172 23.488,-39.356 43.491,-48.549c20.004,-9.193 41.142,-9.469 63.415,-0.828c21.148,8.205 35.875,22.784 44.182,43.738c8.307,20.954 8.053,42.792 -0.763,65.515Zm-32.115,-11.295c10.125,-26.098 12.825,-48.734 8.099,-67.91c-2.996,-12.293 -10.456,-20.752 -22.38,-25.379c-16.423,-6.372 -31.838,-1.999 -46.246,13.119c-10.062,10.591 -18.847,25.561 -26.354,44.909c-8.99,23.173 -11.967,42.855 -8.93,59.046c3.036,16.191 11.754,27.08 26.152,32.666c27.673,10.736 50.892,-8.081 69.659,-56.451Z" style="fill-rule:nonzero;"/><path d="M3377.23,580.837c-1.014,1.643 -3.369,1.324 -7.066,-0.958c0.822,0.507 -0.205,-0.126 -3.08,-1.901c-2.748,-1.98 -7.305,-4.934 -13.671,-8.863l-10.781,-6.654c-3.081,-1.902 -7.148,-4.27 -12.204,-7.107l-15.093,-9.316c-3.696,-2.281 -5.038,-4.243 -4.024,-5.886c0.634,-1.027 1.476,-1.358 2.527,-0.993c1.051,0.365 4.618,2.283 10.699,5.753c4.44,2.456 7.335,3.393 8.688,2.81c1.352,-0.583 4.057,-4.16 8.112,-10.732l61.028,-98.877c-10.033,7.986 -26.445,21.252 -49.235,39.798c-13.468,11.254 -30.704,25.855 -51.707,43.802c-5.982,5.099 -9.59,7.268 -10.822,6.507c-1.643,-1.014 -1.677,-4.863 -0.103,-11.549c4.022,-17.084 11.834,-60.755 23.436,-131.012l-65.02,105.346c-1.648,2.67 -1.635,4.947 0.038,6.83c2.749,1.98 6.382,4.364 10.899,7.152c2.67,1.648 3.561,3.191 2.674,4.628c-1.014,1.643 -3.575,1.197 -7.682,-1.338l-4.312,-2.662c-1.722,-1.346 -3.814,-2.779 -6.279,-4.3l-17.747,-10.529c-1.975,-0.935 -4.298,-2.227 -6.967,-3.874c-3.08,-1.902 -4.114,-3.674 -3.1,-5.316c0.888,-1.438 4.68,-0.231 11.378,3.619c4.645,2.583 7.612,3.634 8.901,3.154c1.289,-0.481 3.708,-3.596 7.257,-9.346l64.45,-104.422c4.309,-6.982 6.176,-11.501 5.602,-13.557c-0.574,-2.056 -4.597,-5.531 -12.068,-10.426c-2.67,-1.648 -3.498,-3.293 -2.484,-4.936c0.761,-1.232 2.95,-0.873 6.568,1.076c3.617,1.949 16.002,9.451 37.153,22.506l-0.859,4.149c-0.367,2.893 -0.997,6.899 -1.889,12.021l-4.015,23.044c-1.115,6.401 -2.947,17.181 -5.497,32.339l-8.579,50.428c9.164,-7.956 16.025,-13.788 20.583,-17.498l73.259,-59.425l23.41,14.449l13.744,8.057c5.466,3.09 7.565,5.662 6.298,7.716c-1.014,1.643 -3.536,1.363 -7.564,-0.84c-5.466,-3.09 -8.776,-4.849 -9.929,-5.278c-3.509,-0.748 -6.341,0.624 -8.495,4.115l-67.112,108.735c-5.07,8.214 -7.076,13.072 -6.019,14.576c1.057,1.503 5.59,4.726 13.599,9.669c3.081,1.901 4.114,3.673 3.1,5.316Z" style="fill-rule:nonzero;"/><path d="M3571.16,587.444c-8.676,10.045 -19.765,14.577 -33.267,13.596c-13.503,-0.98 -26.92,-7.228 -40.252,-18.743c-2.008,-1.735 -5.424,-5.164 -10.247,-10.286l-1.644,-1.42l-42.827,49.583c-4.259,4.931 -5.353,8.689 -3.281,11.275c2.071,2.586 5.389,5.851 9.955,9.795c2.008,1.735 2.461,3.242 1.357,4.52c-0.789,0.913 -2.312,0.554 -4.57,-1.077c-2.258,-1.632 -9.596,-7.811 -22.015,-18.537c-15.523,-13.408 -24.484,-21.308 -26.883,-23.699c-2.399,-2.391 -3.126,-4.134 -2.179,-5.23c1.262,-1.461 2.544,-1.469 3.848,-0.024l3.872,3.823c4.516,3.262 7.179,5.164 7.988,5.703c0.809,0.54 1.633,0.694 2.472,0.461c0.838,-0.232 3.702,-3.179 8.592,-8.84l79.265,-91.77c6.31,-7.305 9.61,-11.31 9.901,-12.016c0.871,-2.117 -1.341,-5.462 -6.637,-10.037l-3.561,-3.076c-2.009,-1.735 -2.382,-3.333 -1.121,-4.794c0.789,-0.913 2.267,-0.593 4.433,0.959c2.167,1.553 9.094,7.377 20.782,17.472c23.376,20.191 37.318,33.03 41.826,38.518c16.519,20.008 17.916,37.956 4.193,53.844Zm-24.069,-20.311c14.985,-17.349 14.716,-32.728 -0.807,-46.136c-4.566,-3.944 -7.712,-6.023 -9.439,-6.239c-1.726,-0.216 -4.088,1.411 -7.085,4.881l-40.697,47.117c22.28,19.244 41.623,19.37 58.028,0.377Z" style="fill-rule:nonzero;"/><path d="M3736.91,716.609c-1.281,1.101 -3.18,0.188 -5.697,-2.739l-1.18,-1.373c-1.391,-1.987 -2.872,-3.895 -4.446,-5.725c-2.517,-2.928 -5.606,-2.818 -9.265,0.328l-50.776,43.66c-17.749,15.261 -29.5,24.729 -35.253,28.402c-5.752,3.673 -12.528,6.157 -20.326,7.452c-17.663,2.776 -34.283,-4.894 -49.859,-23.008c-12.901,-15.005 -19.73,-29.979 -20.486,-44.923c-0.676,-13.741 8.135,-28.478 26.433,-44.211l57.913,-49.796c9.88,-8.496 15.003,-13.457 15.367,-14.884c0.364,-1.427 -1.499,-4.52 -5.59,-9.277c-3.304,-3.843 -4.224,-6.393 -2.76,-7.652c1.281,-1.101 3.023,-0.371 5.225,2.191l7.316,8.508c1.391,1.987 2.479,3.438 3.266,4.353l19.824,23.055c1.101,1.281 2.53,2.758 4.286,4.43c1.416,1.647 2.281,2.653 2.596,3.019c2.832,3.294 3.516,5.57 2.052,6.829c-1.829,1.573 -5.563,-1.104 -11.202,-8.032c-1.73,-2.012 -3.073,-2.926 -4.028,-2.742c-0.955,0.185 -3.171,1.772 -6.648,4.761l-65.872,56.64c-17.932,15.419 -27.584,27.696 -28.957,36.833c-1.633,10.316 1.877,20.505 10.53,30.569c12.115,14.089 26.23,18.661 42.346,13.715c8.058,-2.473 18.583,-9.294 31.574,-20.465c-0.183,0.157 0.823,-0.708 3.019,-2.596c1.856,-1.914 3.881,-3.815 6.077,-5.702l57.089,-49.088c2.379,-2.045 3.449,-3.762 3.211,-5.148c-0.237,-1.387 -2.126,-4.139 -5.666,-8.256c-3.54,-4.117 -4.487,-6.884 -2.84,-8.3c1.281,-1.101 2.865,-0.554 4.753,1.642c0.787,0.915 1.482,1.908 2.086,2.981l10.581,12.861c0.158,0.183 1.023,1.189 2.596,3.019c1.914,1.856 4.523,4.704 7.827,8.547l3.304,3.843c2.517,2.927 3.044,5.02 1.58,6.279Z" style="fill-rule:nonzero;"/><path d="M3804.14,899.36c-2.868,1.785 -5.067,1.448 -6.598,-1.01c-1.657,-2.663 -0.604,-5.309 3.161,-7.937c8.018,-5.843 13.797,-11.856 17.339,-18.04c4.952,-8.483 3.093,-19.69 -5.578,-33.622c-1.275,-2.048 -3.354,-5.16 -6.237,-9.335l-123.539,76.893c-3.893,2.423 -4.093,6.669 -0.6,12.738c3.494,6.069 4.523,9.549 3.089,10.442c-1.434,0.893 -3.235,-0.403 -5.403,-3.885l-1.339,-2.152c-1.148,-1.843 -2.83,-4.775 -5.048,-8.796l-9.564,-15.365c-2.883,-4.175 -6.428,-9.643 -10.636,-16.404l-4.591,-7.375c-2.55,-4.098 -3.108,-6.593 -1.674,-7.485c1.434,-0.893 4.357,1.977 8.77,8.611c1.53,2.458 2.755,3.97 3.675,4.534c1.43,1.384 3.08,1.637 4.949,0.758c1.869,-0.88 7.105,-3.997 15.71,-9.353l110.325,-68.668c-9.742,-16.108 -17.852,-25.485 -24.332,-28.132c-6.479,-2.646 -16.682,-0.772 -30.61,5.622c-5.094,2.319 -8.279,2.453 -9.554,0.405c-1.148,-1.844 0.634,-4.233 5.346,-7.166c5.942,-3.698 18.193,-10.044 36.755,-19.039l43.953,71.986c3.953,6.351 12.192,19.131 24.715,38.339c1.021,1.639 2.769,3.535 5.246,5.688l-6.262,4.324l-10.489,7.808l-12.333,8.956l-5.149,4.057c-1.717,1.353 -2.882,2.22 -3.497,2.603Z" style="fill-rule:nonzero;"/><path d="M3804.51,1094.33c-0.221,0.097 -1.652,0.589 -4.293,1.477c-2.64,0.887 -4.956,1.765 -6.946,2.633l-19.059,7.914c-2.212,0.964 -4.597,2.136 -7.155,3.514l-23.018,-55.515l-27.816,-62.9c-2.025,-4.646 -2.264,-7.306 -0.715,-7.981c1.769,-0.772 3.233,0.17 4.39,2.824c3.086,7.079 5.392,11.01 6.918,11.793c1.526,0.782 5.386,-0.177 11.579,-2.877l114.145,-49.762c9.07,-3.954 13.543,-6.826 13.421,-8.615c-0.122,-1.79 -1.533,-5.782 -4.233,-11.975c-1.157,-2.655 -0.962,-4.32 0.587,-4.995c1.769,-0.771 3.281,0.281 4.535,3.156l6.365,14.6c0.839,2.53 1.259,3.795 1.259,3.795l3.616,8.295c0.483,1.106 3.004,6.588 7.565,16.446l24.447,56.077c2.508,5.752 4.802,10.411 6.884,13.979l-2.323,1.013l-4.832,2.501c-3.125,1.889 -12.694,7.114 -28.706,15.674c-1.01,0.703 -2.289,1.393 -3.837,2.068c-2.876,1.253 -4.652,1.106 -5.327,-0.443c-0.868,-1.99 0.718,-4.393 4.756,-7.206c15.462,-10.427 22.75,-20.58 21.865,-30.461c-0.573,-5.542 -4.814,-17.382 -12.722,-35.521l-7.377,-16.923l-62.05,27.051l3.472,7.964c6.172,14.157 11.143,22.389 14.912,24.694c3.769,2.306 11.093,1.745 21.973,-1.681c6.483,-2.037 10.158,-2.06 11.026,-0.069c0.965,2.212 -0.765,4.282 -5.189,6.211c-2.655,1.157 -6.82,2.776 -12.495,4.855c-5.675,2.079 -9.95,3.745 -12.826,4.999c-14.378,6.269 -24.077,10.892 -29.097,13.87c-1.673,0.993 -3.063,1.73 -4.169,2.212c-3.539,1.543 -5.791,1.209 -6.756,-1.003c-0.868,-1.991 1.319,-4.524 6.56,-7.598c11.366,-6.535 17.536,-11.858 18.509,-15.967c0.972,-4.11 -1.676,-13.354 -7.944,-27.732l-3.617,-8.296l-71.672,31.246c14.398,32.422 23.625,51.171 27.681,56.247c6.29,7.788 19.175,8.357 38.653,1.708c3.414,-1.225 5.604,-0.732 6.568,1.48c0.965,2.212 -1.54,4.62 -7.512,7.224Z" style="fill-rule:nonzero;"/><path d="M3825.21,1278.65c-7.462,1.99 -12.933,-3.544 -16.416,-16.601c-3.358,-12.591 -1.314,-24.125 6.131,-34.602c3.265,-4.617 6.84,-8.068 10.726,-10.354c3.886,-2.285 13.422,-6.327 28.609,-12.125c9.716,-3.84 15.856,-8.912 18.42,-15.215c2.565,-6.304 2.37,-15.93 -0.584,-28.878l-72.048,19.215c-3.451,0.171 -3.498,6.552 -0.14,19.144c0.684,2.564 0.21,4.064 -1.422,4.5c-1.632,0.435 -2.883,-0.979 -3.754,-4.244c-0.684,-2.565 -1.22,-5.044 -1.609,-7.438l-3.265,-12.241c-1.368,-5.13 -3.133,-11.278 -5.294,-18.444l-4.85,-18.187c-1.741,-6.528 -1.796,-10.01 -0.164,-10.446c1.866,-0.497 3.109,0.42 3.731,2.751c0.187,0.7 0.381,1.897 0.583,3.591l0.373,1.399c2.115,7.928 4.804,11.457 8.068,10.586l138.152,-36.845c2.565,-0.685 4.084,-1.777 4.559,-3.277c0.474,-1.5 -0.02,-4.989 -1.481,-10.469c-1.462,-5.479 -1.26,-8.468 0.605,-8.965c1.633,-0.436 2.884,0.979 3.755,4.243l0.653,2.448c0.528,3.856 3.249,14.993 8.162,33.413c2.052,7.695 3.847,13.959 5.387,18.794c1.539,4.834 2.681,8.65 3.427,11.448c4.167,15.622 4.303,29.01 0.41,40.164c-3.894,11.153 -11.087,18.129 -21.579,20.927c-11.426,3.048 -22.031,0.506 -31.817,-7.623c-9.785,-8.13 -17.686,-21.133 -23.703,-39.009c3.126,20.146 1.587,34.98 -4.615,44.501c-6.202,9.521 -19.632,18.161 -40.291,25.918c-14.083,5.255 -20.161,11.496 -18.233,18.724c0.311,1.166 0.816,1.656 1.516,1.469c0.233,-0.062 0.913,-0.556 2.04,-1.481c1.127,-0.925 2.04,-1.48 2.74,-1.667c4.43,-1.181 7.267,0.559 8.51,5.223c1.369,5.13 -0.396,8.347 -5.292,9.653Zm98.931,-85.576c20.985,-5.597 28.71,-18.771 23.176,-39.523c-1.431,-5.363 -2.841,-8.546 -4.233,-9.548c-1.391,-1.003 -4.069,-0.976 -8.032,0.081l-57.36,15.298c7.649,28.68 23.132,39.91 46.449,33.692Z" style="fill-rule:nonzero;"/><path d="M2017.23,2598.09c-7.751,11.07 -14.453,20.223 -20.108,27.458c-1.325,-0.633 -2.876,-1.572 -4.656,-2.818c-0.197,-0.138 -1.625,-1.359 -4.284,-3.662c-2.659,-2.304 -6.262,-5.047 -10.809,-8.23l-13.729,-10.054l-50.29,-36.094l-24.523,-16.727c-2.57,-1.799 -3.37,-3.391 -2.401,-4.775c0.83,-1.186 5.308,0.624 13.433,5.428c2.313,1.325 3.993,1.765 5.041,1.32c1.048,-0.444 2.817,-2.446 5.308,-6.004l69.548,-99.336c7.751,-11.07 10.944,-17.525 9.58,-19.363c-0.513,-0.949 -2.105,-2.358 -4.773,-4.226c-2.669,-1.869 -4.33,-3.179 -4.982,-3.93c-2.175,-1.523 -2.708,-3.075 -1.601,-4.656c0.969,-1.384 2.738,-1.176 5.308,0.623l40.713,28.946c2.313,1.325 4.655,2.818 7.028,4.479c3.756,2.629 5.011,4.834 3.765,6.613c-0.83,1.186 -4.577,-0.406 -11.238,-4.775c-3.302,-2.017 -5.664,-2.64 -7.088,-1.869c-1.423,0.771 -4.695,4.813 -9.816,12.128l-77.022,110.01c7.769,5.734 13.432,9.847 16.991,12.338c21.349,14.948 36.146,22.214 44.39,21.8c6.702,-0.316 14.452,-5.495 23.251,-15.537c3.717,-4.468 6.465,-6.079 8.244,-4.833c2.57,1.799 0.81,7.048 -5.28,15.746Z" style="fill-rule:nonzero;"/><path d="M2227.13,2652.28c-10.294,21.022 -25.85,35.505 -46.668,43.449c-20.817,7.943 -41.087,7.086 -60.809,-2.572c-21.023,-10.294 -35.106,-26.393 -42.248,-48.296c-7.143,-21.904 -5.461,-43.584 5.045,-65.04c10.931,-22.323 26.754,-37.213 47.467,-44.669c20.714,-7.457 41.799,-5.932 63.255,4.575c20.372,9.975 33.805,25.756 40.297,47.341c6.493,21.585 4.38,43.322 -6.339,65.212Zm-31.036,-13.989c12.31,-25.14 16.928,-47.465 13.852,-66.974c-1.938,-12.503 -8.651,-21.567 -20.137,-27.192c-15.822,-7.747 -31.553,-4.703 -47.195,9.134c-10.928,9.696 -20.956,23.863 -30.083,42.501c-10.931,22.324 -15.573,41.68 -13.926,58.071c1.647,16.391 9.406,27.983 23.276,34.775c26.658,13.053 51.395,-3.718 74.213,-50.315Z" style="fill-rule:nonzero;"/><path d="M2405.43,2737.53c-0.207,0.694 -0.91,2.625 -2.108,5.793c-4.653,12.21 -7.739,20.859 -9.258,25.946c-1.036,3.468 -2.208,8.659 -3.517,15.572l-0.725,2.428c-0.69,2.312 -1.96,3.192 -3.81,2.64c-1.85,-0.553 -3.113,-3.071 -3.789,-7.554l-1.154,-7.522c-0.093,-0.531 -0.233,-1.329 -0.419,-2.392c-13.512,7.299 -29.402,8.22 -47.669,2.766c-23.354,-6.974 -40.447,-20.577 -51.279,-40.811c-10.832,-20.234 -12.726,-42.144 -5.684,-65.73c7.043,-23.585 19.993,-40.81 38.852,-51.675c18.859,-10.864 39.387,-12.983 61.585,-6.354c17.342,5.178 30.563,14.037 39.663,26.576c0.649,1.201 1.436,1.94 2.361,2.216c1.156,0.345 2.645,-0.847 4.468,-3.577c3.137,-4.604 5.862,-6.56 8.175,-5.87c1.618,0.484 2.151,1.65 1.599,3.5c-0.069,0.231 -0.611,1.203 -1.626,2.914c-3.735,7.448 -8.031,18.883 -12.888,34.307c-3.131,9.642 -5.853,14.118 -8.165,13.428c-1.85,-0.552 -2.604,-2.666 -2.262,-6.342c1.416,-13.177 1.403,-23.255 -0.039,-30.233c-3.464,-15.39 -13.635,-25.605 -30.515,-30.645c-14.105,-4.212 -27.357,-0.739 -39.754,10.418c-12.398,11.157 -22.084,28.412 -29.058,51.766c-6.973,23.355 -7.872,43.234 -2.697,59.638c5.176,16.405 15.625,26.954 31.349,31.649c12.024,3.591 23.25,2.473 33.679,-3.354c10.428,-5.827 19.089,-15.644 25.982,-29.452c2.952,-5.667 5.352,-8.224 7.202,-7.671c2.312,0.69 2.813,3.232 1.501,7.625Z" style="fill-rule:nonzero;"/><path d="M2611.07,2821.9c-0.19,1.435 -2.678,1.835 -7.462,1.199l-2.512,-0.334l-22.152,-3.673l-10.047,-1.336c-4.066,-0.54 -9.704,-1.167 -16.912,-1.882l-10.812,-1.071l-6.507,-0.5l-1.794,-0.238c-4.306,-0.573 -6.332,-1.816 -6.077,-3.729c0.254,-1.914 4.703,-2.418 13.347,-1.513c10.318,1.128 15.62,0.615 15.906,-1.538c0.063,-0.478 -0.352,-2.846 -1.247,-7.104c-0.224,-1.977 -1.91,-10.356 -5.058,-25.137l-2.685,-12.773l-51.312,-6.818c-13.082,23.336 -19.877,36.917 -20.386,40.745c-0.286,2.153 0.991,3.539 3.829,4.16l4.617,0.979l5.383,0.715l3.181,0.788c2.871,0.381 4.195,1.409 3.973,3.084c-0.255,1.914 -2.894,2.537 -7.917,1.869c-0.718,-0.095 -4.94,-0.839 -12.667,-2.231c-7.727,-1.392 -14.58,-2.485 -20.561,-3.28l-3.229,-0.429l-3.277,-0.07l-3.995,-0.166l-0.717,-0.095c-3.828,-0.509 -5.646,-1.481 -5.455,-2.916c0.222,-1.675 1.904,-2.425 5.046,-2.251c4.337,0.333 7.24,0.475 8.707,0.427c4.162,-0.177 6.936,-0.904 8.323,-2.18c1.531,-0.527 9.203,-13.384 23.018,-38.57c5.497,-10.224 10.779,-19.747 15.847,-28.567c1.88,-3.159 3.17,-5.543 3.871,-7.154c0.701,-1.611 1.992,-3.996 3.872,-7.154c5.37,-9.267 13.082,-23.336 23.136,-42.205l7.385,-14.355l3.37,-6.125c1.913,-3.398 3.586,-5.001 5.022,-4.811c0.717,0.096 1.827,3.651 3.329,10.667c4.856,18.417 17.26,67.049 37.212,145.896c1.885,7.798 4.112,12.11 6.68,12.938c0.685,0.335 4.465,1.202 11.339,2.603c4.513,0.843 6.643,2.221 6.388,4.135Zm-65.307,-66.374l-15.17,-64.457c-7.648,13.589 -18.26,32.993 -31.835,58.211l47.005,6.246Z" style="fill-rule:nonzero;"/><path d="M2784.9,2790.31c0.161,13.513 0.055,24.857 -0.319,34.032c-1.445,0.259 -3.253,0.401 -5.425,0.427c-0.241,0.002 -2.113,-0.156 -5.617,-0.477c-3.503,-0.32 -8.029,-0.447 -13.579,-0.381l-17.016,-0.16l-61.902,0.012l-29.676,0.715c-3.137,0.038 -4.716,-0.788 -4.736,-2.477c-0.017,-1.448 4.676,-2.59 14.078,-3.426c2.651,-0.273 4.273,-0.895 4.865,-1.868c0.591,-0.972 0.861,-3.63 0.81,-7.973l-1.442,-121.254c-0.161,-13.513 -1.332,-20.618 -3.512,-21.316c-0.971,-0.471 -3.085,-0.688 -6.343,-0.649c-3.257,0.039 -5.37,-0.057 -6.338,-0.287c-2.654,0.032 -3.993,-0.917 -4.016,-2.848c-0.02,-1.689 1.538,-2.552 4.675,-2.589l49.954,-0.233c2.651,-0.272 5.425,-0.426 8.32,-0.46c4.585,-0.055 6.89,1.004 6.916,3.175c0.017,1.448 -3.954,2.34 -11.914,2.676c-3.858,0.287 -6.14,1.159 -6.847,2.615c-0.707,1.457 -1.007,6.649 -0.901,15.577l1.597,134.284c9.655,0.127 16.654,0.164 20.998,0.112c26.06,-0.31 42.318,-3.037 48.773,-8.182c5.26,-4.165 8.534,-12.892 9.824,-26.181c0.414,-5.797 1.707,-8.708 3.879,-8.734c3.136,-0.037 4.768,5.253 4.894,15.87Z" style="fill-rule:nonzero;"/><path d="M3047.33,2726.84c5.103,17.998 -0.465,34.292 -16.704,48.884c-12.418,11.252 -27.584,18.541 -45.5,21.867c-11.944,2.218 -22.862,1.745 -32.755,-1.417c-9.892,-3.163 -15.76,-7.994 -17.602,-14.493c-1.087,-3.832 -0.349,-7.346 2.213,-10.541c2.563,-3.195 6.315,-5.251 11.258,-6.168c4.324,-0.803 8.172,-0.421 11.542,1.146c3.371,1.567 5.529,4.016 6.474,7.349c0.756,2.666 0.705,4.781 -0.153,6.343c-0.857,1.563 -3.562,4.258 -8.113,8.085c-1.093,0.729 -1.522,1.51 -1.286,2.343c0.472,1.667 3.392,2.791 8.76,3.373c5.367,0.582 10.934,0.338 16.7,-0.732c15.033,-2.791 25.867,-9.495 32.504,-20.112c6.636,-10.617 7.898,-23.174 3.788,-37.672c-3.638,-12.831 -11.01,-22.776 -22.116,-29.836c-11.106,-7.059 -23.043,-9.404 -35.81,-7.033c-9.679,1.797 -19.862,7.546 -30.551,17.249l-1.438,-7.364c-0.266,-1.704 -4.145,-17.297 -11.637,-46.779c-3.037,-12.241 -3.885,-19.627 -2.543,-22.156c1.342,-2.53 7.47,-4.808 18.385,-6.834c10.914,-2.027 21.669,-3.848 32.266,-5.465c5.196,-0.789 10.676,-1.719 16.442,-2.789c3.913,-0.727 6.397,-1.714 7.452,-2.962c1.055,-1.249 1.395,-3.68 1.021,-7.294c-0.25,-2.41 0.655,-3.806 2.714,-4.188c1.854,-0.344 3.088,0.567 3.702,2.733c0.567,2 0.936,3.686 1.108,5.057l1.818,7.556c1.636,6.537 1.471,11.304 -0.498,14.301c-1.968,2.997 -6.247,5.107 -12.837,6.33c-8.237,1.53 -17.448,3.064 -27.633,4.604l-14.969,2.253c-3.295,0.612 -9.837,2.002 -19.627,4.171l0.779,2.749l1.909,10.171c0.455,2.371 3.406,13.927 8.853,34.666c11.414,-7.907 23.402,-13.027 35.964,-15.36c18.122,-3.364 34.323,-1.461 48.604,5.711c14.281,7.172 23.453,17.923 27.516,32.254Z" style="fill-rule:nonzero;"/><path d="M3264.74,2616.39c9.711,23.142 7.126,46.602 -7.757,70.382c-11.259,18.072 -26.345,31.077 -45.259,39.014c-22.252,9.339 -44.414,10.003 -66.487,1.994c-22.074,-8.01 -37.406,-22.25 -45.997,-42.722c-5.603,-13.351 -7.286,-27.496 -5.05,-42.436c2.235,-14.94 8.025,-28.426 17.369,-40.46c11.583,-14.806 25.607,-25.664 42.073,-32.574c10.014,-4.202 21.16,-6.328 33.439,-6.378c12.28,-0.05 23.204,1.973 32.775,6.07c20.404,8.71 35.369,24.413 44.894,47.11Zm-29.438,8.428c-8.591,-20.472 -20.499,-34.971 -35.724,-43.499c-15.225,-8.529 -30.848,-9.431 -46.869,-2.707c-15.354,6.443 -24.99,18.404 -28.909,35.881c-3.919,17.478 -1.349,37.009 7.709,58.593c9.338,22.252 23.01,37.058 41.017,44.419c12.952,5.295 25.102,5.561 36.45,0.798c18.024,-7.564 29.284,-21.58 33.78,-42.047c3.248,-14.711 0.763,-31.856 -7.454,-51.438Z" style="fill-rule:nonzero;"/><path d="M3466.3,2488.63c13.936,20.873 15.86,44.397 5.771,70.574c-7.616,19.883 -19.954,35.519 -37.013,46.909c-20.07,13.4 -41.701,18.267 -64.895,14.602c-23.193,-3.665 -40.954,-14.73 -53.282,-33.194c-8.04,-12.042 -12.383,-25.609 -13.029,-40.701c-0.646,-15.092 2.473,-29.434 9.358,-43.026c8.555,-16.738 20.259,-30.065 35.11,-39.981c9.032,-6.029 19.57,-10.236 31.616,-12.621c12.045,-2.384 23.156,-2.475 33.33,-0.274c21.689,4.671 39.367,17.241 53.034,37.712Zm-27.297,13.873c-12.328,-18.464 -26.776,-30.434 -43.345,-35.911c-16.569,-5.477 -32.078,-3.391 -46.528,6.256c-13.849,9.246 -21.034,22.821 -21.557,40.725c-0.523,17.904 5.714,36.59 18.711,56.057c13.4,20.07 29.639,32.006 48.716,35.808c13.723,2.734 25.702,0.685 35.937,-6.149c16.257,-10.854 24.645,-26.755 25.166,-47.704c0.392,-15.06 -5.309,-31.42 -17.1,-49.082Z" style="fill-rule:nonzero;"/></g></g><g><path d="M3394.65,1323.45c0,8.591 2.7,12.538 2.7,23.191c9.622,0 15.171,3.958 24.106,3.958c0,235.065 0.687,470.474 0.687,705.195c-13.059,-0.343 -26.118,-0.687 -39.521,-0.687l-586.632,-0c-6.873,-0 -14.605,0.344 -21.478,0.687c-0.344,-6.186 -0.172,-12.372 -0.172,-18.901l-0,-685.263c9.622,-0.687 17.526,-1.031 27.493,-1.375c0.343,-8.935 0.687,-17.87 1.374,-26.805c110.316,-0.344 504.497,-0.344 591.443,-0Zm-591.099,843.004l0,-82.136l589.725,0l-0,82.136l-589.725,-0Z" style="fill:#fff;fill-rule:nonzero;"/><path d="M3421.45,2055.45l0,139.87l-647.46,0l1.031,-139.527l647.46,0l-1.031,-0.343Zm-617.905,111.003l589.725,-0l-0,-82.136l-589.725,0l0,82.136Z" style="fill-rule:nonzero;"/><path d="M2775.03,2055.79l-28.868,-0.343l0,-703.821l27.837,-0l0,-28.438l28.868,0.258l-0,28.18l-28.868,-0l1.031,704.164Z" style="fill-rule:nonzero;"/><path d="M3421.45,1350.6l26.806,-0l-0,704.852l-26.806,-0l0.344,0.343l-0.344,-705.195Z" style="fill-rule:nonzero;"/><path d="M2803.55,1324.13l0,-29.899l590.756,0l-0,29.212l-591.443,-0.344l0.687,1.031Z" style="fill-rule:nonzero;"/><path d="M3394.31,1323.45l27.149,-0l0,27.149l-26.806,-0l-0.343,-27.149Z" style="fill-rule:nonzero;"/><path d="M3339.32,1773.64c-0.688,8.592 -1.719,16.84 -2.75,26.462l-478.034,0l0,-26.462l-0.344,0.344c56.017,-0.344 112.034,-0.687 168.051,-0.687c104.474,-0 209.291,0.343 313.764,0.687l-0.687,-0.344Z" style="fill-rule:nonzero;"/><path d="M2858.53,1406.27l0,-26.462l477.691,0c1.031,8.592 2.062,17.527 2.749,26.462l0.687,-0.343l-481.814,-0l0.687,0.343Z" style="fill-rule:nonzero;"/><path d="M2858.53,1773.64l-26.806,0l0,-366c8.936,-0.344 17.871,-1.031 26.806,-1.375l-0.344,-0.343l0,368.406l0.344,-0.688Z" style="fill-rule:nonzero;"/><path d="M3338.97,1406.27c8.248,0.344 16.84,1.031 26.118,1.375l0,366l-26.118,0l0.344,0.344c-0.688,-5.155 -2.062,-9.966 -2.062,-15.121l-0,-338.164c-0,-5.155 1.374,-9.966 2.062,-15.121l-0.344,0.687Z" style="fill-rule:nonzero;"/><path d="M3337.94,1941.69l-168.395,0l0,-26.118l168.395,-0c0.687,7.561 -0.687,15.808 0,26.118Z" style="fill-rule:nonzero;"/><rect x="2831.39" y="1915.58" width="53.955" height="25.775" style="fill-rule:nonzero;"/><path d="M3167.49,1687.73l-170.113,-1.375l0.343,0.344l0,-24.744l169.426,0l-0,26.118l0.344,-0.343Z" style="fill-rule:nonzero;"/><path d="M3227.63,1713.5l-59.797,0l0,-26.462l-0.343,0.344l60.14,0l0,26.118Z" style="fill-rule:nonzero;"/><path d="M3113.88,1605.25l0,26.118l-55.673,0l0.344,-26.462l-0.344,0.344l55.673,-0Z" style="fill-rule:nonzero;"/><path d="M3058.2,1604.91l-29.555,0l-0,-27.493l29.211,0l0,27.837l0.344,-0.344Z" style="fill-rule:nonzero;"/><rect x="3113.88" y="1577.41" width="24.744" height="27.837" style="fill-rule:nonzero;"/><path d="M3227.28,1713.85l25.087,0l0,30.586l-25.087,0l-0,-30.586Z" style="fill-rule:nonzero;"/><path d="M3200.48,1490.47l-31.273,-0.344l-0,-25.087l30.586,-0l-0,25.774l0.687,-0.343Z" style="fill-rule:nonzero;"/><path d="M3199.79,1520.37l-0,26.119l-30.586,-0l-0,-25.775l30.929,-0l-0.343,-0.344Z" style="fill-rule:nonzero;"/><path d="M2997.72,1686.35l0,29.555l-25.087,0l-0,-29.555l25.087,0Z" style="fill-rule:nonzero;"/><path d="M3227.1,1520.71l24.929,-0l0,25.775l-24.929,-0l0.186,-28.181l-0.186,2.406Z" style="fill-rule:nonzero;"/><path d="M2971.26,1492.53c9.279,-0 18.558,-0.344 28.181,-0.344l-0.344,-0.344c-0,9.279 -0.344,18.902 -0.344,28.181l0.344,-0.344c-9.279,-0.344 -18.214,-0.344 -27.493,-0.687l0.344,0.343c-0,-9.279 -0,-18.214 -0.344,-27.493l-0.344,0.688Z" style="fill-rule:nonzero;"/><path d="M2998.41,1520.02l27.836,-0l0,26.462l-27.836,-0c-0.344,-9.279 0.687,-17.871 0.343,-26.806l-0.343,0.344Z" style="fill-rule:nonzero;"/><path d="M2971.26,1518.99l0,26.805l-26.805,0l-0,-26.462l27.493,0c-0,0.344 -0.688,-0.343 -0.688,-0.343Z" style="fill-rule:nonzero;"/><path d="M3227.28,1490.12l-0,30.586l-27.493,-0.344l-0,-30.242l27.493,-0Z" style="fill-rule:nonzero;"/><path d="M3227.28,1490.12l-0.688,-24.744l25.088,0l-0,24.4l-25.088,0l0.688,0.344Z" style="fill-rule:nonzero;"/><path d="M2999.09,1492.18l-0,-27.149l27.149,-0l0,26.462l-27.836,-0c0.343,0.343 0.687,0.687 0.687,0.687Z" style="fill-rule:nonzero;"/><path d="M2971.6,1492.18l-26.806,-0l0,-27.149l26.119,-0l-0,27.493c0.343,-0 0.687,-0.344 0.687,-0.344Z" style="fill-rule:nonzero;"/></g><g><path d="M2003.07,2160.73l-0,-79.065l-30.583,-32.358l-0,-692.465l23.048,-0l0,-30.327l586.444,0l-0,30.327l24.769,-0l0,692.465l-30.917,32.358l0,79.065l-572.761,0Z" style="fill:#fff;"/><path d="M2606.91,2192.21l0,-142.023l-635.318,0l0,142.023l635.318,0Zm-31.479,-110.544l0,79.065c0,0 -478.812,0 -572.359,0c-0,0 -0,-79.065 -0,-79.065c-0,0 572.359,0 572.359,0l0,0Zm7.009,-756.126l0,-31.301l-587.709,0l-0,31.266l-23.268,-0l-0,31.479l23.419,0l0,-31.266l587.35,0l0,31.301l24.342,-0l0,692.929l31.479,0l0,-692.94l-31.285,0l-0,-31.468l-24.328,-0Zm-610.635,724.408l0,-692.94l-31.479,0l-0,692.94l31.479,0Zm106.371,-112.576l-51.071,0l0,31.479l51.071,0l-0,-31.479Zm449.021,-27.085l-166.07,0l-0,31.479l166.07,0l0,-31.479Zm-2.577,-498.674l0,-31.204l-472.481,-0l0,31.479l471.589,-0l-0,361.08l-470.67,0l0,31.479l471.893,0l0,-31.428l30.256,0l-0,-361.406l-30.587,0Zm-503.194,0.805l-0,360.957l31.479,-0l-0,-360.957l-31.479,0Zm310.649,276.022l-113.405,-0l0,31.479l113.889,-0l0,-31.08l26.116,-0l0,-31.479l-26.6,-0l-0,31.08Zm-139.588,-0.183l25.38,-0l0,-31.479l-25.38,-0l0,31.479Zm80.917,-191.541l0,104.829c0,-0 -24.387,-0 -24.387,-0l0,31.479l55.866,-0l0,-136.308l-31.479,-0Zm83.666,-0l0,52.574l31.479,0l0,-52.574l-31.479,-0Zm-195.382,-0l0,52.574l31.479,0l0,-52.574l-31.479,-0Z"/></g><g><g><path d="M2890.14,929.904l-12.525,-12.525l5.284,-11.546l-103.33,-103.33l-11.547,5.284l-12.525,-12.525c-1.761,-1.762 -2.348,-1.37 -2.935,0.195c-4.306,11.743 -8.513,23.387 -12.819,35.129c-0.391,1.37 -0.684,1.663 1.077,3.425l5.479,5.479l-6.947,26.713c-1.272,4.991 -1.468,5.186 3.523,10.177l-326.154,364.706l23.582,23.582l368.229,-322.631c4.991,4.991 5.186,4.795 10.177,3.523l26.713,-6.947l5.48,5.479c1.761,1.762 2.152,1.566 3.424,1.077c11.742,-4.306 23.387,-8.513 35.129,-12.819c1.957,-0.195 2.348,-0.783 0.685,-2.446Z" style="fill:#fff;"/><path d="M2890.14,929.904l-12.525,-12.525l5.284,-11.546l-103.33,-103.33l-11.547,5.284l-12.525,-12.525c-1.761,-1.762 -2.348,-1.37 -2.935,0.195c-4.306,11.743 -8.513,23.387 -12.819,35.129c-0.391,1.37 -0.684,1.663 1.077,3.425l5.479,5.479l-6.947,26.713c-1.272,4.991 -1.468,5.186 3.523,10.177l-326.154,364.706l23.582,23.582l368.229,-322.631c4.991,4.991 5.186,4.795 10.177,3.523l26.713,-6.947l5.48,5.479c1.761,1.762 2.152,1.566 3.424,1.077c11.742,-4.306 23.387,-8.513 35.129,-12.819c1.957,-0.195 2.348,-0.783 0.685,-2.446Zm-13.504,-24.071l-3.131,7.632l-101.569,-101.569l7.633,-3.131l97.067,97.068Zm5.088,21.918c1.664,1.664 1.468,2.055 0.098,2.447c-9.687,2.642 -17.613,7.045 -27.398,9.785c-1.174,0.195 -1.37,0.391 -3.131,-1.37l-104.504,-104.505c-1.664,-1.663 -1.566,-1.957 -1.37,-3.131c2.642,-9.687 7.045,-17.613 9.785,-27.398c0.391,-1.37 0.783,-1.566 2.446,0.098l124.074,124.074Zm-40.118,7.046l-22.799,5.381c-4.501,0.979 -4.501,0.979 -9.492,-4.012l-60.08,-60.08c-4.99,-4.99 -4.795,-4.99 -4.012,-9.491l5.382,-22.799l91.001,91.001Zm-37.183,3.131l-363.826,318.227l-2.251,-2.25c68.985,-58.221 265.78,-240.73 302.082,-271.357c36.401,-30.725 40.021,-33.759 42.272,-36.009c2.25,-2.251 3.229,-3.621 3.62,-4.991c0.392,-1.37 0.392,-2.74 -0.489,-4.207c-0.881,-1.468 -2.642,-3.034 -4.892,-2.936c-2.153,0.196 -4.893,1.957 -7.535,4.012c-2.544,1.957 -4.99,4.208 -40.021,35.715c-34.835,31.508 -229.966,216.463 -297.385,277.228l-1.663,-1.663c61.743,-58.808 251.199,-241.806 284.762,-273.803c33.563,-31.997 38.945,-37.183 42.565,-40.804c3.62,-3.62 5.382,-5.969 6.262,-8.024c0.881,-2.055 1.077,-4.012 0.783,-5.479c-0.293,-1.468 -1.076,-2.447 -1.761,-3.523c-1.076,-0.685 -2.055,-1.468 -3.523,-1.761c-1.467,-0.294 -3.327,-0.196 -5.479,0.783c-2.055,0.88 -4.306,2.739 -8.024,6.262c-3.621,3.621 -8.807,9.002 -40.804,42.565c-31.997,33.563 -218.517,219.496 -277.326,281.24l-1.663,-1.664c60.765,-67.419 249.243,-259.027 280.751,-293.862c31.507,-35.031 33.758,-37.477 35.715,-40.021c1.957,-2.544 3.816,-5.186 4.012,-7.534c0.196,-2.153 -1.468,-4.012 -2.936,-4.893c-1.467,-0.881 -2.837,-0.881 -4.207,-0.489c-1.37,0.391 -2.838,1.272 -4.991,3.62c-2.25,2.251 -5.284,5.871 -36.009,42.272c-30.627,36.302 -216.56,229.477 -274.879,298.559l-2.251,-2.251l321.75,-360.303l57.341,57.341Z"/><path d="M2967.44,730.876c4.502,-4.305 9.101,-8.709 14.189,-13.014c5.186,-4.403 11.057,-8.709 18.494,-12.623c7.338,-4.012 16.243,-7.632 25.93,-10.274c9.785,-2.74 20.059,-4.403 29.159,-5.088c9.003,-0.587 16.537,-0.098 24.072,0.587c-6.459,2.74 -12.917,5.48 -19.375,9.198c-6.458,3.718 -12.916,8.415 -18.494,14.384c-5.577,5.969 -10.078,13.405 -14.971,22.408c-4.892,9.002 -9.98,19.765 -14.09,29.355c-4.208,9.687 -7.241,18.2 -11.546,26.419c-4.306,8.024 -9.688,15.754 -17.809,23.485c-8.024,7.828 -18.69,15.949 -29.062,21.233c-10.274,5.382 -20.353,8.22 -29.649,9.687c-9.393,1.566 -18.2,1.762 -26.615,1.37c-8.415,-0.391 -16.341,-1.468 -24.952,-3.229c-8.611,-1.761 -17.906,-4.207 -25.441,-7.045c-7.534,-2.838 -13.308,-6.067 -17.417,-8.611c-4.012,-2.446 -6.067,-4.305 -8.415,-6.067c4.305,-1.565 8.61,-3.131 14.384,-6.36c5.675,-3.327 12.818,-8.317 18.787,-13.699c5.969,-5.382 10.861,-10.861 16.145,-18.298c5.284,-7.437 11.057,-16.732 16.341,-25.539c5.382,-8.904 9.981,-17.417 15.656,-25.637c5.578,-8.121 12.134,-15.852 20.94,-22.897c8.807,-7.045 19.668,-13.405 30.53,-18.004c10.763,-4.697 21.233,-7.731 32.388,-10.275c11.155,-2.348 23.093,-4.305 32.682,-5.088c9.59,-0.783 16.928,-0.685 22.017,-0.293c5.088,0.391 8.023,0.978 11.057,1.663c-8.415,1.957 -16.635,3.914 -24.463,6.262c-7.73,2.251 -14.971,4.991 -21.429,8.122c-6.556,3.229 -12.329,6.85 -17.418,10.764c-4.99,3.816 -9.197,8.023 -12.622,12.622c-3.131,4.306 -6.067,9.394 -9.003,14.482Zm-134.25,94.719c6.066,3.132 12.231,6.361 18.591,8.807c6.263,2.544 12.721,4.305 19.668,5.773c6.948,1.468 14.482,2.544 23.289,2.936c8.806,0.391 19.08,0.098 27.789,-0.979c8.513,-1.076 15.558,-2.838 22.016,-5.186c6.361,-2.446 12.232,-5.382 17.124,-8.317c4.893,-3.131 8.807,-5.871 12.525,-9.002c3.718,-3.132 7.143,-6.361 10.764,-10.764c3.718,-4.305 7.534,-9.687 10.763,-15.656c3.229,-5.969 6.067,-12.525 10.079,-21.429c4.012,-8.905 9.394,-20.158 13.503,-28.768c4.11,-8.416 7.045,-13.895 10.079,-18.69c2.935,-4.697 5.969,-8.708 9.393,-12.525c3.621,-3.816 7.731,-7.534 11.645,-10.274c3.816,-2.642 7.338,-4.403 10.959,-6.262c-4.208,-0.098 -8.22,-0.196 -13.406,0.293c-5.088,0.587 -11.35,1.566 -17.417,3.131c-6.067,1.566 -12.036,3.621 -17.613,5.871c-5.675,2.349 -10.861,4.991 -15.754,7.926c-4.892,2.936 -9.394,6.263 -14.384,10.47c-4.99,4.208 -10.372,9.394 -17.026,17.418c-6.556,8.121 -14.384,19.081 -20.646,27.3c-6.165,8.122 -10.764,13.308 -15.167,17.907c-4.404,4.599 -8.611,8.415 -12.232,11.448c-3.718,2.936 -7.045,5.284 -11.154,7.437c-4.208,2.055 -9.394,4.109 -14.091,5.284c-4.697,1.174 -9.002,1.761 -13.308,2.152c5.774,-1.467 11.449,-3.033 16.929,-5.186c5.577,-2.25 10.861,-5.186 15.558,-8.513c4.794,-3.424 8.904,-7.338 12.818,-11.057c3.816,-3.816 7.437,-7.436 11.351,-12.329c4.012,-4.99 8.415,-11.155 12.035,-16.928c3.621,-5.773 6.752,-11.253 9.785,-17.026c3.034,-5.773 6.361,-11.84 9.394,-16.83c2.936,-4.893 5.578,-8.709 8.807,-12.525c3.131,-3.914 7.143,-7.926 11.546,-11.351c4.403,-3.425 9.198,-6.262 14.09,-8.611c4.795,-2.446 9.688,-4.403 14.189,-6.164c4.501,-1.762 9.002,-3.131 13.503,-4.697c-7.534,0.685 -15.167,1.468 -22.114,2.348c-6.947,0.881 -13.21,2.055 -19.57,3.523c-6.458,1.37 -12.916,3.131 -19.081,5.186c-6.165,2.055 -12.133,4.501 -18.102,7.534c-5.969,3.034 -11.938,6.459 -16.733,9.492c-4.794,3.033 -8.219,5.48 -12.329,9.394c-4.11,3.914 -9.002,9.002 -13.21,14.775c-4.207,5.773 -8.023,11.938 -12.329,19.374c-4.403,7.339 -9.296,15.754 -13.797,22.995c-4.501,7.241 -8.513,13.406 -12.427,18.69c-3.914,5.284 -7.73,9.687 -11.84,13.797c-4.207,4.012 -8.806,7.632 -12.916,10.567c-4.403,2.642 -8.024,4.893 -11.546,7.241Z"/><path d="M2864.3,809.548c7.241,-1.957 14.482,-3.914 21.527,-6.654c7.143,-2.838 13.993,-6.556 20.94,-11.546c6.948,-4.991 13.895,-11.547 19.766,-17.809c5.773,-6.36 10.568,-12.525 14.482,-18.787c3.816,-6.165 6.752,-12.623 9.589,-18.396c2.838,-5.578 5.382,-10.666 8.611,-15.656c3.229,-4.991 6.947,-10.275 10.372,-14.286c3.327,-4.11 6.458,-7.241 9.394,-10.177c-5.969,1.664 -12.036,3.229 -18.2,5.48c-6.165,2.25 -12.623,5.186 -18.983,8.806c-6.361,3.621 -12.427,7.926 -17.613,12.329c-5.186,4.404 -9.296,9.101 -13.406,15.363c-4.11,6.262 -8.317,14.384 -11.84,21.821c-3.62,7.534 -6.556,14.579 -9.687,20.45c-3.131,5.871 -6.067,10.568 -9.002,14.287c-2.838,3.62 -5.48,6.262 -8.122,8.513c-2.74,2.348 -5.284,4.305 -7.828,6.262Zm68.495,-89.435c4.306,-3.132 9.003,-5.871 12.721,-8.024c3.816,-2.055 6.85,-3.523 10.47,-4.99c3.62,-1.468 7.926,-3.034 12.133,-4.502c-2.837,3.425 -5.675,6.85 -8.513,10.47c-2.837,3.621 -5.675,7.633 -8.317,12.623c-2.74,4.893 -5.284,10.764 -8.317,16.341c-2.936,5.675 -6.36,11.449 -9.589,16.243c-3.327,4.893 -6.556,8.709 -10.764,13.308c-4.403,4.599 -9.785,9.981 -15.167,14.188c-5.284,4.306 -10.666,7.535 -15.167,9.883c-4.501,2.349 -8.415,3.914 -12.231,5.382c2.348,-2.936 4.795,-5.969 7.241,-9.785c2.544,-3.914 5.284,-8.611 7.828,-13.895c2.544,-5.284 5.088,-10.959 7.632,-16.634c2.642,-5.578 5.382,-11.058 8.318,-16.146c2.935,-5.088 6.066,-9.589 9.785,-13.699c3.522,-4.11 7.632,-7.632 11.937,-10.763Z"/><path d="M2949.83,716.199c-2.739,4.305 -5.479,8.415 -8.806,14.286c-3.229,5.773 -6.948,13.21 -10.079,18.885c-3.033,5.577 -5.479,9.394 -8.219,13.112c-2.74,3.718 -5.871,7.241 -8.905,10.078c-3.033,2.838 -5.968,4.991 -8.415,6.459c-2.544,1.565 -4.403,2.642 -6.36,3.62c1.761,-2.935 3.523,-5.871 5.48,-9.589c1.957,-3.719 4.109,-8.415 6.262,-12.917c2.153,-4.501 4.403,-8.904 6.752,-13.209c2.446,-4.208 4.892,-8.415 7.828,-11.938c2.837,-3.621 6.164,-6.556 8.904,-8.904c2.74,-2.349 5.284,-3.915 7.828,-5.48c2.349,-1.566 5.088,-2.936 7.73,-4.403Zm-11.742,12.72c-3.131,2.349 -6.164,4.599 -8.904,7.143c-2.642,2.642 -4.99,5.382 -7.437,9.198c-2.446,3.816 -4.99,8.513 -7.045,12.721c-2.055,4.012 -3.523,7.436 -4.697,9.981c-1.174,2.544 -2.152,4.501 -3.131,6.458c2.348,-1.762 4.599,-3.621 7.143,-6.165c2.544,-2.544 5.284,-5.675 7.535,-8.904c2.25,-3.229 4.109,-6.458 5.773,-9.688c1.565,-3.131 3.033,-6.164 4.207,-8.708c1.175,-2.544 2.153,-4.501 3.229,-6.361c0.979,-1.761 2.153,-3.718 3.327,-5.675Z"/><path d="M2847.87,825.791c5.676,1.957 11.253,4.012 18.005,5.48c6.849,1.565 14.677,2.74 23.484,3.522c8.904,0.685 18.494,0.881 28.181,-0.195c9.589,-1.175 18.983,-3.523 26.909,-6.556c8.023,-2.936 14.384,-6.361 20.059,-10.666c5.577,-4.208 10.372,-9.198 14.775,-15.167c4.306,-6.067 8.22,-13.307 11.742,-20.744c3.425,-7.535 6.459,-15.656 9.296,-22.408c2.74,-6.849 5.186,-12.427 7.73,-17.515c2.447,-4.99 4.991,-9.296 7.828,-13.895c2.838,-4.403 6.165,-9.1 9.394,-13.895c-7.045,2.74 -14.188,5.382 -21.233,9.492c-7.046,3.914 -14.189,9.296 -20.647,15.754c-6.556,6.556 -12.623,14.384 -19.179,22.505c-6.556,8.122 -13.796,16.537 -21.135,23.876c-7.143,7.339 -14.384,13.993 -22.408,19.276c-7.926,5.187 -16.928,9.101 -25.93,12.036c-9.1,2.838 -18.494,4.99 -26.322,6.36c-7.926,1.272 -14.188,2.055 -20.549,2.74Zm22.114,1.957c7.339,1.468 14.678,2.936 22.212,3.621c7.437,0.587 14.972,0.489 22.213,-0.098c7.143,-0.685 13.992,-1.859 19.863,-3.621c5.969,-1.663 11.155,-3.914 16.146,-6.556c4.99,-2.642 9.882,-5.969 14.481,-9.98c4.599,-4.012 8.709,-8.709 12.134,-13.308c3.425,-4.599 6.067,-8.807 8.709,-13.993c2.739,-5.284 5.381,-11.644 7.925,-17.515c2.545,-5.871 4.991,-11.448 7.241,-16.439c2.349,-5.088 4.501,-9.785 6.361,-13.601c1.859,-3.816 3.62,-6.947 4.892,-9.198c1.272,-2.251 2.251,-3.62 3.327,-5.088c-2.838,1.272 -5.675,2.544 -9.002,4.501c-3.523,1.957 -7.437,4.501 -11.742,8.024c-4.306,3.522 -8.807,8.023 -12.916,12.525c-4.012,4.403 -7.731,8.904 -11.253,13.601c-3.523,4.697 -7.046,9.589 -11.155,14.873c-4.11,5.48 -8.709,11.448 -13.601,16.928c-4.893,5.48 -10.079,10.274 -15.069,13.895c-4.991,3.62 -9.883,6.164 -15.95,8.709c-5.969,2.642 -13.406,5.381 -21.038,7.534c-7.73,2.055 -15.754,3.621 -23.778,5.186Z"/><path d="M2899.43,827.846c6.361,-0.098 12.623,-0.294 19.375,-1.37c6.654,-1.174 13.797,-3.229 19.863,-5.577c6.067,-2.545 11.253,-5.186 15.852,-8.807c4.599,-3.62 8.709,-7.73 12.329,-12.72c3.621,-4.991 6.85,-10.568 9.883,-16.146c2.838,-5.577 5.578,-11.057 7.926,-15.754c2.349,-4.697 4.11,-8.611 5.773,-12.035c1.664,-3.425 2.936,-6.263 4.306,-9.198c-3.131,1.957 -6.263,3.914 -10.275,7.534c-3.816,3.621 -8.415,8.807 -12.622,14.384c-4.11,5.48 -7.828,11.351 -11.253,16.537c-3.327,5.088 -6.556,9.296 -10.079,13.014c-3.424,3.816 -7.143,7.143 -12.133,10.568c-4.99,3.62 -11.449,7.534 -16.83,10.372c-5.382,2.838 -9.883,4.599 -13.406,5.969c-3.718,1.37 -6.164,2.25 -8.709,3.229Zm21.43,-4.599c4.696,-1.37 9.393,-2.74 13.699,-4.305c4.305,-1.566 8.219,-3.523 12.035,-5.969c3.817,-2.447 7.437,-5.48 10.862,-8.905c3.327,-3.327 6.36,-7.143 9.1,-11.057c2.642,-4.012 4.892,-8.219 7.241,-12.72c2.348,-4.501 4.892,-9.394 7.241,-13.699c2.446,-4.404 4.794,-8.318 7.045,-12.33c-3.229,3.425 -6.458,7.046 -9.785,10.96c-3.229,4.012 -6.36,8.513 -9.394,12.916c-2.935,4.501 -5.871,9.002 -8.904,13.21c-3.034,4.207 -6.067,8.219 -9.1,11.448c-3.131,3.131 -6.263,5.676 -9.59,8.024c-3.424,2.446 -7.045,4.697 -10.47,6.752c-3.424,2.25 -6.849,3.914 -9.98,5.675Z"/><path d="M2849.53,847.416c6.556,3.229 12.916,6.458 20.842,9.1c7.926,2.642 17.222,4.501 27.594,5.48c10.47,0.88 21.918,0.587 31.703,-0.587c9.785,-1.175 18.005,-3.327 25.343,-6.165c7.437,-2.935 13.993,-6.556 19.864,-10.666c5.773,-4.207 10.862,-8.904 14.678,-13.503c3.816,-4.599 6.36,-9.1 9.1,-13.601c-4.991,4.99 -9.981,9.981 -15.558,14.384c-5.578,4.403 -11.742,8.219 -18.886,11.644c-7.143,3.621 -15.264,6.85 -24.071,9.002c-8.806,2.153 -18.396,3.327 -27.202,3.523c-8.905,0.098 -17.222,-0.587 -25.05,-1.566c-7.828,-1.174 -15.167,-2.642 -21.429,-3.816c-6.36,-1.272 -11.644,-2.25 -16.928,-3.229Z"/><path d="M2865.87,866.497c1.859,3.425 3.718,6.849 6.654,10.372c2.837,3.425 6.849,6.85 11.644,9.296c4.794,2.446 10.372,4.11 16.341,4.599c5.871,0.391 11.938,-0.196 18.2,-1.761c6.262,-1.566 12.525,-4.11 19.179,-8.22c6.751,-4.207 13.601,-10.079 20.548,-16.047c-7.926,2.446 -15.852,4.892 -22.408,6.36c-6.555,1.663 -11.644,2.25 -17.515,2.446c-5.871,0.196 -12.525,0 -19.668,-0.685c-7.143,-0.685 -14.775,-1.663 -20.255,-2.837c-5.675,-1.175 -9.198,-2.349 -12.72,-3.523Zm8.513,6.556c1.467,1.859 2.837,3.62 5.088,5.48c2.153,1.957 4.99,4.011 8.219,5.479c3.229,1.468 6.948,2.446 11.253,2.838c4.208,0.293 9.002,-0 13.699,-0.979c4.697,-0.978 9.59,-2.544 14.091,-4.697c4.501,-2.152 8.806,-4.696 13.014,-7.338c-4.991,1.272 -9.981,2.348 -15.363,3.033c-5.577,0.685 -11.546,0.783 -17.221,0.783c-5.578,-0.098 -11.057,-0.294 -15.461,-0.783c-4.403,-0.489 -7.926,-1.076 -10.763,-1.761c-2.642,-0.685 -4.599,-1.272 -6.556,-2.055Z"/><path d="M2823.3,817.474c5.284,-3.523 10.568,-6.85 15.558,-10.47c4.893,-3.523 9.296,-7.143 13.895,-12.134c4.501,-4.892 8.904,-11.252 12.916,-18.396c3.914,-7.24 7.339,-15.362 9.492,-22.212c2.25,-6.947 3.522,-12.72 4.794,-18.493c-2.935,3.522 -5.773,6.947 -9.002,10.568c-3.131,3.522 -6.654,7.24 -9.883,10.274c-3.229,3.033 -6.36,5.382 -9.296,7.73c1.664,-5.186 3.523,-10.372 6.067,-16.047c2.544,-5.676 5.871,-11.742 10.568,-16.831c4.794,-4.99 10.861,-9.1 17.515,-13.21c6.654,-4.109 13.601,-8.317 19.179,-12.329c5.675,-4.109 9.785,-8.023 13.307,-12.133c3.523,-4.11 6.361,-8.513 9.101,-12.819c-3.719,3.132 -7.437,6.263 -13.7,9.785c-6.36,3.621 -15.264,7.437 -24.658,10.96c-9.394,3.522 -19.276,6.556 -27.985,10.372c-8.709,3.816 -16.048,8.219 -22.114,13.699c-6.067,5.48 -10.764,12.133 -14.189,20.059c-3.327,7.828 -5.284,17.026 -6.262,26.42c-0.783,9.394 -0.587,19.179 0.293,26.713c0.979,7.437 2.74,12.916 4.404,18.494Zm2.348,-4.893c4.599,-3.229 9.1,-6.36 13.699,-9.98c4.599,-3.621 9.296,-7.926 13.601,-13.602c4.306,-5.675 8.22,-13.112 11.155,-19.57c2.838,-6.36 4.697,-11.937 6.556,-17.515c-3.327,3.131 -6.751,6.36 -10.274,9.492c-3.523,3.131 -7.241,6.262 -9.883,8.317c-2.642,2.055 -4.207,3.229 -5.675,4.305c-0,-4.501 -0.098,-9.1 0.783,-14.09c0.978,-4.893 2.837,-10.275 5.577,-15.167c2.642,-4.795 6.067,-9.002 9.883,-12.818c3.816,-3.817 8.024,-7.241 14.678,-11.547c6.653,-4.305 15.851,-9.589 21.82,-13.405c5.969,-3.621 8.709,-5.774 10.862,-7.535c2.055,-1.859 3.62,-3.425 5.088,-5.088c-3.621,2.055 -7.241,4.11 -12.329,6.262c-4.991,2.251 -11.449,4.599 -18.005,6.85c-6.556,2.25 -13.307,4.501 -19.178,7.045c-5.871,2.544 -11.058,5.186 -15.559,8.317c-4.501,3.132 -8.317,6.556 -11.742,10.96c-3.424,4.403 -6.458,9.589 -8.904,16.145c-2.446,6.36 -4.208,13.993 -5.284,21.527c-0.881,7.535 -0.979,15.265 -0.294,22.016c0.685,6.948 2.055,13.015 3.425,19.081Z"/><path d="M2829.96,805.536c3.424,-2.446 6.849,-5.088 10.274,-8.513c3.523,-3.327 7.045,-7.437 9.589,-11.351c2.349,-3.914 3.719,-7.828 5.088,-11.546c-2.544,1.761 -5.088,3.523 -7.632,4.893c-2.446,1.467 -5.088,2.544 -7.632,3.718c-0.392,-3.523 -0.881,-7.143 -0.685,-11.644c0.098,-4.404 0.783,-9.59 1.957,-14.286c1.174,-4.697 2.935,-8.807 5.088,-12.917c2.153,-4.109 4.599,-8.121 6.85,-11.35c2.25,-3.034 4.109,-5.089 6.36,-7.143c2.153,-1.957 4.599,-4.012 7.045,-6.067c-3.425,1.468 -6.947,2.837 -10.666,4.99c-3.718,2.153 -7.73,4.991 -11.35,8.611c-3.621,3.621 -6.85,7.828 -9.198,12.721c-2.446,4.794 -4.012,10.078 -5.088,17.026c-1.077,6.947 -1.664,15.558 -1.566,22.897c0.098,7.534 0.881,13.797 1.566,19.961Zm4.011,-9.491c2.447,-1.86 4.795,-3.621 6.85,-5.676c1.957,-1.957 3.523,-4.305 5.088,-6.458c-1.468,0.881 -2.837,1.664 -4.403,2.446c-1.566,0.587 -3.131,1.175 -4.795,1.664c-0.391,-3.327 -0.88,-6.752 -0.978,-10.959c-0.196,-4.306 -0.098,-9.1 0.293,-13.602c0.49,-4.403 1.272,-8.317 2.838,-12.427c1.37,-4.109 3.718,-8.415 5.871,-12.916c-2.74,3.914 -5.382,7.73 -7.241,12.329c-1.859,4.599 -3.131,9.785 -3.718,15.461c-0.587,5.675 -0.685,12.035 -0.587,17.026c0.098,5.381 0.489,9.295 0.782,13.112Z"/><path d="M2814.79,818.55c-0.979,-5.284 -1.859,-10.47 -2.446,-15.754c-0.588,-5.284 -0.881,-10.665 -0.783,-16.243c0.098,-5.577 0.685,-11.644 1.565,-17.026c0.881,-5.382 2.153,-10.176 3.327,-15.069c-1.859,1.859 -3.816,3.816 -5.284,6.263c-1.467,2.25 -2.642,4.99 -3.718,7.632c-0.391,-2.153 -0.881,-4.403 -1.761,-7.241c-0.881,-2.838 -2.055,-6.36 -3.425,-9.296c-1.272,-3.033 -2.74,-5.284 -4.208,-7.73c-1.663,4.012 -3.229,8.122 -4.207,13.21c-0.979,5.088 -1.272,11.253 -0.489,17.515c0.782,6.262 2.544,12.525 4.501,17.613c2.055,5.186 4.207,9.296 7.241,13.503c2.837,4.208 6.262,8.416 9.687,12.623Zm-4.795,-12.035c-0.391,-3.719 -0.881,-7.339 -1.076,-10.666c-0.294,-3.229 -0.294,-5.969 -0.196,-9.002c0.098,-3.034 0.196,-6.067 0.587,-9.198c-0.881,1.272 -1.565,2.544 -2.544,3.522c-0.783,0.979 -1.566,1.957 -2.348,2.74c0.195,-2.348 0.391,-4.697 0.391,-7.045c-0.098,-2.446 -0.391,-4.893 -0.685,-7.73c-0.391,-2.74 -1.076,-5.773 -2.055,-8.513c-0.88,-2.642 -2.055,-4.991 -3.229,-7.339c-0.685,3.033 -1.565,6.067 -1.663,10.666c-0.196,4.501 0.293,10.47 1.37,15.851c1.076,5.382 2.739,10.177 4.794,14.58c1.957,4.501 4.208,8.317 6.654,12.134Z"/></g><g><path d="M2637.29,791.25l-12.525,12.525l-11.546,-5.284l-103.33,103.33l5.284,11.546l-12.525,12.525c-1.761,1.761 -1.37,2.349 0.196,2.936c11.742,4.305 23.386,8.513 35.128,12.818c1.37,0.391 1.664,0.685 3.425,-1.076l5.479,-5.48l26.714,6.947c4.99,1.273 5.186,1.468 10.176,-3.522l364.706,326.153l23.582,-23.582l-322.63,-368.229c4.99,-4.99 4.794,-5.186 3.522,-10.176l-6.947,-26.713l5.48,-5.48c1.761,-1.761 1.565,-2.153 1.076,-3.425c-4.305,-11.742 -8.513,-23.386 -12.818,-35.128c-0.196,-1.957 -0.783,-2.349 -2.447,-0.685Z" style="fill:#fff;"/><path d="M2637.29,791.25l-12.525,12.525l-11.546,-5.284l-103.33,103.33l5.284,11.546l-12.525,12.525c-1.761,1.761 -1.37,2.349 0.196,2.936c11.742,4.305 23.386,8.513 35.128,12.818c1.37,0.391 1.664,0.685 3.425,-1.076l5.479,-5.48l26.714,6.947c4.99,1.273 5.186,1.468 10.176,-3.522l364.706,326.153l23.582,-23.582l-322.63,-368.229c4.99,-4.99 4.794,-5.186 3.522,-10.176l-6.947,-26.713l5.48,-5.48c1.761,-1.761 1.565,-2.153 1.076,-3.425c-4.305,-11.742 -8.513,-23.386 -12.818,-35.128c-0.196,-1.957 -0.783,-2.349 -2.447,-0.685Zm-24.071,13.503l7.632,3.131l-101.568,101.569l-3.132,-7.632l97.068,-97.068Zm21.919,-5.088c1.663,-1.663 2.054,-1.468 2.446,-0.098c2.642,9.687 7.045,17.613 9.785,27.398c0.196,1.175 0.391,1.37 -1.37,3.132l-104.504,104.504c-1.664,1.663 -1.957,1.565 -3.132,1.37c-9.687,-2.642 -17.613,-7.045 -27.398,-9.785c-1.37,-0.392 -1.565,-0.783 0.098,-2.447l124.075,-124.074Zm7.045,40.119l5.382,22.799c0.978,4.501 0.978,4.501 -4.012,9.491l-60.08,60.081c-4.991,4.99 -4.991,4.794 -9.492,4.011l-22.799,-5.381l91.001,-91.001Zm3.131,37.183l318.227,363.826l-2.25,2.25c-58.221,-68.984 -240.73,-265.779 -271.357,-302.082c-30.725,-36.4 -33.759,-40.021 -36.009,-42.271c-2.251,-2.251 -3.621,-3.229 -4.991,-3.621c-1.369,-0.391 -2.739,-0.391 -4.207,0.49c-1.468,0.88 -3.033,2.641 -2.936,4.892c0.196,2.153 1.957,4.893 4.012,7.535c1.957,2.544 4.208,4.99 35.716,40.02c31.508,34.835 216.463,229.967 277.228,297.386l-1.664,1.663c-58.808,-61.744 -241.806,-251.2 -273.803,-284.762c-31.997,-33.563 -37.183,-38.945 -40.804,-42.565c-3.62,-3.621 -5.969,-5.382 -8.023,-6.263c-2.055,-0.881 -4.012,-1.076 -5.48,-0.783c-1.468,0.294 -2.446,1.077 -3.523,1.762c-0.685,1.076 -1.467,2.055 -1.761,3.522c-0.293,1.468 -0.196,3.327 0.783,5.48c0.881,2.055 2.74,4.305 6.262,8.024c3.621,3.62 9.003,8.806 42.565,40.803c33.563,31.997 219.496,218.518 281.24,277.326l-1.663,1.664c-67.419,-60.766 -259.028,-249.243 -293.863,-280.751c-35.03,-31.508 -37.477,-33.758 -40.021,-35.715c-2.544,-1.957 -5.186,-3.817 -7.534,-4.012c-2.153,-0.196 -4.012,1.467 -4.893,2.935c-0.88,1.468 -0.88,2.838 -0.489,4.208c0.391,1.37 1.272,2.837 3.62,4.99c2.251,2.251 5.871,5.284 42.272,36.009c36.302,30.627 229.477,216.561 298.559,274.88l-2.25,2.25l-360.303,-321.75l57.34,-57.34Z"/><path d="M2438.26,713.948c-4.305,-4.501 -8.708,-9.1 -13.014,-14.188c-4.403,-5.186 -8.708,-11.057 -12.622,-18.494c-4.012,-7.339 -7.633,-16.243 -10.275,-25.93c-2.739,-9.785 -4.403,-20.06 -5.088,-29.16c-0.587,-9.002 -0.098,-16.537 0.587,-24.071c2.74,6.458 5.48,12.916 9.198,19.374c3.718,6.458 8.415,12.917 14.384,18.494c5.969,5.578 13.406,10.079 22.408,14.971c9.002,4.893 19.766,9.981 29.355,14.091c9.687,4.207 18.2,7.241 26.42,11.546c8.023,4.305 15.754,9.687 23.484,17.809c7.828,8.024 15.949,18.689 21.233,29.061c5.382,10.275 8.22,20.353 9.688,29.649c1.565,9.394 1.761,18.2 1.369,26.615c-0.391,8.416 -1.467,16.341 -3.229,24.952c-1.761,8.611 -4.207,17.907 -7.045,25.441c-2.838,7.535 -6.067,13.308 -8.611,17.418c-2.446,4.012 -4.305,6.067 -6.066,8.415c-1.566,-4.305 -3.132,-8.611 -6.361,-14.384c-3.327,-5.675 -8.317,-12.818 -13.699,-18.787c-5.382,-5.969 -10.861,-10.862 -18.298,-16.146c-7.436,-5.284 -16.732,-11.057 -25.539,-16.341c-8.904,-5.381 -17.417,-9.98 -25.637,-15.656c-8.121,-5.577 -15.851,-12.133 -22.897,-20.94c-7.045,-8.806 -13.405,-19.668 -18.004,-30.529c-4.697,-10.764 -7.73,-21.234 -10.274,-32.389c-2.349,-11.155 -4.306,-23.092 -5.089,-32.682c-0.782,-9.589 -0.685,-16.928 -0.293,-22.016c0.391,-5.088 0.978,-8.024 1.663,-11.057c1.957,8.415 3.914,16.634 6.263,24.462c2.25,7.731 4.99,14.972 8.121,21.43c3.229,6.556 6.85,12.329 10.764,17.417c3.816,4.99 8.024,9.198 12.623,12.623c4.305,3.131 9.393,6.067 14.481,9.002Zm94.72,134.251c3.131,-6.067 6.36,-12.231 8.806,-18.592c2.544,-6.262 4.306,-12.72 5.773,-19.668c1.468,-6.947 2.545,-14.482 2.936,-23.288c0.391,-8.807 0.098,-19.081 -0.979,-27.79c-1.076,-8.513 -2.837,-15.558 -5.186,-22.016c-2.446,-6.36 -5.381,-12.231 -8.317,-17.124c-3.131,-4.892 -5.871,-8.806 -9.002,-12.525c-3.131,-3.718 -6.36,-7.143 -10.764,-10.763c-4.305,-3.718 -9.687,-7.535 -15.656,-10.764c-5.969,-3.229 -12.525,-6.066 -21.429,-10.078c-8.904,-4.012 -20.157,-9.394 -28.768,-13.504c-8.415,-4.109 -13.895,-7.045 -18.69,-10.078c-4.696,-2.936 -8.708,-5.969 -12.524,-9.394c-3.817,-3.62 -7.535,-7.73 -10.275,-11.644c-2.642,-3.816 -4.403,-7.339 -6.262,-10.959c-0.098,4.207 -0.196,8.219 0.293,13.405c0.588,5.088 1.566,11.351 3.132,17.418c1.565,6.066 3.62,12.035 5.871,17.613c2.348,5.675 4.99,10.861 7.926,15.754c2.935,4.892 6.262,9.393 10.47,14.384c4.207,4.99 9.393,10.372 17.417,17.026c8.122,6.555 19.081,14.384 27.3,20.646c8.122,6.165 13.308,10.764 17.907,15.167c4.599,4.403 8.415,8.611 11.448,12.231c2.936,3.718 5.284,7.045 7.437,11.155c2.055,4.208 4.11,9.394 5.284,14.091c1.174,4.696 1.761,9.002 2.153,13.307c-1.468,-5.773 -3.034,-11.448 -5.186,-16.928c-2.251,-5.577 -5.187,-10.861 -8.513,-15.558c-3.425,-4.795 -7.339,-8.905 -11.058,-12.819c-3.816,-3.816 -7.436,-7.436 -12.329,-11.35c-4.99,-4.012 -11.155,-8.415 -16.928,-12.036c-5.773,-3.62 -11.253,-6.752 -17.026,-9.785c-5.773,-3.033 -11.84,-6.36 -16.83,-9.394c-4.893,-2.935 -8.709,-5.577 -12.525,-8.806c-3.914,-3.131 -7.926,-7.143 -11.351,-11.546c-3.424,-4.404 -6.262,-9.198 -8.61,-14.091c-2.447,-4.795 -4.404,-9.687 -6.165,-14.188c-1.761,-4.501 -3.131,-9.002 -4.697,-13.504c0.685,7.535 1.468,15.167 2.349,22.115c0.88,6.947 2.054,13.209 3.522,19.57c1.37,6.458 3.131,12.916 5.186,19.081c2.055,6.164 4.501,12.133 7.535,18.102c3.033,5.969 6.458,11.938 9.491,16.732c3.034,4.795 5.48,8.22 9.394,12.329c3.914,4.11 9.002,9.003 14.775,13.21c5.773,4.208 11.938,8.024 19.375,12.329c7.338,4.404 15.754,9.296 22.995,13.797c7.24,4.501 13.405,8.513 18.689,12.427c5.284,3.914 9.687,7.731 13.797,11.84c4.012,4.208 7.632,8.807 10.568,12.917c2.642,4.403 4.892,8.023 7.241,11.546Z"/><path d="M2516.93,817.082c-1.957,-7.24 -3.914,-14.481 -6.654,-21.527c-2.837,-7.143 -6.556,-13.992 -11.546,-20.94c-4.99,-6.947 -11.546,-13.894 -17.809,-19.765c-6.36,-5.774 -12.525,-10.568 -18.787,-14.482c-6.165,-3.816 -12.623,-6.752 -18.396,-9.59c-5.577,-2.837 -10.666,-5.381 -15.656,-8.611c-4.99,-3.229 -10.274,-6.947 -14.286,-10.372c-4.11,-3.327 -7.241,-6.458 -10.177,-9.393c1.664,5.969 3.229,12.035 5.48,18.2c2.251,6.164 5.186,12.623 8.807,18.983c3.62,6.36 7.925,12.427 12.329,17.613c4.403,5.186 9.1,9.296 15.362,13.405c6.263,4.11 14.384,8.318 21.821,11.84c7.534,3.621 14.58,6.556 20.451,9.688c5.871,3.131 10.567,6.066 14.286,9.002c3.62,2.837 6.262,5.479 8.513,8.121c2.348,2.74 4.305,5.284 6.262,7.828Zm-89.435,-68.495c-3.131,-4.305 -5.871,-9.002 -8.024,-12.72c-2.055,-3.817 -3.522,-6.85 -4.99,-10.47c-1.468,-3.621 -3.034,-7.926 -4.501,-12.134c3.424,2.838 6.849,5.675 10.47,8.513c3.62,2.838 7.632,5.675 12.622,8.317c4.893,2.74 10.764,5.284 16.341,8.318c5.676,2.935 11.449,6.36 16.244,9.589c4.892,3.327 8.708,6.556 13.307,10.764c4.599,4.403 9.981,9.785 14.189,15.166c4.305,5.284 7.534,10.666 9.882,15.167c2.349,4.501 3.914,8.415 5.382,12.232c-2.935,-2.349 -5.969,-4.795 -9.785,-7.241c-3.914,-2.545 -8.611,-5.284 -13.895,-7.828c-5.284,-2.545 -10.959,-5.089 -16.634,-7.633c-5.578,-2.642 -11.057,-5.382 -16.145,-8.317c-5.089,-2.936 -9.59,-6.067 -13.7,-9.785c-4.109,-3.523 -7.632,-7.632 -10.763,-11.938Z"/><path d="M2423.58,731.561c4.305,2.74 8.415,5.48 14.286,8.807c5.773,3.229 13.21,6.947 18.885,10.078c5.578,3.034 9.394,5.48 13.112,8.22c3.718,2.74 7.241,5.871 10.079,8.904c2.837,3.033 4.99,5.969 6.458,8.415c1.565,2.544 2.642,4.404 3.62,6.361c-2.935,-1.762 -5.871,-3.523 -9.589,-5.48c-3.718,-1.957 -8.415,-4.11 -12.916,-6.263c-4.501,-2.152 -8.905,-4.403 -13.21,-6.751c-4.208,-2.446 -8.415,-4.893 -11.938,-7.828c-3.62,-2.838 -6.556,-6.165 -8.904,-8.905c-2.349,-2.739 -3.914,-5.284 -5.48,-7.828c-1.565,-2.348 -2.935,-5.088 -4.403,-7.73Zm12.72,11.742c2.349,3.131 4.599,6.165 7.144,8.905c2.641,2.642 5.381,4.99 9.197,7.436c3.817,2.446 8.513,4.991 12.721,7.045c4.012,2.055 7.437,3.523 9.981,4.697c2.544,1.174 4.501,2.153 6.458,3.131c-1.761,-2.348 -3.621,-4.598 -6.165,-7.143c-2.544,-2.544 -5.675,-5.284 -8.904,-7.534c-3.229,-2.251 -6.458,-4.11 -9.687,-5.773c-3.131,-1.566 -6.165,-3.034 -8.709,-4.208c-2.544,-1.174 -4.501,-2.153 -6.36,-3.229c-1.762,-0.978 -3.719,-2.153 -5.676,-3.327Z"/><path d="M2533.17,833.521c1.957,-5.675 4.012,-11.252 5.48,-18.004c1.566,-6.85 2.74,-14.678 3.523,-23.484c0.685,-8.905 0.88,-18.494 -0.196,-28.181c-1.174,-9.59 -3.523,-18.983 -6.556,-26.909c-2.936,-8.024 -6.36,-14.384 -10.666,-20.059c-4.207,-5.578 -9.198,-10.373 -15.167,-14.776c-6.066,-4.305 -13.307,-8.219 -20.744,-11.742c-7.534,-3.425 -15.656,-6.458 -22.408,-9.296c-6.849,-2.74 -12.427,-5.186 -17.515,-7.73c-4.99,-2.446 -9.296,-4.99 -13.895,-7.828c-4.403,-2.838 -9.1,-6.165 -13.894,-9.394c2.739,7.046 5.381,14.189 9.491,21.234c3.914,7.045 9.296,14.188 15.754,20.646c6.556,6.556 14.384,12.623 22.506,19.179c8.121,6.556 16.536,13.797 23.875,21.136c7.339,7.143 13.993,14.384 19.277,22.408c5.186,7.925 9.1,16.928 12.035,25.93c2.838,9.1 4.991,18.494 6.361,26.322c1.272,7.926 2.054,14.188 2.739,20.548Zm1.957,-22.114c1.468,-7.339 2.936,-14.677 3.621,-22.212c0.587,-7.437 0.489,-14.971 -0.098,-22.212c-0.685,-7.143 -1.859,-13.993 -3.62,-19.864c-1.664,-5.969 -3.914,-11.155 -6.556,-16.145c-2.642,-4.99 -5.969,-9.883 -9.981,-14.482c-4.012,-4.599 -8.709,-8.709 -13.308,-12.133c-4.599,-3.425 -8.806,-6.067 -13.992,-8.709c-5.284,-2.74 -11.645,-5.382 -17.516,-7.926c-5.871,-2.544 -11.448,-4.99 -16.439,-7.241c-5.088,-2.348 -9.785,-4.501 -13.601,-6.36c-3.816,-1.859 -6.947,-3.621 -9.198,-4.893c-2.25,-1.272 -3.62,-2.25 -5.088,-3.327c1.272,2.838 2.544,5.676 4.501,9.003c1.957,3.522 4.501,7.436 8.024,11.742c3.523,4.305 8.024,8.806 12.525,12.916c4.403,4.012 8.904,7.73 13.601,11.253c4.697,3.522 9.589,7.045 14.873,11.155c5.48,4.11 11.449,8.708 16.928,13.601c5.48,4.893 10.275,10.079 13.895,15.069c3.621,4.99 6.165,9.883 8.709,15.95c2.642,5.968 5.382,13.405 7.534,21.037c2.055,7.731 3.621,15.754 5.186,23.778Z"/><path d="M2535.23,781.954c-0.098,-6.36 -0.293,-12.623 -1.37,-19.374c-1.174,-6.654 -3.229,-13.797 -5.577,-19.864c-2.544,-6.067 -5.186,-11.253 -8.807,-15.852c-3.62,-4.599 -7.73,-8.708 -12.72,-12.329c-4.991,-3.62 -10.568,-6.849 -16.146,-9.883c-5.577,-2.837 -11.057,-5.577 -15.753,-7.926c-4.697,-2.348 -8.611,-4.109 -12.036,-5.773c-3.425,-1.663 -6.263,-2.935 -9.198,-4.305c1.957,3.131 3.914,6.262 7.534,10.274c3.621,3.816 8.807,8.415 14.384,12.623c5.48,4.11 11.351,7.828 16.537,11.253c5.088,3.326 9.296,6.556 13.014,10.078c3.816,3.425 7.143,7.143 10.568,12.134c3.621,4.99 7.535,11.448 10.372,16.83c2.838,5.382 4.599,9.883 5.969,13.405c1.37,3.719 2.251,6.165 3.229,8.709Zm-4.599,-21.429c-1.37,-4.697 -2.74,-9.394 -4.305,-13.699c-1.566,-4.306 -3.523,-8.22 -5.969,-12.036c-2.446,-3.816 -5.48,-7.436 -8.904,-10.861c-3.327,-3.327 -7.144,-6.36 -11.058,-9.1c-4.011,-2.642 -8.219,-4.893 -12.72,-7.241c-4.501,-2.349 -9.394,-4.893 -13.699,-7.241c-4.403,-2.446 -8.317,-4.795 -12.329,-7.045c3.424,3.229 7.045,6.458 10.959,9.785c4.012,3.229 8.513,6.36 12.916,9.393c4.501,2.936 9.002,5.871 13.21,8.905c4.208,3.033 8.219,6.066 11.449,9.1c3.131,3.131 5.675,6.262 8.023,9.589c2.447,3.425 4.697,7.045 6.752,10.47c2.251,3.425 3.914,6.85 5.675,9.981Z"/><path d="M2554.8,831.858c3.229,-6.556 6.458,-12.916 9.1,-20.842c2.642,-7.926 4.502,-17.222 5.48,-27.594c0.881,-10.47 0.587,-21.919 -0.587,-31.704c-1.174,-9.785 -3.327,-18.004 -6.165,-25.343c-2.935,-7.437 -6.556,-13.993 -10.665,-19.864c-4.208,-5.773 -8.905,-10.861 -13.504,-14.677c-4.599,-3.816 -9.1,-6.36 -13.601,-9.1c4.99,4.99 9.981,9.981 14.384,15.558c4.403,5.577 8.22,11.742 11.644,18.885c3.621,7.143 6.85,15.265 9.003,24.071c2.152,8.807 3.326,18.396 3.522,27.203c0.098,8.904 -0.587,17.221 -1.565,25.049c-1.175,7.829 -2.642,15.167 -3.817,21.43c-1.272,6.36 -2.25,11.644 -3.229,16.928Z"/><path d="M2573.88,815.517c3.425,-1.859 6.85,-3.718 10.372,-6.654c3.425,-2.838 6.85,-6.85 9.296,-11.644c2.446,-4.795 4.11,-10.372 4.599,-16.341c0.391,-5.871 -0.196,-11.938 -1.761,-18.2c-1.566,-6.263 -4.11,-12.525 -8.22,-19.179c-4.207,-6.752 -10.078,-13.601 -16.047,-20.549c2.446,7.926 4.892,15.852 6.36,22.408c1.664,6.556 2.251,11.644 2.446,17.515c0.196,5.871 0,12.525 -0.685,19.668c-0.684,7.143 -1.663,14.776 -2.837,20.255c-1.174,5.676 -2.349,9.198 -3.523,12.721Zm6.556,-8.513c1.859,-1.468 3.621,-2.838 5.48,-5.088c1.957,-2.153 4.012,-4.991 5.479,-8.22c1.468,-3.229 2.447,-6.947 2.838,-11.253c0.294,-4.207 0,-9.002 -0.978,-13.699c-0.979,-4.697 -2.545,-9.589 -4.697,-14.09c-2.153,-4.501 -4.697,-8.807 -7.339,-13.014c1.272,4.99 2.348,9.98 3.033,15.362c0.685,5.578 0.783,11.547 0.783,17.222c-0.098,5.577 -0.293,11.057 -0.783,15.46c-0.489,4.404 -1.076,7.926 -1.761,10.764c-0.685,2.642 -1.272,4.599 -2.055,6.556Z"/><path d="M2524.86,858.082c-3.523,-5.284 -6.849,-10.568 -10.47,-15.558c-3.523,-4.893 -7.143,-9.296 -12.133,-13.895c-4.893,-4.501 -11.253,-8.905 -18.396,-12.916c-7.241,-3.914 -15.363,-7.339 -22.212,-9.492c-6.948,-2.251 -12.721,-3.523 -18.494,-4.795c3.523,2.936 6.947,5.774 10.568,9.003c3.522,3.131 7.241,6.653 10.274,9.883c3.033,3.229 5.382,6.36 7.73,9.295c-5.186,-1.663 -10.372,-3.522 -16.047,-6.066c-5.676,-2.545 -11.742,-5.871 -16.83,-10.568c-4.991,-4.795 -9.101,-10.862 -13.21,-17.516c-4.11,-6.653 -8.318,-13.601 -12.329,-19.178c-4.11,-5.676 -8.024,-9.785 -12.134,-13.308c-4.11,-3.522 -8.513,-6.36 -12.818,-9.1c3.131,3.718 6.262,7.437 9.785,13.699c3.62,6.36 7.436,15.265 10.959,24.658c3.523,9.394 6.556,19.277 10.372,27.986c3.816,8.708 8.22,16.047 13.699,22.114c5.48,6.067 12.134,10.763 20.06,14.188c7.828,3.327 17.026,5.284 26.419,6.263c9.394,0.782 19.179,0.587 26.713,-0.294c7.437,-0.978 12.917,-2.74 18.494,-4.403Zm-4.892,-2.349c-3.229,-4.599 -6.361,-9.1 -9.981,-13.699c-3.621,-4.599 -7.926,-9.295 -13.601,-13.601c-5.676,-4.305 -13.112,-8.219 -19.57,-11.155c-6.361,-2.838 -11.938,-4.697 -17.516,-6.556c3.131,3.327 6.361,6.752 9.492,10.274c3.131,3.523 6.262,7.241 8.317,9.883c2.055,2.642 3.229,4.208 4.305,5.676c-4.501,-0 -9.1,0.098 -14.09,-0.783c-4.893,-0.979 -10.274,-2.838 -15.167,-5.578c-4.794,-2.642 -9.002,-6.066 -12.818,-9.882c-3.816,-3.817 -7.241,-8.024 -11.547,-14.678c-4.305,-6.654 -9.589,-15.852 -13.405,-21.821c-3.621,-5.969 -5.773,-8.708 -7.535,-10.861c-1.859,-2.055 -3.424,-3.621 -5.088,-5.088c2.055,3.62 4.11,7.241 6.263,12.329c2.25,4.99 4.599,11.448 6.849,18.004c2.251,6.556 4.501,13.308 7.045,19.179c2.545,5.871 5.186,11.057 8.318,15.558c3.131,4.501 6.556,8.318 10.959,11.742c4.403,3.425 9.589,6.458 16.145,8.905c6.361,2.446 13.993,4.207 21.527,5.284c7.535,0.88 15.265,0.978 22.017,0.293c6.947,-0.685 13.014,-2.055 19.081,-3.425Z"/><path d="M2512.92,851.428c-2.446,-3.425 -5.088,-6.85 -8.513,-10.274c-3.327,-3.523 -7.436,-7.046 -11.35,-9.59c-3.914,-2.348 -7.828,-3.718 -11.547,-5.088c1.762,2.544 3.523,5.088 4.893,7.632c1.468,2.447 2.544,5.089 3.718,7.633c-3.522,0.391 -7.143,0.88 -11.644,0.685c-4.403,-0.098 -9.589,-0.783 -14.286,-1.957c-4.697,-1.175 -8.807,-2.936 -12.916,-5.089c-4.11,-2.152 -8.122,-4.598 -11.351,-6.849c-3.033,-2.251 -5.088,-4.11 -7.143,-6.36c-1.957,-2.153 -4.012,-4.599 -6.067,-7.046c1.468,3.425 2.838,6.948 4.99,10.666c2.153,3.718 4.991,7.73 8.611,11.351c3.621,3.62 7.828,6.849 12.721,9.198c4.795,2.446 10.078,4.012 17.026,5.088c6.947,1.076 15.558,1.663 22.897,1.566c7.534,-0.098 13.797,-0.881 19.961,-1.566Zm-9.491,-4.012c-1.859,-2.446 -3.621,-4.795 -5.675,-6.849c-1.957,-1.957 -4.306,-3.523 -6.459,-5.089c0.881,1.468 1.664,2.838 2.447,4.404c0.587,1.565 1.174,3.131 1.663,4.794c-3.327,0.392 -6.752,0.881 -10.959,0.979c-4.306,0.195 -9.1,0.098 -13.601,-0.294c-4.404,-0.489 -8.318,-1.272 -12.427,-2.837c-4.11,-1.37 -8.416,-3.719 -12.917,-5.871c3.914,2.739 7.731,5.381 12.33,7.24c4.598,1.86 9.785,3.132 15.46,3.719c5.675,0.587 12.036,0.685 17.026,0.587c5.382,-0.098 9.296,-0.489 13.112,-0.783Z"/><path d="M2525.93,866.595c-5.283,0.978 -10.47,1.859 -15.753,2.446c-5.284,0.587 -10.666,0.881 -16.244,0.783c-5.577,-0.098 -11.644,-0.685 -17.026,-1.566c-5.381,-0.88 -10.176,-2.152 -15.069,-3.327c1.86,1.859 3.817,3.816 6.263,5.284c2.25,1.468 4.99,2.642 7.632,3.719c-2.153,0.391 -4.403,0.88 -7.241,1.761c-2.837,0.881 -6.36,2.055 -9.296,3.425c-3.033,1.272 -5.283,2.739 -7.73,4.207c4.012,1.664 8.122,3.229 13.21,4.208c5.088,0.978 11.253,1.272 17.515,0.489c6.263,-0.783 12.525,-2.544 17.613,-4.501c5.186,-2.055 9.296,-4.208 13.504,-7.241c4.207,-2.838 8.415,-6.262 12.622,-9.687Zm-12.035,4.794c-3.718,0.392 -7.339,0.881 -10.666,1.077c-3.229,0.293 -5.969,0.293 -9.002,0.196c-3.033,-0.098 -6.067,-0.196 -9.198,-0.588c1.272,0.881 2.544,1.566 3.523,2.545c0.978,0.782 1.957,1.565 2.739,2.348c-2.348,-0.196 -4.696,-0.391 -7.045,-0.391c-2.446,0.097 -4.892,0.391 -7.73,0.684c-2.74,0.392 -5.773,1.077 -8.513,2.055c-2.642,0.881 -4.99,2.055 -7.339,3.229c3.034,0.685 6.067,1.566 10.666,1.664c4.501,0.196 10.47,-0.294 15.852,-1.37c5.381,-1.076 10.176,-2.74 14.579,-4.795c4.502,-1.957 8.318,-4.207 12.134,-6.654Z"/></g></g></svg>